<?xml version="1.0" encoding="utf-8"?>
<!-- Generator: Adobe Illustrator 21.0.2, SVG Export Plug-In . SVG Version: 6.00 Build 0)  -->
<svg version="1.1" id="Layer_1" xmlns="http://www.w3.org/2000/svg" xmlns:xlink="http://www.w3.org/1999/xlink" x="0px" y="0px"
	 viewBox="0 0 557.5 571.4" style="enable-background:new 0 0 557.5 571.4;" xml:space="preserve">
<style type="text/css">
	.st0{fill:none;stroke:#000000;stroke-linecap:round;stroke-miterlimit:10;}
	.st1{fill:#F05052;}
</style>
<g>
	<line class="st0" x1="254.5" y1="104.8" x2="305.2" y2="419.5"/>
	<line class="st0" x1="160.5" y1="40.3" x2="232.6" y2="492.1"/>
	<line class="st0" x1="324.9" y1="24.9" x2="378.2" y2="346.6"/>
	<line class="st0" x1="409.3" y1="3.1" x2="452.9" y2="271.9"/>
	<line class="st0" x1="22.1" y1="223.1" x2="433.8" y2="155.4"/>
	<line class="st0" x1="191.5" y1="235.9" x2="273.5" y2="222.5"/>
	<line class="st0" x1="1.1" y1="309.4" x2="447.2" y2="237"/>
	<line class="st0" x1="70.9" y1="383.6" x2="376.2" y2="334.3"/>
	<line class="st0" x1="156.5" y1="568.2" x2="555.1" y2="169.6"/>
	<line class="st0" x1="314.9" y1="410" x2="389.9" y2="485"/>
	<path class="st0" d="M305.3,420"/>
	<line class="st0" x1="378.2" y1="346.5" x2="481.8" y2="450.2"/>
	<line class="st0" x1="438.2" y1="286.7" x2="513.1" y2="361.6"/>
	<line class="st0" x1="497.4" y1="227.3" x2="548.2" y2="278"/>
</g>
<g>
	<path d="M232,523.6l-4.4-2.2c-0.4-0.2-1-0.6-1-0.6l0,0c0,0,0.6,0.6,1,1l3.1,3.1l-0.6,0.6l-4.8-4.8l0.9-0.9l4.4,2.2
		c0.4,0.2,0.8,0.4,1,0.5c-0.1-0.1-0.3-0.5-0.5-1l-2.2-4.3l0.9-0.9l4.8,4.8l-0.6,0.6l-3.1-3.1c-0.4-0.4-1-1-1-1l0,0
		c0,0,0.4,0.7,0.6,1l2.3,4.4L232,523.6z"/>
	<path d="M236.7,519l-0.6,0.7l-3.1-6.5l0.7-0.7l6.5,3.1l-0.7,0.7l-1.9-0.9l-1.8,1.8L236.7,519z M234.7,513.9
		c-0.3-0.2-0.6-0.3-0.8-0.4l0,0c0.1,0.2,0.2,0.4,0.4,0.8l1,2.1l1.5-1.5L234.7,513.9z"/>
	<path d="M242.2,513.4l-0.6,0.6l-4.8-4.8l1.8-1.8c0.5-0.5,0.8-0.7,1.1-0.9c0.7-0.3,1.4-0.2,2,0.4c0.8,0.8,0.7,1.7,0.1,2.6l3.4,0.7
		l-0.8,0.8l-3.4-0.7l-1,1L242.2,513.4z M240.7,509.7c0.4-0.4,0.6-0.7,0.7-0.9c0.1-0.4,0-0.8-0.3-1.1c-0.3-0.3-0.7-0.4-1.1-0.3
		c-0.2,0.1-0.5,0.3-0.9,0.7l-1.1,1.1l1.7,1.6L240.7,509.7z"/>
	<path d="M250.8,504.8l-0.8,0.8l-4.2-0.8l0,1.8l1.5,1.5l-0.6,0.6L242,504l0.6-0.6l2.5,2.5L245,501l0.8-0.8l0,3.8L250.8,504.8z"/>
	<path d="M255.5,500l-3.3,3.4l-4.8-4.8l3.2-3.2l0.6,0.6l-2.6,2.6l1.5,1.5l2.3-2.4l0.6,0.6l-2.3,2.4l1.6,1.6l2.7-2.7L255.5,500z"/>
	<path d="M251.8,494.1l3.6-3.6l0.6,0.6l-1.5,1.5l4.3,4.2l-0.6,0.6l-4.3-4.2l-1.5,1.5L251.8,494.1z"/>
	<path d="M266.4,481.8c-0.7-0.1-1.4,0.1-1.9,0.7c-0.6,0.6-0.7,1.3-0.3,1.8c0.4,0.4,0.8,0.3,1.6-0.1l0.8-0.5c1-0.6,1.9-0.9,2.7-0.1
		c0.9,0.9,0.6,2.2-0.4,3.2c-0.9,0.9-2,1.2-2.9,0.9l0.1-0.9c0.7,0.2,1.5,0.1,2.2-0.7c0.6-0.6,0.9-1.4,0.3-2c-0.5-0.5-1-0.3-1.8,0.2
		l-0.7,0.4c-0.9,0.5-1.7,0.9-2.6,0.1c-0.9-0.9-0.6-2.1,0.3-3c0.9-0.9,1.9-1,2.5-0.9L266.4,481.8z"/>
	<path d="M266.8,479.1l3.6-3.6l0.6,0.6l-1.5,1.5l4.3,4.2l-0.6,0.6l-4.3-4.2l-1.5,1.5L266.8,479.1z"/>
	<path d="M275.7,478.2l0.8,0.8l-0.7,0.7l-0.8-0.8L275.7,478.2z"/>
</g>
<g>
	<path d="M181.5,76.8l6.7-1.1l0.4,2.6c0.1,0.8,0.1,1.1,0,1.5c-0.2,0.6-0.7,1-1.4,1.1c-0.7,0.1-1.3-0.2-1.6-0.8
		c-0.1,0.8-0.6,1.4-1.4,1.5c-0.8,0.1-1.4-0.1-1.8-0.7c-0.2-0.3-0.4-0.7-0.6-1.5L181.5,76.8z M182.4,77.5l0.3,1.8
		c0.1,0.6,0.2,0.9,0.3,1c0.2,0.4,0.7,0.6,1.2,0.5c0.4-0.1,0.7-0.3,0.9-0.6c0.1-0.4,0.1-0.8,0-1.2l-0.3-1.8L182.4,77.5z M187.8,79.4
		c0.1-0.2,0.1-0.5,0-1l-0.3-1.7l-2.1,0.3l0.3,1.7c0.1,0.6,0.2,0.8,0.3,1c0.2,0.3,0.6,0.5,1,0.4C187.4,80,187.7,79.7,187.8,79.4z"/>
	<path d="M182.7,84.5l-0.1-0.9l7.1,1.3l0.2,1l-6.3,3.4l-0.2-0.9l1.8-1l-0.4-2.5L182.7,84.5z M188,85.9c0.3-0.2,0.6-0.3,0.7-0.4l0,0
		c-0.2,0-0.5-0.1-0.8-0.1l-2.3-0.4l0.3,2L188,85.9z"/>
	<path d="M190.3,89l0.8,5l-0.8,0.1l-0.3-2.1l-5.9,1l-0.1-0.9l5.9-1l-0.3-2.1L190.3,89z"/>
	<path d="M191.4,95.4l0.8,5l-0.8,0.1l-0.3-2.1l-5.9,1l-0.1-0.9l5.9-1l-0.3-2.1L191.4,95.4z"/>
	<path d="M186.5,108.3l-0.8-4.7l6.7-1.1l0.7,4.5l-0.8,0.1l-0.6-3.6l-2.1,0.3l0.5,3.3l-0.8,0.1L189,104l-2.3,0.4l0.6,3.8L186.5,108.3
		z"/>
	<path d="M187.1,111.6l-0.1-0.9l6.7-1.1l0.4,2.5c0.1,0.7,0.1,1.1,0,1.4c-0.2,0.7-0.7,1.2-1.6,1.4c-1.1,0.2-1.8-0.4-2.1-1.4l-2.6,2.4
		l-0.2-1.1l2.6-2.3l-0.2-1.4L187.1,111.6z M191,112.6c0.1,0.6,0.2,0.9,0.4,1.1c0.2,0.3,0.6,0.5,1.1,0.4c0.5-0.1,0.8-0.3,0.9-0.8
		c0.1-0.3,0.1-0.5,0-1.2l-0.2-1.5l-2.3,0.4L191,112.6z"/>
	<path d="M188.5,120.5l-0.1-0.9l2.7-0.4l3.6-3.1l0.2,1l-2.8,2.4l3.5,1.5l0.2,1l-4.4-1.9L188.5,120.5z"/>
	<path d="M195.6,131.9c0.5-0.5,0.7-1.2,0.6-2c-0.1-0.8-0.6-1.4-1.3-1.2c-0.6,0.1-0.8,0.5-0.8,1.3L194,131c-0.1,1.2-0.4,2.1-1.6,2.3
		c-1.3,0.2-2.2-0.8-2.4-2.2c-0.2-1.3,0.2-2.3,0.9-2.9l0.6,0.6c-0.5,0.4-0.9,1.2-0.8,2.2c0.1,0.9,0.6,1.5,1.4,1.4
		c0.7-0.1,0.8-0.7,0.9-1.6l0.1-0.9c0.1-1,0.3-1.9,1.5-2.1c1.2-0.2,2.1,0.8,2.3,2c0.2,1.3-0.3,2.1-0.7,2.6L195.6,131.9z"/>
	<path d="M197.5,133.9l0.8,5l-0.8,0.1l-0.3-2.1l-5.9,1l-0.1-0.9l5.9-1l-0.3-2.1L197.5,133.9z"/>
	<path d="M193,141.5l-1.1,0.2l-0.2-0.9l1.1-0.2L193,141.5z"/>
</g>
<g>
	<path d="M345.8,59l6.7-1.1l0.3,1.6c0.2,1.1,0.3,1.8-0.1,2.5c-0.4,0.8-1.4,1.5-2.6,1.7c-1.1,0.2-2.1,0-2.8-0.6
		c-0.8-0.6-0.9-1.3-1.1-2.6L345.8,59z M346.7,59.7l0.1,0.9c0.1,0.8,0.2,1.4,0.7,1.8c0.4,0.4,1.3,0.6,2.3,0.4c0.9-0.1,1.7-0.6,2-1.2
		c0.3-0.5,0.3-1.1,0.1-2l-0.1-0.8L346.7,59.7z"/>
	<path d="M347.1,66.8l-0.1-0.9l7.1,1.3l0.2,1l-6.3,3.4l-0.2-0.9l1.8-1l-0.4-2.5L347.1,66.8z M352.3,68.2c0.3-0.2,0.6-0.3,0.7-0.4
		l0,0c-0.2,0-0.5-0.1-0.8-0.1l-2.3-0.4l0.3,2L352.3,68.2z"/>
	<path d="M350.3,74.7c-0.2,0.1-0.5,0.3-0.7,0.4l0,0c0.2,0,0.5,0.1,0.8,0.1l5.1,0.9l0.1,0.9l-7.1-1.3l-0.1-0.9l6.3-3.4l0.1,0.9
		L350.3,74.7z"/>
	<path d="M349.4,81l-0.1-0.9l6.7-1.1l0.1,0.9L349.4,81z"/>
	<path d="M355.6,86.8c0.5-0.5,0.7-1.2,0.6-2c-0.1-0.8-0.6-1.4-1.3-1.2c-0.6,0.1-0.8,0.5-0.8,1.4l-0.1,0.9c-0.1,1.2-0.4,2.1-1.6,2.3
		c-1.3,0.2-2.2-0.8-2.4-2.2c-0.2-1.3,0.2-2.3,0.9-2.9l0.6,0.6c-0.5,0.4-0.9,1.2-0.8,2.2c0.1,0.9,0.6,1.5,1.4,1.4
		c0.7-0.1,0.8-0.7,0.9-1.6l0.1-0.9c0.1-1,0.3-1.9,1.5-2.1c1.2-0.2,2.1,0.8,2.3,2c0.2,1.3-0.3,2.1-0.7,2.6L355.6,86.8z"/>
	<path d="M357.3,97.8c0.5-0.5,0.7-1.2,0.6-2c-0.1-0.8-0.6-1.4-1.3-1.2c-0.6,0.1-0.8,0.5-0.8,1.4l-0.1,0.9c-0.1,1.2-0.4,2.1-1.6,2.3
		c-1.3,0.2-2.2-0.8-2.4-2.2c-0.2-1.3,0.2-2.3,0.9-2.9l0.6,0.6c-0.5,0.4-0.9,1.2-0.8,2.2c0.1,0.9,0.6,1.5,1.4,1.4
		c0.7-0.1,0.8-0.7,0.9-1.6l0.1-0.9c0.1-1,0.3-1.9,1.5-2.1c1.2-0.2,2.1,0.8,2.3,2c0.2,1.3-0.3,2.1-0.7,2.6L357.3,97.8z"/>
	<path d="M359.2,99.7l0.8,5l-0.8,0.1l-0.3-2.1l-5.9,1l-0.1-0.9l5.9-1l-0.3-2.1L359.2,99.7z"/>
	<path d="M354.8,107.4l-1.1,0.2l-0.2-0.9l1.1-0.2L354.8,107.4z"/>
</g>
<g>
	<path d="M61,233.6c-0.5-0.5-1.2-0.7-2-0.6c-0.8,0.1-1.3,0.6-1.2,1.3c0.1,0.6,0.5,0.8,1.4,0.8l0.9,0.1c1.2,0.1,2.1,0.4,2.3,1.6
		c0.2,1.3-0.8,2.2-2.2,2.4c-1.3,0.2-2.3-0.2-2.9-0.9l0.6-0.6c0.4,0.5,1.2,0.9,2.2,0.8c0.9-0.1,1.5-0.6,1.4-1.4
		c-0.1-0.7-0.7-0.8-1.6-0.9l-0.9-0.1c-1-0.1-1.9-0.3-2.1-1.5c-0.2-1.2,0.8-2.1,2-2.3c1.3-0.2,2.1,0.2,2.6,0.7L61,233.6z"/>
	<path d="M64.9,238.3l-0.9,0.1l1.3-7.1l1-0.2l3.5,6.3l-0.9,0.2l-1-1.8l-2.5,0.4L64.9,238.3z M66.3,233.1c-0.2-0.3-0.3-0.6-0.4-0.7
		l0,0c0,0.2-0.1,0.5-0.1,0.8l-0.4,2.3l2-0.3L66.3,233.1z"/>
	<path d="M76.7,234.8c-0.3,1.1-1.1,1.9-2.4,2.1c-1.8,0.3-3.3-0.8-3.6-3c-0.3-2,0.6-3.7,2.5-4c1.2-0.2,2.2,0.2,2.8,1.1l-0.7,0.6
		c-0.5-0.8-1.2-1.1-2.1-1c-1.3,0.2-2,1.4-1.7,3.1c0.3,1.6,1.3,2.6,2.6,2.4c0.9-0.1,1.4-0.7,1.6-1.6L76.7,234.8z"/>
	<path d="M80.1,235.8l-0.9,0.1l-1.1-6.7l2.5-0.4c0.7-0.1,1.1-0.1,1.4,0c0.7,0.2,1.2,0.7,1.4,1.5c0.2,1.1-0.4,1.8-1.4,2.2l2.4,2.6
		l-1.1,0.2l-2.3-2.6l-1.4,0.2L80.1,235.8z M81.1,231.9c0.6-0.1,0.9-0.2,1.1-0.4c0.3-0.2,0.5-0.6,0.4-1.1c-0.1-0.5-0.4-0.8-0.8-0.9
		c-0.3-0.1-0.5-0.1-1.2,0l-1.5,0.2l0.4,2.3L81.1,231.9z"/>
	<path d="M91.4,234l-4.7,0.8l-1.1-6.7l4.5-0.7l0.1,0.8l-3.6,0.6l0.3,2.1l3.3-0.5l0.1,0.8l-3.3,0.5l0.4,2.3l3.8-0.6L91.4,234z"/>
	<path d="M96.5,233.1l-2.3-4.3c-0.2-0.4-0.5-1.1-0.5-1.1l0,0c0,0,0.1,0.8,0.2,1.4l0.7,4.3l-0.8,0.1l-1.1-6.7l1.2-0.2l2.3,4.3
		c0.2,0.4,0.4,0.8,0.5,1c0-0.2,0.1-0.6,0.1-1.1l0.7-4.8l1.3-0.2l1.1,6.7l-0.8,0.1l-0.7-4.4c-0.1-0.6-0.2-1.4-0.2-1.4l0,0
		c0,0-0.1,0.8-0.1,1.2l-0.7,4.9L96.5,233.1z"/>
	<path d="M107.4,231.3l-4.7,0.8l-1.1-6.7l4.5-0.7l0.1,0.8l-3.6,0.6l0.3,2.1l3.3-0.5l0.1,0.8l-3.3,0.5l0.4,2.3l3.8-0.6L107.4,231.3z"
		/>
	<path d="M113.5,228.1c0.3,0.3,0.6,0.6,0.6,0.7l0,0c0,0-0.1-0.5-0.2-1.1l-0.7-4.2l0.9-0.1l1.1,6.7l-0.9,0.1l-3.9-4
		c-0.2-0.2-0.6-0.7-0.7-0.7l0,0c0,0,0.1,0.4,0.2,0.8l0.7,4.5l-0.9,0.1l-1.1-6.7l0.9-0.1L113.5,228.1z"/>
	<path d="M116.3,223l5-0.8l0.1,0.8l-2.1,0.3l1,5.9l-0.9,0.1l-1-5.9l-2.1,0.3L116.3,223z"/>
	<path d="M125.6,221.3c1.9-0.3,3.3,0.9,3.6,3c0.3,2-0.6,3.7-2.5,4c-1.9,0.3-3.3-0.9-3.6-3C122.8,223.2,123.7,221.6,125.6,221.3z
		 M126.6,227.5c1.3-0.2,2-1.4,1.7-3.1c-0.3-1.6-1.2-2.6-2.6-2.4c-1.3,0.2-2,1.4-1.7,3.1C124.3,226.8,125.3,227.7,126.6,227.5z"/>
	<path d="M143.1,220.2c-0.5-0.5-1.2-0.7-2-0.6c-0.8,0.1-1.3,0.6-1.2,1.3c0.1,0.6,0.5,0.8,1.4,0.8l0.9,0.1c1.2,0.1,2.1,0.4,2.3,1.6
		c0.2,1.3-0.8,2.2-2.2,2.4c-1.3,0.2-2.3-0.2-2.9-0.9l0.6-0.6c0.4,0.5,1.2,0.9,2.2,0.8c0.9-0.1,1.5-0.6,1.4-1.4
		c-0.1-0.7-0.7-0.8-1.6-0.9l-0.9-0.1c-1-0.1-1.9-0.3-2.1-1.5c-0.2-1.2,0.8-2.1,2-2.3c1.3-0.2,2.1,0.2,2.6,0.7L143.1,220.2z"/>
	<path d="M145,218.2l5-0.8l0.1,0.8l-2.1,0.3l1,5.9l-0.9,0.1l-1-5.9l-2.1,0.3L145,218.2z"/>
	<path d="M152.7,222.7l0.2,1.1L152,224l-0.2-1.1L152.7,222.7z"/>
</g>
<g>
	<path d="M86.4,316.1c-0.3,1.1-1.1,1.9-2.4,2.1c-1.8,0.3-3.3-0.8-3.6-3c-0.3-2,0.6-3.7,2.5-4c1.2-0.2,2.2,0.2,2.8,1.1L85,313
		c-0.5-0.8-1.2-1.1-2.1-1c-1.3,0.2-2,1.4-1.7,3.1c0.3,1.6,1.3,2.6,2.6,2.4c0.9-0.1,1.4-0.7,1.6-1.6L86.4,316.1z"/>
	<path d="M88.9,317.3l-0.9,0.2l1.3-7.1l1-0.2l3.5,6.3l-0.9,0.2l-1-1.8l-2.5,0.4L88.9,317.3z M90.3,312c-0.2-0.3-0.3-0.6-0.4-0.7l0,0
		c0,0.2-0.1,0.5-0.1,0.8l-0.4,2.3l2-0.3L90.3,312z"/>
	<path d="M100,315.5l-4.2,0.7l-1.1-6.7l0.9-0.1l1,5.9l3.3-0.5L100,315.5z"/>
	<path d="M103.1,314.9l-0.9,0.1l-1.1-6.7l0.9-0.1L103.1,314.9z"/>
	<path d="M106,314.5l-1.1-6.7l4.4-0.7l0.1,0.8l-3.6,0.6l0.3,2.1l3.2-0.5l0.1,0.8l-3.2,0.5l0.5,3.1L106,314.5z"/>
	<path d="M114.1,306.1c1.9-0.3,3.3,0.9,3.6,3s-0.6,3.7-2.5,4c-1.9,0.3-3.3-0.9-3.6-3C111.3,308.1,112.3,306.4,114.1,306.1z
		 M115.1,312.3c1.3-0.2,2-1.4,1.7-3.1c-0.3-1.6-1.2-2.6-2.6-2.4s-2,1.4-1.7,3.1C112.8,311.6,113.8,312.5,115.1,312.3z"/>
	<path d="M121.6,311.9l-0.9,0.1l-1.1-6.7l2.5-0.4c0.7-0.1,1.1-0.1,1.4,0c0.7,0.2,1.2,0.7,1.4,1.5c0.2,1.1-0.4,1.8-1.4,2.2l2.4,2.6
		l-1.1,0.2l-2.3-2.6l-1.4,0.2L121.6,311.9z M122.6,308c0.6-0.1,0.9-0.2,1.1-0.4c0.3-0.2,0.5-0.6,0.4-1.1c-0.1-0.5-0.4-0.8-0.8-0.9
		c-0.3-0.1-0.5-0.1-1.2,0l-1.5,0.2l0.4,2.3L122.6,308z"/>
	<path d="M131.8,308c0.3,0.3,0.6,0.6,0.6,0.7l0,0c0,0-0.1-0.5-0.2-1.1l-0.7-4.2l0.9-0.1l1.1,6.7l-0.9,0.1l-3.9-4
		c-0.2-0.2-0.6-0.7-0.7-0.7l0,0c0,0,0.1,0.4,0.2,0.8l0.7,4.5l-0.9,0.1l-1.1-6.7l0.9-0.1L131.8,308z"/>
	<path d="M137.2,309.3l-0.9,0.1l-1.1-6.7l0.9-0.1L137.2,309.3z"/>
	<path d="M140.2,308.8l-0.9,0.1l1.3-7.1l1-0.2l3.5,6.3l-0.9,0.2l-1-1.8l-2.5,0.4L140.2,308.8z M141.6,303.6
		c-0.2-0.3-0.3-0.6-0.4-0.7l0,0c0,0.2-0.1,0.5-0.1,0.8l-0.4,2.3l2-0.3L141.6,303.6z"/>
	<path d="M158,300.6c-0.5-0.5-1.2-0.7-2-0.6c-0.8,0.1-1.3,0.6-1.2,1.3c0.1,0.6,0.5,0.8,1.4,0.8l0.9,0.1c1.2,0.1,2.1,0.4,2.3,1.6
		c0.2,1.3-0.8,2.2-2.2,2.4c-1.3,0.2-2.3-0.2-2.9-0.9l0.6-0.6c0.4,0.5,1.2,0.9,2.2,0.8c0.9-0.1,1.5-0.6,1.4-1.4
		c-0.1-0.7-0.7-0.8-1.6-0.9L156,303c-1-0.1-1.9-0.3-2.1-1.5c-0.2-1.2,0.8-2.1,2-2.3c1.3-0.2,2.1,0.2,2.6,0.7L158,300.6z"/>
	<path d="M159.9,298.7l5-0.8l0.1,0.8l-2.1,0.3l1,5.9l-0.9,0.1l-1-5.9l-2.1,0.3L159.9,298.7z"/>
	<path d="M167.6,303.2l0.2,1.1l-0.9,0.2l-0.2-1.1L167.6,303.2z"/>
</g>
<circle class="st1" cx="340.4" cy="230.7" r="6.1"/>
</svg>
