<!-- Generated by IcoMoon.io -->
<svg version="1.1" xmlns="http://www.w3.org/2000/svg" width="32" height="32" viewBox="0 0 32 32">
<title>linkedin</title>
<path d="M0.471 10.635h6.682v21.365h-6.682v-21.365z"></path>
<path d="M3.765 7.718c-2.165 0-3.859-1.694-3.859-3.859 0-2.071 1.694-3.859 3.859-3.859s3.859 1.694 3.859 3.859-1.694 3.859-3.859 3.859z"></path>
<path d="M32 32h-6.682v-10.353c0-2.447-0.094-5.647-3.482-5.647-3.482 0-3.953 2.729-3.953 5.459v10.541h-6.588v-21.365h6.4v2.918h0.094c0.847-1.694 3.012-3.482 6.306-3.482 6.682 0 8 4.424 8 10.165l-0.094 11.765z"></path>
</svg>
