<!-- Generated by IcoMoon.io -->
<svg version="1.1" xmlns="http://www.w3.org/2000/svg" width="32" height="32" viewBox="0 0 32 32">
<title>twitter</title>
<path d="M31.812 6.212c-1.129 0.565-2.447 0.847-3.765 1.035 1.318-0.847 2.353-2.071 2.824-3.576-1.224 0.753-2.635 1.318-4.141 1.6-1.224-1.224-2.918-2.071-4.8-2.071-3.576 0-6.494 2.918-6.494 6.494 0 0.471 0.094 1.035 0.188 1.506-5.271-0.376-10.071-2.918-13.365-6.871-0.565 0.941-0.847 2.071-0.847 3.294 0 2.259 1.129 4.235 2.918 5.459-1.035 0-2.071-0.282-2.918-0.847v0.094c0 3.2 2.259 5.835 5.271 6.4-0.565 0.188-1.129 0.188-1.694 0.188-0.376 0-0.847 0-1.224-0.094 0.847 2.541 3.2 4.518 6.118 4.518-2.259 1.788-5.082 2.824-8.094 2.824-0.565 0-1.035 0-1.6-0.094 2.918 1.882 6.306 2.918 9.976 2.918 11.953 0 18.541-9.882 18.541-18.541 0-0.282 0-0.565 0-0.847 1.129-0.941 2.259-2.071 3.106-3.388z"></path>
</svg>
