<?xml version="1.0" standalone="no"?>
<!DOCTYPE svg PUBLIC "-//W3C//DTD SVG 1.1//EN" "http://www.w3.org/Graphics/SVG/1.1/DTD/svg11.dtd" >
<svg xmlns="http://www.w3.org/2000/svg" xmlns:xlink="http://www.w3.org/1999/xlink" version="1.1">
<metadata></metadata>
<defs>
<font id="helvetiusitalic" horiz-adv-x="500" >
<font-face units-per-em="1000" ascent="773" descent="-227" />
<missing-glyph horiz-adv-x="250" />
<glyph unicode="&#xfb00;" horiz-adv-x="576" d="M484 420l-75 -271q-43 -156 -85 -238t-92 -114q-37 -24 -88 -24q-38 0 -61 16t-23 43q0 20 14 34t32 14q22 0 40 -17q3 -42 39 -42q19 0 33 10.5t34.5 56t42.5 130.5l104 402h-173l-81 -291q-41 -148 -90.5 -229t-122.5 -112q-35 -15 -88 -15q-47 0 -72 16.5t-25 44.5 q0 21 13.5 34.5t34.5 13.5q24 0 42 -17q3 -49 53 -49q20 0 37.5 10t39 37t44.5 84.5t45 142.5l85 330h-71l11 37l75 13q47 191 165 237q31 12 65 12q77 0 124 -50q35 33 78 50q27 10 62 10q42 0 71 -16q37 -21 37 -59q0 -22 -13.5 -36t-38.5 -14q-26 0 -41 22q5 17 5 30 q0 36 -37 36q-34 0 -65.5 -38t-60.5 -144l-11 -40h122l-15 -50h-119zM256 536l-18 -66h176q4 12 10.5 32t9.5 28.5t7.5 22.5t6 21t4 15.5t3 15t0.5 12.5q0 30 -17.5 47.5t-51.5 17.5q-44 0 -76 -34t-54 -112z" />
<glyph unicode="&#xfb01;" horiz-adv-x="532" d="M226 420l-81 -291q-41 -148 -90.5 -229t-122.5 -112q-35 -15 -88 -15q-47 0 -72 16.5t-25 44.5q0 21 13.5 34.5t34.5 13.5q24 0 42 -17q3 -49 53 -49q20 0 37.5 10t39 37t44.5 84.5t45 142.5l85 330h-71l11 37l75 13l7 22q26 83 60 129q81 108 204 108q69 0 106 -21 q45 -25 45 -69q0 -25 -15 -41t-42 -16q-30 0 -47 24q6 22 6 34q0 24 -16 38t-45 14q-55 0 -100 -45.5t-70 -136.5l-11 -40h99l163 12l21 -15q-41 -102 -65 -169l-62 -179q-10 -28 -10 -49q0 -19 27 -19q28 0 67 13l25 8l13 -29q-86 -55 -157 -55q-65 0 -65 48q0 30 16 74 l111 310h-195z" />
<glyph unicode="&#xfb02;" horiz-adv-x="532" d="M321 152l91 268h-186l-81 -291q-41 -148 -90.5 -229t-122.5 -112q-35 -15 -88 -15q-47 0 -72 16.5t-25 44.5q0 21 13.5 34.5t34.5 13.5q24 0 42 -17q3 -49 53 -49q20 0 37.5 10t39 37t44.5 84.5t45 142.5l85 330h-71l11 37l75 13l7 22q26 83 60 129q81 108 204 108 q66 0 105 -32l40 32l21 -15q-31 -87 -58 -169l-131 -393q-19 -58 -19 -81q0 -30 38 -30q9 0 37 4l23 3l4 -28q-66 -32 -115 -32q-35 0 -54 18.5t-19 47.5q0 32 22 98zM249 510l-11 -40h191l21 59q25 74 25 99q0 62 -59 62q-54 0 -98 -44.5t-69 -135.5z" />
<glyph unicode="&#xfb03;" horiz-adv-x="790" d="M517 661q74 68 168 68q69 0 106 -21q45 -25 45 -69q0 -25 -15 -41t-42 -16q-30 0 -47 24q6 22 6 34q0 24 -16 38t-45 14q-55 0 -100 -45.5t-70 -136.5l-11 -40h99l163 12l21 -15q-41 -102 -65 -169l-62 -179q-10 -28 -10 -49q0 -19 27 -19q28 0 67 13l25 8l13 -29 q-86 -55 -157 -55q-65 0 -65 48q0 30 16 74l111 310h-195l-75 -271q-79 -289 -177 -352q-37 -24 -88 -24q-38 0 -61 16t-23 43q0 20 14 34t32 14q22 0 40 -17q3 -42 39 -42q19 0 33 10.5t34.5 56t42.5 130.5l104 402h-173l-81 -291q-41 -148 -90.5 -229t-122.5 -112 q-35 -15 -88 -15q-47 0 -72 16.5t-25 44.5q0 21 13.5 34.5t34.5 13.5q24 0 42 -17q3 -49 53 -49q20 0 37.5 10t39 37t44.5 84.5t45 142.5l85 330h-71l11 37l75 13q47 191 165 237q31 12 65 12q80 0 131 -58zM256 536l-18 -66h176q4 12 10.5 32t9.5 28.5t7.5 22.5t6 21 t4 15.5t3 15t0.5 12.5q0 30 -17.5 47.5t-51.5 17.5q-44 0 -76 -34t-54 -112z" />
<glyph unicode="&#xfb04;" horiz-adv-x="790" d="M256 536l-18 -66h176q4 12 10.5 32t9.5 28.5t7.5 22.5t6 21t4 15.5t3 15t0.5 12.5q0 30 -17.5 47.5t-51.5 17.5q-44 0 -76 -34t-54 -112zM517 661q74 68 168 68q66 0 105 -32l40 32l21 -15q-31 -87 -58 -169l-131 -393q-19 -58 -19 -81q0 -30 38 -30q9 0 37 4l23 3l4 -28 q-66 -32 -115 -32q-35 0 -54 18.5t-19 47.5q0 32 22 98l91 268h-186l-75 -271q-43 -156 -85 -238t-92 -114q-37 -24 -88 -24q-38 0 -61 16t-23 43q0 20 14 34t32 14q22 0 40 -17q3 -42 39 -42q19 0 33 10.5t34.5 56t42.5 130.5l104 402h-173l-81 -291q-41 -148 -90.5 -229 t-122.5 -112q-35 -15 -88 -15q-47 0 -72 16.5t-25 44.5q0 21 13.5 34.5t34.5 13.5q24 0 42 -17q3 -49 53 -49q20 0 37.5 10t39 37t44.5 84.5t45 142.5l85 330h-71l11 37l75 13q47 191 165 237q31 12 65 12q80 0 131 -58zM687 470l21 59q25 74 25 99q0 62 -59 62 q-54 0 -98 -44.5t-69 -135.5l-11 -40h191z" />
<glyph unicode="fb" horiz-adv-x="798" d="M485 -12q-103 0 -170 79l105 353h-194l-81 -291q-41 -148 -90.5 -229t-122.5 -112q-35 -15 -88 -15q-47 0 -72 16.5t-25 44.5q0 21 13.5 34.5t34.5 13.5q24 0 42 -17q3 -49 53 -49q20 0 37.5 10t39 37t44.5 84.5t45 142.5l85 330h-71l11 37l75 13l7 22q26 83 60 129 q81 108 204 108q66 0 105 -32l40 32l21 -15q-31 -87 -58 -169l-53 -158q47 54 79.5 74.5t66.5 20.5q55 0 90 -44t35 -124q0 -74 -28.5 -142.5t-81.5 -118.5q-70 -65 -158 -65zM403 97l49 -62q23 -7 33 -7q76 0 128.5 79.5t52.5 185.5q0 63 -20 93t-51 30q-25 0 -52 -17.5 t-68 -63.5zM249 510l-11 -40h197l15 51q23 78 23 106q0 63 -58 63q-53 0 -97 -44.5t-69 -135.5z" />
<glyph unicode="f&#xeb;" horiz-adv-x="719" d="M226 420l-81 -291q-41 -148 -90.5 -229t-122.5 -112q-35 -15 -88 -15q-47 0 -72 16.5t-25 44.5q0 21 13.5 34.5t34.5 13.5q24 0 42 -17q3 -49 53 -49q20 0 37.5 10t39 37t44.5 84.5t45 142.5l85 330h-71l11 37l75 13l17 77q25 112 84 156q33 26 80 26q41 0 67 -15 q36 -20 36 -60q0 -21 -14 -35.5t-38 -14.5q-26 0 -41 22q5 17 5 30q0 15 -8.5 24.5t-23.5 9.5q-28 0 -48 -32t-24 -91q-3 -38 -12 -97h124l-15 -50h-119zM639 286q-69 -34 -196 -64q-3 -22 -3 -48q0 -114 73 -114q27 0 50.5 12.5t58.5 46.5l23 -18q-63 -113 -155 -113 q-60 0 -97 41.5t-37 113.5q0 127 83.5 233t172.5 106q46 0 73.5 -25t27.5 -66q0 -69 -74 -105zM502 378q-38 -47 -52 -118q102 29 142.5 58.5t40.5 63.5q0 21 -12 33.5t-33 12.5q-45 0 -86 -50zM496 653q0 22 15.5 37t36.5 15q23 0 38.5 -15t15.5 -37t-15.5 -37.5 t-38.5 -15.5q-21 0 -36.5 15.5t-15.5 37.5zM674 653q0 22 15.5 37t36.5 15q22 0 37.5 -15t15.5 -37q0 -23 -15.5 -38t-37.5 -15q-21 0 -36.5 15.5t-15.5 37.5z" />
<glyph unicode="fh" horiz-adv-x="794" d="M340 152l80 268h-194l-81 -291q-41 -148 -90.5 -229t-122.5 -112q-35 -15 -88 -15q-47 0 -72 16.5t-25 44.5q0 21 13.5 34.5t34.5 13.5q24 0 42 -17q3 -49 53 -49q20 0 37.5 10t39 37t44.5 84.5t45 142.5l85 330h-71l11 37l75 13l7 22q26 83 60 129q81 108 204 108 q66 0 105 -32l40 32l21 -15q-31 -87 -58 -169l-47 -143q82 80 159 80q45 0 69.5 -28.5t24.5 -74.5q0 -36 -16 -87l-45 -140q-19 -58 -19 -81q0 -34 54 -34h35v-28q-60 -21 -102 -21q-35 0 -54 18.5t-19 47.5q0 32 22 98l46 144q13 40 13 66q0 24 -14.5 38.5t-39.5 14.5 q-51 0 -116 -51l-64 -212l-42 -150l-76 -6l-11 20q40 112 47 136zM249 510l-11 -40h197l15 51q23 78 23 106q0 63 -58 63q-53 0 -97 -44.5t-69 -135.5z" />
<glyph unicode="f&#xec;" horiz-adv-x="586" d="M226 420l-81 -291q-41 -148 -90.5 -229t-122.5 -112q-35 -15 -88 -15q-47 0 -72 16.5t-25 44.5q0 21 13.5 34.5t34.5 13.5q24 0 42 -17q3 -49 53 -49q20 0 37.5 10t39 37t44.5 84.5t45 142.5l85 330h-71l11 37l75 13l17 77q25 112 84 156q33 26 80 26q41 0 67 -15 q36 -20 36 -60q0 -21 -14 -35.5t-38 -14.5q-26 0 -41 22q5 17 5 30q0 15 -8.5 24.5t-23.5 9.5q-28 0 -48 -32t-24 -91q-3 -38 -12 -97h124l-15 -50h-119zM556 72l13 -29q-86 -55 -157 -55q-65 0 -65 48q0 30 16 74l106 298l-98 12v33l182 29l21 -15q-34 -83 -64 -169 l-63 -179q-12 -33 -12 -48q0 -22 31 -22q32 0 65 13zM552 748l37 -210h-52l-59 210h74z" />
<glyph unicode="f&#xed;" horiz-adv-x="586" d="M226 420l-81 -291q-41 -148 -90.5 -229t-122.5 -112q-35 -15 -88 -15q-47 0 -72 16.5t-25 44.5q0 21 13.5 34.5t34.5 13.5q24 0 42 -17q3 -49 53 -49q20 0 37.5 10t39 37t44.5 84.5t45 142.5l85 330h-71l11 37l75 13l17 77q25 112 84 156q33 26 80 26q41 0 67 -15 q36 -20 36 -60q0 -21 -14 -35.5t-38 -14.5q-26 0 -41 22q5 17 5 30q0 15 -8.5 24.5t-23.5 9.5q-28 0 -48 -32t-24 -91q-3 -38 -12 -97h124l-15 -50h-119zM556 72l13 -29q-86 -55 -157 -55q-65 0 -65 48q0 30 16 74l106 298l-98 12v33l182 29l21 -15q-34 -83 -64 -169 l-63 -179q-12 -33 -12 -48q0 -22 31 -22q32 0 65 13zM503 538l65 210h76l-87 -210h-54z" />
<glyph unicode="f&#xee;" horiz-adv-x="606" d="M576 72l13 -29q-86 -55 -157 -55q-65 0 -65 48q0 30 16 74l106 298l-98 12v33l182 29l21 -15q-34 -83 -64 -169l-63 -179q-12 -33 -12 -48q0 -22 31 -22q32 0 65 13zM420 538l157 210h69l51 -210h-49l-48 143l-119 -143h-61zM226 420l-81 -291q-41 -148 -90.5 -229 t-122.5 -112q-35 -15 -88 -15q-47 0 -72 16.5t-25 44.5q0 21 13.5 34.5t34.5 13.5q24 0 42 -17q3 -49 53 -49q20 0 37.5 10t39 37t44.5 84.5t45 142.5l85 330h-71l11 37l75 13l17 77q25 112 84 156q33 26 80 26q41 0 67 -15q36 -20 36 -60q0 -21 -14 -35.5t-38 -14.5 q-26 0 -41 22q5 17 5 30q0 15 -8.5 24.5t-23.5 9.5q-28 0 -48 -32t-24 -91q-3 -38 -12 -97h124l-15 -50h-119z" />
<glyph unicode="f&#xef;" horiz-adv-x="626" d="M596 72l13 -29q-86 -55 -157 -55q-65 0 -65 48q0 30 16 74l106 298l-98 12v33l182 29l21 -15q-34 -83 -64 -169l-63 -179q-12 -33 -12 -48q0 -22 31 -22q32 0 65 13zM452 593q0 22 15.5 37t36.5 15q23 0 38.5 -15t15.5 -37t-15.5 -37.5t-38.5 -15.5q-21 0 -36.5 15.5 t-15.5 37.5zM630 593q0 22 15.5 37t36.5 15q22 0 37.5 -15t15.5 -37q0 -23 -15.5 -38t-37.5 -15q-21 0 -36.5 15.5t-15.5 37.5zM226 420l-81 -291q-41 -148 -90.5 -229t-122.5 -112q-35 -15 -88 -15q-47 0 -72 16.5t-25 44.5q0 21 13.5 34.5t34.5 13.5q24 0 42 -17 q3 -49 53 -49q20 0 37.5 10t39 37t44.5 84.5t45 142.5l85 330h-71l11 37l75 13l17 77q25 112 84 156q33 26 80 26q41 0 67 -15q36 -20 36 -60q0 -21 -14 -35.5t-38 -14.5q-26 0 -41 22q5 17 5 30q0 15 -8.5 24.5t-23.5 9.5q-28 0 -48 -32t-24 -91q-3 -38 -12 -97h124 l-15 -50h-119z" />
<glyph unicode="fj" horiz-adv-x="509" d="M289 -14l125 434h-188l-81 -291q-41 -148 -90.5 -229t-122.5 -112q-35 -15 -88 -15q-47 0 -72 16.5t-25 44.5q0 21 13.5 34.5t34.5 13.5q24 0 42 -17q3 -49 53 -49q20 0 37.5 10t39 37t44.5 84.5t45 142.5l85 330h-71l11 37l75 13l7 22q26 83 60 129q81 108 204 108 q69 0 106 -21q45 -25 45 -69q0 -25 -15 -41t-42 -16q-30 0 -47 24q6 22 6 34q0 24 -16 38t-45 14q-55 0 -100 -45.5t-70 -136.5l-11 -40h85l163 12l21 -15l-95 -318q-85 -285 -184 -349q-42 -27 -90 -27q-34 0 -54.5 16t-20.5 43q0 20 14 34t32 14q22 0 40 -17q1 -42 34 -42 q28 0 53 33t53 132z" />
<glyph unicode="fk" horiz-adv-x="779" d="M526 545l-80 -264q36 0 88 45l25 23q42 37 84 80l-52 14l3 27l98 -2l87 2l-3 -27l-62 -14q-48 -40 -121 -103l-66 -59v-4q22 -12 35 -28.5t28 -53.5l38 -92q11 -27 20 -36t28 -9q29 0 62 30l22 -22q-48 -64 -107 -64q-43 0 -66 24t-46 82l-32 81q-15 38 -29 51.5 t-46 14.5l-21 -69q-14 -50 -44 -170l-76 -6l-11 20q35 97 46 136l79 268h-181l-81 -291q-41 -148 -90.5 -229t-122.5 -112q-35 -15 -88 -15q-47 0 -72 16.5t-25 44.5q0 21 13.5 34.5t34.5 13.5q24 0 42 -17q3 -49 53 -49q20 0 37.5 10t39 37t44.5 84.5t45 142.5l85 330h-71 l11 37l75 13l7 22q26 83 60 129q81 108 204 108q59 0 96 -26l34 26l21 -15q-7 -22 -52 -169zM249 510l-11 -40h184l18 59q25 85 25 108q0 52 -55 52q-50 0 -93 -44.5t-68 -134.5z" />
<glyph unicode="f&#x140;" horiz-adv-x="649" d="M321 152l91 268h-186l-81 -291q-41 -148 -90.5 -229t-122.5 -112q-35 -15 -88 -15q-47 0 -72 16.5t-25 44.5q0 21 13.5 34.5t34.5 13.5q24 0 42 -17q3 -49 53 -49q20 0 37.5 10t39 37t44.5 84.5t45 142.5l85 330h-71l11 37l75 13l7 22q26 83 60 129q81 108 204 108 q66 0 105 -32l40 32l21 -15q-31 -87 -58 -169l-131 -393q-19 -58 -19 -81q0 -30 38 -30q9 0 37 4l23 3l4 -28q-66 -32 -115 -32q-35 0 -54 18.5t-19 47.5q0 32 22 98zM249 510l-11 -40h191l21 59q25 74 25 99q0 62 -59 62q-54 0 -98 -44.5t-69 -135.5zM522 234 q0 24 17.5 41.5t41.5 17.5t41 -17.5t17 -41.5q0 -25 -16.5 -42t-41.5 -17q-24 0 -41.5 17t-17.5 42z" />
<glyph unicode="f&#xf6;" horiz-adv-x="834" d="M701 284q0 81 -27 119t-70 38q-37 0 -69 -28q-36 -30 -57.5 -90t-21.5 -139t27.5 -117.5t70.5 -38.5q36 0 67 28q35 32 57.5 92t22.5 136zM364 192q0 74 29.5 137t77.5 102q63 51 135 51q83 0 135.5 -55.5t52.5 -147.5q0 -74 -29.5 -137.5t-77.5 -102.5q-63 -51 -135 -51 q-83 0 -135.5 56t-52.5 148zM502 653q0 22 15.5 37t36.5 15q23 0 38.5 -15t15.5 -37t-15.5 -37.5t-38.5 -15.5q-21 0 -36.5 15.5t-15.5 37.5zM680 653q0 22 15.5 37t36.5 15q22 0 37.5 -15t15.5 -37q0 -23 -15.5 -38t-37.5 -15q-21 0 -36.5 15.5t-15.5 37.5zM226 420 l-81 -291q-41 -148 -90.5 -229t-122.5 -112q-35 -15 -88 -15q-47 0 -72 16.5t-25 44.5q0 21 13.5 34.5t34.5 13.5q24 0 42 -17q3 -49 53 -49q20 0 37.5 10t39 37t44.5 84.5t45 142.5l85 330h-71l11 37l75 13l17 77q25 112 84 156q33 26 80 26q41 0 67 -15q36 -20 36 -60 q0 -21 -14 -35.5t-38 -14.5q-26 0 -41 22q5 17 5 30q0 15 -8.5 24.5t-23.5 9.5q-28 0 -48 -32t-24 -91q-3 -38 -12 -97h124l-15 -50h-119z" />
<glyph unicode="f&#xf5;" horiz-adv-x="834" d="M701 284q0 81 -27 119t-70 38q-37 0 -69 -28q-36 -30 -57.5 -90t-21.5 -139t27.5 -117.5t70.5 -38.5q36 0 67 28q35 32 57.5 92t22.5 136zM364 192q0 74 29.5 137t77.5 102q63 51 135 51q83 0 135.5 -55.5t52.5 -147.5q0 -74 -29.5 -137.5t-77.5 -102.5q-63 -51 -135 -51 q-83 0 -135.5 56t-52.5 148zM642 621l-30 19q-20 13 -37 13q-30 0 -32 -50h-45q0 54 22.5 80.5t57.5 26.5q30 0 67 -23l30 -18q22 -14 37 -14q30 0 32 50h45q0 -107 -80 -107q-30 0 -67 23zM226 420l-81 -291q-41 -148 -90.5 -229t-122.5 -112q-35 -15 -88 -15 q-47 0 -72 16.5t-25 44.5q0 21 13.5 34.5t34.5 13.5q24 0 42 -17q3 -49 53 -49q20 0 37.5 10t39 37t44.5 84.5t45 142.5l85 330h-71l11 37l75 13l17 77q25 112 84 156q33 26 80 26q41 0 67 -15q36 -20 36 -60q0 -21 -14 -35.5t-38 -14.5q-26 0 -41 22q5 17 5 30 q0 15 -8.5 24.5t-23.5 9.5q-28 0 -48 -32t-24 -91q-3 -38 -12 -97h124l-15 -50h-119z" />
<glyph unicode="f&#xfe;" horiz-adv-x="794" d="M535 545l-55 -158q47 54 79.5 74.5t66.5 20.5q53 0 88 -41.5t35 -113.5q0 -163 -109 -266q-78 -73 -161 -73q-57 0 -100 25l-26 -88q-13 -48 -29 -115l86 -10l-3 -27l-121 2l-113 -2l3 27l61 10q23 73 36 116l147 494h-194l-81 -291q-41 -148 -90.5 -229t-122.5 -112 q-35 -15 -88 -15q-47 0 -72 16.5t-25 44.5q0 21 13.5 34.5t34.5 13.5q24 0 42 -17q3 -49 53 -49q20 0 37.5 10t39 37t44.5 84.5t45 142.5l85 330h-71l11 37l75 13l7 22q26 83 60 129q81 108 204 108q66 0 105 -32l40 32l21 -15q-14 -39 -34 -98t-24 -71zM483 28 q72 0 125.5 83t53.5 198q0 53 -19.5 80t-49.5 27q-25 0 -52 -17.5t-68 -63.5l-72 -238q10 -33 32 -51t50 -18zM249 510l-11 -40h197l15 51q23 78 23 106q0 63 -58 63q-53 0 -97 -44.5t-69 -135.5z" />
<glyph unicode="f&#xfc;" horiz-adv-x="838" d="M773 318l-54 -165q-15 -48 -15 -71q0 -41 42 -41q12 0 40 5l18 3l5 -26q-51 -35 -104 -35q-78 0 -84 79q-80 -79 -149 -79q-51 0 -76.5 27.5t-25.5 74.5q0 35 21 96l78 224l-98 12v31l180 29l21 -15q-41 -110 -62 -169l-44 -125q-15 -42 -15 -69q0 -23 14 -36t37 -13 q46 0 117 48l71 215q20 59 41 151l80 5l11 -20q-8 -22 -19 -53t-19 -52t-11 -31zM527 653q0 22 15.5 37t36.5 15q23 0 38.5 -15t15.5 -37t-15.5 -37.5t-38.5 -15.5q-21 0 -36.5 15.5t-15.5 37.5zM705 653q0 22 15.5 37t36.5 15q22 0 37.5 -15t15.5 -37q0 -23 -15 -38 t-38 -15q-21 0 -36.5 15.5t-15.5 37.5zM226 420l-81 -291q-41 -148 -90.5 -229t-122.5 -112q-35 -15 -88 -15q-47 0 -72 16.5t-25 44.5q0 21 13.5 34.5t34.5 13.5q24 0 42 -17q3 -49 53 -49q20 0 37.5 10t39 37t44.5 84.5t45 142.5l85 330h-71l11 37l75 13l17 77 q25 112 84 156q33 26 80 26q41 0 67 -15q36 -20 36 -60q0 -21 -14 -35.5t-38 -14.5q-26 0 -41 22q5 17 5 30q0 15 -8.5 24.5t-23.5 9.5q-28 0 -48 -32t-24 -91q-3 -38 -12 -97h124l-15 -50h-119z" />
<glyph unicode="f&#xff;" horiz-adv-x="792" d="M226 420l-81 -291q-41 -148 -90.5 -229t-122.5 -112q-35 -15 -88 -15q-47 0 -72 16.5t-25 44.5q0 21 13.5 34.5t34.5 13.5q24 0 42 -17q3 -49 53 -49q20 0 37.5 10t39 37t44.5 84.5t45 142.5l85 330h-71l11 37l75 13l17 77q25 112 84 156q33 26 80 26q41 0 67 -15 q36 -20 36 -60q0 -21 -14 -35.5t-38 -14.5q-26 0 -41 22q5 17 5 30q0 15 -8.5 24.5t-23.5 9.5q-28 0 -48 -32t-24 -91q-3 -38 -12 -97h124l-15 -50h-119zM568 107l128 206q29 47 29 77q0 26 -23 40q0 23 12.5 37.5t32.5 14.5q22 0 35.5 -16t13.5 -41q0 -37 -37 -95 l-222 -351q-130 -206 -280 -206q-56 0 -84 20.5t-28 52.5q0 21 14 35.5t35 14.5q22 0 42 -17q3 -25 15 -38.5t38 -13.5q49 0 98 37.5t107 129.5l-22 389q-2 26 -20 26q-16 0 -35 -13.5t-63 -55.5l-25 25l33 38q68 79 123 79q58 0 63 -67zM507 653q0 22 15.5 37t36.5 15 q23 0 38.5 -15t15.5 -37t-15.5 -37.5t-38.5 -15.5q-21 0 -36.5 15.5t-15.5 37.5zM685 653q0 22 15.5 37t36.5 15q22 0 37.5 -15t15.5 -37q0 -23 -15 -38t-38 -15q-21 0 -36.5 15.5t-15.5 37.5z" />
<glyph unicode="ffb" horiz-adv-x="1056" d="M743 -12q-103 0 -170 79l105 353h-194l-75 -271q-43 -156 -85 -238t-92 -114q-37 -24 -88 -24q-38 0 -61 16t-23 43q0 20 14 34t32 14q22 0 40 -17q3 -42 39 -42q19 0 33 10.5t34.5 56t42.5 130.5l104 402h-173l-81 -291q-41 -148 -90.5 -229t-122.5 -112 q-35 -15 -88 -15q-47 0 -72 16.5t-25 44.5q0 21 13.5 34.5t34.5 13.5q24 0 42 -17q3 -49 53 -49q20 0 37.5 10t39 37t44.5 84.5t45 142.5l85 330h-71l11 37l75 13q47 191 165 237q31 12 65 12q80 0 131 -58q74 68 168 68q66 0 105 -32l40 32l21 -15q-31 -87 -58 -169 l-53 -158q47 54 79.5 74.5t66.5 20.5q55 0 90 -44t35 -124q0 -74 -28.5 -142.5t-81.5 -118.5q-70 -65 -158 -65zM661 97l49 -62q23 -7 33 -7q76 0 128.5 79.5t52.5 185.5q0 63 -20 93t-51 30q-25 0 -52 -17.5t-68 -63.5zM507 510l-11 -40h197l21 74q17 58 17 82q0 64 -57 64 q-54 0 -98 -44.5t-69 -135.5zM256 536l-18 -66h176q4 12 10.5 32t9.5 28.5t7.5 22.5t6 21t4 15.5t3 15t0.5 12.5q0 30 -17.5 47.5t-51.5 17.5q-44 0 -76 -34t-54 -112z" />
<glyph unicode="ff&#xeb;" horiz-adv-x="977" d="M494 470h124l-15 -50h-119l-75 -271q-43 -156 -85 -238t-92 -114q-37 -24 -88 -24q-38 0 -61 16t-23 43q0 20 14 34t32 14q22 0 40 -17q3 -42 39 -42q19 0 33 10.5t34.5 56t42.5 130.5l104 402h-173l-81 -291q-41 -148 -90.5 -229t-122.5 -112q-35 -15 -88 -15 q-47 0 -72 16.5t-25 44.5q0 21 13.5 34.5t34.5 13.5q24 0 42 -17q3 -49 53 -49q20 0 37.5 10t39 37t44.5 84.5t45 142.5l85 330h-71l11 37l75 13q47 191 165 237q31 12 65 12q64 0 108 -35q8 9 21 19q33 26 80 26q41 0 67 -15q36 -20 36 -60q0 -21 -14 -35.5t-38 -14.5 q-26 0 -41 22q5 17 5 30q0 15 -8.5 24.5t-23.5 9.5q-28 0 -48 -32t-24 -91q-3 -38 -12 -97zM238 470h176l7 34q5 21 12.5 47.5t12 44t4.5 29.5q0 57 -64 57q-44 0 -76 -34t-54 -112zM897 286q-69 -34 -196 -64q-3 -22 -3 -48q0 -114 73 -114q27 0 50.5 12.5t58.5 46.5 l23 -18q-63 -113 -155 -113q-60 0 -97 41.5t-37 113.5q0 127 83.5 233t172.5 106q46 0 73.5 -25t27.5 -66q0 -69 -74 -105zM760 378q-38 -47 -52 -118q102 29 142.5 58.5t40.5 63.5q0 21 -12 33.5t-33 12.5q-45 0 -86 -50zM754 653q0 22 15.5 37t36.5 15q23 0 38.5 -15 t15.5 -37t-15.5 -37.5t-38.5 -15.5q-21 0 -36.5 15.5t-15.5 37.5zM932 653q0 22 15.5 37t36.5 15q22 0 37.5 -15t15.5 -37q0 -23 -15.5 -38t-37.5 -15q-21 0 -36.5 15.5t-15.5 37.5z" />
<glyph unicode="ffh" horiz-adv-x="1052" d="M793 545l-47 -143q82 80 159 80q45 0 69.5 -28.5t24.5 -74.5q0 -36 -16 -87l-45 -140q-19 -58 -19 -81q0 -34 54 -34h35v-28q-60 -21 -102 -21q-35 0 -54 18.5t-19 47.5q0 32 22 98l46 144q13 40 13 66q0 24 -14.5 38.5t-39.5 14.5q-51 0 -116 -51l-64 -212 q-2 -6 -10.5 -35t-17 -59.5t-14.5 -55.5l-76 -6l-11 20q40 112 47 136l80 268h-194l-75 -271q-43 -156 -85 -238t-92 -114q-37 -24 -88 -24q-38 0 -61 16t-23 43q0 20 14 34t32 14q22 0 40 -17q3 -42 39 -42q19 0 33 10.5t34.5 56t42.5 130.5l104 402h-173l-81 -291 q-41 -148 -90.5 -229t-122.5 -112q-35 -15 -88 -15q-47 0 -72 16.5t-25 44.5q0 21 13.5 34.5t34.5 13.5q24 0 42 -17q3 -49 53 -49q20 0 37.5 10t39 37t44.5 84.5t45 142.5l85 330h-71l11 37l75 13q47 191 165 237q31 12 65 12q80 0 131 -58q74 68 168 68q66 0 105 -32 l40 32l21 -15q-31 -87 -58 -169zM496 470h197l21 74q17 58 17 82q0 64 -57 64q-54 0 -98 -44.5t-69 -135.5zM256 536l-18 -66h176q4 12 10.5 32t9.5 28.5t7.5 22.5t6 21t4 15.5t3 15t0.5 12.5q0 30 -17.5 47.5t-51.5 17.5q-44 0 -76 -34t-54 -112z" />
<glyph unicode="ff&#xec;" horiz-adv-x="844" d="M494 470h124l-15 -50h-119l-75 -271q-43 -156 -85 -238t-92 -114q-37 -24 -88 -24q-38 0 -61 16t-23 43q0 20 14 34t32 14q22 0 40 -17q3 -42 39 -42q19 0 33 10.5t34.5 56t42.5 130.5l104 402h-173l-81 -291q-41 -148 -90.5 -229t-122.5 -112q-35 -15 -88 -15 q-47 0 -72 16.5t-25 44.5q0 21 13.5 34.5t34.5 13.5q24 0 42 -17q3 -49 53 -49q20 0 37.5 10t39 37t44.5 84.5t45 142.5l85 330h-71l11 37l75 13q47 191 165 237q31 12 65 12q64 0 108 -35q8 9 21 19q33 26 80 26q41 0 67 -15q36 -20 36 -60q0 -21 -14 -35.5t-38 -14.5 q-26 0 -41 22q5 17 5 30q0 15 -8.5 24.5t-23.5 9.5q-28 0 -48 -32t-24 -91q-3 -38 -12 -97zM238 470h176l7 34q5 21 12.5 47.5t12 44t4.5 29.5q0 57 -64 57q-44 0 -76 -34t-54 -112zM814 72l13 -29q-86 -55 -157 -55q-65 0 -65 48q0 30 16 74l106 298l-98 12v33l182 29 l21 -15q-34 -83 -64 -169l-63 -179q-12 -33 -12 -48q0 -22 31 -22q32 0 65 13zM810 748l37 -210h-52l-59 210h74z" />
<glyph unicode="ff&#xed;" horiz-adv-x="844" d="M494 470h124l-15 -50h-119l-75 -271q-43 -156 -85 -238t-92 -114q-37 -24 -88 -24q-38 0 -61 16t-23 43q0 20 14 34t32 14q22 0 40 -17q3 -42 39 -42q19 0 33 10.5t34.5 56t42.5 130.5l104 402h-173l-81 -291q-41 -148 -90.5 -229t-122.5 -112q-35 -15 -88 -15 q-47 0 -72 16.5t-25 44.5q0 21 13.5 34.5t34.5 13.5q24 0 42 -17q3 -49 53 -49q20 0 37.5 10t39 37t44.5 84.5t45 142.5l85 330h-71l11 37l75 13q47 191 165 237q31 12 65 12q64 0 108 -35q8 9 21 19q33 26 80 26q41 0 67 -15q36 -20 36 -60q0 -21 -14 -35.5t-38 -14.5 q-26 0 -41 22q5 17 5 30q0 15 -8.5 24.5t-23.5 9.5q-28 0 -48 -32t-24 -91q-3 -38 -12 -97zM238 470h176l7 34q5 21 12.5 47.5t12 44t4.5 29.5q0 57 -64 57q-44 0 -76 -34t-54 -112zM814 72l13 -29q-86 -55 -157 -55q-65 0 -65 48q0 30 16 74l106 298l-98 12v33l182 29 l21 -15q-34 -83 -64 -169l-63 -179q-12 -33 -12 -48q0 -22 31 -22q32 0 65 13zM761 538l65 210h76l-87 -210h-54z" />
<glyph unicode="ff&#xee;" horiz-adv-x="864" d="M494 470h124l-15 -50h-119l-75 -271q-43 -156 -85 -238t-92 -114q-37 -24 -88 -24q-38 0 -61 16t-23 43q0 20 14 34t32 14q22 0 40 -17q3 -42 39 -42q19 0 33 10.5t34.5 56t42.5 130.5l104 402h-173l-81 -291q-41 -148 -90.5 -229t-122.5 -112q-35 -15 -88 -15 q-47 0 -72 16.5t-25 44.5q0 21 13.5 34.5t34.5 13.5q24 0 42 -17q3 -49 53 -49q20 0 37.5 10t39 37t44.5 84.5t45 142.5l85 330h-71l11 37l75 13q47 191 165 237q31 12 65 12q64 0 108 -35q8 9 21 19q33 26 80 26q41 0 67 -15q36 -20 36 -60q0 -21 -14 -35.5t-38 -14.5 q-26 0 -41 22q5 17 5 30q0 15 -8.5 24.5t-23.5 9.5q-28 0 -48 -32t-24 -91q-3 -38 -12 -97zM238 470h176l7 34q5 21 12.5 47.5t12 44t4.5 29.5q0 57 -64 57q-44 0 -76 -34t-54 -112zM834 72l13 -29q-86 -55 -157 -55q-65 0 -65 48q0 30 16 74l106 298l-98 12v33l182 29 l21 -15q-34 -83 -64 -169l-63 -179q-12 -33 -12 -48q0 -22 31 -22q32 0 65 13zM698 538l157 210h69l51 -210h-49l-48 143l-119 -143h-61z" />
<glyph unicode="ff&#xef;" horiz-adv-x="884" d="M494 470h124l-15 -50h-119l-75 -271q-43 -156 -85 -238t-92 -114q-37 -24 -88 -24q-38 0 -61 16t-23 43q0 20 14 34t32 14q22 0 40 -17q3 -42 39 -42q19 0 33 10.5t34.5 56t42.5 130.5l104 402h-173l-81 -291q-41 -148 -90.5 -229t-122.5 -112q-35 -15 -88 -15 q-47 0 -72 16.5t-25 44.5q0 21 13.5 34.5t34.5 13.5q24 0 42 -17q3 -49 53 -49q20 0 37.5 10t39 37t44.5 84.5t45 142.5l85 330h-71l11 37l75 13q47 191 165 237q31 12 65 12q64 0 108 -35q8 9 21 19q33 26 80 26q41 0 67 -15q36 -20 36 -60q0 -21 -14 -35.5t-38 -14.5 q-26 0 -41 22q5 17 5 30q0 15 -8.5 24.5t-23.5 9.5q-28 0 -48 -32t-24 -91q-3 -38 -12 -97zM238 470h176l7 34q5 21 12.5 47.5t12 44t4.5 29.5q0 57 -64 57q-44 0 -76 -34t-54 -112zM854 72l13 -29q-86 -55 -157 -55q-65 0 -65 48q0 30 16 74l106 298l-98 12v33l182 29 l21 -15q-34 -83 -64 -169l-63 -179q-12 -33 -12 -48q0 -22 31 -22q32 0 65 13zM710 593q0 22 15.5 37t36.5 15q23 0 38.5 -15t15.5 -37t-15.5 -37.5t-38.5 -15.5q-21 0 -36.5 15.5t-15.5 37.5zM888 593q0 22 15.5 37t36.5 15q22 0 37.5 -15t15.5 -37q0 -23 -15.5 -38 t-37.5 -15q-21 0 -36.5 15.5t-15.5 37.5z" />
<glyph unicode="ffj" horiz-adv-x="767" d="M256 536l-18 -66h176q4 12 10.5 32t9.5 28.5t7.5 22.5t6 21t4 15.5t3 15t0.5 12.5q0 30 -17.5 47.5t-51.5 17.5q-44 0 -76 -34t-54 -112zM484 420l-75 -271q-43 -156 -85 -238t-92 -114q-37 -24 -88 -24q-38 0 -61 16t-23 43q0 20 14 34t32 14q22 0 40 -17q3 -42 39 -42 q19 0 33 10.5t34.5 56t42.5 130.5l104 402h-173l-81 -291q-41 -148 -90.5 -229t-122.5 -112q-35 -15 -88 -15q-47 0 -72 16.5t-25 44.5q0 21 13.5 34.5t34.5 13.5q24 0 42 -17q3 -49 53 -49q20 0 37.5 10t39 37t44.5 84.5t45 142.5l85 330h-71l11 37l75 13q47 191 165 237 q31 12 65 12q83 0 131 -58q74 68 168 68q69 0 106 -21q45 -25 45 -69q0 -25 -15 -41t-42 -16q-30 0 -47 24q6 22 6 34q0 24 -16 38t-45 14q-55 0 -100 -45.5t-70 -136.5l-11 -40h85l163 12l21 -15l-95 -318q-85 -285 -184 -349q-42 -27 -90 -27q-34 0 -54.5 16t-20.5 43 q0 20 14 34t32 14q22 0 40 -17q1 -42 34 -42q28 0 53 33t53 132l125 434h-188z" />
<glyph unicode="ffk" horiz-adv-x="1037" d="M586 152l79 268h-181l-75 -271q-43 -156 -85 -238t-92 -114q-37 -24 -88 -24q-38 0 -61 16t-23 43q0 20 14 34t32 14q22 0 40 -17q3 -42 39 -42q19 0 33 10.5t34.5 56t42.5 130.5l104 402h-173l-81 -291q-41 -148 -90.5 -229t-122.5 -112q-35 -15 -88 -15q-47 0 -72 16.5 t-25 44.5q0 21 13.5 34.5t34.5 13.5q24 0 42 -17q3 -49 53 -49q20 0 37.5 10t39 37t44.5 84.5t45 142.5l85 330h-71l11 37l75 13q47 191 165 237q31 12 65 12q80 0 131 -58q74 68 168 68q59 0 96 -26l34 26l21 -15q-7 -22 -52 -169l-80 -264q36 0 88 45l25 23q42 37 84 80 l-52 14l3 27l98 -2l87 2l-3 -27l-62 -14q-49 -40 -121 -103l-66 -59v-4q22 -12 35 -28.5t28 -53.5l38 -92q11 -27 20 -36t28 -9q29 0 62 30l22 -22q-48 -64 -107 -64q-43 0 -66 24t-46 82l-32 81q-15 38 -29 51.5t-46 14.5l-21 -69q-14 -50 -44 -170l-76 -6l-11 20 q35 97 46 136zM507 510l-11 -40h184l18 59q25 85 25 108q0 52 -55 52q-50 0 -93 -44.5t-68 -134.5zM256 536l-18 -66h176q4 12 10.5 32t9.5 28.5t7.5 22.5t6 21t4 15.5t3 15t0.5 12.5q0 30 -17.5 47.5t-51.5 17.5q-44 0 -76 -34t-54 -112z" />
<glyph unicode="ff&#x140;" horiz-adv-x="907" d="M256 536l-18 -66h176q4 12 10.5 32t9.5 28.5t7.5 22.5t6 21t4 15.5t3 15t0.5 12.5q0 30 -17.5 47.5t-51.5 17.5q-44 0 -76 -34t-54 -112zM517 661q74 68 168 68q66 0 105 -32l40 32l21 -15q-31 -87 -58 -169l-131 -393q-19 -58 -19 -81q0 -30 38 -30q9 0 37 4l23 3l4 -28 q-66 -32 -115 -32q-35 0 -54 18.5t-19 47.5q0 32 22 98l91 268h-186l-75 -271q-43 -156 -85 -238t-92 -114q-37 -24 -88 -24q-38 0 -61 16t-23 43q0 20 14 34t32 14q22 0 40 -17q3 -42 39 -42q19 0 33 10.5t34.5 56t42.5 130.5l104 402h-173l-81 -291q-41 -148 -90.5 -229 t-122.5 -112q-35 -15 -88 -15q-47 0 -72 16.5t-25 44.5q0 21 13.5 34.5t34.5 13.5q24 0 42 -17q3 -49 53 -49q20 0 37.5 10t39 37t44.5 84.5t45 142.5l85 330h-71l11 37l75 13q47 191 165 237q31 12 65 12q80 0 131 -58zM687 470l21 59q25 74 25 99q0 62 -59 62 q-54 0 -98 -44.5t-69 -135.5l-11 -40h191zM780 234q0 24 17.5 41.5t41.5 17.5t41 -17.5t17 -41.5q0 -25 -16.5 -42t-41.5 -17q-24 0 -41.5 17t-17.5 42z" />
<glyph unicode="ff&#xf6;" horiz-adv-x="1092" d="M494 470h124l-15 -50h-119l-75 -271q-43 -156 -85 -238t-92 -114q-37 -24 -88 -24q-38 0 -61 16t-23 43q0 20 14 34t32 14q22 0 40 -17q3 -42 39 -42q19 0 33 10.5t34.5 56t42.5 130.5l104 402h-173l-81 -291q-41 -148 -90.5 -229t-122.5 -112q-35 -15 -88 -15 q-47 0 -72 16.5t-25 44.5q0 21 13.5 34.5t34.5 13.5q24 0 42 -17q3 -49 53 -49q20 0 37.5 10t39 37t44.5 84.5t45 142.5l85 330h-71l11 37l75 13q47 191 165 237q31 12 65 12q64 0 108 -35q8 9 21 19q33 26 80 26q41 0 67 -15q36 -20 36 -60q0 -21 -14 -35.5t-38 -14.5 q-26 0 -41 22q5 17 5 30q0 15 -8.5 24.5t-23.5 9.5q-28 0 -48 -32t-24 -91q-3 -38 -12 -97zM238 470h176l7 34q5 21 12.5 47.5t12 44t4.5 29.5q0 57 -64 57q-44 0 -76 -34t-54 -112zM959 284q0 81 -27 119t-70 38q-37 0 -69 -28q-36 -30 -57.5 -90t-21.5 -139t27.5 -117.5 t70.5 -38.5q36 0 67 28q35 32 57.5 92t22.5 136zM622 192q0 74 29.5 137t77.5 102q63 51 135 51q83 0 135.5 -55.5t52.5 -147.5q0 -74 -29.5 -137.5t-77.5 -102.5q-63 -51 -135 -51q-83 0 -135.5 56t-52.5 148zM760 653q0 22 15.5 37t36.5 15q23 0 38.5 -15t15.5 -37 t-15.5 -37.5t-38.5 -15.5q-21 0 -36.5 15.5t-15.5 37.5zM938 653q0 22 15.5 37t36.5 15q22 0 37.5 -15t15.5 -37q0 -23 -15.5 -38t-37.5 -15q-21 0 -36.5 15.5t-15.5 37.5z" />
<glyph unicode="ff&#xf5;" horiz-adv-x="1092" d="M494 470h124l-15 -50h-119l-75 -271q-43 -156 -85 -238t-92 -114q-37 -24 -88 -24q-38 0 -61 16t-23 43q0 20 14 34t32 14q22 0 40 -17q3 -42 39 -42q19 0 33 10.5t34.5 56t42.5 130.5l104 402h-173l-81 -291q-41 -148 -90.5 -229t-122.5 -112q-35 -15 -88 -15 q-47 0 -72 16.5t-25 44.5q0 21 13.5 34.5t34.5 13.5q24 0 42 -17q3 -49 53 -49q20 0 37.5 10t39 37t44.5 84.5t45 142.5l85 330h-71l11 37l75 13q47 191 165 237q31 12 65 12q64 0 108 -35q8 9 21 19q33 26 80 26q41 0 67 -15q36 -20 36 -60q0 -21 -14 -35.5t-38 -14.5 q-26 0 -41 22q5 17 5 30q0 15 -8.5 24.5t-23.5 9.5q-28 0 -48 -32t-24 -91q-3 -38 -12 -97zM238 470h176l7 34q5 21 12.5 47.5t12 44t4.5 29.5q0 57 -64 57q-44 0 -76 -34t-54 -112zM959 284q0 81 -27 119t-70 38q-37 0 -69 -28q-36 -30 -57.5 -90t-21.5 -139t27.5 -117.5 t70.5 -38.5q36 0 67 28q35 32 57.5 92t22.5 136zM622 192q0 74 29.5 137t77.5 102q63 51 135 51q83 0 135.5 -55.5t52.5 -147.5q0 -74 -29.5 -137.5t-77.5 -102.5q-63 -51 -135 -51q-83 0 -135.5 56t-52.5 148zM900 621l-30 19q-20 13 -37 13q-30 0 -32 -50h-45 q0 54 22.5 80.5t57.5 26.5q30 0 67 -23l30 -18q22 -14 37 -14q30 0 32 50h45q0 -107 -80 -107q-30 0 -67 23z" />
<glyph unicode="ff&#xfe;" horiz-adv-x="1052" d="M793 545l-55 -158q47 54 79.5 74.5t66.5 20.5q53 0 88 -41.5t35 -113.5q0 -163 -109 -266q-78 -73 -161 -73q-57 0 -100 25l-26 -88q-13 -48 -29 -115l86 -10l-3 -27l-121 2l-113 -2l3 27l61 10q23 73 36 116l147 494h-194l-75 -271q-43 -156 -85 -238t-92 -114 q-37 -24 -88 -24q-38 0 -61 16t-23 43q0 20 14 34t32 14q22 0 40 -17q3 -42 39 -42q19 0 33 10.5t34.5 56t42.5 130.5l104 402h-173l-81 -291q-41 -148 -90.5 -229t-122.5 -112q-35 -15 -88 -15q-47 0 -72 16.5t-25 44.5q0 21 13.5 34.5t34.5 13.5q24 0 42 -17q3 -49 53 -49 q20 0 37.5 10t39 37t44.5 84.5t45 142.5l85 330h-71l11 37l75 13q47 191 165 237q31 12 65 12q80 0 131 -58q74 68 168 68q66 0 105 -32l40 32l21 -15q-14 -39 -34 -98t-24 -71zM741 28q72 0 125.5 83t53.5 198q0 53 -19.5 80t-49.5 27q-25 0 -52 -17.5t-68 -63.5l-72 -238 q10 -33 32 -51t50 -18zM507 510l-11 -40h197l21 74q17 58 17 82q0 64 -57 64q-54 0 -98 -44.5t-69 -135.5zM256 536l-18 -66h176q4 12 10.5 32t9.5 28.5t7.5 22.5t6 21t4 15.5t3 15t0.5 12.5q0 30 -17.5 47.5t-51.5 17.5q-44 0 -76 -34t-54 -112z" />
<glyph unicode="ff&#xfc;" horiz-adv-x="1096" d="M494 470h124l-15 -50h-119l-75 -271q-43 -156 -85 -238t-92 -114q-37 -24 -88 -24q-38 0 -61 16t-23 43q0 20 14 34t32 14q22 0 40 -17q3 -42 39 -42q19 0 33 10.5t34.5 56t42.5 130.5l104 402h-173l-81 -291q-41 -148 -90.5 -229t-122.5 -112q-35 -15 -88 -15 q-47 0 -72 16.5t-25 44.5q0 21 13.5 34.5t34.5 13.5q24 0 42 -17q3 -49 53 -49q20 0 37.5 10t39 37t44.5 84.5t45 142.5l85 330h-71l11 37l75 13q47 191 165 237q31 12 65 12q64 0 108 -35q8 9 21 19q33 26 80 26q41 0 67 -15q36 -20 36 -60q0 -21 -14 -35.5t-38 -14.5 q-26 0 -41 22q5 17 5 30q0 15 -8.5 24.5t-23.5 9.5q-28 0 -48 -32t-24 -91q-3 -38 -12 -97zM238 470h176l7 34q5 21 12.5 47.5t12 44t4.5 29.5q0 57 -64 57q-44 0 -76 -34t-54 -112zM1031 318l-54 -165q-15 -48 -15 -71q0 -41 42 -41q12 0 40 5l18 3l5 -26q-51 -35 -104 -35 q-78 0 -84 79q-80 -79 -149 -79q-51 0 -76.5 27.5t-25.5 74.5q0 35 21 96l78 224l-98 12v31l180 29l21 -15q-41 -110 -62 -169l-44 -125q-15 -42 -15 -69q0 -23 14 -36t37 -13q46 0 117 48l71 215q20 59 41 151l80 5l11 -20q-8 -22 -19 -53t-19 -52t-11 -31zM785 653 q0 22 15.5 37t36.5 15q23 0 38.5 -15t15.5 -37t-15.5 -37.5t-38.5 -15.5q-21 0 -36.5 15.5t-15.5 37.5zM963 653q0 22 15.5 37t36.5 15q22 0 37.5 -15t15.5 -37q0 -23 -15 -38t-38 -15q-21 0 -36.5 15.5t-15.5 37.5z" />
<glyph unicode="ff&#xff;" horiz-adv-x="1050" d="M494 470h124l-15 -50h-119l-75 -271q-43 -156 -85 -238t-92 -114q-37 -24 -88 -24q-38 0 -61 16t-23 43q0 20 14 34t32 14q22 0 40 -17q3 -42 39 -42q19 0 33 10.5t34.5 56t42.5 130.5l104 402h-173l-81 -291q-41 -148 -90.5 -229t-122.5 -112q-35 -15 -88 -15 q-47 0 -72 16.5t-25 44.5q0 21 13.5 34.5t34.5 13.5q24 0 42 -17q3 -49 53 -49q20 0 37.5 10t39 37t44.5 84.5t45 142.5l85 330h-71l11 37l75 13q47 191 165 237q31 12 65 12q64 0 108 -35q8 9 21 19q33 26 80 26q41 0 67 -15q36 -20 36 -60q0 -21 -14 -35.5t-38 -14.5 q-26 0 -41 22q5 17 5 30q0 15 -8.5 24.5t-23.5 9.5q-28 0 -48 -32t-24 -91q-3 -38 -12 -97zM238 470h176l7 34q5 21 12.5 47.5t12 44t4.5 29.5q0 57 -64 57q-44 0 -76 -34t-54 -112zM826 107l128 206q29 47 29 77q0 26 -23 40q0 23 12.5 37.5t32.5 14.5q22 0 35.5 -16 t13.5 -41q0 -37 -37 -95l-222 -351q-130 -206 -280 -206q-56 0 -84 20.5t-28 52.5q0 21 14 35.5t35 14.5q22 0 42 -17q3 -25 15 -38.5t38 -13.5q49 0 98 37.5t107 129.5l-22 389q-2 26 -20 26q-16 0 -35 -13.5t-63 -55.5l-25 25l33 38q68 79 123 79q58 0 63 -67zM765 653 q0 22 15.5 37t36.5 15q23 0 38.5 -15t15.5 -37t-15.5 -37.5t-38.5 -15.5q-21 0 -36.5 15.5t-15.5 37.5zM943 653q0 22 15.5 37t36.5 15q22 0 37.5 -15t15.5 -37q0 -23 -15 -38t-38 -15q-21 0 -36.5 15.5t-15.5 37.5z" />
<glyph unicode="fi" horiz-adv-x="585" d="M226 420l-81 -291q-41 -148 -90.5 -229t-122.5 -112q-35 -15 -88 -15q-47 0 -72 16.5t-25 44.5q0 21 13.5 34.5t34.5 13.5q24 0 42 -17q3 -49 53 -49q20 0 37.5 10t39 37t44.5 84.5t45 142.5l85 330h-71l11 37l75 13l17 77q25 112 84 156q33 26 80 26q41 0 67 -15 q36 -20 36 -60q0 -21 -14 -35.5t-38 -14.5q-26 0 -41 22q5 17 5 30q0 15 -8.5 24.5t-23.5 9.5q-28 0 -48 -32t-24 -91q-3 -38 -12 -97h124l-15 -50h-119zM494 653q0 24 17.5 41.5t41.5 17.5t41 -17.5t17 -41.5q0 -25 -16.5 -42t-41.5 -17q-24 0 -41.5 17t-17.5 42zM471 410 l-100 12v31l182 29l21 -15q-41 -102 -65 -169l-62 -179q-12 -33 -12 -48q0 -22 31 -22q32 0 65 13l25 10l13 -29q-86 -55 -157 -55q-65 0 -65 48q0 30 16 74z" />
<glyph unicode="&#xfb00;i" horiz-adv-x="843" d="M494 470h124l-15 -50h-119l-75 -271q-43 -156 -85 -238t-92 -114q-37 -24 -88 -24q-38 0 -61 16t-23 43q0 20 14 34t32 14q22 0 40 -17q3 -42 39 -42q19 0 33 10.5t34.5 56t42.5 130.5l104 402h-173l-81 -291q-41 -148 -90.5 -229t-122.5 -112q-35 -15 -88 -15 q-47 0 -72 16.5t-25 44.5q0 21 13.5 34.5t34.5 13.5q24 0 42 -17q3 -49 53 -49q20 0 37.5 10t39 37t44.5 84.5t45 142.5l85 330h-71l11 37l75 13q47 191 165 237q31 12 65 12q64 0 108 -35q8 9 21 19q33 26 80 26q41 0 67 -15q36 -20 36 -60q0 -21 -14 -35.5t-38 -14.5 q-26 0 -41 22q5 17 5 30q0 15 -8.5 24.5t-23.5 9.5q-28 0 -48 -32t-24 -91q-3 -38 -12 -97zM238 470h176l7 34q5 21 12.5 47.5t12 44t4.5 29.5q0 57 -64 57q-44 0 -76 -34t-54 -112zM752 653q0 24 17.5 41.5t41.5 17.5t41 -17.5t17 -41.5q0 -25 -16.5 -42t-41.5 -17 q-24 0 -41.5 17t-17.5 42zM729 410l-100 12v31l182 29l21 -15q-41 -102 -65 -169l-62 -179q-12 -33 -12 -48q0 -22 31 -22q32 0 65 13l25 10l13 -29q-86 -55 -157 -55q-65 0 -65 48q0 30 16 74z" />
<glyph horiz-adv-x="0" />
<glyph horiz-adv-x="0" />
<glyph horiz-adv-x="333" />
<glyph unicode="&#xd;" horiz-adv-x="250" />
<glyph unicode=" "  horiz-adv-x="250" />
<glyph unicode="&#x09;" horiz-adv-x="250" />
<glyph unicode="&#xa0;" horiz-adv-x="250" />
<glyph unicode="!" horiz-adv-x="250" d="M140 195h-48l91 470h100zM24 53q0 28 19 46.5t47 18.5q27 0 45.5 -18.5t18.5 -46.5q0 -29 -18 -47t-46 -18t-47 18.5t-19 46.5z" />
<glyph unicode="&#x22;" horiz-adv-x="440" d="M178 376h-36l38 289h104zM368 376h-36l38 289h104z" />
<glyph unicode="#" d="M454 262v-48h-107l-57 -214h-52l57 214h-112l-57 -214h-51l57 214h-87v48h99l39 145h-87v48h100l56 210h50l-56 -210h113l56 210h51l-56 -210h95v-48h-107l-39 -145h95zM234 407l-39 -145h113l39 145h-113z" />
<glyph unicode="$" horiz-adv-x="493" d="M132 -139l-41 -1l49 137q-52 14 -96 56l-20 -31l-25 6l44 187h26l3 -38q9 -109 84 -138l92 254l-34 51q-52 79 -52 144q0 82 58 134.5t140 52.5q6 0 26 -2l47 130h42l-50 -138q38 -12 70 -41l31 30l24 -8l-44 -174h-26l-3 33q-9 96 -67 119l-92 -252l25 -37 q62 -90 62 -176q0 -75 -52.5 -123t-140.5 -48q-13 0 -33 2zM319 131q0 50 -45 121l-80 -221q5 -1 16 -1q49 0 79 27.5t30 73.5zM249 522q0 -48 42 -111l80 221q-2 0 -6 0.5t-5 0.5q-51 0 -81 -31.5t-30 -79.5z" />
<glyph unicode="%" horiz-adv-x="949" d="M115 503q0 71 50 121.5t121 50.5q70 0 120.5 -51t50.5 -121q0 -71 -50.5 -120.5t-120.5 -49.5q-71 0 -121 49.5t-50 120.5zM177 502q0 -47 30.5 -78.5t76.5 -31.5q47 0 78 31.5t31 78.5t-31 79.5t-78 32.5q-46 0 -76.5 -32.5t-30.5 -79.5zM822 690l-606 -766l-46 37 l606 766zM544 158q0 71 50 121.5t121 50.5q70 0 120.5 -51t50.5 -121q0 -71 -50.5 -120.5t-120.5 -49.5q-71 0 -121 49.5t-50 120.5zM606 157q0 -47 30.5 -78.5t76.5 -31.5q47 0 78 31.5t31 78.5t-31 79.5t-78 32.5q-46 0 -76.5 -32.5t-30.5 -79.5z" />
<glyph unicode="&#x26;" horiz-adv-x="793" d="M279 675q120 0 172 -135l-28 -16q-32 44 -65.5 62t-80.5 18q-60 0 -97.5 -38t-37.5 -104q0 -36 14 -67q51 59 110 59q44 0 70 -23t26 -62q0 -36 -27 -58.5t-76 -22.5q-45 0 -82 23q-1 -7 -1 -21q0 -99 73 -156.5t192 -57.5q103 0 161 46t58 130q0 58 -32.5 94t-87.5 36 q-42 0 -70.5 -22.5t-28.5 -52.5q0 -40 35 -40q26 0 36 27q26 0 42 -13.5t16 -38.5q0 -26 -17 -41.5t-48 -15.5q-43 0 -73 30t-30 86q0 61 45 102t114 46l72 5q168 11 168 115q0 38 -20 60.5t-48 22.5q-19 0 -29 -9t-10 -22q0 -26 32 -33q0 -62 -50 -62q-27 0 -42.5 18 t-15.5 48q0 44 31.5 70.5t76.5 26.5q55 0 89 -36.5t34 -94.5q0 -147 -204 -169v-4q66 -48 66 -145q0 -112 -81 -182t-215 -70q-140 0 -226 72.5t-86 179.5q0 63 26 115q-35 49 -35 115q0 90 51.5 147.5t133.5 57.5zM253 328q53 0 53 45q0 18 -11.5 29.5t-32.5 11.5 q-23 0 -43.5 -16t-31.5 -45q28 -25 66 -25z" />
<glyph unicode="'" horiz-adv-x="250" d="M178 376h-36l38 289h104z" />
<glyph unicode="(" horiz-adv-x="350" d="M28 100q0 194 98.5 356.5t277.5 272.5l27 -42q-154 -100 -247 -254.5t-93 -335.5q0 -93 28 -158.5t88 -132.5l-36 -33q-143 135 -143 327z" />
<glyph unicode=")" horiz-adv-x="350" d="M331 402q0 -194 -98.5 -356.5t-277.5 -272.5l-27 42q154 100 247 254.5t93 335.5q0 93 -28 158.5t-88 132.5l36 33q143 -135 143 -327z" />
<glyph unicode="*" d="M366 472l26 -126l-20 -9l-70 110l-111 -65l-14 17l82 99l-96 87l12 19l120 -49l52 118l23 -6l-9 -128l129 -14l1 -22z" />
<glyph unicode="+" d="M299 114h-48v194h-194v48h194v194h48v-194h194v-48h-194v-194z" />
<glyph unicode="," horiz-adv-x="250" d="M148 6q0 -36 -17 -70q-43 -85 -186 -131l-10 28q140 58 140 133q0 25 -15 42.5t-43 21.5q-9 14 -9 31q0 27 17 42t42 15q34 0 57.5 -30.5t23.5 -81.5z" />
<glyph unicode="-" horiz-adv-x="250" d="M3 207l16 63h230l-16 -63h-230z" />
<glyph unicode="." horiz-adv-x="250" d="M15 53q0 28 19 46.5t47 18.5q27 0 45.5 -18.5t18.5 -46.5q0 -29 -18 -47t-46 -18t-47 18.5t-19 46.5z" />
<glyph unicode="/" horiz-adv-x="460" d="M498 675l49 -40l-538 -647l-48 39z" />
<glyph unicode="0" d="M190 30q56 0 110.5 80.5t98.5 234.5q29 104 29 178q0 110 -69 110q-57 0 -112.5 -80.5t-98.5 -234.5q-29 -101 -29 -169q0 -119 71 -119zM188 -12q-65 0 -108 54.5t-43 151.5q0 82 21 154q48 161 133.5 244t168.5 83q66 0 109 -54t43 -152q0 -81 -23 -160 q-48 -161 -132.5 -241t-168.5 -80z" />
<glyph unicode="1" d="M192 154l118 413l-79 13l2 26l176 69l19 -10l-147 -511q-20 -70 -32 -114l104 -11l-5 -29l-151 2l-156 -2l5 29l112 11q7 21 18 58.5t16 55.5z" />
<glyph unicode="2" d="M392 110l22 -16l-42 -94l-125 2h-156l-96 -2l2 45l223 191q118 101 159 157.5t41 109.5q0 45 -21.5 69t-59.5 24q-80 0 -162 -94l-28 22q83 151 207 151q69 0 111 -41.5t42 -110.5q0 -70 -45.5 -130.5t-180.5 -170.5l-179 -146h173q71 0 115 34z" />
<glyph unicode="3" d="M180 -12q-63 0 -98 21q-37 23 -37 58q0 20 13 34.5t34 14.5q19 0 35 -14q2 -71 79 -71q58 0 94 33.5t36 88.5q0 41 -15 72.5t-59 72.5l-32 29l9 32l32 13q81 33 115.5 68t34.5 78q0 36 -20.5 57.5t-57.5 21.5q-72 0 -139 -74l-28 23q81 129 186 129q62 0 99.5 -38 t37.5 -97q0 -53 -32 -93t-115 -77l-18 -8l18 -18q64 -64 64 -154q0 -85 -66.5 -143.5t-169.5 -58.5z" />
<glyph unicode="4" d="M303 277l91 319h-4q-149 -143 -283 -319h196zM370 206l-16 -55q-13 -47 -35 -149l-81 -6l-11 20l56 190h-263l4 45q157 201 378 414h99l-111 -388h8q31 0 48 6.5t34 22.5l24 -13l-37 -87h-97z" />
<glyph unicode="5" d="M154 -12q-60 0 -95 21q-37 23 -37 58q0 20 13 34.5t34 14.5q19 0 35 -14q2 -71 81 -71q71 0 116 47.5t45 116.5q0 54 -28.5 90t-89.5 61l-60 24l-11 21l115 272h189l89 2l-21 -78h-244l-56 -136l31 -13q168 -70 168 -211q0 -101 -76.5 -170t-197.5 -69z" />
<glyph unicode="6" d="M545 659q-156 -73 -249.5 -145t-137.5 -155q63 59 135 59t121 -52.5t49 -144.5q0 -105 -78 -173q-69 -60 -154 -60q-89 0 -145 56t-56 165q0 311 467 477l31 11zM268 367q-69 0 -135 -68q-16 -54 -16 -116q0 -74 30.5 -113.5t82.5 -39.5q57 0 100 53t43 147q0 67 -29 102 t-76 35z" />
<glyph unicode="7" d="M167 543l-27 14l56 110l114 -2h274v-28l-266 -389q-68 -99 -68 -141q0 -34 31 -49q0 -34 -18 -52t-44 -18q-28 0 -45.5 19.5t-17.5 47.5q0 33 14.5 67.5t57.5 93.5l273 373h-230q-66 0 -104 -46z" />
<glyph unicode="8" d="M514 527q0 -60 -41.5 -97.5t-132.5 -77.5l18 -19q76 -82 76 -167q0 -80 -59.5 -129t-146.5 -49q-84 0 -134.5 41.5t-50.5 110.5q0 64 43 110t143 90q-68 75 -68 147q0 82 56 135t136 53q50 0 86 -18q75 -40 75 -130zM301 264l-48 51q-71 -40 -100 -84t-29 -99 q0 -45 30 -73.5t75 -28.5q56 0 91.5 33.5t35.5 80.5q0 38 -14 64.5t-41 55.5zM238 514q0 -54 47 -103l33 -36q66 38 95 75.5t29 88.5q0 39 -23.5 66.5t-65.5 27.5q-48 0 -81.5 -35t-33.5 -84z" />
<glyph unicode="9" d="M33 -34l-17 38q164 69 259 141.5t135 158.5q-63 -59 -142 -59q-72 0 -121 52.5t-49 144.5q0 105 78 173q69 60 154 60q92 0 146.5 -55t54.5 -160q0 -338 -466 -484zM293 296q69 0 135 68q16 54 16 116q0 74 -30.5 113.5t-82.5 39.5q-57 0 -100 -53t-43 -147 q0 -67 29 -102t76 -35z" />
<glyph unicode=":" horiz-adv-x="250" d="M15 53q0 28 19 46.5t47 18.5q27 0 45.5 -18.5t18.5 -46.5q0 -29 -18 -47t-46 -18t-47 18.5t-19 46.5zM106 417q0 28 19 46.5t47 18.5q27 0 45.5 -18.5t18.5 -46.5q0 -29 -18 -47t-46 -18t-47 18.5t-19 46.5z" />
<glyph unicode=";" horiz-adv-x="250" d="M106 417q0 28 19 46.5t47 18.5q27 0 45.5 -18.5t18.5 -46.5q0 -29 -18 -47t-46 -18t-47 18.5t-19 46.5zM148 6q0 -36 -17 -70q-43 -85 -186 -131l-10 28q140 58 140 133q0 25 -15 42.5t-43 21.5q-9 14 -9 31q0 27 17 42t42 15q34 0 57.5 -30.5t23.5 -81.5z" />
<glyph unicode="&#x3c;" d="M493 145l-436 166v39l436 177v-51l-356 -144l356 -132v-55z" />
<glyph unicode="=" d="M493 398h-436v48h436v-48zM493 218h-436v48h436v-48z" />
<glyph unicode="&#x3e;" d="M493 311l-436 -166v55l356 132l-356 144v51l436 -177v-39z" />
<glyph unicode="?" horiz-adv-x="300" d="M281 433l-64 -67q-33 -34 -48 -61t-15 -65q0 -18 3 -45h-35q-17 36 -17 80q0 80 77 159l54 55q35 36 49 57t14 43q0 17 -10 27.5t-28 10.5q-37 0 -58 -49q-9 -3 -18 -3q-20 0 -33 11t-13 28q0 27 24 44t70 17q57 0 87.5 -30t30.5 -80q0 -59 -70 -132zM41 53q0 28 19 46.5 t47 18.5q27 0 45.5 -18.5t18.5 -46.5q0 -29 -18 -47t-46 -18t-47 18.5t-19 46.5z" />
<glyph unicode="@" horiz-adv-x="959" d="M633 -12q-53 0 -80 26t-27 67v6q-88 -99 -164 -99q-48 0 -77 33t-29 96q0 88 33.5 164t89.5 129q77 72 149 72q42 0 68 -10t53 -34l49 44l28 -15q-53 -135 -64 -169l-56 -169q-9 -28 -9 -45q0 -37 43 -37q79 0 138.5 74.5t59.5 197.5q0 130 -81 211.5t-221 81.5 q-164 0 -280 -122.5t-116 -307.5q0 -160 99 -255t265 -95q136 0 266 66l19 -46q-60 -38 -137.5 -59t-152.5 -21q-190 0 -309.5 113t-119.5 299q0 103 38.5 195t102.5 156.5t149 102t176 37.5q170 0 269.5 -101.5t99.5 -256.5q0 -148 -79 -238.5t-193 -90.5zM603 358l-36 73 q-15 11 -43 11q-66 0 -123 -86.5t-57 -206.5q0 -94 62 -94q50 0 121 74z" />
<glyph unicode="A" horiz-adv-x="638" d="M246 230l-62 -74q-35 -42 -89 -116l78 -11l-6 -29l-112 2l-99 -2l6 29l70 11q63 72 98 116l421 519h27l-61 -519q-10 -81 -11 -116l66 -11l-6 -29l-113 2l-131 -2l6 29l89 11q8 42 17 116l9 74h-197zM475 514l-197 -244h169z" />
<glyph unicode="B" horiz-adv-x="552" d="M233 360h46q73 0 122 45t49 118q0 102 -100 102q-35 0 -51 -2zM300 320h-77l-69 -276q34 -4 60 -4q96 0 150.5 46.5t54.5 123.5q0 53 -31.5 81.5t-87.5 28.5zM216 0q-18 0 -54 1t-56 1l-140 -2l3 29l91 11q16 56 31 116l88 353q15 60 27 116l-86 11l3 29l137 -2 q12 0 45.5 1t44.5 1q94 0 140 -40.5t46 -109.5q0 -118 -150 -168l-1 -4q60 -15 90.5 -54.5t30.5 -94.5q0 -86 -78 -140t-212 -54z" />
<glyph unicode="C" horiz-adv-x="560" d="M401 633q-72 0 -138 -73q-48 -54 -77 -138.5t-29 -173.5q0 -93 36.5 -138.5t95.5 -45.5q53 0 97 31.5t84 111.5l32 -15q-32 -100 -93 -152t-145 -52q-89 0 -145 69t-56 178q0 104 37 195.5t100 154.5q90 90 200 90q88 0 144 -59l41 34l22 -16l-70 -193l-24 2v40 q0 73 -29.5 111.5t-82.5 38.5z" />
<glyph unicode="D" horiz-adv-x="650" d="M213 40q174 0 269 127q77 105 77 242q0 103 -46.5 159.5t-129.5 56.5q-39 0 -56 -2l-166 -579q34 -4 52 -4zM238 0q-26 0 -68 1t-60 1l-140 -2l5 29l92 11q13 39 35 116l101 353q21 72 32 116l-86 11l5 29l137 -2q12 0 48 1t50 1q122 0 191.5 -78t69.5 -200 q0 -126 -72 -223q-59 -79 -147 -121.5t-193 -42.5z" />
<glyph unicode="E" horiz-adv-x="550" d="M-34 0l4 29l90 11q16 56 31 116l89 353q8 32 26 116l-86 11l4 29l137 -2h147l132 2l-10 -159h-28l-3 32q-5 50 -25 67.5t-73 17.5h-102l-66 -263h20q51 0 108 2l44 97h29l-31 -117l-29 -123h-27l5 99q-56 2 -109 2h-20l-69 -278h163q53 0 85 18.5t60 66.5l25 43h30 l-55 -170l-102 2h-255z" />
<glyph unicode="F" horiz-adv-x="503" d="M95 156l89 353q8 32 26 116l-86 11l4 29l137 -2h147l139 2l-17 -159h-28l-2 32q-3 50 -21 67.5t-71 17.5h-109l-65 -258h20q51 0 108 2l44 97h29l-31 -117l-29 -123h-27l5 99q-56 2 -109 2h-20l-42 -169q-20 -83 -27 -116l117 -11l-5 -29l-168 2l-133 -2l3 29l91 11 q16 56 31 116z" />
<glyph unicode="G" horiz-adv-x="638" d="M500 121l-23 -92q-85 -41 -167 -41q-116 0 -180.5 75t-64.5 194q0 200 129 323q99 95 219 95q96 0 164 -74l33 37l28 -13l-66 -169h-26l-5 41q-16 136 -124 136q-88 0 -161 -97q-42 -56 -70 -140t-28 -178q0 -90 41 -139t112 -49q41 0 84 19l19 72q15 60 27 116l-99 11 l5 29l143 -2l117 2l-5 -29l-71 -11q-20 -69 -31 -116z" />
<glyph unicode="H" horiz-adv-x="682" d="M435 40q16 56 31 116l41 164h-278l-41 -164q-20 -83 -27 -116l85 -11l-5 -29l-132 2l-139 -2l5 29l91 11q16 56 31 116l88 353q15 60 27 116l-86 11l5 29l133 -2l138 2l-5 -29l-90 -11q-20 -69 -31 -116l-37 -149h278l37 149q15 60 27 116l-84 11l5 29l136 -2l135 2 l-5 -29l-92 -11q-20 -69 -31 -116l-88 -353q-20 -83 -27 -116l87 -11l-5 -29l-134 2l-137 -2l5 29z" />
<glyph unicode="I" horiz-adv-x="313" d="M270 509l-88 -353q-20 -83 -27 -116l87 -11l-5 -29l-138 2l-133 -2l3 29l91 11q16 56 31 116l88 353q15 60 27 116l-86 11l5 29l137 -2l136 2l-5 -29l-92 -11q-20 -69 -31 -116z" />
<glyph unicode="J" horiz-adv-x="311" d="M90 110l97 399q15 60 27 116l-86 11l3 29l137 -2l136 2l-3 -29l-92 -11q-20 -69 -31 -116l-71 -284q-57 -229 -128.5 -340.5t-176.5 -111.5q-42 0 -67 15q-37 21 -37 61q0 27 16.5 43.5t38.5 16.5q25 0 43 -19q-1 -7 -1 -20q0 -48 44 -48q47 0 79 62t72 226z" />
<glyph unicode="K" horiz-adv-x="684" d="M422 266l85 -173q17 -34 32 -46.5t37 -12.5q13 0 49 6l7 -33q-48 -19 -87 -19q-48 0 -80.5 27t-59.5 84l-83 175q-27 56 -75 56h-22l-43 -174q-20 -83 -27 -116l87 -11l-3 -29l-136 2l-137 -2l3 29l91 11q16 56 31 116l88 353q15 60 27 116l-86 11l3 29l137 -2l136 2 l-3 -29l-92 -11q-20 -69 -31 -116l-35 -139h20q44 0 85 41l100 98q59 58 110 116l-60 11l3 29l106 -2l85 2l-3 -29l-58 -11q-82 -78 -122 -118l-150 -149v-4q21 -12 36 -31t35 -57z" />
<glyph unicode="L" horiz-adv-x="517" d="M270 509l-116 -467h113q54 0 87.5 18.5t60.5 68.5l33 61h28l-60 -190l-107 2h-205l-140 -2l5 29l91 11q16 56 31 116l88 353q15 60 27 116l-86 11l5 29l137 -2l136 2l-5 -29l-92 -11q-9 -33 -19 -71t-12 -45z" />
<glyph unicode="M" horiz-adv-x="821" d="M594 156l42 380l-252 -449h-50l-36 435l-146 -366q-21 -52 -41 -116l83 -11l-4 -29l-120 2l-108 -2l4 29l89 11q23 54 48 116l185 462l-89 18l7 29l168 -2l37 -437l249 437l166 2l-4 -29l-86 -14l-52 -464q-8 -77 -10 -118l86 -11l-5 -29l-136 2l-137 -2l5 29l91 11 q9 47 16 116z" />
<glyph unicode="N" horiz-adv-x="687" d="M506 -12h-32l-223 559l-123 -391q-7 -24 -30 -116l82 -11l-4 -29l-112 2l-111 -2l4 29l89 11q8 25 15.5 47.5t13.5 42t8 26.5l136 440l-79 40l9 29l148 -2l208 -516l113 362q10 30 31 114l-82 13l5 29l112 -2l113 2l-5 -29l-90 -13q-23 -69 -36 -114z" />
<glyph unicode="O" horiz-adv-x="684" d="M299 30q95 0 172 102q93 123 93 299q0 202 -133 202q-96 0 -173 -102q-93 -123 -93 -299q0 -105 36 -153.5t98 -48.5zM300 -12q-107 0 -171.5 76t-64.5 201q0 79 30 157t86 139q106 114 250 114q106 0 170.5 -78t64.5 -202q0 -77 -30 -154.5t-86 -138.5 q-106 -114 -249 -114z" />
<glyph unicode="P" horiz-adv-x="510" d="M223 301q111 14 173 67.5t62 133.5q0 57 -27.5 90t-75.5 33q-30 0 -53 -4zM261 0l-151 2l-136 -2l3 29l91 11q8 28 30 116l89 353q8 32 26 116l-86 11l4 29l137 -2q22 0 52 1t39 1q88 0 137 -47t49 -118q0 -94 -83 -154.5t-248 -81.5l-28 -108q-11 -44 -26 -114l104 -11z " />
<glyph unicode="Q" horiz-adv-x="684" d="M525 -180q21 0 33 9.5t12 23.5q0 23 -27 37q0 26 14 42.5t40 16.5t40 -19.5t14 -46.5q0 -44 -41 -77t-125 -33q-55 0 -97.5 11.5t-101.5 41.5l-72 37q-65 33 -112 33q-24 0 -36.5 -10.5t-12.5 -24.5q0 -25 25 -34q0 -25 -13 -39.5t-36 -14.5q-25 0 -40.5 15.5t-15.5 41.5 q0 73 112 110l156 51v4q-81 21 -129 93.5t-48 176.5q0 79 30 157t86 139q106 114 250 114q106 0 170.5 -78t64.5 -202q0 -77 -30 -154.5t-86 -138.5q-68 -74 -197 -117l-157 -51l1 -4q33 -3 52.5 -5.5t51 -12.5t66.5 -28l36 -18q9 -4 26.5 -13t24 -12t18.5 -8.5t19 -7.5 t16.5 -3.5t18.5 -1.5zM299 30q95 0 172 102q93 123 93 299q0 202 -133 202q-96 0 -173 -102q-93 -123 -93 -299q0 -105 36 -153.5t98 -48.5z" />
<glyph unicode="R" horiz-adv-x="652" d="M230 370h56q69 0 113.5 41t44.5 107q0 49 -30 78t-76 29q-19 0 -46 -3zM365 340l-1 -4q45 -23 64 -81l54 -155q13 -38 25.5 -53t33.5 -15q8 0 50 7l7 -33q-50 -18 -86 -18q-47 0 -76 26t-48 84l-52 159q-14 44 -32 58.5t-57 14.5h-27l-43 -174q-8 -32 -26 -116l87 -11 l-4 -29l-132 2l-138 -2l4 29l89 11q24 84 32 116l88 353q1 4 25 116l-87 11l5 29l137 -2q11 0 44 1t49 1q85 0 133 -42.5t48 -109.5q0 -64 -43.5 -109t-122.5 -64z" />
<glyph unicode="S" horiz-adv-x="493" d="M259 276l-45 68q-52 79 -52 144q0 82 58 134.5t140 52.5q80 0 135 -51l31 30l24 -8l-44 -174h-26l-3 33q-12 128 -117 128q-51 0 -81 -31.5t-30 -79.5q0 -50 47 -118l47 -69q62 -90 62 -176q0 -75 -52.5 -123t-140.5 -48q-100 0 -168 65l-20 -31l-25 6l44 187h26l3 -38 q6 -72 41.5 -109.5t96.5 -37.5q49 0 79 27.5t30 73.5q0 56 -60 145z" />
<glyph unicode="T" horiz-adv-x="603" d="M355 623h-43q-62 0 -94.5 -17.5t-67.5 -68.5l-29 -42h-28l67 170l131 -2h251l133 2l-46 -170h-26v44q0 51 -17 67.5t-70 16.5h-70l-134 -467q-23 -82 -31 -116l95 -11l-4 -29l-145 2l-148 -2l4 29l103 11q13 39 35 116z" />
<glyph unicode="U" horiz-adv-x="672" d="M114 289l63 220q21 72 32 116l-86 11l4 29l137 -2l136 2l-4 -29l-92 -11q-8 -27 -20 -65t-16 -51l-72 -253q-18 -62 -18 -97q0 -49 33 -77.5t90 -28.5q164 0 219 194l75 261q16 54 31 115l-85 13l4 29l112 -2l112 2l-4 -29l-93 -13q-24 -74 -35 -114l-86 -299 q-33 -116 -103 -169t-162 -53q-93 0 -145 44.5t-52 118.5q0 48 25 138z" />
<glyph unicode="V" horiz-adv-x="638" d="M218 149l291 360q56 70 89 116l-78 11l6 29l112 -2l99 2l-6 -29l-70 -11q-63 -72 -98 -116l-421 -521h-27l61 521q10 81 11 116l-66 11l6 29l113 -2l131 2l-6 -29l-89 -11q-8 -42 -17 -116z" />
<glyph unicode="W" horiz-adv-x="960" d="M540 149l291 360q56 70 89 116l-78 11l6 29l112 -2l99 2l-6 -29l-70 -11q-63 -72 -98 -116l-421 -521h-27l50 426l-345 -426h-27l61 521q9 67 11 116l-66 11l6 29l113 -2l121 2l-6 -29l-79 -11q-8 -42 -17 -116l-41 -360l278 344l2 16q9 67 11 116l-62 11l6 29l109 -2 l138 2l-6 -29l-96 -11q-8 -42 -17 -116z" />
<glyph unicode="X" horiz-adv-x="648" d="M341 509l43 -111l100 111q11 12 101 116l-78 11l3 29l121 -2l94 2l-3 -29l-72 -11q-18 -20 -53.5 -58t-53.5 -58l-141 -158l76 -195q27 -69 47 -116l66 -11l-3 -29l-113 2l-143 -2l3 29l90 11q-24 78 -39 116l-55 142l-123 -142q-41 -45 -94 -116l77 -11l-3 -29l-124 2 l-93 -2l3 29l70 11q20 22 55 62t48 54l166 189l-64 164q-26 70 -48 116l-66 11l3 29l121 -2l128 2l-3 -29l-84 -11q8 -28 41 -116z" />
<glyph unicode="Y" horiz-adv-x="628" d="M557 507l-187 -231l-35 -121q-21 -75 -31 -115l96 -11l-4 -29l-146 2l-147 -2l4 29l102 11q13 39 35 116l31 107l-53 244q-16 71 -30 116l-72 11l5 29l115 -2l145 2l-5 -29l-86 -11q8 -66 19 -116l41 -189l151 189q34 41 86 116l-73 11l5 29l105 -2l101 2l-5 -29l-68 -11 q-38 -43 -99 -116z" />
<glyph unicode="Z" horiz-adv-x="579" d="M106 42h187q67 0 104.5 19.5t68.5 70.5l32 53h31l-66 -185l-134 2h-214l-126 -2l4 39l549 584h-176q-62 0 -97 -20.5t-69 -74.5l-23 -37h-30l55 174l149 -2h303l-3 -35z" />
<glyph unicode="[" horiz-adv-x="350" d="M206 729h242l-13 -54h-179l-212 -848h179l-13 -54h-242z" />
<glyph unicode="\" horiz-adv-x="460" d="M112 655l60 20l223 -667l-59 -20z" />
<glyph unicode="]" horiz-adv-x="350" d="M148 729h242l-238 -956h-241l13 54h178l212 848h-179z" />
<glyph unicode="^" d="M382 664l57 -436h-49l-43 356l-233 -356h-57l286 436h39z" />
<glyph unicode="_" d="M-114 -227l16 63h499l-16 -63h-499z" />
<glyph unicode="`" horiz-adv-x="600" d="M318 748l37 -210h-52l-59 210h74z" />
<glyph unicode="a" horiz-adv-x="523" d="M293 56q0 6 3 25q-86 -93 -157 -93q-48 0 -77 33t-29 96q0 88 33.5 164t89.5 129q77 72 149 72q41 0 67 -10.5t54 -33.5l49 44l28 -15q-53 -135 -64 -169l-59 -179q-10 -31 -10 -47q0 -25 30 -25q23 0 63 20l27 14l15 -28q-82 -65 -133 -65q-38 0 -58.5 18t-20.5 50z M183 55q50 0 121 74l76 229l-36 73q-15 11 -43 11q-66 0 -123 -86.5t-57 -206.5q0 -94 62 -94z" />
<glyph unicode="b" horiz-adv-x="518" d="M123 97l49 -62q23 -7 33 -7q76 0 128.5 79.5t52.5 185.5q0 63 -20 93t-51 30q-25 0 -52 -17.5t-68 -63.5zM256 545l-54 -158q47 54 79.5 74.5t66.5 20.5q55 0 90 -44t35 -124q0 -74 -28.5 -142.5t-81.5 -118.5q-70 -65 -158 -65q-103 0 -170 79l146 491q17 55 27 99 l-92 12v31l175 29l21 -15q-13 -36 -30.5 -90.5t-25.5 -78.5z" />
<glyph unicode="c" horiz-adv-x="413" d="M275 437q-44 0 -85 -48q-66 -75 -66 -196q0 -67 28.5 -99t69.5 -32q58 0 113 68l25 -15q-22 -56 -63.5 -91.5t-91.5 -35.5q-72 0 -118.5 47t-46.5 128q0 157 114 259q67 60 137 60q39 0 60 -9q52 -22 52 -70q0 -25 -14 -40.5t-36 -15.5q-25 0 -46 19q5 17 5 31 q0 40 -37 40z" />
<glyph unicode="d" horiz-adv-x="532" d="M311 62q0 9 1 21q-47 -54 -79.5 -74.5t-66.5 -20.5q-53 0 -88 41.5t-35 113.5q0 163 109 266q78 73 161 73q53 0 102 -25l32 101l25 99l-94 12v31l175 29l21 -15q-32 -89 -55 -170l-126 -425q-8 -29 -8 -45q0 -27 33 -27q29 0 58 22l26 19l18 -26q-76 -74 -130 -74 q-38 0 -58.5 20t-20.5 54zM309 442q-72 0 -125.5 -83t-53.5 -198q0 -53 19.5 -80t49.5 -27q24 0 50.5 17.5t69.5 63.5l69 223l-36 73q-15 11 -43 11z" />
<glyph unicode="e" horiz-adv-x="401" d="M321 286q-69 -34 -196 -64q-3 -22 -3 -48q0 -114 73 -114q27 0 50.5 12.5t58.5 46.5l23 -18q-63 -113 -155 -113q-60 0 -97 41.5t-37 113.5q0 127 83.5 233t172.5 106q46 0 73.5 -25t27.5 -66q0 -69 -74 -105zM184 378q-38 -47 -52 -118q102 29 142.5 58.5t40.5 63.5 q0 21 -12 33.5t-33 12.5q-45 0 -86 -50z" />
<glyph unicode="f" horiz-adv-x="318" d="M226 420l-81 -291q-41 -148 -90.5 -229t-122.5 -112q-35 -15 -88 -15q-47 0 -72 16.5t-25 44.5q0 21 13.5 34.5t34.5 13.5q24 0 42 -17q3 -49 53 -49q20 0 37.5 10t39 37t44.5 84.5t45 142.5l85 330h-71l11 37l75 13q53 204 174 249q27 10 62 10q42 0 71 -16 q37 -21 37 -59q0 -22 -13.5 -36t-38.5 -14q-26 0 -41 22q5 17 5 30q0 36 -37 36q-34 0 -65.5 -38t-60.5 -144l-11 -40h122l-15 -50h-119z" />
<glyph unicode="g" horiz-adv-x="485" d="M221 -16l-76 24q-53 -8 -79.5 -34t-26.5 -61q0 -43 36.5 -69t96.5 -26t92.5 25.5t32.5 64.5q0 52 -76 76zM359 358q0 44 -16.5 66t-45.5 22q-39 0 -70 -37q-39 -46 -39 -118q0 -41 18 -63t44 -22q39 0 68 33q41 46 41 119zM420 423q24 -34 24 -78q0 -47 -26.5 -86.5 t-70.5 -62.5q-36 -17 -104 -33l-70 -16q-49 -11 -49 -29q0 -9 11.5 -15.5t43.5 -17.5l71 -24q117 -40 117 -133q0 -64 -59.5 -109.5t-156.5 -45.5q-84 0 -137.5 34.5t-53.5 89.5q0 45 33.5 80t104.5 51q-63 27 -63 74q0 36 36 54l111 24q-37 15 -58 44.5t-21 70.5 q0 74 57.5 130.5t140.5 56.5q58 0 96 -32q25 69 80 69q19 0 31.5 -11.5t12.5 -30.5q0 -26 -23 -35q-16 9 -29 9q-29 0 -49 -28z" />
<glyph unicode="h" horiz-adv-x="517" d="M256 545l-45 -143q82 80 159 80q45 0 69.5 -28.5t24.5 -74.5q0 -36 -16 -87l-45 -140q-20 -61 -20 -84q0 -33 55 -33h35v-26q-60 -21 -102 -21q-35 0 -54 18.5t-19 47.5q0 32 22 98l46 144q13 40 13 66q0 24 -14.5 38.5t-39.5 14.5q-51 0 -116 -51l-64 -212l-42 -150 l-76 -6l-11 20q40 112 47 136l120 406q17 55 26 99l-94 12v31l175 29l21 -15q-20 -56 -55 -169z" />
<glyph unicode="i" horiz-adv-x="267" d="M176 653q0 24 17.5 41.5t41.5 17.5t41 -17.5t17 -41.5q0 -25 -16.5 -42t-41.5 -17q-24 0 -41.5 17t-17.5 42zM153 410l-100 12v31l182 29l21 -15q-41 -102 -65 -169l-62 -179q-12 -33 -12 -48q0 -22 31 -22q32 0 65 13l25 10l13 -29q-86 -55 -157 -55q-65 0 -65 48 q0 30 16 74z" />
<glyph unicode="j" horiz-adv-x="272" d="M179 653q0 24 17.5 41.5t41.5 17.5t41 -17.5t17 -41.5q0 -25 -16.5 -42t-41.5 -17q-24 0 -41.5 17t-17.5 42zM270 467l-72 -242q-37 -123 -57.5 -178t-50.5 -105q-51 -85 -114.5 -127t-156.5 -42q-58 0 -87.5 19t-29.5 50q0 22 13.5 36t34.5 14q25 0 46 -19q5 -57 72 -57 q73 0 124 76t111 279l71 239l-138 12v31l213 29z" />
<glyph unicode="k" horiz-adv-x="514" d="M261 545l-80 -264q36 0 88 45l25 23q42 37 84 80l-52 14l3 27l98 -2l87 2l-3 -27l-62 -14q-49 -40 -121 -103l-66 -59v-4q22 -12 35 -28.5t28 -53.5l38 -92q11 -27 20 -36t28 -9q29 0 62 30l22 -22q-48 -64 -107 -64q-43 0 -66 24t-46 82l-32 81q-15 38 -29 51.5 t-46 14.5l-21 -69q-14 -50 -44 -170l-76 -6l-11 20q35 97 46 136l120 406q17 55 26 99l-93 12v31l173 29l21 -15q-11 -30 -19 -58t-16.5 -60.5t-13.5 -50.5z" />
<glyph unicode="l" horiz-adv-x="260" d="M52 152l139 406q15 43 28 99l-93 12v31l177 29l21 -15q-31 -87 -58 -169l-131 -393q-20 -61 -20 -82q0 -30 39 -30q9 0 37 4l23 4l4 -28q-66 -32 -115 -32q-35 0 -54 18.5t-19 47.5q0 32 22 98z" />
<glyph unicode="m" horiz-adv-x="763" d="M448 286l-41 -134q-21 -64 -42 -150l-76 -6l-11 20q40 112 47 136l44 144q12 37 12 66q0 24 -13 38.5t-36 14.5q-51 0 -115 -51l-59 -212q-14 -50 -39 -150l-77 -6l-11 20q24 66 44 136l71 247l-89 13v25l142 45l23 -12l-3 -68q85 80 149 80q38 0 63.5 -21.5t32.5 -57.5 q79 79 149 79q50 0 74.5 -28t24.5 -75q0 -40 -16 -87l-50 -140q-22 -63 -22 -82q0 -35 52 -35h43v-26q-60 -21 -107 -21q-35 0 -54 18.5t-19 47.5t24 98l51 144q13 36 13 66q0 53 -52 53q-47 0 -109 -49q-1 -26 -18 -80z" />
<glyph unicode="n" horiz-adv-x="527" d="M332 152l46 144q13 40 13 66q0 24 -13 38.5t-36 14.5q-56 0 -121 -51l-64 -212l-42 -150l-77 -6l-11 20q40 112 47 136l76 247l-89 13v25l142 45l23 -12l-3 -68q78 80 159 80q48 0 71 -28t23 -75q0 -36 -16 -87l-46 -141q-20 -61 -20 -81q0 -35 52 -35h39v-26 q-60 -21 -102 -21q-35 0 -54 18.5t-19 47.5q0 32 22 98z" />
<glyph unicode="o" horiz-adv-x="516" d="M383 284q0 81 -27 119t-70 38q-37 0 -69 -28q-36 -30 -57.5 -90t-21.5 -139t27.5 -117.5t70.5 -38.5q36 0 67 28q35 32 57.5 92t22.5 136zM46 192q0 74 29.5 137t77.5 102q63 51 135 51q83 0 135.5 -55.5t52.5 -147.5q0 -74 -29.5 -137.5t-77.5 -102.5q-63 -51 -135 -51 q-83 0 -135.5 56t-52.5 148z" />
<glyph unicode="p" horiz-adv-x="529" d="M114 13l-26 -88q-13 -48 -29 -115l96 -10l-3 -27l-131 2l-104 -2l3 27l51 10q23 73 36 116l141 473l-90 13v25l142 45l23 -12l-8 -83q47 54 79.5 74.5t66.5 20.5q53 0 88 -41.5t35 -113.5q0 -163 -109 -266q-78 -73 -161 -73q-57 0 -100 25zM137 95l48 -62q17 -5 33 -5 q72 0 125.5 83t53.5 198q0 53 -19.5 80t-49.5 27q-25 0 -52 -17.5t-68 -63.5z" />
<glyph unicode="q" horiz-adv-x="505" d="M309 442q-68 0 -128 -86.5t-60 -198.5q0 -103 67 -103q42 0 126 71l70 233l-32 73q-15 11 -43 11zM493 467l-157 -542q-8 -29 -27 -115l52 -10l-5 -27l-99 2l-136 -2l5 27l96 10q16 47 35 115l22 78l23 68l-2 2q-52 -48 -83.5 -66.5t-63.5 -18.5q-53 0 -85.5 39.5 t-32.5 111.5q0 77 29.5 147t82.5 120q81 76 166 76q57 0 104 -41l48 41z" />
<glyph unicode="r" horiz-adv-x="362" d="M210 368l3 -1q34 52 61 80q33 35 67 35q25 0 42 -14.5t17 -39.5q0 -20 -12.5 -34t-33.5 -17q-19 21 -38 21q-50 0 -111 -76l-50 -170q-33 -117 -41 -150l-78 -6l-11 20q8 21 19.5 52.5t19 52t10.5 31.5l50 170l19 77l-84 13v25l144 45l23 -12z" />
<glyph unicode="s" horiz-adv-x="348" d="M289 127q0 -57 -45.5 -98t-113.5 -41q-53 0 -83 23q-31 23 -31 54q0 18 12.5 31t31.5 13t35 -12q1 -57 59 -57q33 0 51.5 16.5t18.5 46.5q0 7 -1.5 14.5t-3 13t-5.5 13t-7 12.5t-10.5 14.5t-12 14.5t-15 18t-16.5 20q-58 69 -58 123q0 60 43 98t106 38q47 0 74 -19 t27 -46q0 -22 -13 -33.5t-31 -11.5q-19 0 -31 10q-9 53 -56 53q-26 0 -41.5 -15.5t-15.5 -40.5q0 -21 12.5 -41t47.5 -63q42 -51 57 -80t15 -68z" />
<glyph unicode="t" horiz-adv-x="335" d="M301 140l24 -26q-107 -126 -208 -126q-87 0 -87 72q0 31 21 103l73 257h-71l9 38l73 12l23 101l92 47l15 -10l-45 -138h138l-13 -50h-138l-79 -279q-11 -38 -11 -57q0 -31 32 -31q56 0 152 87z" />
<glyph unicode="u" horiz-adv-x="520" d="M455 318l-54 -165q-15 -48 -15 -71q0 -41 42 -41q12 0 40 5l18 3l5 -26q-51 -35 -104 -35q-78 0 -84 79q-80 -79 -149 -79q-51 0 -76.5 27.5t-25.5 74.5q0 35 21 96l78 224l-98 12v31l180 29l21 -15q-41 -110 -62 -169l-44 -125q-15 -42 -15 -69q0 -23 14 -36t37 -13 q46 0 117 48l71 215q20 59 41 151l80 5l11 -20q-8 -22 -19 -53t-19 -52t-11 -31z" />
<glyph unicode="v" horiz-adv-x="497" d="M307 374l-21 18q32 90 97 90q42 0 69 -37.5t27 -101.5q0 -118 -72 -224q-45 -67 -90.5 -99t-101.5 -32t-89 30t-33 79t36 119l24 47q20 39 20 82q0 26 -12.5 41.5t-32.5 15.5q-42 0 -82 -67l-28 14l16 38q40 95 113 95q37 0 61.5 -28.5t24.5 -78.5q0 -51 -32 -123 l-13 -28q-20 -45 -20 -79q0 -36 21.5 -57t55.5 -21q71 0 121 76q49 73 49 159q0 46 -16.5 72t-41.5 26q-27 0 -50 -26z" />
<glyph unicode="w" horiz-adv-x="668" d="M478 482q55 0 92.5 -61.5t37.5 -178.5q0 -113 -43.5 -183.5t-107.5 -70.5q-90 0 -109 118h-4q-34 -61 -69 -89.5t-80 -28.5q-50 0 -80.5 26.5t-30.5 73.5q0 31 12.5 61.5t42.5 79.5l21 34q27 43 27 86q0 26 -13 39.5t-34 13.5q-23 0 -42 -12t-45 -44l-26 19l20 34 q49 83 117 83q39 0 63 -28t24 -75q0 -50 -39 -117l-13 -21q-40 -67 -40 -108q0 -29 16 -45.5t46 -16.5q32 0 63 22.5t52 60.5q-5 33 -5 53q0 35 13 57t31 22q14 0 24 -14.5t10 -41.5q0 -54 -36 -90q6 -31 29 -50t53 -19q43 0 74 45.5t31 121.5q0 80 -29.5 121t-71.5 41 q-37 0 -69 -27l-21 18l17 28q39 63 92 63z" />
<glyph unicode="x" horiz-adv-x="532" d="M293 353l10 -65l120 156q30 38 64 38q23 0 38 -16t15 -42t-14 -40.5t-39 -14.5h-5q-8 26 -26 26t-42 -27l-105 -119l20 -132q8 -55 42 -55q19 0 36 18t39 72l33 -12l-10 -31q-20 -63 -47.5 -92t-69.5 -29q-79 0 -94 97l-16 100l-122 -159q-30 -38 -68 -38q-24 0 -38 13.5 t-14 40.5q0 23 14.5 39.5t37.5 20.5q18 -24 36 -24q19 0 44 29l103 119l-17 113q-6 37 -16.5 53t-28.5 16q-39 0 -57 -83l-35 4l5 33q9 58 37.5 89t67.5 31q83 0 102 -129z" />
<glyph unicode="y" horiz-adv-x="474" d="M250 107l128 206q29 47 29 77q0 26 -23 40q0 23 12.5 37.5t32.5 14.5q22 0 35.5 -16t13.5 -41q0 -37 -37 -95l-222 -351q-130 -206 -280 -206q-56 0 -84 20.5t-28 52.5q0 21 14 35.5t35 14.5q22 0 42 -17q3 -25 15 -38.5t38 -13.5q49 0 98 37.5t107 129.5l-22 389 q-2 26 -20 26q-16 0 -35 -13.5t-63 -55.5l-25 25l33 38q68 79 123 79q58 0 63 -67z" />
<glyph unicode="z" horiz-adv-x="439" d="M85 357l-26 14l38 99l75 -2h159l87 2l5 -25l-290 -311q36 0 60.5 -12.5t49.5 -42.5l37 -43q24 -29 49 -29q23 0 44 20l25 24l23 -24q-33 -46 -59.5 -62.5t-59.5 -16.5q-56 0 -93 46l-58 71q-17 22 -38 22q-17 0 -28 -11.5t-11 -31.5q0 -16 10 -29q-9 -25 -36 -25 q-16 0 -27 11.5t-11 31.5q0 19 9.5 37t38.5 49l265 284h-157q-44 0 -81 -46z" />
<glyph unicode="{" horiz-adv-x="350" d="M14 276h30q93 0 119 91q10 34 20.5 108t20.5 112q18 68 66.5 105t123.5 37h72l-16 -54h-61q-46 0 -78 -25t-43 -66q-9 -36 -19.5 -107.5t-22.5 -114.5q-15 -55 -38 -79.5t-65 -37.5q40 -22 40 -72q0 -24 -8 -51q-12 -42 -40 -104.5t-38 -99.5q-4 -13 -4 -29 q0 -29 18.5 -45.5t54.5 -16.5h61l-16 -54h-50q-61 0 -95 31t-34 80q0 29 17 80q3 9 29.5 70.5t37.5 100.5q6 21 6 37q0 54 -73 54h-30z" />
<glyph unicode="|" horiz-adv-x="250" d="M216 729h63l-238 -956h-63z" />
<glyph unicode="}" horiz-adv-x="350" d="M343 226h-30q-93 0 -119 -91q-10 -34 -20.5 -108t-20.5 -112q-18 -68 -66.5 -105t-123.5 -37h-72l16 54h61q46 0 78 25t43 66q9 36 19.5 107.5t22.5 114.5q15 55 38 79.5t65 37.5q-40 22 -40 72q0 24 8 51q12 42 40 104.5t38 99.5q4 13 4 29q0 29 -18.5 45.5t-54.5 16.5 h-61l16 54h50q61 0 95 -31t34 -80q0 -29 -17 -80q-3 -9 -29.5 -70.5t-37.5 -100.5q-6 -21 -6 -37q0 -54 73 -54h30z" />
<glyph unicode="~" d="M266 309q-65 31 -87 31q-49 0 -86 -66l-36 21q44 93 122 93q34 0 104 -34q63 -30 87 -30q26 0 45.5 14.5t38.5 50.5l39 -19q-45 -94 -123 -94q-36 0 -104 33z" />
<glyph unicode="&#xa1;" horiz-adv-x="250" d="M167 470h48l-91 -470h-100zM283 612q0 -28 -19 -46.5t-47 -18.5q-27 0 -45.5 18.5t-18.5 46.5q0 29 18 47t46 18t47 -18.5t19 -46.5z" />
<glyph unicode="&#xa2;" horiz-adv-x="408" d="M13 -227l105 234q-77 42 -77 151q0 163 110 264q65 60 133 60q27 0 47 -5l84 187h45l-93 -205q29 -21 29 -56q0 -25 -14 -40.5t-36 -15.5q-14 0 -27 5l-129 -287q12 -3 25 -3q58 0 113 68l25 -15q-22 -56 -63.5 -91.5t-91.5 -35.5q-19 0 -41 5l-99 -220h-45zM268 437 q-40 0 -81 -48q-62 -71 -62 -196q0 -72 29 -106l148 327q-8 23 -34 23z" />
<glyph unicode="&#xa3;" horiz-adv-x="574" d="M74 320v40h100l7 36q24 130 105 214q63 65 140 65q50 0 79 -23t29 -52q0 -21 -12.5 -33t-31.5 -12q-22 0 -39 15q-13 52 -64 52q-75 0 -103 -146l-22 -116h113v-40h-121q-20 -108 -105 -210q20 5 42 5q38 0 80 -26l50 -31q39 -24 83 -24q23 0 36.5 12t13.5 33 q0 33 -34 42q-10 11 -10 28t12 28t31 11q24 0 40.5 -20t16.5 -52q0 -60 -38 -94t-105 -34q-74 0 -129 35l-33 21q-53 33 -80 33q-53 -89 -92 -89q-26 0 -26 26q0 21 29 47.5t77 43.5q29 72 48 181l6 34h-93z" />
<glyph unicode="&#xa5;" horiz-adv-x="628" d="M66 232l11 40h196l-18 80h-151l11 40h132l-25 115q-16 71 -30 116l-72 11l5 29l115 -2l145 2l-5 -29l-86 -11q8 -66 19 -116l41 -189l151 189q34 41 86 116l-73 11l5 29l105 -2l101 2l-5 -29l-68 -11q-38 -43 -99 -116l-93 -115h142l-11 -40h-164l-61 -76l-1 -4h199 l-11 -40h-200l-22 -75q-16 -58 -31 -117l96 -11l-4 -29l-146 2l-147 -2l4 29l102 11q13 39 35 116l22 76h-200z" />
<glyph unicode="&#xa6;" horiz-adv-x="250" d="M62 109h63l-84 -336h-63zM216 729h63l-84 -336h-63z" />
<glyph unicode="&#xa7;" d="M429 223q0 -96 -112 -139q55 -55 55 -137q0 -81 -57 -127.5t-157 -46.5q-90 0 -148 45l-29 -33h-29l43 215h25l3 -38q11 -147 134 -147q67 0 103.5 30t36.5 76q0 35 -13.5 60t-47.5 52l-98 77q-70 56 -70 127q0 101 111 156q-41 47 -41 107q0 79 56.5 127t142.5 48 q71 0 127 -42l24 32h25l-25 -183h-24l-4 32q-7 58 -40 88.5t-83 30.5q-55 0 -88.5 -30.5t-33.5 -76.5q0 -29 12.5 -50t42.5 -46l85 -68q74 -59 74 -139zM313 282l-106 83q-65 -42 -65 -95q0 -47 41 -79l104 -81q32 15 50.5 40t18.5 52q0 47 -43 80z" />
<glyph unicode="&#xa8;" horiz-adv-x="600" d="M158 653q0 22 15.5 37t36.5 15q23 0 38.5 -15t15.5 -37t-15.5 -37.5t-38.5 -15.5q-21 0 -36.5 15.5t-15.5 37.5zM336 653q0 22 15.5 37t36.5 15q22 0 37.5 -15t15.5 -37q0 -23 -15.5 -38t-37.5 -15q-21 0 -36.5 15.5t-15.5 37.5z" />
<glyph unicode="&#xa9;" horiz-adv-x="784" d="M420 500q-47 0 -77 -41t-30 -117q0 -78 31 -122t83 -44q72 0 102 85l32 -7q-29 -131 -147 -131q-79 0 -127.5 56.5t-48.5 142.5q0 94 52 154t128 60q60 0 99 -28l11 22h23l5 -137h-28l-10 29q-27 78 -98 78zM72 332q0 146 100 244.5t244 98.5q150 0 249 -98.5t99 -244.5 q0 -145 -99 -244.5t-241 -99.5q-154 0 -253 97t-99 247zM126 332q0 -131 83.5 -213.5t215.5 -82.5q119 0 202 85t83 211q0 127 -83 211t-211 84q-122 0 -206 -84t-84 -211z" />
<glyph unicode="&#xaa;" horiz-adv-x="378" d="M238 241v9q-57 -58 -102 -58q-36 0 -57 23.5t-21 67.5q0 126 87 205q55 50 106 50q48 0 84 -28l33 28l26 -13q-30 -69 -45 -117l-40 -124q-6 -20 -6 -30q0 -16 15 -16q18 0 41 12l23 12l13 -24q-57 -46 -97 -46q-60 0 -60 49zM167 242q32 0 79 50l53 159l-25 49 q-10 6 -25 6q-45 0 -82.5 -59.5t-37.5 -141.5q0 -63 38 -63z" />
<glyph unicode="&#xab;" horiz-adv-x="440" d="M45 191q0 39 17 70q23 43 65 72.5t115 53.5l10 -28q-74 -31 -104 -61.5t-30 -66.5q0 -50 58 -59q9 -14 9 -31q0 -27 -17 -42t-42 -15q-34 0 -57.5 28.5t-23.5 78.5zM235 191q0 39 17 70q23 43 65 72.5t115 53.5l10 -28q-74 -31 -104 -61.5t-30 -66.5q0 -50 58 -59 q9 -14 9 -31q0 -27 -17 -42t-42 -15q-34 0 -57.5 28.5t-23.5 78.5z" />
<glyph unicode="&#xac;" d="M445 218v180h-388v48h436v-228h-48z" />
<glyph unicode="&#xad;" horiz-adv-x="250" d="M3 207l16 63h230l-16 -63h-230z" />
<glyph unicode="&#xae;" horiz-adv-x="784" d="M387 359h24q68 0 68 71q0 33 -18 53t-48 20h-26v-144zM551 434q0 -68 -73 -92v-4q26 -32 43 -61l24 -43q4 -7 16.5 -31t19.5 -37l31 -9v-23l-95 2l-85 165q-14 26 -32 26h-13v-98q0 -31 1 -64l53 -7v-24l-90 2l-90 -2v24l53 7q1 29 1 64v211q0 30 -2 64l-52 6v25l90 -1 q23 0 43 0.5t23 0.5q65 0 99.5 -28t34.5 -73zM72 332q0 146 100 244.5t244 98.5q150 0 249 -98.5t99 -244.5q0 -145 -99 -244.5t-241 -99.5q-154 0 -253 97t-99 247zM126 332q0 -131 83.5 -213.5t215.5 -82.5q119 0 202 85t83 211q0 127 -83 211t-211 84q-122 0 -206 -84 t-84 -211z" />
<glyph unicode="&#xaf;" horiz-adv-x="600" d="M424 626h-262l13 54h262z" />
<glyph unicode="&#xb0;" horiz-adv-x="422" d="M110 503q0 71 50 121.5t121 50.5q70 0 120.5 -51t50.5 -121q0 -71 -50.5 -120.5t-120.5 -49.5q-71 0 -121 49.5t-50 120.5zM172 502q0 -47 30.5 -78.5t76.5 -31.5q47 0 78 31.5t31 78.5t-31 79.5t-78 32.5q-46 0 -76.5 -32.5t-30.5 -79.5z" />
<glyph unicode="&#xb1;" d="M299 234h-48v144h-194v48h194v144h48v-144h194v-48h-194v-144zM493 135h-436v48h436v-48z" />
<glyph unicode="&#xb2;" horiz-adv-x="362" d="M370 370l-50 -115l-92 1h-108l-72 -1l2 33l156 134q75 65 106 107.5t31 76.5q0 62 -51 62q-55 0 -111 -66l-26 21q59 104 149 104q50 0 79.5 -30t29.5 -80q0 -45 -35 -91.5t-122 -116.5l-120 -97h106q50 0 76 32l22 26h30z" />
<glyph unicode="&#xb3;" horiz-adv-x="341" d="M168 247q-50 0 -72 14q-27 17 -27 43q0 14 10.5 24.5t26.5 10.5q18 0 30 -12q2 -46 50 -46q37 0 61 22.5t24 59.5q0 30 -10.5 51.5t-39.5 48.5l-23 21l5 23l26 10q55 22 78 46t23 54q0 24 -12.5 38t-36.5 14q-48 0 -95 -54l-26 21q58 91 134 91q45 0 72.5 -26.5 t27.5 -68.5q0 -37 -23 -65.5t-82 -54.5l-9 -4l11 -11q45 -45 45 -108q0 -60 -47.5 -101t-120.5 -41z" />
<glyph unicode="&#xb4;" horiz-adv-x="600" d="M229 538l65 210h76l-87 -210h-54z" />
<glyph unicode="&#xb5;" horiz-adv-x="530" d="M88 15l-31 -224l-92 -18l-17 8l213 629l-98 12v31l180 29l21 -15q-41 -110 -62 -169l-44 -125q-15 -42 -15 -69q0 -23 14 -36t37 -13q46 0 117 48l71 215q20 59 41 151l80 5l11 -20q-8 -22 -19 -53t-19 -52t-11 -31l-54 -165q-15 -48 -15 -71q0 -41 42 -41q12 0 40 5 l18 3l5 -26q-51 -35 -104 -35q-78 0 -84 79q-80 -79 -149 -79q-49 0 -76 27z" />
<glyph unicode="&#xb6;" horiz-adv-x="565" d="M578 617l-241 -843h-48l241 843h-82l-241 -843h-48l148 517q-87 0 -139 38.5t-52 115.5q0 96 69.5 158t188.5 62h272l-14 -48h-54z" />
<glyph unicode="&#xb7;" horiz-adv-x="250" d="M85 330q0 28 19 46.5t47 18.5q27 0 45.5 -18.5t18.5 -46.5q0 -29 -18 -47t-46 -18t-47 18.5t-19 46.5z" />
<glyph unicode="&#xb8;" horiz-adv-x="600" d="M230 -86l102 146l36 -3l-69 -97q46 -33 46 -85q0 -44 -35.5 -73t-92.5 -29l1 29q60 12 60 54q0 35 -48 58z" />
<glyph unicode="&#xb9;" horiz-adv-x="292" d="M150 365l80 283l-53 11l1 19l127 50l18 -10l-102 -355q-11 -37 -21 -76l71 -8l-3 -24l-110 1l-113 -1l3 24l78 8q14 42 24 78z" />
<glyph unicode="&#xba;" horiz-adv-x="373" d="M301 399q0 107 -63 107q-21 0 -45 -19q-52 -45 -52 -157q0 -54 17.5 -80t44.5 -26q25 0 44 18q54 45 54 157zM67 335q0 52 21 96.5t55 71.5q44 35 97 35q59 0 97 -39t38 -104q0 -50 -21.5 -95t-54.5 -73q-45 -35 -97 -35q-60 0 -97.5 39.5t-37.5 103.5z" />
<glyph unicode="&#xbb;" horiz-adv-x="440" d="M223 276q0 -39 -17 -70q-23 -43 -65 -72.5t-115 -53.5l-10 28q74 31 104 61.5t30 66.5q0 50 -58 59q-9 14 -9 31q0 27 17 42t42 15q34 0 57.5 -28.5t23.5 -78.5zM413 276q0 -39 -17 -70q-23 -43 -65 -72.5t-115 -53.5l-10 28q74 31 104 61.5t30 66.5q0 50 -58 59 q-9 14 -9 31q0 27 17 42t42 15q34 0 57.5 -28.5t23.5 -78.5z" />
<glyph unicode="&#xbc;" horiz-adv-x="865" d="M130 309l80 283l-53 11l1 19l127 50l18 -10l-102 -355q-11 -37 -21 -76l71 -8l-3 -24l-110 1l-113 -1l3 24l78 8q14 42 24 78zM768 697l-602 -769l-41 31l602 770zM693 196l58 208q-88 -87 -183 -208h125zM750 143l-11 -37q-7 -26 -25 -105l-64 -4l-10 17l38 129h-181 l3 33q108 141 264 289h78l-78 -269q34 0 56 22l24 -13l-27 -62h-67z" />
<glyph unicode="&#xbd;" horiz-adv-x="891" d="M130 309l80 283l-53 11l1 19l127 50l18 -10l-102 -355q-11 -37 -21 -76l71 -8l-3 -24l-110 1l-113 -1l3 24l78 8q14 42 24 78zM768 697l-602 -769l-41 31l602 770zM834 115l-50 -115l-92 1h-108l-72 -1l2 33l156 134q75 65 106 107.5t31 76.5q0 62 -51 62q-55 0 -111 -66 l-26 21q59 104 149 104q50 0 79.5 -30t29.5 -80q0 -45 -35 -91.5t-122 -116.5l-120 -97h106q50 0 76 32l22 26h30z" />
<glyph unicode="&#xbe;" horiz-adv-x="914" d="M148 192q-50 0 -72 14q-27 17 -27 43q0 14 10.5 24.5t26.5 10.5q18 0 30 -12q2 -46 50 -46q37 0 61 22.5t24 59.5q0 30 -10.5 51.5t-39.5 48.5l-23 21l5 23l26 10q55 22 78 46t23 54q0 24 -12.5 38t-36.5 14q-48 0 -95 -54l-26 21q58 91 134 91q45 0 72.5 -26.5 t27.5 -68.5q0 -37 -23 -65.5t-82 -54.5l-9 -4l11 -11q45 -45 45 -108q0 -60 -47.5 -101t-120.5 -41zM817 697l-602 -769l-41 31l602 770zM742 196l58 208q-88 -87 -183 -208h125zM799 143l-11 -37q-7 -26 -25 -105l-64 -4l-10 17l38 129h-181l3 33q108 141 264 289h78 l-78 -269q34 0 56 22l24 -13l-27 -62h-67z" />
<glyph unicode="&#xbf;" horiz-adv-x="300" d="M73 230l64 67q33 34 48 61t15 65q0 18 -3 45h35q17 -36 17 -80q0 -80 -77 -159l-54 -55q-35 -36 -49 -57t-14 -43q0 -17 10 -27.5t28 -10.5q37 0 58 49q9 3 18 3q20 0 33 -11t13 -28q0 -27 -24 -44t-70 -17q-57 0 -87.5 30t-30.5 80q0 59 70 132zM313 610 q0 -28 -19 -46.5t-47 -18.5q-27 0 -45.5 18.5t-18.5 46.5q0 29 18 47t46 18t47 -18.5t19 -46.5z" />
<glyph unicode="&#xc0;" horiz-adv-x="638" d="M246 230l-62 -74q-35 -42 -89 -116l78 -11l-6 -29l-112 2l-99 -2l6 29l70 11q63 72 98 116l421 519h27l-61 -519q-10 -81 -11 -116l66 -11l-6 -29l-113 2l-131 -2l6 29l89 11q8 42 17 116l9 74h-197zM475 514l-197 -244h169zM551 879l87 -150h-63l-112 150h88z" />
<glyph unicode="&#xc1;" horiz-adv-x="638" d="M246 230l-62 -74q-35 -42 -89 -116l78 -11l-6 -29l-112 2l-99 -2l6 29l70 11q63 72 98 116l421 519h27l-61 -519q-10 -81 -11 -116l66 -11l-6 -29l-113 2l-131 -2l6 29l89 11q8 42 17 116l9 74h-197zM475 514l-197 -244h169zM532 729l107 150h90l-132 -150h-65z" />
<glyph unicode="&#xc2;" horiz-adv-x="638" d="M246 230l-62 -74q-35 -42 -89 -116l78 -11l-6 -29l-112 2l-99 -2l6 29l70 11q63 72 98 116l421 519h27l-61 -519q-10 -81 -11 -116l66 -11l-6 -29l-113 2l-131 -2l6 29l89 11q8 42 17 116l9 74h-197zM475 514l-197 -244h169zM433 729l151 150h69l77 -150h-47l-71 93 l-116 -93h-63z" />
<glyph unicode="&#xc3;" horiz-adv-x="638" d="M246 230l-62 -74q-35 -42 -89 -116l78 -11l-6 -29l-112 2l-99 -2l6 29l70 11q63 72 98 116l421 519h27l-61 -519q-10 -81 -11 -116l66 -11l-6 -29l-113 2l-131 -2l6 29l89 11q8 42 17 116l9 74h-197zM475 514l-197 -244h169zM579 760l-30 18q-22 14 -37 14q-30 0 -32 -50 h-45q0 54 22.5 80.5t57.5 26.5q30 0 67 -23l30 -18q22 -14 37 -14q30 0 32 50h45q0 -107 -80 -107q-30 0 -67 23z" />
<glyph unicode="&#xc4;" horiz-adv-x="638" d="M246 230l-62 -74q-35 -42 -89 -116l78 -11l-6 -29l-112 2l-99 -2l6 29l70 11q63 72 98 116l421 519h27l-61 -519q-10 -81 -11 -116l66 -11l-6 -29l-113 2l-131 -2l6 29l89 11q8 42 17 116l9 74h-197zM475 514l-197 -244h169zM439 793q0 22 15.5 37t36.5 15q23 0 38.5 -15 t15.5 -37t-15.5 -37.5t-38.5 -15.5q-21 0 -36.5 15.5t-15.5 37.5zM617 793q0 22 15.5 37t36.5 15q22 0 37.5 -15t15.5 -37q0 -23 -15 -38t-38 -15q-21 0 -36.5 15.5t-15.5 37.5z" />
<glyph unicode="&#xc5;" horiz-adv-x="636" d="M471 780q0 47 33 80.5t79 33.5q47 0 80.5 -33.5t33.5 -80.5q0 -46 -33.5 -79t-80.5 -33h-8l-60 -512q-10 -81 -11 -116l66 -11l-6 -29l-113 2l-131 -2l6 29l89 11q8 42 17 116l9 74h-197l-62 -74q-35 -42 -89 -116l78 -11l-6 -29l-112 2l-99 -2l6 29l72 11q63 72 98 116 l419 517q-34 11 -56 40t-22 67zM473 514l-197 -244h169zM522 779q0 -28 16 -45t44 -17q27 0 45 17.5t18 44.5q0 29 -18 47t-45 18q-26 0 -43 -18t-17 -47z" />
<glyph unicode="&#xc6;" horiz-adv-x="952" d="M368 0l4 29l90 11q16 56 31 116l18 74h-230l-70 -71q-52 -52 -114 -119l79 -11l-4 -29l-119 2l-100 -2l8 29l64 11q30 26 120 116l462 466l-85 14l4 29l137 -2h147l132 2l-10 -159h-28l-3 32q-5 50 -25 67.5t-73 17.5h-102l-66 -263h20q51 0 108 2l44 97h29l-33 -117 l-27 -123h-27l5 99q-56 2 -109 2h-20l-69 -278h163q53 0 85 18.5t60 66.5l25 43h30l-55 -170l-102 2h-255zM521 270l68 268l-268 -268h200z" />
<glyph unicode="&#xc7;" horiz-adv-x="560" d="M299 -86l68 97q-48 -23 -103 -23q-89 0 -145 69t-56 178q0 104 37 195.5t100 154.5q90 90 200 90q88 0 144 -59l41 34l22 -16l-70 -193l-24 2v40q0 73 -29.5 111.5t-82.5 38.5q-72 0 -138 -73q-48 -54 -77 -138.5t-29 -173.5q0 -93 36.5 -138.5t95.5 -45.5q53 0 97 31.5 t84 111.5l32 -15q-19 -60 -61 -123l-73 -109q46 -33 46 -85q0 -44 -35.5 -73t-92.5 -29l1 29q60 12 60 54q0 35 -48 58z" />
<glyph unicode="&#xc8;" horiz-adv-x="550" d="M-34 0l4 29l90 11q16 56 31 116l89 353q8 32 26 116l-86 11l4 29l137 -2h147l132 2l-10 -159h-28l-3 32q-5 50 -25 67.5t-73 17.5h-102l-66 -263h20q51 0 108 2l44 97h29l-31 -117l-29 -123h-27l5 99q-56 2 -109 2h-20l-69 -278h163q53 0 85 18.5t60 66.5l25 43h30 l-55 -170l-102 2h-255zM360 879l87 -150h-63l-112 150h88z" />
<glyph unicode="&#xc9;" horiz-adv-x="550" d="M-34 0l4 29l90 11q16 56 31 116l89 353q8 32 26 116l-86 11l4 29l137 -2h147l132 2l-10 -159h-28l-3 32q-5 50 -25 67.5t-73 17.5h-102l-66 -263h20q51 0 108 2l44 97h29l-31 -117l-29 -123h-27l5 99q-56 2 -109 2h-20l-69 -278h163q53 0 85 18.5t60 66.5l25 43h30 l-55 -170l-102 2h-255zM321 729l107 150h90l-132 -150h-65z" />
<glyph unicode="&#xca;" horiz-adv-x="550" d="M-34 0l4 29l90 11q16 56 31 116l89 353q8 32 26 116l-86 11l4 29l137 -2h147l132 2l-10 -159h-28l-3 32q-5 50 -25 67.5t-73 17.5h-102l-66 -263h20q51 0 108 2l44 97h29l-31 -117l-29 -123h-27l5 99q-56 2 -109 2h-20l-69 -278h163q53 0 85 18.5t60 66.5l25 43h30 l-55 -170l-102 2h-255zM222 729l151 150h69l77 -150h-47l-71 93l-116 -93h-63z" />
<glyph unicode="&#xcb;" horiz-adv-x="550" d="M-34 0l4 29l90 11q16 56 31 116l89 353q8 32 26 116l-86 11l4 29l137 -2h147l132 2l-10 -159h-28l-3 32q-5 50 -25 67.5t-73 17.5h-102l-66 -263h20q51 0 108 2l44 97h29l-31 -117l-29 -123h-27l5 99q-56 2 -109 2h-20l-69 -278h163q53 0 85 18.5t60 66.5l25 43h30 l-55 -170l-102 2h-255zM248 793q0 22 15.5 37t36.5 15q23 0 38.5 -15t15.5 -37t-15.5 -37.5t-38.5 -15.5q-21 0 -36.5 15.5t-15.5 37.5zM426 793q0 22 15.5 37t36.5 15q22 0 37.5 -15t15.5 -37q0 -23 -15.5 -38t-37.5 -15q-21 0 -36.5 15.5t-15.5 37.5z" />
<glyph unicode="&#xcc;" horiz-adv-x="313" d="M270 509l-88 -353q-20 -83 -27 -116l87 -11l-5 -29l-138 2l-133 -2l3 29l91 11q16 56 31 116l88 353q15 60 27 116l-86 11l5 29l137 -2l136 2l-5 -29l-92 -11q-20 -69 -31 -116zM256 879l87 -150h-63l-112 150h88z" />
<glyph unicode="&#xcd;" horiz-adv-x="313" d="M270 509l-88 -353q-20 -83 -27 -116l87 -11l-5 -29l-138 2l-133 -2l3 29l91 11q16 56 31 116l88 353q15 60 27 116l-86 11l5 29l137 -2l136 2l-5 -29l-92 -11q-20 -69 -31 -116zM217 729l107 150h90l-132 -150h-65z" />
<glyph unicode="&#xce;" horiz-adv-x="313" d="M270 509l-88 -353q-20 -83 -27 -116l87 -11l-5 -29l-138 2l-133 -2l3 29l91 11q16 56 31 116l88 353q15 60 27 116l-86 11l5 29l137 -2l136 2l-5 -29l-92 -11q-20 -69 -31 -116zM118 729l151 150h69l77 -150h-47l-71 93l-116 -93h-63z" />
<glyph unicode="&#xcf;" horiz-adv-x="313" d="M270 509l-88 -353q-20 -83 -27 -116l87 -11l-5 -29l-138 2l-133 -2l3 29l91 11q16 56 31 116l88 353q15 60 27 116l-86 11l5 29l137 -2l136 2l-5 -29l-92 -11q-20 -69 -31 -116zM144 793q0 22 15.5 37t36.5 15q23 0 38.5 -15t15.5 -37t-15.5 -37.5t-38.5 -15.5 q-21 0 -36.5 15.5t-15.5 37.5zM322 793q0 22 15.5 37t36.5 15q22 0 37.5 -15t15.5 -37q0 -23 -15.5 -38t-37.5 -15q-21 0 -36.5 15.5t-15.5 37.5z" />
<glyph unicode="&#xd0;" horiz-adv-x="650" d="M58 320l12 40h90l43 149q21 72 32 116l-86 11l5 29l137 -2q12 0 48 1t50 1q122 0 191.5 -78t69.5 -200q0 -126 -72 -223q-59 -79 -147 -121.5t-193 -42.5q-26 0 -68 1t-60 1l-140 -2l5 29l92 11q13 39 35 116l47 164h-91zM213 40q174 0 269 127q77 105 77 242 q0 103 -46.5 159.5t-129.5 56.5q-39 0 -56 -2l-76 -263h151l-12 -40h-150l-79 -276q34 -4 52 -4z" />
<glyph unicode="&#xd1;" horiz-adv-x="687" d="M506 -12h-32l-223 559l-123 -391q-7 -24 -30 -116l82 -11l-4 -29l-112 2l-111 -2l4 29l89 11q8 25 15.5 47.5t13.5 42t8 26.5l136 440l-79 40l9 29l148 -2l208 -516l113 362q10 30 31 114l-82 13l5 29l112 -2l113 2l-5 -29l-90 -13q-23 -69 -36 -114zM490 760l-30 18 q-22 14 -37 14q-30 0 -32 -50h-45q0 54 22.5 80.5t57.5 26.5q30 0 67 -23l30 -18q22 -14 37 -14q30 0 32 50h45q0 -107 -80 -107q-30 0 -67 23z" />
<glyph unicode="&#xd2;" horiz-adv-x="684" d="M299 30q95 0 172 102q93 123 93 299q0 202 -133 202q-96 0 -173 -102q-93 -123 -93 -299q0 -105 36 -153.5t98 -48.5zM300 -12q-107 0 -171.5 76t-64.5 201q0 79 30 157t86 139q106 114 250 114q106 0 170.5 -78t64.5 -202q0 -77 -30 -154.5t-86 -138.5 q-106 -114 -249 -114zM434 879l87 -150h-63l-112 150h88z" />
<glyph unicode="&#xd3;" horiz-adv-x="684" d="M299 30q95 0 172 102q93 123 93 299q0 202 -133 202q-96 0 -173 -102q-93 -123 -93 -299q0 -105 36 -153.5t98 -48.5zM300 -12q-107 0 -171.5 76t-64.5 201q0 79 30 157t86 139q106 114 250 114q106 0 170.5 -78t64.5 -202q0 -77 -30 -154.5t-86 -138.5 q-106 -114 -249 -114zM395 729l107 150h90l-132 -150h-65z" />
<glyph unicode="&#xd4;" horiz-adv-x="684" d="M299 30q95 0 172 102q93 123 93 299q0 202 -133 202q-96 0 -173 -102q-93 -123 -93 -299q0 -105 36 -153.5t98 -48.5zM300 -12q-107 0 -171.5 76t-64.5 201q0 79 30 157t86 139q106 114 250 114q106 0 170.5 -78t64.5 -202q0 -77 -30 -154.5t-86 -138.5 q-106 -114 -249 -114zM296 729l151 150h69l77 -150h-47l-71 93l-116 -93h-63z" />
<glyph unicode="&#xd5;" horiz-adv-x="684" d="M299 30q95 0 172 102q93 123 93 299q0 202 -133 202q-96 0 -173 -102q-93 -123 -93 -299q0 -105 36 -153.5t98 -48.5zM300 -12q-107 0 -171.5 76t-64.5 201q0 79 30 157t86 139q106 114 250 114q106 0 170.5 -78t64.5 -202q0 -77 -30 -154.5t-86 -138.5 q-106 -114 -249 -114zM462 760l-30 18q-22 14 -37 14q-30 0 -32 -50h-45q0 54 22.5 80.5t57.5 26.5q30 0 67 -23l30 -18q22 -14 37 -14q30 0 32 50h45q0 -107 -80 -107q-30 0 -67 23z" />
<glyph unicode="&#xd6;" horiz-adv-x="684" d="M299 30q95 0 172 102q93 123 93 299q0 202 -133 202q-96 0 -173 -102q-93 -123 -93 -299q0 -105 36 -153.5t98 -48.5zM300 -12q-107 0 -171.5 76t-64.5 201q0 79 30 157t86 139q106 114 250 114q106 0 170.5 -78t64.5 -202q0 -77 -30 -154.5t-86 -138.5 q-106 -114 -249 -114zM322 793q0 22 15.5 37t36.5 15q23 0 38.5 -15t15.5 -37t-15.5 -37.5t-38.5 -15.5q-21 0 -36.5 15.5t-15.5 37.5zM500 793q0 22 15.5 37t36.5 15q22 0 37.5 -15t15.5 -37q0 -23 -15.5 -38t-37.5 -15q-21 0 -36.5 15.5t-15.5 37.5z" />
<glyph unicode="&#xd7;" d="M138 161l-34 34l137 137l-137 137l34 34l137 -137l137 137l34 -34l-137 -137l137 -137l-34 -34l-137 137z" />
<glyph unicode="&#xd8;" horiz-adv-x="684" d="M-8 -23l114 118q-42 72 -42 170q0 79 30 157t86 139q106 114 250 114q100 0 165 -71l107 111l29 -28l-112 -116q46 -72 46 -176q0 -77 -30 -154.5t-86 -138.5q-106 -114 -249 -114q-105 0 -170 74l-109 -114zM299 30q95 0 172 102q93 123 93 299q0 43 -6 76l-376 -391 q31 -86 117 -86zM165 232q0 -45 5 -70l375 390q-31 81 -114 81q-96 0 -173 -102q-93 -123 -93 -299z" />
<glyph unicode="&#xd9;" horiz-adv-x="672" d="M114 289l63 220q21 72 32 116l-86 11l4 29l137 -2l136 2l-4 -29l-92 -11q-8 -27 -20 -65t-16 -51l-72 -253q-18 -62 -18 -97q0 -49 33 -77.5t90 -28.5q164 0 219 194l75 261q16 54 31 115l-85 13l4 29l112 -2l112 2l-4 -29l-93 -13q-24 -74 -35 -114l-86 -299 q-33 -116 -103 -169t-162 -53q-93 0 -145 44.5t-52 118.5q0 48 25 138zM462 879l87 -150h-63l-112 150h88z" />
<glyph unicode="&#xda;" horiz-adv-x="672" d="M114 289l63 220q21 72 32 116l-86 11l4 29l137 -2l136 2l-4 -29l-92 -11q-8 -27 -20 -65t-16 -51l-72 -253q-18 -62 -18 -97q0 -49 33 -77.5t90 -28.5q164 0 219 194l75 261q16 54 31 115l-85 13l4 29l112 -2l112 2l-4 -29l-93 -13q-24 -74 -35 -114l-86 -299 q-33 -116 -103 -169t-162 -53q-93 0 -145 44.5t-52 118.5q0 48 25 138zM423 729l107 150h90l-132 -150h-65z" />
<glyph unicode="&#xdb;" horiz-adv-x="672" d="M114 289l63 220q21 72 32 116l-86 11l4 29l137 -2l136 2l-4 -29l-92 -11q-8 -27 -20 -65t-16 -51l-72 -253q-18 -62 -18 -97q0 -49 33 -77.5t90 -28.5q164 0 219 194l75 261q16 54 31 115l-85 13l4 29l112 -2l112 2l-4 -29l-93 -13q-24 -74 -35 -114l-86 -299 q-33 -116 -103 -169t-162 -53q-93 0 -145 44.5t-52 118.5q0 48 25 138zM324 729l151 150h69l77 -150h-47l-71 93l-116 -93h-63z" />
<glyph unicode="&#xdc;" horiz-adv-x="672" d="M114 289l63 220q21 72 32 116l-86 11l4 29l137 -2l136 2l-4 -29l-92 -11q-8 -27 -20 -65t-16 -51l-72 -253q-18 -62 -18 -97q0 -49 33 -77.5t90 -28.5q164 0 219 194l75 261q16 54 31 115l-85 13l4 29l112 -2l112 2l-4 -29l-93 -13q-24 -74 -35 -114l-86 -299 q-33 -116 -103 -169t-162 -53q-93 0 -145 44.5t-52 118.5q0 48 25 138zM350 793q0 22 15.5 37t36.5 15q23 0 38.5 -15t15.5 -37t-15.5 -37.5t-38.5 -15.5q-21 0 -36.5 15.5t-15.5 37.5zM528 793q0 22 15.5 37t36.5 15q22 0 37.5 -15t15.5 -37q0 -23 -15.5 -38t-37.5 -15 q-21 0 -36.5 15.5t-15.5 37.5z" />
<glyph unicode="&#xdd;" horiz-adv-x="628" d="M557 507l-187 -231l-35 -121q-21 -75 -31 -115l96 -11l-4 -29l-146 2l-147 -2l4 29l102 11q13 39 35 116l31 107l-53 244q-16 71 -30 116l-72 11l5 29l115 -2l145 2l-5 -29l-86 -11q8 -66 19 -116l41 -189l151 189q34 41 86 116l-73 11l5 29l105 -2l101 2l-5 -29l-68 -11 q-38 -43 -99 -116zM386 729l107 150h90l-132 -150h-65z" />
<glyph unicode="&#xde;" horiz-adv-x="510" d="M189 167q111 14 173 67.5t62 133.5q0 57 -27.5 90t-75.5 33q-31 0 -52 -4zM305 623l-26 -94q36 2 46 2q88 0 137 -47t49 -118q0 -94 -83 -154.5t-248 -81.5q-14 -59 -20 -88l104 -11l-3 -31l-151 2l-136 -2l3 29l91 11q8 28 30 116l89 353q8 32 26 116l-86 11l4 29 l138 -2l136 2l-5 -29z" />
<glyph unicode="&#xdf;" horiz-adv-x="514" d="M471 135q0 -63 -43.5 -105t-111.5 -42q-46 0 -74 19q-31 20 -31 54q0 18 12.5 31t31.5 13q21 0 37 -12q1 -55 53 -55q28 0 46 17.5t18 47.5q0 19 -9 39t-19.5 35t-35.5 46q-49 61 -49 116q0 72 64 118l35 25q75 53 75 116q0 44 -23 67t-58 23q-90 0 -134 -158l-110 -401 q-40 -147 -90 -228.5t-123 -112.5q-35 -15 -88 -15q-47 0 -72 16.5t-25 44.5q0 21 13.5 34.5t34.5 13.5q24 0 42 -17q3 -49 53 -49q20 0 37.5 10t39 37t44.5 84.5t45 142.5l85 330h-71l11 37l75 13q52 201 172 246q35 13 70 13q70 0 112 -37t42 -98q0 -44 -23.5 -76 t-85.5 -63l-41 -21q-43 -22 -43 -61q0 -21 11.5 -41.5t38.5 -56.5q62 -81 62 -140z" />
<glyph unicode="&#xe0;" horiz-adv-x="523" d="M293 56q0 6 3 25q-86 -93 -157 -93q-48 0 -77 33t-29 96q0 88 33.5 164t89.5 129q77 72 149 72q41 0 67 -10.5t54 -33.5l49 44l28 -15q-53 -135 -64 -169l-59 -179q-10 -31 -10 -47q0 -25 30 -25q23 0 63 20l27 14l15 -28q-82 -65 -133 -65q-38 0 -58.5 18t-20.5 50z M183 55q50 0 121 74l76 229l-36 73q-15 11 -43 11q-66 0 -123 -86.5t-57 -206.5q0 -94 62 -94zM375 748l37 -210h-52l-59 210h74z" />
<glyph unicode="&#xe1;" horiz-adv-x="523" d="M293 56q0 6 3 25q-86 -93 -157 -93q-48 0 -77 33t-29 96q0 88 33.5 164t89.5 129q77 72 149 72q41 0 67 -10.5t54 -33.5l49 44l28 -15q-53 -135 -64 -169l-59 -179q-10 -31 -10 -47q0 -25 30 -25q23 0 63 20l27 14l15 -28q-82 -65 -133 -65q-38 0 -58.5 18t-20.5 50z M183 55q50 0 121 74l76 229l-36 73q-15 11 -43 11q-66 0 -123 -86.5t-57 -206.5q0 -94 62 -94zM346 538l65 210h76l-87 -210h-54z" />
<glyph unicode="&#xe2;" horiz-adv-x="523" d="M293 56q0 6 3 25q-86 -93 -157 -93q-48 0 -77 33t-29 96q0 88 33.5 164t89.5 129q77 72 149 72q41 0 67 -10.5t54 -33.5l49 44l28 -15q-53 -135 -64 -169l-59 -179q-10 -31 -10 -47q0 -25 30 -25q23 0 63 20l27 14l15 -28q-82 -65 -133 -65q-38 0 -58.5 18t-20.5 50z M183 55q50 0 121 74l76 229l-36 73q-15 11 -43 11q-66 0 -123 -86.5t-57 -206.5q0 -94 62 -94zM221 538l157 210h69l51 -210h-49l-48 143l-119 -143h-61z" />
<glyph unicode="&#xe3;" horiz-adv-x="523" d="M293 56q0 6 3 25q-86 -93 -157 -93q-48 0 -77 33t-29 96q0 88 33.5 164t89.5 129q77 72 149 72q41 0 67 -10.5t54 -33.5l49 44l28 -15q-53 -135 -64 -169l-59 -179q-10 -31 -10 -47q0 -25 30 -25q23 0 63 20l27 14l15 -28q-82 -65 -133 -65q-38 0 -58.5 18t-20.5 50z M183 55q50 0 121 74l76 229l-36 73q-15 11 -43 11q-66 0 -123 -86.5t-57 -206.5q0 -94 62 -94zM390 621l-30 19q-20 13 -37 13q-30 0 -32 -50h-45q0 54 22.5 80.5t57.5 26.5q30 0 67 -23l30 -18q22 -14 37 -14q30 0 32 50h45q0 -107 -80 -107q-30 0 -67 23z" />
<glyph unicode="&#xe4;" horiz-adv-x="523" d="M293 56q0 6 3 25q-86 -93 -157 -93q-48 0 -77 33t-29 96q0 88 33.5 164t89.5 129q77 72 149 72q41 0 67 -10.5t54 -33.5l49 44l28 -15q-53 -135 -64 -169l-59 -179q-10 -31 -10 -47q0 -25 30 -25q23 0 63 20l27 14l15 -28q-82 -65 -133 -65q-38 0 -58.5 18t-20.5 50z M183 55q50 0 121 74l76 229l-36 73q-15 11 -43 11q-66 0 -123 -86.5t-57 -206.5q0 -94 62 -94zM245 653q0 22 15.5 37t36.5 15q23 0 38.5 -15t15.5 -37t-15.5 -37.5t-38.5 -15.5q-21 0 -36.5 15.5t-15.5 37.5zM423 653q0 22 15.5 37t36.5 15q22 0 37.5 -15t15.5 -37 q0 -23 -15 -38t-38 -15q-21 0 -36.5 15.5t-15.5 37.5z" />
<glyph unicode="&#xe5;" horiz-adv-x="523" d="M293 56q0 6 3 25q-86 -93 -157 -93q-48 0 -77 33t-29 96q0 88 33.5 164t89.5 129q77 72 149 72q41 0 67 -10.5t54 -33.5l49 44l28 -15q-53 -135 -64 -169l-59 -179q-10 -31 -10 -47q0 -25 30 -25q23 0 63 20l27 14l15 -28q-82 -65 -133 -65q-38 0 -58.5 18t-20.5 50z M183 55q50 0 121 74l76 229l-36 73q-15 11 -43 11q-66 0 -123 -86.5t-57 -206.5q0 -94 62 -94zM274 650q0 47 33 80.5t79 33.5q47 0 80.5 -33.5t33.5 -80.5q0 -46 -33.5 -79t-80.5 -33q-46 0 -79 33t-33 79zM325 649q0 -28 16 -45t44 -17q27 0 45 17.5t18 44.5q0 29 -18 47 t-45 18q-26 0 -43 -18t-17 -47z" />
<glyph unicode="&#xe6;" horiz-adv-x="662" d="M579 286q-49 -33 -186 -94q0 -65 22 -98.5t59 -33.5q58 0 118 77l27 -15q-26 -58 -67 -96t-94 -38q-58 0 -95 37.5t-45 102.5q-42 -50 -76 -83q-58 -57 -110 -57q-46 0 -70.5 31.5t-24.5 89.5q0 72 30.5 142.5t76 120t99 80t98.5 30.5q59 0 109 -37q50 37 96 37 q42 0 68 -26t26 -69q0 -61 -61 -101zM164 59q27 0 60.5 27.5t92.5 98.5q7 108 72 196l-31 59q-5 2 -17 2q-79 0 -149.5 -96t-70.5 -222q0 -28 11.5 -46.5t31.5 -18.5zM432 364q-31 -50 -37 -133q95 47 131.5 79.5t36.5 66.5q0 22 -12 34.5t-32 12.5q-51 0 -87 -60z" />
<glyph unicode="&#xe7;" horiz-adv-x="413" d="M191 -86l56 81q-23 -7 -42 -7q-72 0 -118.5 47t-46.5 128q0 157 114 259q67 60 137 60q39 0 60 -9q52 -22 52 -70q0 -25 -14 -40.5t-36 -15.5q-25 0 -46 19q5 17 5 31q0 40 -37 40q-44 0 -85 -48q-66 -75 -66 -196q0 -67 28.5 -99t69.5 -32q58 0 113 68l25 -15 q-11 -29 -43 -75l-57 -80q46 -33 46 -85q0 -44 -35.5 -73t-92.5 -29l1 29q60 12 60 54q0 35 -48 58z" />
<glyph unicode="&#xe8;" horiz-adv-x="401" d="M321 286q-69 -34 -196 -64q-3 -22 -3 -48q0 -114 73 -114q27 0 50.5 12.5t58.5 46.5l23 -18q-63 -113 -155 -113q-60 0 -97 41.5t-37 113.5q0 127 83.5 233t172.5 106q46 0 73.5 -25t27.5 -66q0 -69 -74 -105zM184 378q-38 -47 -52 -118q102 29 142.5 58.5t40.5 63.5 q0 21 -12 33.5t-33 12.5q-45 0 -86 -50zM308 748l37 -210h-52l-59 210h74z" />
<glyph unicode="&#xe9;" horiz-adv-x="401" d="M321 286q-69 -34 -196 -64q-3 -22 -3 -48q0 -114 73 -114q27 0 50.5 12.5t58.5 46.5l23 -18q-63 -113 -155 -113q-60 0 -97 41.5t-37 113.5q0 127 83.5 233t172.5 106q46 0 73.5 -25t27.5 -66q0 -69 -74 -105zM184 378q-38 -47 -52 -118q102 29 142.5 58.5t40.5 63.5 q0 21 -12 33.5t-33 12.5q-45 0 -86 -50zM279 538l65 210h76l-87 -210h-54z" />
<glyph unicode="&#xea;" horiz-adv-x="401" d="M321 286q-69 -34 -196 -64q-3 -22 -3 -48q0 -114 73 -114q27 0 50.5 12.5t58.5 46.5l23 -18q-63 -113 -155 -113q-60 0 -97 41.5t-37 113.5q0 127 83.5 233t172.5 106q46 0 73.5 -25t27.5 -66q0 -69 -74 -105zM184 378q-38 -47 -52 -118q102 29 142.5 58.5t40.5 63.5 q0 21 -12 33.5t-33 12.5q-45 0 -86 -50zM154 538l157 210h69l51 -210h-49l-48 143l-119 -143h-61z" />
<glyph unicode="&#xeb;" horiz-adv-x="401" d="M321 286q-69 -34 -196 -64q-3 -22 -3 -48q0 -114 73 -114q27 0 50.5 12.5t58.5 46.5l23 -18q-63 -113 -155 -113q-60 0 -97 41.5t-37 113.5q0 127 83.5 233t172.5 106q46 0 73.5 -25t27.5 -66q0 -69 -74 -105zM184 378q-38 -47 -52 -118q102 29 142.5 58.5t40.5 63.5 q0 21 -12 33.5t-33 12.5q-45 0 -86 -50zM178 653q0 22 15.5 37t36.5 15q23 0 38.5 -15t15.5 -37t-15.5 -37.5t-38.5 -15.5q-21 0 -36.5 15.5t-15.5 37.5zM356 653q0 22 15.5 37t36.5 15q22 0 37.5 -15t15.5 -37q0 -23 -15.5 -38t-37.5 -15q-21 0 -36.5 15.5t-15.5 37.5z" />
<glyph unicode="&#xec;" horiz-adv-x="267" d="M238 72l13 -29q-86 -55 -157 -55q-65 0 -65 48q0 30 16 74l106 298l-98 12v33l182 29l21 -15q-34 -83 -64 -169l-63 -179q-12 -33 -12 -48q0 -22 31 -22q32 0 65 13zM214 748l37 -210h-52l-59 210h74z" />
<glyph unicode="&#xed;" horiz-adv-x="267" d="M238 72l13 -29q-86 -55 -157 -55q-65 0 -65 48q0 30 16 74l106 298l-98 12v33l182 29l21 -15q-34 -83 -64 -169l-63 -179q-12 -33 -12 -48q0 -22 31 -22q32 0 65 13zM185 538l65 210h76l-87 -210h-54z" />
<glyph unicode="&#xee;" horiz-adv-x="267" d="M238 72l13 -29q-86 -55 -157 -55q-65 0 -65 48q0 30 16 74l106 298l-98 12v33l182 29l21 -15q-34 -83 -64 -169l-63 -179q-12 -33 -12 -48q0 -22 31 -22q32 0 65 13zM62 538l157 210h69l51 -210h-49l-48 143l-119 -143h-61z" />
<glyph unicode="&#xef;" horiz-adv-x="267" d="M238 72l13 -29q-86 -55 -157 -55q-65 0 -65 48q0 30 16 74l106 298l-98 12v33l182 29l21 -15q-34 -83 -64 -169l-63 -179q-12 -33 -12 -48q0 -22 31 -22q32 0 65 13zM84 653q0 22 15.5 37t36.5 15q23 0 38.5 -15t15.5 -37t-15.5 -37.5t-38.5 -15.5q-21 0 -36.5 15.5 t-15.5 37.5zM262 653q0 22 15.5 37t36.5 15q22 0 37.5 -15t15.5 -37q0 -23 -15.5 -38t-37.5 -15q-21 0 -36.5 15.5t-15.5 37.5z" />
<glyph unicode="&#xf0;" horiz-adv-x="525" d="M455 676l-87 -48q109 -127 109 -322q0 -80 -18 -132q-27 -83 -90 -135q-63 -51 -135 -51q-83 0 -135.5 56t-52.5 148q0 74 29.5 137t77.5 102q63 51 135 51q46 0 84 -27l3 2q-12 78 -58 143l-160 -87l-19 35l154 84q-28 33 -64 63l25 32q54 -37 86 -69l97 53zM383 284 q0 84 -24.5 120.5t-72.5 36.5q-37 0 -69 -28q-36 -30 -57.5 -90t-21.5 -139t27.5 -117.5t70.5 -38.5q36 0 67 28q35 32 57.5 92t22.5 136z" />
<glyph unicode="&#xf1;" horiz-adv-x="527" d="M332 152l46 144q13 40 13 66q0 24 -13 38.5t-36 14.5q-56 0 -121 -51l-64 -212l-42 -150l-77 -6l-11 20q40 112 47 136l76 247l-89 13v25l142 45l23 -12l-3 -68q78 80 159 80q48 0 71 -28t23 -75q0 -36 -16 -87l-46 -141q-20 -61 -20 -81q0 -35 52 -35h39v-26 q-60 -21 -102 -21q-35 0 -54 18.5t-19 47.5q0 32 22 98zM348 621l-30 19q-20 13 -37 13q-30 0 -32 -50h-45q0 54 22.5 80.5t57.5 26.5q30 0 67 -23l30 -18q22 -14 37 -14q30 0 32 50h45q0 -107 -80 -107q-30 0 -67 23z" />
<glyph unicode="&#xf2;" horiz-adv-x="516" d="M383 284q0 81 -27 119t-70 38q-37 0 -69 -28q-36 -30 -57.5 -90t-21.5 -139t27.5 -117.5t70.5 -38.5q36 0 67 28q35 32 57.5 92t22.5 136zM46 192q0 74 29.5 137t77.5 102q63 51 135 51q83 0 135.5 -55.5t52.5 -147.5q0 -74 -29.5 -137.5t-77.5 -102.5q-63 -51 -135 -51 q-83 0 -135.5 56t-52.5 148zM334 748l37 -210h-52l-59 210h74z" />
<glyph unicode="&#xf3;" horiz-adv-x="516" d="M383 284q0 81 -27 119t-70 38q-37 0 -69 -28q-36 -30 -57.5 -90t-21.5 -139t27.5 -117.5t70.5 -38.5q36 0 67 28q35 32 57.5 92t22.5 136zM46 192q0 74 29.5 137t77.5 102q63 51 135 51q83 0 135.5 -55.5t52.5 -147.5q0 -74 -29.5 -137.5t-77.5 -102.5q-63 -51 -135 -51 q-83 0 -135.5 56t-52.5 148zM305 538l65 210h76l-87 -210h-54z" />
<glyph unicode="&#xf4;" horiz-adv-x="516" d="M383 284q0 81 -27 119t-70 38q-37 0 -69 -28q-36 -30 -57.5 -90t-21.5 -139t27.5 -117.5t70.5 -38.5q36 0 67 28q35 32 57.5 92t22.5 136zM46 192q0 74 29.5 137t77.5 102q63 51 135 51q83 0 135.5 -55.5t52.5 -147.5q0 -74 -29.5 -137.5t-77.5 -102.5q-63 -51 -135 -51 q-83 0 -135.5 56t-52.5 148zM180 538l157 210h69l51 -210h-49l-48 143l-119 -143h-61z" />
<glyph unicode="&#xf5;" horiz-adv-x="516" d="M383 284q0 81 -27 119t-70 38q-37 0 -69 -28q-36 -30 -57.5 -90t-21.5 -139t27.5 -117.5t70.5 -38.5q36 0 67 28q35 32 57.5 92t22.5 136zM46 192q0 74 29.5 137t77.5 102q63 51 135 51q83 0 135.5 -55.5t52.5 -147.5q0 -74 -29.5 -137.5t-77.5 -102.5q-63 -51 -135 -51 q-83 0 -135.5 56t-52.5 148zM344 621l-30 19q-20 13 -37 13q-30 0 -32 -50h-45q0 54 22.5 80.5t57.5 26.5q30 0 67 -23l30 -18q22 -14 37 -14q30 0 32 50h45q0 -107 -80 -107q-30 0 -67 23z" />
<glyph unicode="&#xf6;" horiz-adv-x="516" d="M383 284q0 81 -27 119t-70 38q-37 0 -69 -28q-36 -30 -57.5 -90t-21.5 -139t27.5 -117.5t70.5 -38.5q36 0 67 28q35 32 57.5 92t22.5 136zM46 192q0 74 29.5 137t77.5 102q63 51 135 51q83 0 135.5 -55.5t52.5 -147.5q0 -74 -29.5 -137.5t-77.5 -102.5q-63 -51 -135 -51 q-83 0 -135.5 56t-52.5 148zM234 653q0 22 15.5 37t36.5 15q23 0 38.5 -15t15.5 -37t-15.5 -37.5t-38.5 -15.5q-21 0 -36.5 15.5t-15.5 37.5zM412 653q0 22 15.5 37t36.5 15q22 0 37.5 -15t15.5 -37q0 -23 -15.5 -38t-37.5 -15q-21 0 -36.5 15.5t-15.5 37.5z" />
<glyph unicode="&#xf7;" d="M493 308h-436v48h436v-48zM228 503q0 20 13.5 33.5t33.5 13.5t33.5 -13.5t13.5 -33.5t-13.5 -33.5t-33.5 -13.5t-33.5 13.5t-13.5 33.5zM228 161q0 20 13.5 33.5t33.5 13.5t33.5 -13.5t13.5 -33.5t-13.5 -33.5t-33.5 -13.5t-33.5 13.5t-13.5 33.5z" />
<glyph unicode="&#xf8;" horiz-adv-x="530" d="M-8 -24l94 97q-30 51 -30 119q0 74 29.5 137t77.5 102q63 51 135 51q82 0 133 -53l90 93l29 -29l-94 -97q30 -51 30 -117q0 -74 -29.5 -137.5t-77.5 -102.5q-63 -51 -135 -51q-82 0 -133 53l-90 -93zM148 184q0 -18 2 -44l229 236q-24 65 -83 65q-37 0 -69 -28 q-36 -30 -57.5 -90t-21.5 -139zM393 284q0 24 -3 44l-228 -235q24 -65 84 -65q36 0 67 28q35 32 57.5 92t22.5 136z" />
<glyph unicode="&#xf9;" horiz-adv-x="520" d="M455 318l-54 -165q-15 -48 -15 -71q0 -41 42 -41q12 0 40 5l18 3l5 -26q-51 -35 -104 -35q-78 0 -84 79q-80 -79 -149 -79q-51 0 -76.5 27.5t-25.5 74.5q0 35 21 96l78 224l-98 12v31l180 29l21 -15q-41 -110 -62 -169l-44 -125q-15 -42 -15 -69q0 -23 14 -36t37 -13 q46 0 117 48l71 215q20 59 41 151l80 5l11 -20q-8 -22 -19 -53t-19 -52t-11 -31zM339 748l37 -210h-52l-59 210h74z" />
<glyph unicode="&#xfa;" horiz-adv-x="520" d="M455 318l-54 -165q-15 -48 -15 -71q0 -41 42 -41q12 0 40 5l18 3l5 -26q-51 -35 -104 -35q-78 0 -84 79q-80 -79 -149 -79q-51 0 -76.5 27.5t-25.5 74.5q0 35 21 96l78 224l-98 12v31l180 29l21 -15q-41 -110 -62 -169l-44 -125q-15 -42 -15 -69q0 -23 14 -36t37 -13 q46 0 117 48l71 215q20 59 41 151l80 5l11 -20q-8 -22 -19 -53t-19 -52t-11 -31zM310 538l65 210h76l-87 -210h-54z" />
<glyph unicode="&#xfb;" horiz-adv-x="520" d="M455 318l-54 -165q-15 -48 -15 -71q0 -41 42 -41q12 0 40 5l18 3l5 -26q-51 -35 -104 -35q-78 0 -84 79q-80 -79 -149 -79q-51 0 -76.5 27.5t-25.5 74.5q0 35 21 96l78 224l-98 12v31l180 29l21 -15q-41 -110 -62 -169l-44 -125q-15 -42 -15 -69q0 -23 14 -36t37 -13 q46 0 117 48l71 215q20 59 41 151l80 5l11 -20q-8 -22 -19 -53t-19 -52t-11 -31zM185 538l157 210h69l51 -210h-49l-48 143l-119 -143h-61z" />
<glyph unicode="&#xfc;" horiz-adv-x="520" d="M455 318l-54 -165q-15 -48 -15 -71q0 -41 42 -41q12 0 40 5l18 3l5 -26q-51 -35 -104 -35q-78 0 -84 79q-80 -79 -149 -79q-51 0 -76.5 27.5t-25.5 74.5q0 35 21 96l78 224l-98 12v31l180 29l21 -15q-41 -110 -62 -169l-44 -125q-15 -42 -15 -69q0 -23 14 -36t37 -13 q46 0 117 48l71 215q20 59 41 151l80 5l11 -20q-8 -22 -19 -53t-19 -52t-11 -31zM209 653q0 22 15.5 37t36.5 15q23 0 38.5 -15t15.5 -37t-15.5 -37.5t-38.5 -15.5q-21 0 -36.5 15.5t-15.5 37.5zM387 653q0 22 15.5 37t36.5 15q22 0 37.5 -15t15.5 -37q0 -23 -15 -38 t-38 -15q-21 0 -36.5 15.5t-15.5 37.5z" />
<glyph unicode="&#xfd;" horiz-adv-x="474" d="M250 107l128 206q29 47 29 77q0 26 -23 40q0 23 12.5 37.5t32.5 14.5q22 0 35.5 -16t13.5 -41q0 -37 -37 -95l-222 -351q-130 -206 -280 -206q-56 0 -84 20.5t-28 52.5q0 21 14 35.5t35 14.5q22 0 42 -17q3 -25 15 -38.5t38 -13.5q49 0 98 37.5t107 129.5l-22 389 q-2 26 -20 26q-16 0 -35 -13.5t-63 -55.5l-25 25l33 38q68 79 123 79q58 0 63 -67zM290 538l65 210h76l-87 -210h-54z" />
<glyph unicode="&#xfe;" horiz-adv-x="529" d="M196 558l27 99l-92 12v31l175 29l21 -15q-13 -36 -30.5 -90.5t-25.5 -78.5l-56 -158q47 54 79.5 74.5t66.5 20.5q53 0 88 -41.5t35 -113.5q0 -163 -109 -266q-78 -73 -161 -73q-57 0 -100 25l-26 -88q-13 -48 -29 -115l86 -10l-3 -27l-121 2l-113 -2l3 27l61 10 q23 73 36 116zM218 28q72 0 125.5 83t53.5 198q0 53 -19.5 80t-49.5 27q-25 0 -52 -17.5t-68 -63.5l-72 -238q10 -33 32 -51t50 -18z" />
<glyph unicode="&#xff;" horiz-adv-x="474" d="M250 107l128 206q29 47 29 77q0 26 -23 40q0 23 12.5 37.5t32.5 14.5q22 0 35.5 -16t13.5 -41q0 -37 -37 -95l-222 -351q-130 -206 -280 -206q-56 0 -84 20.5t-28 52.5q0 21 14 35.5t35 14.5q22 0 42 -17q3 -25 15 -38.5t38 -13.5q49 0 98 37.5t107 129.5l-22 389 q-2 26 -20 26q-16 0 -35 -13.5t-63 -55.5l-25 25l33 38q68 79 123 79q58 0 63 -67zM189 653q0 22 15.5 37t36.5 15q23 0 38.5 -15t15.5 -37t-15.5 -37.5t-38.5 -15.5q-21 0 -36.5 15.5t-15.5 37.5zM367 653q0 22 15.5 37t36.5 15q22 0 37.5 -15t15.5 -37q0 -23 -15 -38 t-38 -15q-21 0 -36.5 15.5t-15.5 37.5z" />
<glyph unicode="&#x13f;" horiz-adv-x="517" d="M270 509l-116 -467h113q54 0 87.5 18.5t60.5 68.5l33 61h28l-60 -190l-107 2h-205l-140 -2l5 29l91 11q16 56 31 116l88 353q15 60 27 116l-86 11l5 29l137 -2l136 2l-5 -29l-92 -11q-9 -33 -19 -71t-12 -45zM372 331q0 24 17.5 41.5t41.5 17.5t41 -17.5t17 -41.5 q0 -25 -16.5 -42t-41.5 -17q-24 0 -41.5 17t-17.5 42z" />
<glyph unicode="&#x140;" horiz-adv-x="380" d="M52 152l139 406q15 43 28 99l-93 12v31l177 29l21 -15q-31 -87 -58 -169l-131 -393q-20 -61 -20 -82q0 -30 39 -30q9 0 37 4l23 4l4 -28q-66 -32 -115 -32q-35 0 -54 18.5t-19 47.5q0 32 22 98zM253 234q0 24 17.5 41.5t41.5 17.5t41 -17.5t17 -41.5q0 -25 -16.5 -42 t-41.5 -17q-24 0 -41.5 17t-17.5 42z" />
<glyph unicode="&#x152;" horiz-adv-x="947" d="M418 665q13 0 49 -1t50 -1h316l132 2l-10 -159h-28l-3 32q-5 50 -25 67.5t-73 17.5h-239q54 -32 85 -92t31 -137q0 -12 -2 -34q8 0 70 2l44 97h29l-31 -117l-29 -123h-27l5 99l-67 2q-22 -112 -104 -200q-50 -53 -109 -78h232q53 0 85 18.5t60 66.5l25 43h30l-55 -170 l-102 2h-354q-21 0 -58.5 -1t-51.5 -1q-104 0 -167.5 74t-63.5 195q0 76 28.5 153t83.5 135q100 108 244 108zM162 236q0 -180 114 -193l146 580q-97 0 -171 -97q-89 -119 -89 -290zM436 320l-69 -278q85 9 153 98q55 74 75 180h-159zM606 430q0 161 -96 188l-64 -258h156 q4 44 4 70z" />
<glyph unicode="&#x153;" horiz-adv-x="739" d="M659 286q-69 -34 -196 -64q-3 -22 -3 -48q0 -114 73 -114q47 0 108 60l24 -19q-63 -113 -155 -113q-83 0 -117 73q-16 -16 -24 -22q-63 -51 -135 -51q-83 0 -135.5 56t-52.5 148q0 74 29.5 137t77.5 102q63 51 135 51q58 0 103 -28.5t67 -79.5q38 50 84.5 79t89.5 29 q46 0 73.5 -25t27.5 -66q0 -69 -74 -105zM383 284q0 81 -27 119t-70 38q-37 0 -69 -28q-36 -30 -57.5 -90t-21.5 -139t27.5 -117.5t70.5 -38.5q36 0 67 28q35 32 57.5 92t22.5 136zM522 378q-38 -47 -52 -118q102 29 142.5 58.5t40.5 63.5q0 21 -12 33.5t-33 12.5 q-45 0 -86 -50z" />
<glyph unicode="&#x178;" horiz-adv-x="628" d="M557 507l-187 -231l-35 -121q-21 -75 -31 -115l96 -11l-4 -29l-146 2l-147 -2l4 29l102 11q13 39 35 116l31 107l-53 244q-16 71 -30 116l-72 11l5 29l115 -2l145 2l-5 -29l-86 -11q8 -66 19 -116l41 -189l151 189q34 41 86 116l-73 11l5 29l105 -2l101 2l-5 -29l-68 -11 q-38 -43 -99 -116zM313 793q0 22 15.5 37t36.5 15q23 0 38.5 -15t15.5 -37t-15.5 -37.5t-38.5 -15.5q-21 0 -36.5 15.5t-15.5 37.5zM491 793q0 22 15.5 37t36.5 15q22 0 37.5 -15t15.5 -37q0 -23 -15 -38t-38 -15q-21 0 -36.5 15.5t-15.5 37.5z" />
<glyph unicode="&#x17f;" horiz-adv-x="298" d="M249 510l-104 -381q-41 -148 -90.5 -229t-122.5 -112q-35 -15 -88 -15q-47 0 -72 16.5t-25 44.5q0 21 13.5 34.5t34.5 13.5q24 0 42 -17q3 -49 53 -49q20 0 37.5 10t39 37t44.5 84.5t45 142.5l85 330h-71l11 37l75 13q53 204 174 249q27 10 62 10q42 0 71 -16 q37 -21 37 -59q0 -22 -13.5 -36t-38.5 -14q-26 0 -41 22q5 17 5 30q0 36 -37 36q-77 0 -126 -182z" />
<glyph unicode="&#x2b0;" horiz-adv-x="374" d="M227 610l-20 -68q56 51 102 51q33 0 51.5 -20.5t18.5 -52.5q0 -28 -11 -62l-32 -97q-13 -39 -13 -55q0 -22 33 -22h29v-22q-44 -15 -75 -15q-27 0 -41.5 13.5t-14.5 34.5q0 23 15 68l32 100q9 27 9 45q0 35 -33 35q-31 0 -76 -34l-44 -148q0 -1 -2.5 -10t-9 -33.5 t-17.5 -61.5l-60 -4l-10 17q20 56 32 94l75 253q13 49 17 65q-11 1 -33 4t-32 4v25l129 21l19 -12q-27 -73 -38 -113z" />
<glyph unicode="&#x2b2;" horiz-adv-x="202" d="M165 690q0 17 14 30t33 13q18 0 31 -12.5t13 -30.5t-12.5 -30.5t-31.5 -12.5q-20 0 -33.5 12.5t-13.5 30.5zM243 582l-49 -170q-23 -80 -38.5 -119.5t-38.5 -77.5q-36 -59 -81 -88.5t-111 -29.5q-84 0 -84 50q0 16 10 26.5t26 10.5q19 0 37 -16q3 -37 46 -37 q45 0 80.5 56t76.5 190l49 163l-95 8v25l155 20z" />
<glyph unicode="&#x2b7;" horiz-adv-x="473" d="M377 593q40 0 67.5 -42.5t27.5 -125.5q0 -80 -31.5 -129t-78.5 -49q-61 0 -80 77q-47 -77 -102 -77q-37 0 -59 19t-22 52q0 37 38 99l14 23q19 31 19 59q0 35 -28 35q-25 0 -59 -42l-24 17l15 25q35 59 85 59q29 0 47 -20t18 -53q0 -35 -28 -82l-9 -15q-27 -46 -27 -74 q0 -40 39 -40q20 0 41 14t34 39q-4 28 -4 39q0 24 10 40t25 16q29 0 29 -40q0 -36 -27 -63q4 -21 19 -33t34 -12q29 0 49 31t20 83q0 54 -19.5 82t-46.5 28q-21 0 -47 -21l-20 17l13 19q31 45 68 45z" />
<glyph unicode="&#x2b8;" horiz-adv-x="344" d="M228 339l77 124q24 40 24 65q0 18 -16 26q0 17 10 28t26 11q18 0 29 -11.5t11 -30.5q0 -23 -27 -66l-154 -244q-51 -81 -96 -112.5t-98 -31.5q-86 0 -86 53q0 16 11 27.5t28 11.5q16 0 35 -14q0 -39 30 -39q65 0 138 118l-15 269q-2 16 -10 16q-11 0 -24 -9.5t-46 -40.5 l-21 21l24 28q47 55 89 55q46 0 49 -55z" />
<glyph unicode="&#x2c6;" horiz-adv-x="600" d="M134 538l157 210h69l51 -210h-49l-48 143l-119 -143h-61z" />
<glyph unicode="&#x2dc;" horiz-adv-x="600" d="M298 621l-30 19q-20 13 -37 13q-30 0 -32 -50h-45q0 54 22.5 80.5t57.5 26.5q30 0 67 -23l30 -18q22 -14 37 -14q30 0 32 50h45q0 -107 -80 -107q-30 0 -67 23z" />
<glyph unicode="&#x2e3;" horiz-adv-x="384" d="M260 502l6 -34l69 90q27 35 55 35q18 0 30 -11.5t12 -30.5q0 -40 -40 -40h-9q-4 16 -16 16q-10 0 -24 -15l-72 -82l14 -92q5 -36 25 -36q23 0 49 63l30 -10l-7 -24q-13 -44 -32.5 -64t-51.5 -20q-61 0 -72 68l-10 60l-73 -96q-24 -32 -56 -32q-18 0 -29.5 10t-11.5 28 q0 36 41 45q10 -14 24 -14t28 16l70 82l-10 78q-6 47 -27 47q-25 0 -38 -60l-31 5l5 26q16 83 74 83q29 0 49.5 -24t28.5 -67z" />
<glyph unicode="&#x2009;" horiz-adv-x="125" />
<glyph unicode="&#x2013;" d="M-7 207l16 63h500l-16 -63h-500z" />
<glyph unicode="&#x2014;" horiz-adv-x="1000" d="M-7 207l16 63h1000l-16 -63h-1000z" />
<glyph unicode="&#x2018;" horiz-adv-x="250" d="M114 483q0 39 17 70q23 43 65 72.5t115 53.5l10 -28q-74 -31 -104 -61.5t-30 -66.5q0 -50 58 -59q9 -14 9 -31q0 -27 -17 -42t-42 -15q-34 0 -57.5 28.5t-23.5 78.5z" />
<glyph unicode="&#x2019;" horiz-adv-x="250" d="M293 568q0 -39 -17 -70q-23 -43 -65 -72.5t-115 -53.5l-10 28q74 31 104 61.5t30 66.5q0 50 -58 59q-9 14 -9 31q0 27 17 42t42 15q34 0 57.5 -28.5t23.5 -78.5z" />
<glyph unicode="&#x201a;" horiz-adv-x="250" d="M148 6q0 -36 -17 -70q-43 -85 -186 -131l-10 28q140 58 140 133q0 25 -15 42.5t-43 21.5q-9 14 -9 31q0 27 17 42t42 15q34 0 57.5 -30.5t23.5 -81.5z" />
<glyph unicode="&#x201c;" horiz-adv-x="440" d="M114 483q0 39 17 70q23 43 65 72.5t115 53.5l10 -28q-74 -31 -104 -61.5t-30 -66.5q0 -50 58 -59q9 -14 9 -31q0 -27 -17 -42t-42 -15q-34 0 -57.5 28.5t-23.5 78.5zM304 483q0 39 17 70q23 43 65 72.5t115 53.5l10 -28q-74 -31 -104 -61.5t-30 -66.5q0 -50 58 -59 q9 -14 9 -31q0 -27 -17 -42t-42 -15q-34 0 -57.5 28.5t-23.5 78.5z" />
<glyph unicode="&#x201d;" horiz-adv-x="440" d="M293 568q0 -39 -17 -70q-23 -43 -65 -72.5t-115 -53.5l-10 28q74 31 104 61.5t30 66.5q0 50 -58 59q-9 14 -9 31q0 27 17 42t42 15q34 0 57.5 -28.5t23.5 -78.5zM483 568q0 -39 -17 -70q-23 -43 -65 -72.5t-115 -53.5l-10 28q74 31 104 61.5t30 66.5q0 50 -58 59 q-9 14 -9 31q0 27 17 42t42 15q34 0 57.5 -28.5t23.5 -78.5z" />
<glyph unicode="&#x201e;" horiz-adv-x="440" d="M148 6q0 -36 -17 -70q-43 -85 -186 -131l-10 28q140 58 140 133q0 25 -15 42.5t-43 21.5q-9 14 -9 31q0 27 17 42t42 15q34 0 57.5 -30.5t23.5 -81.5zM338 6q0 -36 -17 -70q-43 -85 -186 -131l-10 28q140 58 140 133q0 25 -15 42.5t-43 21.5q-9 14 -9 31q0 27 17 42 t42 15q34 0 57.5 -30.5t23.5 -81.5z" />
<glyph unicode="&#x2022;" d="M112 332q0 70 49 119t119 49t119 -49t49 -119t-49 -119t-119 -49t-119 49t-49 119z" />
<glyph unicode="&#x2026;" horiz-adv-x="810" d="M15 53q0 28 19 46.5t47 18.5q27 0 45.5 -18.5t18.5 -46.5q0 -29 -18 -47t-46 -18t-47 18.5t-19 46.5zM295 53q0 28 19 46.5t47 18.5q27 0 45.5 -18.5t18.5 -46.5q0 -29 -18 -47t-46 -18t-47 18.5t-19 46.5zM575 53q0 28 19 46.5t47 18.5q27 0 45.5 -18.5t18.5 -46.5 q0 -29 -18 -47t-46 -18t-47 18.5t-19 46.5z" />
<glyph unicode="&#x2039;" horiz-adv-x="250" d="M45 191q0 39 17 70q23 43 65 72.5t115 53.5l10 -28q-74 -31 -104 -61.5t-30 -66.5q0 -50 58 -59q9 -14 9 -31q0 -27 -17 -42t-42 -15q-34 0 -57.5 28.5t-23.5 78.5z" />
<glyph unicode="&#x203a;" horiz-adv-x="250" d="M223 276q0 -39 -17 -70q-23 -43 -65 -72.5t-115 -53.5l-10 28q74 31 104 61.5t30 66.5q0 50 -58 59q-9 14 -9 31q0 27 17 42t42 15q34 0 57.5 -28.5t23.5 -78.5z" />
<glyph unicode="&#x2044;" horiz-adv-x="237" d="M476 697l-602 -769l-41 31l602 770z" />
<glyph unicode="&#x2070;" horiz-adv-x="376" d="M202 280q36 0 74 57t66 160q20 72 20 123q0 74 -42 74q-37 0 -75 -57t-67 -160q-20 -75 -20 -117q0 -80 44 -80zM201 247q-48 0 -79 38t-31 107q0 58 14 108q31 113 92.5 170t122.5 57q48 0 79.5 -38t31.5 -107q0 -55 -16 -112q-33 -112 -93.5 -167.5t-120.5 -55.5z" />
<glyph unicode="&#x2074;" horiz-adv-x="376" d="M269 451l58 208q-88 -87 -183 -208h125zM326 398l-11 -37q-7 -26 -25 -105l-64 -4l-10 17l38 129h-181l3 33q108 141 264 289h78l-78 -269q34 0 56 22l24 -13l-27 -62h-67z" />
<glyph unicode="&#x2075;" horiz-adv-x="337" d="M154 247q-46 0 -69 14q-27 17 -27 43q0 14 10 24.5t26 10.5q18 0 30 -12q2 -46 52 -46q47 0 76.5 32t29.5 79q0 72 -78 103l-45 18l-8 16l80 190h136l68 1l-16 -57h-169l-41 -95q140 -54 140 -153q0 -72 -54.5 -120t-140.5 -48z" />
<glyph unicode="&#x2076;" horiz-adv-x="376" d="M447 715q-202 -97 -261 -195q38 29 81 29q53 0 88 -37t35 -101q0 -73 -56 -121q-51 -43 -110 -43q-64 0 -104 39.5t-40 115.5q0 108 84.5 192.5t270.5 149.5zM250 510q-45 0 -89 -47q-11 -36 -11 -79q0 -51 19.5 -77.5t53.5 -26.5q38 0 66.5 36t28.5 101q0 46 -18.5 69.5 t-49.5 23.5z" />
<glyph unicode="&#x2077;" horiz-adv-x="362" d="M175 630l-26 13l41 79l82 -2h196v-21l-186 -270q-46 -66 -46 -98q0 -23 21 -32q0 -26 -13.5 -39t-34.5 -13t-35 14t-14 34q0 41 52 113l187 256h-154q-41 0 -70 -34z" />
<glyph unicode="&#x2078;" horiz-adv-x="362" d="M419 623q0 -42 -28 -67t-92 -55l11 -12q53 -59 53 -117q0 -56 -42.5 -90.5t-105.5 -34.5q-61 0 -97 29.5t-36 77.5q0 43 30 75.5t98 63.5q-46 51 -46 102q0 58 40 95t98 37q36 0 61 -12q56 -28 56 -92zM262 439l-31 32q-83 -49 -83 -123q0 -30 19 -49t48 -19 q37 0 60.5 22.5t23.5 54.5q0 45 -37 82zM227 614q0 -35 31 -70l21 -23q42 25 60.5 50.5t18.5 59.5q0 27 -14.5 45t-41.5 18q-31 0 -53 -23.5t-22 -56.5z" />
<glyph unicode="&#x2079;" horiz-adv-x="376" d="M82 230l-14 30q208 87 267 195q-41 -30 -86 -30q-52 0 -87.5 37t-35.5 101q0 74 56 122q46 42 110 42q66 0 105.5 -38.5t39.5 -112.5q0 -116 -84 -201.5t-271 -144.5zM266 464q50 0 89 44q11 36 11 82q0 51 -19.5 77.5t-53.5 26.5q-38 0 -66 -36t-28 -101 q0 -46 18.5 -69.5t48.5 -23.5z" />
<glyph unicode="&#x207a;" horiz-adv-x="362" d="M269 334h-43v135h-134v37h134v135h43v-135h135v-37h-135v-135z" />
<glyph unicode="&#x207c;" horiz-adv-x="362" d="M404 532h-312v36h312v-36zM404 407h-312v36h312v-36z" />
<glyph unicode="&#x207d;" horiz-adv-x="257" d="M85 382q0 135 70 249t197 192l23 -35q-107 -69 -171.5 -176t-64.5 -232q0 -64 19.5 -110t60.5 -92l-29 -27q-105 99 -105 231z" />
<glyph unicode="&#x207e;" horiz-adv-x="257" d="M305 591q0 -135 -70 -249t-197 -192l-22 35q107 69 171.5 176t64.5 232q0 64 -20 110t-62 92l31 27q104 -96 104 -231z" />
<glyph unicode="&#x207f;" horiz-adv-x="381" d="M277 363l33 100q8 24 8 45q0 35 -29 35q-37 0 -79 -34l-48 -162q-15 -48 -26 -91l-60 -4l-10 17q20 56 32 94l52 169l-61 10v19l105 33l19 -10l-2 -44q65 53 106 53q70 0 70 -73q0 -28 -11 -62l-32 -97q-13 -38 -13 -54q0 -22 33 -22h29v-23q-44 -15 -76 -15 q-26 0 -40.5 13.5t-14.5 34.5q0 20 15 68z" />
<glyph unicode="&#x2080;" horiz-adv-x="376" d="M98 -120q36 0 74 57t66 160q20 72 20 123q0 74 -42 74q-37 0 -75 -57t-67 -160q-20 -75 -20 -117q0 -80 44 -80zM97 -153q-48 0 -79 38t-31 107q0 58 14 108q31 113 92.5 170t122.5 57q48 0 79.5 -38t31.5 -107q0 -55 -16 -112q-33 -112 -93.5 -167.5t-120.5 -55.5z" />
<glyph unicode="&#x2081;" horiz-adv-x="292" d="M46 -35l80 283l-53 11l1 19l127 50l18 -10l-102 -355q-11 -37 -21 -76l71 -8l-3 -24l-110 1l-113 -1l3 24l78 8q14 42 24 78z" />
<glyph unicode="&#x2082;" horiz-adv-x="362" d="M266 -30l-50 -115l-92 1h-108l-72 -1l2 33l156 134q75 65 106 107.5t31 76.5q0 62 -51 62q-55 0 -111 -66l-26 21q59 104 149 104q50 0 79.5 -30t29.5 -80q0 -45 -35 -91.5t-122 -116.5l-120 -97h106q50 0 76 32l22 26h30z" />
<glyph unicode="&#x2083;" horiz-adv-x="341" d="M64 -153q-50 0 -72 14q-27 17 -27 43q0 14 10.5 24.5t26.5 10.5q18 0 30 -12q2 -46 50 -46q37 0 61 22.5t24 59.5q0 30 -10.5 51.5t-39.5 48.5l-23 21l5 23l26 10q55 22 78 46t23 54q0 24 -12.5 38t-36.5 14q-48 0 -95 -54l-26 21q58 91 134 91q45 0 72.5 -26.5 t27.5 -68.5q0 -37 -23 -65.5t-82 -54.5l-9 -4l11 -11q45 -45 45 -108q0 -60 -47.5 -101t-120.5 -41z" />
<glyph unicode="&#x2084;" horiz-adv-x="376" d="M165 51l58 208q-88 -87 -183 -208h125zM222 -2l-11 -37q-7 -26 -25 -105l-64 -4l-10 17l38 129h-181l3 33q108 141 264 289h78l-78 -269q34 0 56 22l24 -13l-27 -62h-67z" />
<glyph unicode="&#x2085;" horiz-adv-x="337" d="M50 -153q-46 0 -69 14q-27 17 -27 43q0 14 10 24.5t26 10.5q18 0 30 -12q2 -46 52 -46q47 0 76.5 32t29.5 79q0 72 -78 103l-45 18l-8 16l80 190h136l68 1l-16 -57h-169l-41 -95q140 -54 140 -153q0 -72 -54.5 -120t-140.5 -48z" />
<glyph unicode="&#x2086;" horiz-adv-x="376" d="M343 315q-202 -97 -261 -195q38 29 81 29q53 0 88 -37t35 -101q0 -73 -56 -121q-51 -43 -110 -43q-64 0 -104 39.5t-40 115.5q0 108 84.5 192.5t270.5 149.5zM146 110q-45 0 -89 -47q-11 -36 -11 -79q0 -51 19.5 -77.5t53.5 -26.5q38 0 66.5 36t28.5 101q0 46 -18.5 69.5 t-49.5 23.5z" />
<glyph unicode="&#x2087;" horiz-adv-x="362" d="M71 230l-26 13l41 79l82 -2h196v-21l-186 -270q-46 -66 -46 -98q0 -23 21 -32q0 -26 -13.5 -39t-34.5 -13t-35 14t-14 34q0 41 52 113l187 256h-154q-41 0 -70 -34z" />
<glyph unicode="&#x2088;" horiz-adv-x="362" d="M315 223q0 -42 -28 -67t-92 -55l11 -12q53 -59 53 -117q0 -56 -42.5 -90.5t-105.5 -34.5q-61 0 -97 29.5t-36 77.5q0 43 30 75.5t98 63.5q-46 51 -46 102q0 58 40 95t98 37q36 0 61 -12q56 -28 56 -92zM158 39l-31 32q-83 -49 -83 -123q0 -30 19 -49t48 -19 q37 0 60.5 22.5t23.5 54.5q0 45 -37 82zM123 214q0 -35 31 -70l21 -23q42 25 60.5 50.5t18.5 59.5q0 27 -14.5 45t-41.5 18q-31 0 -53 -23.5t-22 -56.5z" />
<glyph unicode="&#x2089;" horiz-adv-x="376" d="M-22 -170l-14 30q208 87 267 195q-41 -30 -86 -30q-52 0 -87.5 37t-35.5 101q0 74 56 122q46 42 110 42q66 0 105.5 -38.5t39.5 -112.5q0 -116 -84 -201.5t-271 -144.5zM162 64q50 0 89 44q11 36 11 82q0 51 -19.5 77.5t-53.5 26.5q-38 0 -66 -36t-28 -101 q0 -46 18.5 -69.5t48.5 -23.5z" />
<glyph unicode="&#x208a;" horiz-adv-x="362" d="M165 -66h-43v135h-134v37h134v135h43v-135h135v-37h-135v-135z" />
<glyph unicode="&#x208c;" horiz-adv-x="362" d="M300 132h-312v36h312v-36zM300 7h-312v36h312v-36z" />
<glyph unicode="&#x208d;" horiz-adv-x="257" d="M-19 -18q0 135 70 249t197 192l23 -35q-107 -69 -171.5 -176t-64.5 -232q0 -64 19.5 -110t60.5 -92l-29 -27q-105 99 -105 231z" />
<glyph unicode="&#x208e;" horiz-adv-x="257" d="M201 191q0 -135 -70 -249t-197 -192l-22 35q107 69 171.5 176t64.5 232q0 64 -20 110t-62 92l31 27q104 -96 104 -231z" />
<glyph unicode="&#x20ac;" horiz-adv-x="601" d="M37 382l10 40h90q38 97 104 163q90 90 200 90q88 0 144 -59l41 34l22 -16l-70 -193l-24 2v40q0 73 -29.5 111.5t-82.5 38.5q-72 0 -138 -73q-50 -56 -77 -138h222l-10 -40h-224q-10 -43 -14 -80h218l-10 -40h-211v-14q0 -93 36.5 -138.5t95.5 -45.5q53 0 97 31.5 t84 111.5l32 -15q-32 -100 -93 -152t-145 -52q-89 0 -145 69t-56 178q0 18 1 27h-98l10 40h91q4 35 16 80h-87z" />
<glyph unicode="&#x2116;" horiz-adv-x="1060" d="M506 -12h-32l-223 559l-123 -391q-7 -24 -30 -116l82 -11l-4 -29l-112 2l-111 -2l4 29l89 11q8 25 15.5 47.5t13.5 42t8 26.5l136 440l-79 40l9 29l148 -2l208 -516l113 362q10 30 31 114l-82 13l5 29l112 -2l113 2l-5 -29l-90 -13q-23 -69 -36 -114zM988 399 q0 107 -63 107q-21 0 -45 -19q-52 -45 -52 -157q0 -54 17.5 -80t44.5 -26q25 0 44 18q54 45 54 157zM754 335q0 52 21 96.5t55 71.5q44 35 97 35q59 0 97 -39t38 -104q0 -50 -21.5 -95t-54.5 -73q-45 -35 -97 -35q-60 0 -97.5 39.5t-37.5 103.5z" />
<glyph unicode="&#x2122;" horiz-adv-x="753" d="M672 362l32 201l-119 -191h-34l-9 195l-84 -205l45 -6l-6 -26l-65 1l-60 -1l6 26l46 6l107 270l-37 8l5 26l93 -1l10 -201l125 201l94 1l-5 -26l-41 -7l-46 -271l43 -6l-6 -26l-73 1l-74 -1l6 26zM284 632h-23q-25 0 -40 -7.5t-27 -30.5l-13 -24h-26l26 96l80 -1h122 l65 1l-7 -96h-27l-2 26q-1 21 -10.5 28.5t-32.5 7.5h-27l-77 -269l46 -7l-6 -26l-77 1l-78 -1l6 26l50 6z" />
<glyph unicode="&#x2153;" horiz-adv-x="870" d="M130 309l80 283l-53 11l1 19l127 50l18 -10l-102 -355q-11 -37 -21 -76l71 -8l-3 -24l-110 1l-113 -1l3 24l78 8q14 42 24 78zM768 697l-602 -769l-41 31l602 770zM632 -8q-50 0 -72 14q-27 17 -27 43q0 14 10.5 24.5t26.5 10.5q18 0 30 -12q2 -46 50 -46q37 0 61 22.5 t24 59.5q0 30 -10.5 51.5t-39.5 48.5l-23 21l5 23l26 10q55 22 78 46t23 54q0 24 -12.5 38t-36.5 14q-48 0 -95 -54l-26 21q58 91 134 91q45 0 72.5 -26.5t27.5 -68.5q0 -37 -23 -65.5t-82 -54.5l-9 -4l11 -11q45 -45 45 -108q0 -60 -47.5 -101t-120.5 -41z" />
<glyph unicode="&#x2154;" horiz-adv-x="940" d="M350 314l-50 -115l-92 1h-108l-72 -1l2 33l156 134q75 65 106 107.5t31 76.5q0 62 -51 62q-55 0 -111 -66l-26 21q59 104 149 104q50 0 79.5 -30t29.5 -80q0 -45 -35 -91.5t-122 -116.5l-120 -97h106q50 0 76 32l22 26h30zM838 697l-602 -769l-41 31l602 770zM702 -8 q-50 0 -72 14q-27 17 -27 43q0 14 10.5 24.5t26.5 10.5q18 0 30 -12q2 -46 50 -46q37 0 61 22.5t24 59.5q0 30 -10.5 51.5t-39.5 48.5l-23 21l5 23l26 10q55 22 78 46t23 54q0 24 -12.5 38t-36.5 14q-48 0 -95 -54l-26 21q58 91 134 91q45 0 72.5 -26.5t27.5 -68.5 q0 -37 -23 -65.5t-82 -54.5l-9 -4l11 -11q45 -45 45 -108q0 -60 -47.5 -101t-120.5 -41z" />
<glyph unicode="&#x215b;" horiz-adv-x="891" d="M130 309l80 283l-53 11l1 19l127 50l18 -10l-102 -355q-11 -37 -21 -76l71 -8l-3 -24l-110 1l-113 -1l3 24l78 8q14 42 24 78zM768 697l-602 -769l-41 31l602 770zM883 368q0 -42 -28 -67t-92 -55l11 -12q53 -59 53 -117q0 -56 -42.5 -90.5t-105.5 -34.5q-61 0 -97 29.5 t-36 77.5q0 43 30 75.5t98 63.5q-46 51 -46 102q0 58 40 95t98 37q36 0 61 -12q56 -28 56 -92zM726 184l-31 32q-83 -49 -83 -123q0 -30 19 -49t48 -19q37 0 60.5 22.5t23.5 54.5q0 45 -37 82zM691 359q0 -35 31 -70l21 -23q42 25 60.5 50.5t18.5 59.5q0 27 -14.5 45 t-41.5 18q-31 0 -53 -23.5t-22 -56.5z" />
<glyph unicode="&#x215c;" horiz-adv-x="940" d="M148 192q-50 0 -72 14q-27 17 -27 43q0 14 10.5 24.5t26.5 10.5q18 0 30 -12q2 -46 50 -46q37 0 61 22.5t24 59.5q0 30 -10.5 51.5t-39.5 48.5l-23 21l5 23l26 10q55 22 78 46t23 54q0 24 -12.5 38t-36.5 14q-48 0 -95 -54l-26 21q58 91 134 91q45 0 72.5 -26.5 t27.5 -68.5q0 -37 -23 -65.5t-82 -54.5l-9 -4l11 -11q45 -45 45 -108q0 -60 -47.5 -101t-120.5 -41zM817 697l-602 -769l-41 31l602 770zM932 368q0 -42 -28 -67t-92 -55l11 -12q53 -59 53 -117q0 -56 -42.5 -90.5t-105.5 -34.5q-61 0 -97 29.5t-36 77.5q0 43 30 75.5 t98 63.5q-46 51 -46 102q0 58 40 95t98 37q35 0 61 -12q56 -28 56 -92zM775 184l-31 32q-83 -49 -83 -123q0 -30 19 -49t48 -19q37 0 60.5 22.5t23.5 54.5q0 45 -37 82zM740 359q0 -35 31 -70l21 -23q42 25 60.5 50.5t18.5 59.5q0 27 -14.5 45t-41.5 18q-31 0 -53 -23.5 t-22 -56.5z" />
<glyph unicode="&#x215d;" horiz-adv-x="936" d="M134 192q-46 0 -69 14q-27 17 -27 43q0 14 10 24.5t26 10.5q18 0 30 -12q2 -46 52 -46q47 0 76.5 32t29.5 79q0 72 -78 103l-45 18l-8 16l80 190h136l68 1l-16 -57h-169l-41 -95q140 -54 140 -153q0 -72 -54.5 -120t-140.5 -48zM813 697l-602 -769l-41 31l602 770z M928 368q0 -42 -28 -67t-92 -55l11 -12q53 -59 53 -117q0 -56 -42.5 -90.5t-105.5 -34.5q-61 0 -97 29.5t-36 77.5q0 43 30 75.5t98 63.5q-46 51 -46 102q0 58 40 95t98 37q35 0 61 -12q56 -28 56 -92zM771 184l-31 32q-83 -49 -83 -123q0 -30 19 -49t48 -19q37 0 60.5 22.5 t23.5 54.5q0 45 -37 82zM736 359q0 -35 31 -70l21 -23q42 25 60.5 50.5t18.5 59.5q0 27 -14.5 45t-41.5 18q-31 0 -53 -23.5t-22 -56.5z" />
<glyph unicode="&#x215e;" horiz-adv-x="901" d="M155 575l-26 13l41 79l82 -2h196v-21l-186 -270q-46 -66 -46 -98q0 -23 21 -32q0 -26 -13.5 -39t-34.5 -13t-35 14t-14 34q0 41 52 113l187 256h-154q-41 0 -70 -34zM778 697l-602 -769l-41 31l602 770zM893 368q0 -42 -28 -67t-92 -55l11 -12q53 -59 53 -117 q0 -56 -42.5 -90.5t-105.5 -34.5q-61 0 -97 29.5t-36 77.5q0 43 30 75.5t98 63.5q-46 51 -46 102q0 58 40 95t98 37q36 0 61 -12q56 -28 56 -92zM736 184l-31 32q-83 -49 -83 -123q0 -30 19 -49t48 -19q37 0 60.5 22.5t23.5 54.5q0 45 -37 82zM701 359q0 -35 31 -70l21 -23 q42 25 60.5 50.5t18.5 59.5q0 27 -14.5 45t-41.5 18q-31 0 -53 -23.5t-22 -56.5z" />
<glyph unicode="&#x2190;" horiz-adv-x="1000" d="M0 321v22l320 289l32 -33l-242 -240l890 12v-79l-890 12l242 -240l-32 -33z" />
<glyph unicode="&#x2191;" horiz-adv-x="1000" d="M490 831h22l289 -320l-33 -32l-240 242l12 -890h-79l12 890l-240 -242l-33 32z" />
<glyph unicode="&#x2192;" horiz-adv-x="1000" d="M1000 343v-22l-320 -290l-32 33l242 240l-890 -12v79l890 -12l-242 240l32 33z" />
<glyph unicode="&#x2193;" horiz-adv-x="1000" d="M512 -169h-22l-290 320l33 32l240 -242l-12 890h79l-12 -890l240 242l33 -32z" />
<glyph unicode="&#x2196;" horiz-adv-x="1000" d="M139 677l16 16l431 -22l-1 -46l-341 2l638 -621l-56 -56l-621 638l2 -341l-46 -1z" />
<glyph unicode="&#x2197;" horiz-adv-x="1000" d="M866 693l16 -16l-22 -431l-46 1l2 341l-621 -638l-56 56l638 621l-341 -2l-1 46z" />
<glyph unicode="&#x2198;" horiz-adv-x="1000" d="M882 -34l-16 -16l-431 22l1 46l341 -2l-638 621l56 56l621 -638l-2 341l46 1z" />
<glyph unicode="&#x2199;" horiz-adv-x="1000" d="M155 -50l-16 16l22 431l46 -1l-2 -341l621 638l56 -56l-638 -621l341 2l1 -46z" />
<glyph unicode="&#x25fc;" horiz-adv-x="480" d="M0 480h480v-480h-480v480z" />
<glyph unicode="&#xf6e1;" horiz-adv-x="187" d="M60 -139q0 -23 -12 -50q-32 -60 -139 -94l-9 25q99 40 99 91q0 37 -39 43q-7 10 -7 24q0 20 13 30.5t33 10.5q26 0 43.5 -22t17.5 -58z" />
<glyph unicode="&#xf6e2;" horiz-adv-x="187" d="M164 261q0 -23 -12 -50q-32 -60 -139 -94l-9 25q99 40 99 91q0 37 -39 43q-7 10 -7 24q0 20 13 30.5t33 10.5q26 0 43.5 -22t17.5 -58z" />
<glyph unicode="&#xf6e5;" horiz-adv-x="187" d="M-52 -1l12 48h170l-11 -48h-171z" />
<glyph unicode="&#xf6e6;" horiz-adv-x="187" d="M52 399l12 48h170l-11 -48h-171z" />
<glyph unicode="&#xf6e7;" horiz-adv-x="187" d="M-43 -106q0 20 15 33.5t37 13.5q21 0 35 -13.5t14 -33.5q0 -21 -13.5 -34t-35.5 -13t-37 13t-15 34z" />
<glyph unicode="&#xf6e8;" horiz-adv-x="187" d="M61 294q0 20 15 33.5t37 13.5q21 0 35 -13.5t14 -33.5q0 -21 -13.5 -34t-35.5 -13t-37 13t-15 34z" />
<glyph unicode="&#xf6e9;" horiz-adv-x="378" d="M250 296v9q-57 -58 -102 -58q-36 0 -57 23.5t-21 67.5q0 126 87 205q55 50 106 50q48 0 84 -28l33 28l26 -13q-30 -69 -45 -117l-40 -124q-6 -20 -6 -30q0 -16 15 -16q18 0 41 12l23 12l13 -24q-57 -46 -97 -46q-60 0 -60 49zM179 297q32 0 79 50l53 159l-25 49 q-10 6 -25 6q-45 0 -82.5 -59.5t-37.5 -141.5q0 -63 38 -63z" />
<glyph unicode="&#xf6ea;" horiz-adv-x="375" d="M142 323l33 -41q12 -3 19 -3q52 0 87 52.5t35 128.5q0 84 -46 84q-31 0 -78 -56zM224 604l-23 -66q51 55 93 55q40 0 65.5 -31t25.5 -87q0 -50 -20.5 -98.5t-57.5 -83.5q-49 -46 -113 -46q-77 0 -123 57l93 312l18 65l-64 8v25l129 21l17 -12z" />
<glyph unicode="&#xf6eb;" horiz-adv-x="384" d="M264 303q-53 -56 -97 -56q-39 0 -64.5 29.5t-25.5 79.5q0 112 77 186q54 51 115 51q42 0 67 -14l12 36q8 23 17 66l-64 8v25l128 21l18 -12q-30 -89 -39 -119l-78 -266q-6 -20 -6 -28q0 -17 18 -17q15 0 37 14l22 14l16 -23q-53 -51 -94 -51q-28 0 -43.5 16t-15.5 40z M266 561q-48 0 -84.5 -57t-36.5 -135q0 -36 13 -53t32 -17q34 0 77 48l50 159l-24 48q-10 7 -27 7z" />
<glyph unicode="&#xf6ec;" horiz-adv-x="293" d="M277 453q-46 -21 -134 -43q-2 -18 -2 -32q0 -77 48 -77q19 0 34.5 9t41.5 35l19 -17q-44 -81 -113 -81q-44 0 -71 29.5t-27 79.5q0 89 59.5 163t123.5 74q34 0 54 -18t20 -46q0 -49 -53 -76zM184 519q-25 -33 -35 -78q69 20 93.5 39t24.5 42q0 13 -8.5 21t-21.5 8 q-28 0 -53 -32z" />
<glyph unicode="&#xf6ed;" horiz-adv-x="199" d="M162 690q0 17 13.5 30t32.5 13q20 0 33 -12.5t13 -30.5t-13 -30.5t-33 -12.5q-19 0 -32.5 12.5t-13.5 30.5zM152 540l-69 8v24l133 21l19 -12q-25 -57 -46 -118l-43 -125q-7 -20 -7 -32q0 -11 14 -11q15 0 43 8l24 8l11 -25q-67 -39 -114 -39q-50 0 -50 39q0 20 10 48z " />
<glyph unicode="&#xf6ee;" horiz-adv-x="194" d="M82 363l87 253q11 35 18 65l-63 8v25l130 21l19 -12q-12 -32 -42 -119l-81 -243q-14 -40 -14 -54q0 -20 23 -20q6 0 24 2l21 3l4 -22q-46 -23 -85 -23q-27 0 -41.5 13.5t-14.5 34.5q0 23 15 68z" />
<glyph unicode="&#xf6ef;" horiz-adv-x="546" d="M368 454l-28 -93q-17 -54 -29 -105l-62 -4l-8 17q20 56 31 93l31 101q9 30 9 45q0 35 -30 35q-32 0 -74 -34l-41 -148q-12 -40 -28 -105l-61 -4l-9 17q21 62 30 93l48 170l-60 10v19l104 33l20 -10l-2 -44q53 53 99 53q25 0 43.5 -14.5t26.5 -36.5q56 51 101 51 q35 0 53.5 -21t18.5 -54q0 -27 -11 -60q-29 -80 -35 -97q-15 -45 -15 -54q0 -22 33 -22h33v-23q-44 -15 -80 -15q-26 0 -40.5 13.5t-14.5 34.5q0 19 17 68l36 100q8 24 8 45q0 35 -31 35t-71 -32q-1 -24 -12 -57z" />
<glyph unicode="&#xf6f0;" horiz-adv-x="373" d="M313 454q0 107 -63 107q-21 0 -45 -19q-52 -45 -52 -157q0 -54 17.5 -80t44.5 -26q25 0 44 18q54 45 54 157zM79 390q0 52 21 96.5t55 71.5q44 35 97 35q59 0 97 -39t38 -104q0 -50 -21.5 -95t-54.5 -73q-45 -35 -97 -35q-60 0 -97.5 39.5t-37.5 103.5z" />
<glyph unicode="&#xf6f1;" horiz-adv-x="265" d="M213 584l-8 -58q49 67 88 67q18 0 29.5 -10.5t11.5 -28.5q0 -14 -11 -24.5t-28 -13.5q-12 16 -30 16q-27 0 -64 -44l-38 -127q-17 -56 -27 -105l-63 -4l-9 17q18 40 34 94l35 117l13 52l-59 10v19l106 32z" />
<glyph unicode="&#xf6f2;" horiz-adv-x="258" d="M251 348q0 -44 -31.5 -72.5t-80.5 -28.5q-34 0 -55 13q-21 15 -21 38q0 13 9.5 23t23.5 10q17 0 31 -10q1 -35 32 -35q17 0 28 10.5t11 29.5t-9.5 36t-33.5 48q-35 46 -35 82q0 45 30.5 73t73.5 28q32 0 50.5 -13.5t18.5 -32.5q0 -16 -10 -24.5t-24 -8.5t-24 8 q-5 36 -32 36q-13 0 -22.5 -10t-9.5 -27q0 -27 36 -73q44 -57 44 -100z" />
<glyph unicode="&#xf6f3;" horiz-adv-x="246" d="M262 359l20 -23q-76 -89 -149 -89q-66 0 -66 52q0 19 15 72l50 176h-49l6 30l51 8l17 69l69 35l14 -10l-30 -94h96l-11 -38h-95l-54 -193q-8 -27 -8 -39q0 -19 19 -19q36 0 105 63z" />
<glyph unicode="&#xfb06;" horiz-adv-x="683" d="M485 470l55 189q-30 -14 -68 -14q-26 0 -63.5 7t-67.5 7q-46 0 -72.5 -26.5t-26.5 -65.5q0 -62 64 -97q39 -22 39 -53q0 -22 -13 -33.5t-31 -11.5q-19 0 -31 10q-9 53 -56 53q-26 0 -42 -15.5t-16 -40.5q0 -21 12.5 -40.5t48.5 -63.5q42 -50 57 -79.5t15 -65.5 q0 -59 -45.5 -100.5t-113.5 -41.5q-53 0 -83 23q-31 23 -31 54q0 18 12.5 31t31.5 13t35 -12q1 -57 59 -57q33 0 52 16.5t19 46.5q0 8 -1 15.5t-5 16t-7 14t-11 16t-12.5 16t-16.5 20t-19 22.5q-58 69 -58 123q0 56 38 92.5t93 42.5q-34 41 -34 85q0 58 42 99.5t107 41.5 q29 0 76.5 -8t66.5 -8q57 0 128 38l28 -9l-72 -250h138l-13 -50h-138l-79 -279q-11 -38 -11 -57q0 -31 32 -31q56 0 152 87l24 -26q-107 -126 -208 -126q-87 0 -87 72q0 31 21 103l73 257h-71l9 38z" />
<glyph horiz-adv-x="743" d="M270 481q-34 41 -34 85q0 58 42 99.5t107 41.5q29 0 84.5 -8t74.5 -8q57 0 128 38l28 -9l-72 -250h138l-13 -50h-138l-79 -279q-11 -38 -11 -57q0 -31 32 -31q56 0 152 87l24 -26q-107 -126 -208 -126q-87 0 -87 72q0 31 21 103l73 257h-71l9 38l75 12l55 189 q-30 -14 -68 -14q-26 0 -71.5 7t-75.5 7q-46 0 -72.5 -26.5t-26.5 -65.5q0 -61 64 -97q46 -26 46 -67q0 -25 -14 -40.5t-36 -15.5q-25 0 -46 19q5 17 5 31q0 40 -37 40q-40 0 -81 -48q-62 -71 -62 -196q0 -68 25 -99.5t65 -31.5q58 0 113 68l25 -15q-22 -56 -63.5 -91.5 t-91.5 -35.5q-71 0 -114 45.5t-43 124.5q0 163 110 264q58 53 119 59z" />
<glyph horiz-adv-x="868" d="M275 437q-44 0 -85 -48q-66 -75 -66 -196q0 -67 28.5 -99t69.5 -32q58 0 113 68l25 -15q-22 -56 -63.5 -91.5t-91.5 -35.5q-72 0 -118.5 47t-46.5 128q0 157 114 259q67 60 137 60q39 0 60 -9q52 -22 52 -70q0 -25 -14 -40.5t-36 -15.5q-25 0 -46 19q5 17 5 31 q0 40 -37 40zM641 545l-45 -143q82 80 159 80q45 0 69.5 -28.5t24.5 -74.5q0 -36 -16 -87l-45 -140q-20 -61 -20 -84q0 -33 55 -33h35v-26q-60 -21 -102 -21q-35 0 -54 18.5t-19 47.5q0 32 22 98l46 144q13 40 13 66q0 24 -14.5 38.5t-39.5 14.5q-51 0 -116 -51l-64 -212 l-42 -150l-76 -6l-11 20q40 112 47 136l120 406q17 55 26 99l-94 12v31l175 29l21 -15q-20 -56 -55 -169z" />
<glyph horiz-adv-x="899" d="M275 437q-44 0 -85 -48q-66 -75 -66 -196q0 -67 28.5 -99t69.5 -32q58 0 113 68l25 -15q-22 -56 -63.5 -91.5t-91.5 -35.5q-72 0 -118.5 47t-46.5 128q0 157 114 259q67 60 137 60q39 0 60 -9q52 -22 52 -70q0 -25 -14 -40.5t-36 -15.5q-25 0 -46 19q5 17 5 31 q0 40 -37 40zM646 545l-80 -264q36 0 88 45l25 23q42 37 84 80l-52 14l3 27l98 -2l87 2l-3 -27l-62 -14q-48 -40 -121 -103l-66 -59v-4q22 -12 35 -28.5t28 -53.5l38 -92q11 -27 20 -36t28 -9q29 0 62 30l22 -22q-48 -64 -107 -64q-43 0 -66 24t-46 82l-32 81 q-15 38 -29 51.5t-46 14.5l-21 -69q-14 -50 -44 -170l-76 -6l-11 20q35 97 46 136l120 406q17 55 26 99l-93 12v31l173 29l21 -15q-11 -30 -19 -58t-16.5 -60.5t-13.5 -50.5z" />
<glyph horiz-adv-x="520" d="M209 30q56 0 110.5 80.5t98.5 234.5q29 104 29 178q0 110 -69 110q-57 0 -112.5 -80.5t-98.5 -234.5q-29 -101 -29 -169q0 -119 71 -119zM207 -12q-65 0 -108 54.5t-43 151.5q0 82 21 154q48 161 133.5 244t168.5 83q66 0 109 -54t43 -152q0 -81 -23 -160 q-48 -161 -132.5 -241t-168.5 -80z" />
<glyph horiz-adv-x="400" d="M141 154l118 411l-79 15l2 26l176 69l19 -10l-147 -511q-20 -70 -32 -114l104 -11l-5 -29l-151 2l-156 -2l5 29l112 11q7 21 18 58.5t16 55.5z" />
<glyph d="M443 160l-71 -160l-125 2h-156l-96 -2l2 44l223 190q118 100 159 157.5t41 111.5q0 45 -21.5 69t-59.5 24q-80 0 -162 -94l-28 22q83 151 207 151q69 0 111 -41.5t42 -110.5q0 -70 -45.5 -130.5t-180.5 -170.5l-179 -146h163q75 0 115 48l31 36h30z" />
<glyph horiz-adv-x="470" d="M160 -12q-63 0 -98 21q-37 23 -37 58q0 20 13 34.5t34 14.5q19 0 35 -14q2 -71 79 -71q58 0 94 33.5t36 88.5q0 41 -15 72.5t-59 72.5l-32 29l9 32l32 13q81 33 115.5 68t34.5 78q0 36 -20.5 57.5t-57.5 21.5q-72 0 -139 -74l-28 23q81 129 186 129q62 0 99.5 -38 t37.5 -97q0 -53 -32 -93t-115 -77l-18 -8l18 -18q64 -64 64 -154q0 -85 -66.5 -143.5t-169.5 -58.5z" />
<glyph horiz-adv-x="520" d="M313 277l91 319h-4q-149 -143 -283 -319h196zM380 206l-16 -55q-13 -47 -35 -149l-81 -6l-11 20l56 190h-263l4 45q157 201 378 414h99l-111 -388h8q31 0 48 6.5t34 22.5l24 -13l-37 -87h-97z" />
<glyph horiz-adv-x="464" d="M140 -12q-60 0 -95 21q-37 23 -37 58q0 20 13 34.5t34 14.5q19 0 35 -14q2 -71 81 -71q71 0 116 47.5t45 116.5q0 54 -28.5 90t-89.5 61l-60 24l-11 21l115 272h189l89 2l-21 -78h-244l-56 -136l31 -13q168 -70 168 -211q0 -101 -76.5 -170t-197.5 -69z" />
<glyph horiz-adv-x="520" d="M555 659q-156 -73 -249.5 -145t-137.5 -155q63 59 135 59t121 -52.5t49 -144.5q0 -105 -78 -173q-69 -60 -154 -60q-89 0 -145 56t-56 165q0 311 467 477l31 11zM278 367q-69 0 -135 -68q-16 -54 -16 -116q0 -74 30.5 -113.5t82.5 -39.5q57 0 100 53t43 147q0 67 -29 102 t-76 35z" />
<glyph d="M167 543l-27 14l56 110l114 -2h274v-28l-266 -389q-68 -99 -68 -141q0 -34 31 -49q0 -34 -18 -52t-44 -18q-28 0 -45.5 19.5t-17.5 47.5q0 33 14.5 67.5t57.5 93.5l273 373h-230q-66 0 -104 -46z" />
<glyph d="M514 527q0 -60 -41.5 -97.5t-132.5 -77.5l18 -19q76 -82 76 -167q0 -80 -59.5 -129t-146.5 -49q-84 0 -134.5 41.5t-50.5 110.5q0 64 43 110t143 90q-68 75 -68 147q0 82 56 135t136 53q50 0 86 -18q75 -40 75 -130zM301 264l-48 51q-71 -40 -100 -84t-29 -99 q0 -45 30 -73.5t75 -28.5q56 0 91.5 33.5t35.5 80.5q0 38 -14 64.5t-41 55.5zM238 514q0 -54 47 -103l33 -36q66 38 95 75.5t29 88.5q0 39 -23.5 66.5t-65.5 27.5q-48 0 -81.5 -35t-33.5 -84z" />
<glyph horiz-adv-x="520" d="M42 -34l-17 38q164 69 259 141.5t135 158.5q-63 -59 -142 -59q-72 0 -121 52.5t-49 144.5q0 105 78 173q69 60 154 60q92 0 146.5 -55t54.5 -160q0 -338 -466 -484zM302 296q69 0 135 68q16 54 16 116q0 74 -30.5 113.5t-82.5 39.5q-57 0 -100 -53t-43 -147 q0 -67 29 -102t76 -35z" />
<glyph horiz-adv-x="298" d="M236 558q-24 0 -52 -32q-41 -48 -41 -135q0 -89 57 -89q42 0 79 49l24 -15q-44 -89 -114 -89q-52 0 -83 32.5t-31 90.5q0 53 22 100.5t57 79.5q46 43 95 43q28 0 45 -6q37 -14 37 -51q0 -18 -11 -29t-28 -11q-18 0 -35 15q3 11 3 22q0 25 -24 25z" />
<glyph horiz-adv-x="235" d="M213 547l-57 -202q-29 -101 -64 -158t-86 -78q-31 -12 -63 -12q-35 0 -53.5 12.5t-18.5 32.5q0 15 10.5 25t27.5 10q19 0 34 -14q1 -32 32 -32q28 0 54.5 38.5t55.5 149.5l59 228h-50l9 28l51 9q35 107 108 139q27 12 53 12q34 0 53 -10q27 -15 27 -42q0 -17 -10.5 -28 t-29.5 -11q-23 0 -34 18q3 10 3 20q0 23 -21 23q-49 0 -74 -94l-7 -26h85l-12 -38h-82z" />
<glyph horiz-adv-x="351" d="M203 245l-54 17q-33 -6 -49.5 -24.5t-16.5 -41.5q0 -28 24 -45.5t64 -17.5q39 0 60.5 17t21.5 44q0 36 -50 51zM296 506q0 58 -38 58q-23 0 -45 -24q-25 -30 -25 -81q0 -27 10.5 -42t26.5 -15q24 0 44 22q27 31 27 82zM377 568q-19 0 -31 -17q19 -25 19 -55 q0 -67 -70 -105q-20 -11 -74 -23l-48 -11q-30 -7 -30 -18t34 -22l49 -16q85 -27 85 -94q0 -45 -42.5 -77.5t-111.5 -32.5q-61 0 -99.5 25t-38.5 64q0 62 96 89q-44 21 -44 52q0 23 25 39l79 14q-57 27 -57 81q0 53 41.5 92.5t101.5 39.5q40 0 64 -21q32 47 60 47 q15 0 24.5 -8.5t9.5 -22.5q0 -18 -22 -28q-13 8 -20 8z" />
<glyph horiz-adv-x="372" d="M229 604l-45 -150q21 1 51 29l18 17q14 12 56 53l-36 10l2 22l73 -1l66 1l-2 -22l-46 -11q-32 -25 -83 -71l-46 -42q17 -9 26 -20t19 -35l27 -65q12 -29 31 -29q18 0 41 23l19 -20q-35 -46 -79 -46q-32 0 -49.5 17t-33.5 57l-22 56q-16 41 -43 46l-13 -48 q-8 -28 -31 -119l-60 -4l-10 17q19 52 31 94l75 253q13 49 17 65l-64 8v25l127 21l19 -12q-22 -77 -35 -119z" />
<glyph horiz-adv-x="382" d="M135 260l-17 -57q-15 -52 -21 -76l67 -7l-2 -23l-96 1l-77 -1l2 22l36 8q12 32 25 79l97 326l-62 10v19l104 32l20 -10l-4 -49q54 59 95 59q39 0 65 -29.5t26 -79.5q0 -111 -79 -187q-52 -50 -114 -50q-40 0 -65 13zM152 322l31 -41q8 -2 20 -2q48 0 83.5 56.5 t35.5 135.5q0 36 -12 54.5t-30 18.5q-28 0 -78 -51z" />
<glyph horiz-adv-x="365" d="M266 561q-46 0 -85.5 -59t-39.5 -136q0 -69 42 -69q29 0 81 42l50 167l-23 49q-8 6 -25 6zM399 579l-109 -376q-14 -50 -19 -77l37 -7l-4 -22l-74 1l-99 -1l3 23l67 7q13 37 21 68l29 101q-56 -49 -93 -49q-39 0 -63 28t-24 78q0 113 79 187q58 53 119 53q40 0 72 -26 l32 26z" />
<glyph horiz-adv-x="376" d="M372 477l-37 -115q-10 -31 -10 -48q0 -26 24 -26q13 0 28 3l17 3l4 -22q-37 -25 -77 -25q-57 0 -64 51q-54 -51 -98 -51q-38 0 -57 19.5t-19 52.5q0 29 14 68l54 153q-12 1 -35 4t-32 4v24l131 21l18 -11q-30 -80 -43 -119l-30 -87q-11 -31 -11 -47q0 -15 8.5 -23.5 t22.5 -8.5q36 0 76 29l49 153q14 43 28 105l64 4l10 -17q-16 -37 -35 -94z" />
<glyph horiz-adv-x="356" d="M260 514l-19 15q21 64 72 64q31 0 51.5 -26.5t20.5 -71.5q0 -81 -51 -157q-62 -91 -138 -91q-37 0 -61.5 22t-24.5 56q0 29 28 92l10 22q15 35 15 57q0 38 -27 38q-26 0 -55 -49l-27 14l13 28q31 66 83 66q28 0 46 -20t18 -56q0 -26 -22 -85l-8 -21q-12 -30 -12 -58 q0 -23 12.5 -35t32.5 -12q48 0 81 51q32 49 32 109q0 67 -34 67q-18 0 -36 -19z" />
<glyph horiz-adv-x="315" d="M106 501l-20 10l27 74l57 -1h111l65 1l3 -20l-199 -213q40 -1 73 -39l26 -30q17 -19 33 -19q13 0 26 12l21 20l19 -20q-24 -34 -43.5 -45.5t-44.5 -11.5q-43 0 -69 33l-39 49q-11 14 -23 14q-22 0 -22 -27q0 -12 7 -22q-8 -18 -30 -18q-13 0 -22 8.5t-9 23.5q0 23 34 60 l181 195h-102q-32 0 -60 -34z" />
<glyph horiz-adv-x="376" d="M182 225q36 0 74 57t66 160q20 72 20 123q0 74 -42 74q-37 0 -75 -57t-67 -160q-20 -75 -20 -117q0 -80 44 -80zM181 192q-48 0 -79 38t-31 107q0 58 14 108q31 113 92.5 170t122.5 57q48 0 79.5 -38t31.5 -107q0 -55 -16 -112q-33 -112 -93.5 -167.5t-120.5 -55.5z" />
<glyph horiz-adv-x="292" d="M130 309l80 283l-53 11l1 19l127 50l18 -10l-102 -355q-11 -37 -21 -76l71 -8l-3 -24l-110 1l-113 -1l3 24l78 8q14 42 24 78z" />
<glyph horiz-adv-x="362" d="M350 314l-50 -115l-92 1h-108l-72 -1l2 33l156 134q75 65 106 107.5t31 76.5q0 62 -51 62q-55 0 -111 -66l-26 21q59 104 149 104q50 0 79.5 -30t29.5 -80q0 -45 -35 -91.5t-122 -116.5l-120 -97h106q50 0 76 32l22 26h30z" />
<glyph horiz-adv-x="341" d="M148 192q-50 0 -72 14q-27 17 -27 43q0 14 10.5 24.5t26.5 10.5q18 0 30 -12q2 -46 50 -46q37 0 61 22.5t24 59.5q0 30 -10.5 51.5t-39.5 48.5l-23 21l5 23l26 10q55 22 78 46t23 54q0 24 -12.5 38t-36.5 14q-48 0 -95 -54l-26 21q58 91 134 91q45 0 72.5 -26.5 t27.5 -68.5q0 -37 -23 -65.5t-82 -54.5l-9 -4l11 -11q45 -45 45 -108q0 -60 -47.5 -101t-120.5 -41z" />
<glyph horiz-adv-x="376" d="M249 396l58 208q-88 -87 -183 -208h125zM306 343l-11 -37q-7 -26 -25 -105l-64 -4l-10 17l38 129h-181l3 33q108 141 264 289h78l-78 -269q34 0 56 22l24 -13l-27 -62h-67z" />
<glyph horiz-adv-x="337" d="M134 192q-46 0 -69 14q-27 17 -27 43q0 14 10 24.5t26 10.5q18 0 30 -12q2 -46 52 -46q47 0 76.5 32t29.5 79q0 72 -78 103l-45 18l-8 16l80 190h136l68 1l-16 -57h-169l-41 -95q140 -54 140 -153q0 -72 -54.5 -120t-140.5 -48z" />
<glyph horiz-adv-x="376" d="M427 660q-202 -97 -261 -195q38 29 81 29q53 0 88 -37t35 -101q0 -73 -56 -121q-51 -43 -110 -43q-64 0 -104 39.5t-40 115.5q0 108 84.5 192.5t270.5 149.5zM230 455q-45 0 -89 -47q-11 -36 -11 -79q0 -51 19.5 -77.5t53.5 -26.5q38 0 66.5 36t28.5 101q0 46 -18.5 69.5 t-49.5 23.5z" />
<glyph horiz-adv-x="362" d="M155 575l-26 13l41 79l82 -2h196v-21l-186 -270q-46 -66 -46 -98q0 -23 21 -32q0 -26 -13.5 -39t-34.5 -13t-35 14t-14 34q0 41 52 113l187 256h-154q-41 0 -70 -34z" />
<glyph horiz-adv-x="362" d="M399 568q0 -42 -28 -67t-92 -55l11 -12q53 -59 53 -117q0 -56 -42.5 -90.5t-105.5 -34.5q-61 0 -97 29.5t-36 77.5q0 43 30 75.5t98 63.5q-46 51 -46 102q0 58 40 95t98 37q36 0 61 -12q56 -28 56 -92zM242 384l-31 32q-83 -49 -83 -123q0 -30 19 -49t48 -19 q37 0 60.5 22.5t23.5 54.5q0 45 -37 82zM207 559q0 -35 31 -70l21 -23q42 25 60.5 50.5t18.5 59.5q0 27 -14.5 45t-41.5 18q-31 0 -53 -23.5t-22 -56.5z" />
<glyph horiz-adv-x="376" d="M62 175l-14 30q208 87 267 195q-41 -30 -86 -30q-52 0 -87.5 37t-35.5 101q0 74 56 122q46 42 110 42q66 0 105.5 -38.5t39.5 -112.5q0 -116 -84 -201.5t-271 -144.5zM246 409q50 0 89 44q11 36 11 82q0 51 -19.5 77.5t-53.5 26.5q-38 0 -66 -36t-28 -101 q0 -46 18.5 -69.5t48.5 -23.5z" />
<glyph horiz-adv-x="376" d="M137 25q36 0 74 57t66 160q20 72 20 123q0 74 -42 74q-37 0 -75 -57t-67 -160q-20 -75 -20 -117q0 -80 44 -80zM136 -8q-48 0 -79 38t-31 107q0 58 14 108q31 113 92.5 170t122.5 57q48 0 79.5 -38t31.5 -107q0 -55 -16 -112q-33 -112 -93.5 -167.5t-120.5 -55.5z" />
<glyph horiz-adv-x="292" d="M85 110l80 283l-53 11l1 19l127 50l18 -10l-102 -355q-11 -37 -21 -76l71 -8l-3 -24l-110 1l-113 -1l3 24l78 8q14 42 24 78z" />
<glyph horiz-adv-x="362" d="M305 115l-50 -115l-92 1h-108l-72 -1l2 33l156 134q75 65 106 107.5t31 76.5q0 62 -51 62q-55 0 -111 -66l-26 21q59 104 149 104q50 0 79.5 -30t29.5 -80q0 -45 -35 -91.5t-122 -116.5l-120 -97h106q50 0 76 32l22 26h30z" />
<glyph horiz-adv-x="341" d="M103 -8q-50 0 -72 14q-27 17 -27 43q0 14 10.5 24.5t26.5 10.5q18 0 30 -12q2 -46 50 -46q37 0 61 22.5t24 59.5q0 30 -10.5 51.5t-39.5 48.5l-23 21l5 23l26 10q55 22 78 46t23 54q0 24 -12.5 38t-36.5 14q-48 0 -95 -54l-26 21q58 91 134 91q45 0 72.5 -26.5 t27.5 -68.5q0 -37 -23 -65.5t-82 -54.5l-9 -4l11 -11q45 -45 45 -108q0 -60 -47.5 -101t-120.5 -41z" />
<glyph horiz-adv-x="376" d="M204 196l58 208q-88 -87 -183 -208h125zM261 143l-11 -37q-7 -26 -25 -105l-64 -4l-10 17l38 129h-181l3 33q108 141 264 289h78l-78 -269q34 0 56 22l24 -13l-27 -62h-67z" />
<glyph horiz-adv-x="337" d="M89 -8q-46 0 -69 14q-27 17 -27 43q0 14 10 24.5t26 10.5q18 0 30 -12q2 -46 52 -46q47 0 76.5 32t29.5 79q0 72 -78 103l-45 18l-8 16l80 190h136l68 1l-16 -57h-169l-41 -95q140 -54 140 -153q0 -72 -54.5 -120t-140.5 -48z" />
<glyph horiz-adv-x="376" d="M382 460q-202 -97 -261 -195q38 29 81 29q53 0 88 -37t35 -101q0 -73 -56 -121q-51 -43 -110 -43q-64 0 -104 39.5t-40 115.5q0 108 84.5 192.5t270.5 149.5zM185 255q-45 0 -89 -47q-11 -36 -11 -79q0 -51 19.5 -77.5t53.5 -26.5q38 0 66.5 36t28.5 101q0 46 -18.5 69.5 t-49.5 23.5z" />
<glyph horiz-adv-x="362" d="M110 375l-26 13l41 79l82 -2h196v-21l-186 -270q-46 -66 -46 -98q0 -23 21 -32q0 -26 -13.5 -39t-34.5 -13t-35 14t-14 34q0 41 52 113l187 256h-154q-41 0 -70 -34z" />
<glyph horiz-adv-x="362" d="M354 368q0 -42 -28 -67t-92 -55l11 -12q53 -59 53 -117q0 -56 -42.5 -90.5t-105.5 -34.5q-61 0 -97 29.5t-36 77.5q0 43 30 75.5t98 63.5q-46 51 -46 102q0 58 40 95t98 37q35 0 61 -12q56 -28 56 -92zM197 184l-31 32q-83 -49 -83 -123q0 -30 19 -49t48 -19 q37 0 60.5 22.5t23.5 54.5q0 45 -37 82zM162 359q0 -35 31 -70l21 -23q42 25 60.5 50.5t18.5 59.5q0 27 -14.5 45t-41.5 18q-31 0 -53 -23.5t-22 -56.5z" />
<glyph horiz-adv-x="376" d="M17 -25l-14 30q208 87 267 195q-41 -30 -86 -30q-52 0 -87.5 37t-35.5 101q0 74 56 122q47 42 110 42q66 0 105.5 -38.5t39.5 -112.5q0 -116 -84 -201.5t-271 -144.5zM201 209q50 0 89 44q11 36 11 82q0 51 -19.5 77.5t-53.5 26.5q-38 0 -66 -36t-28 -101 q0 -46 18.5 -69.5t48.5 -23.5z" />
<glyph horiz-adv-x="350" d="M48 180q0 194 98.5 356.5t277.5 272.5l27 -42q-154 -100 -247 -254.5t-93 -335.5q0 -93 28 -158.5t88 -132.5l-36 -33q-143 135 -143 327z" />
<glyph horiz-adv-x="350" d="M351 482q0 -194 -98.5 -356.5t-277.5 -272.5l-27 42q154 100 247 254.5t93 335.5q0 93 -28 158.5t-88 132.5l36 33q143 -135 143 -327z" />
<glyph horiz-adv-x="350" d="M226 809h242l-13 -54h-179l-212 -848h179l-13 -54h-242z" />
<glyph horiz-adv-x="350" d="M168 809h242l-238 -956h-241l13 54h178l212 848h-179z" />
<glyph horiz-adv-x="350" d="M34 356h30q93 0 119 91q10 34 20.5 108t20.5 112q18 68 66.5 105t123.5 37h72l-16 -54h-61q-46 0 -78 -25t-43 -66q-9 -36 -19.5 -107.5t-22.5 -114.5q-15 -55 -38 -79.5t-65 -37.5q40 -22 40 -72q0 -24 -8 -51q-12 -42 -40 -104.5t-38 -99.5q-4 -13 -4 -29 q0 -29 18.5 -45.5t54.5 -16.5h61l-16 -54h-50q-61 0 -95 31t-34 80q0 29 17 80q3 9 29.5 70.5t37.5 100.5q6 21 6 37q0 54 -73 54h-30z" />
<glyph horiz-adv-x="350" d="M363 306h-30q-93 0 -119 -91q-10 -34 -20.5 -108t-20.5 -112q-18 -68 -66.5 -105t-123.5 -37h-72l16 54h61q46 0 78 25t43 66q9 36 19.5 107.5t22.5 114.5q15 55 38 79.5t65 37.5q-40 22 -40 72q0 24 8 51q12 42 40 104.5t38 99.5q4 13 4 29q0 29 -18.5 45.5t-54.5 16.5 h-61l16 54h50q61 0 95 -31t34 -80q0 -29 -17 -80q-3 -9 -29.5 -70.5t-37.5 -100.5q-6 -21 -6 -37q0 -54 73 -54h30z" />
<glyph horiz-adv-x="250" d="M25 300l16 63h230l-16 -63h-230z" />
<glyph horiz-adv-x="250" d="M25 300l16 63h230l-16 -63h-230z" />
<glyph d="M13 300l16 63h500l-16 -63h-500z" />
<glyph horiz-adv-x="1000" d="M13 300l16 63h1000l-16 -63h-1000z" />
<glyph horiz-adv-x="440" d="M62 290q0 39 17 70q23 43 65 72.5t115 53.5l10 -28q-74 -31 -104 -61.5t-30 -66.5q0 -50 58 -59q9 -14 9 -31q0 -27 -17 -42t-42 -15q-34 0 -57.5 28.5t-23.5 78.5zM252 290q0 39 17 70q23 43 65 72.5t115 53.5l10 -28q-74 -31 -104 -61.5t-30 -66.5q0 -50 58 -59 q9 -14 9 -31q0 -27 -17 -42t-42 -15q-34 0 -57.5 28.5t-23.5 78.5z" />
<glyph horiz-adv-x="440" d="M243 374q0 -39 -17 -70q-23 -43 -65 -72.5t-115 -53.5l-10 28q74 31 104 61.5t30 66.5q0 50 -58 59q-9 14 -9 31q0 27 17 42t42 15q34 0 57.5 -28.5t23.5 -78.5zM433 374q0 -39 -17 -70q-23 -43 -65 -72.5t-115 -53.5l-10 28q74 31 104 61.5t30 66.5q0 50 -58 59 q-9 14 -9 31q0 27 17 42t42 15q34 0 57.5 -28.5t23.5 -78.5z" />
<glyph horiz-adv-x="250" d="M62 290q0 39 17 70q23 43 65 72.5t115 53.5l10 -28q-74 -31 -104 -61.5t-30 -66.5q0 -50 58 -59q9 -14 9 -31q0 -27 -17 -42t-42 -15q-34 0 -57.5 28.5t-23.5 78.5z" />
<glyph horiz-adv-x="250" d="M243 374q0 -39 -17 -70q-23 -43 -65 -72.5t-115 -53.5l-10 28q74 31 104 61.5t30 66.5q0 50 -58 59q-9 14 -9 31q0 27 17 42t42 15q34 0 57.5 -28.5t23.5 -78.5z" />
<glyph d="M188 -12q-65 0 -108 54.5t-43 151.5q0 82 21 154q48 161 133 244t169 83q66 0 109 -54t43 -152q0 -81 -23 -160q-48 -161 -132.5 -241t-168.5 -80zM148 318q-17 -58 -26 -116l306 317v4q0 110 -69 110q-56 0 -111 -80.5t-100 -234.5zM190 30q56 0 110.5 80.5t98.5 234.5 q16 59 24 112l-304 -316q2 -111 71 -111z" />
<glyph d="M46 199q0 121 71 213t180 92q77 0 127 -59.5t50 -152.5q0 -121 -71 -212.5t-180 -91.5q-78 0 -127.5 59t-49.5 152zM132 177q0 -72 24.5 -108.5t69.5 -36.5q69 0 115.5 76.5t46.5 205.5q0 72 -24.5 109t-69.5 37q-69 0 -115.5 -77t-46.5 -206z" />
<glyph d="M245 338q15 48 33 116l-107 9l5 29l155 -2l152 2l-5 -29l-111 -9q-15 -48 -35 -116l-52 -184q-7 -26 -17 -62.5t-15 -53.5l106 -9l-4 -29l-151 2l-156 -2l4 29l111 9q17 53 35 116z" />
<glyph d="M412 107l-48 -107l-115 2h-154l-104 -2l6 43q110 87 227 152q88 49 119 83.5t31 74.5q0 33 -20 53t-55 20q-77 0 -141 -80l-30 20q70 138 188 138q63 0 101.5 -40t38.5 -99q0 -65 -45.5 -108.5t-162.5 -100.5q-70 -34 -134 -82h145q82 0 124 47z" />
<glyph d="M293 198l-36 -24l9 -8q72 -63 72 -140q0 -90 -69.5 -152.5t-231.5 -108.5l-12 34q127 45 177 93.5t50 107.5q0 65 -63 112l-27 20v24l62 43q70 48 99 84t29 76q0 30 -19 48.5t-47 18.5q-60 0 -111 -68l-29 16q53 130 162 130q54 0 88 -37t34 -92q0 -51 -31 -88.5 t-106 -88.5z" />
<glyph d="M262 69l99 345h-4q-183 -175 -308 -345h213zM330 0l-16 -55q-12 -42 -39 -166l-81 -6l-11 20l60 207h-281v34q177 239 411 458h98l-122 -423h8q51 0 83 31l24 -13l-37 -87h-97z" />
<glyph d="M235 490h152l94 2l-30 -78h-206l-62 -130q75 -56 111 -115.5t36 -131.5q0 -193 -250 -276l-13 36q179 84 179 212q0 63 -29.5 110.5t-111.5 103.5z" />
<glyph d="M237 368l1 31q28 10 49 10q71 0 122.5 -52.5t51.5 -137.5q0 -108 -78 -176q-63 -55 -144 -55q-91 0 -147.5 57.5t-56.5 163.5q0 317 468 477l32 11l17 -38q-218 -97 -323 -206t-105 -263q0 -78 30.5 -119t84.5 -41q52 0 92.5 53t40.5 144q0 141 -115 141h-20z" />
<glyph d="M506 462l-72 -166q-145 -334 -231 -444q-62 -79 -125 -79q-34 0 -53 16.5t-19 42.5q0 34 30 52q30 -12 58 -12q23 0 43 12t52.5 51.5t78.5 126t110 224.5l59 128h-201q-41 0 -64.5 -9.5t-50.5 -35.5l-26 15l43 108l124 -2h242z" />
<glyph d="M514 527q0 -60 -41.5 -97.5t-132.5 -77.5l18 -19q76 -82 76 -167q0 -80 -59.5 -129t-146.5 -49q-84 0 -134.5 41.5t-50.5 110.5q0 64 43 110t143 90q-68 75 -68 147q0 82 56 135t136 53q50 0 86 -18q75 -40 75 -130zM301 264l-48 51q-71 -40 -100 -84t-29 -99 q0 -45 30 -73.5t75 -28.5q56 0 91.5 33.5t35.5 80.5q0 38 -14 64.5t-41 55.5zM238 514q0 -54 47 -103l33 -36q66 38 95 75.5t29 88.5q0 39 -23.5 66.5t-65.5 27.5q-48 0 -81.5 -35t-33.5 -84z" />
<glyph d="M269 124l-1 -31q-28 -10 -49 -10q-71 0 -122.5 52.5t-51.5 137.5q0 108 78 176q63 55 144 55q91 0 147.5 -57.5t56.5 -163.5q0 -317 -468 -477l-32 -11l-17 38q218 97 323 206t105 263q0 78 -30.5 119t-84.5 41q-52 0 -92.5 -53t-40.5 -144q0 -141 115 -141h20z" />
<glyph horiz-adv-x="844" d="M612 729l31 -9q-13 -36 -31 -93.5t-26 -81.5l-56 -158q47 54 79.5 74.5t66.5 20.5q53 0 88 -41.5t35 -113.5q0 -163 -109 -266q-78 -73 -161 -73q-57 0 -100 25l-26 -88q-13 -48 -29 -115l86 -10l-3 -27l-121 2l-113 -2l3 27l61 10q23 73 36 116l218 732q-27 -13 -69 -13 q-26 0 -63.5 7t-67.5 7q-46 0 -72.5 -26.5t-26.5 -65.5q0 -62 64 -97q39 -22 39 -53q0 -22 -13 -33.5t-31 -11.5q-19 0 -31 10q-9 53 -56 53q-26 0 -42 -15.5t-16 -40.5q0 -21 12.5 -40.5t48.5 -63.5q42 -50 57 -79.5t15 -65.5q0 -59 -45.5 -100.5t-113.5 -41.5 q-53 0 -83 23q-31 23 -31 54q0 18 12.5 31t31.5 13t35 -12q1 -57 59 -57q33 0 52 16.5t19 46.5q0 8 -1 15.5t-5 16t-7 14t-11 16t-12.5 16t-16.5 20t-19 22.5q-58 69 -58 123q0 56 38 92.5t93 42.5q-34 41 -34 85q0 58 42 99.5t107 41.5q29 0 76.5 -8t66.5 -8q57 0 128 38z M533 28q72 0 125.5 83t53.5 198q0 53 -19.5 80t-49.5 27q-25 0 -52 -17.5t-68 -63.5l-72 -238q10 -33 32 -51t50 -18z" />
<glyph horiz-adv-x="250" d="M85 330q0 28 19 46.5t47 18.5q27 0 45.5 -18.5t18.5 -46.5q0 -29 -18 -47t-46 -18t-47 18.5t-19 46.5z" />
<glyph horiz-adv-x="1318" d="M506 -12h-32l-223 559l-123 -391q-7 -24 -30 -116l82 -11l-4 -29l-112 2l-111 -2l4 29l89 11q8 25 15.5 47.5t13.5 42t8 26.5l136 440l-79 40l9 29l148 -2l208 -516l113 362q10 30 31 114l-82 13l5 29l112 -2l113 2l-5 -29l-90 -13q-23 -69 -36 -114zM988 399 q0 107 -63 107q-21 0 -45 -19q-52 -45 -52 -157q0 -54 17.5 -80t44.5 -26q25 0 44 18q54 45 54 157zM754 335q0 52 21 96.5t55 71.5q44 35 97 35q59 0 97 -39t38 -104q0 -50 -21.5 -95t-54.5 -73q-45 -35 -97 -35q-60 0 -97.5 39.5t-37.5 103.5zM1299 293q0 -44 -31.5 -72.5 t-80.5 -28.5q-34 0 -55 13q-21 15 -21 38q0 13 9.5 23t23.5 10q17 0 31 -10q1 -35 32 -35q17 0 28 10.5t11 29.5t-9.5 36t-33.5 48q-35 46 -35 82q0 45 30.5 73t73.5 28q32 0 50.5 -13.5t18.5 -32.5q0 -16 -10 -24.5t-24 -8.5t-24 8q-5 36 -32 36q-13 0 -22.5 -10t-9.5 -27 q0 -27 36 -73q44 -57 44 -100z" />
<glyph horiz-adv-x="900" d="M332 152l46 144q13 40 13 66q0 24 -13 38.5t-36 14.5q-56 0 -121 -51l-64 -212l-42 -150l-77 -6l-11 20q40 112 47 136l76 247l-89 13v25l142 45l23 -12l-3 -68q78 80 159 80q48 0 71 -28t23 -75q0 -36 -16 -87l-46 -141q-20 -61 -20 -81q0 -35 52 -35h39v-26 q-60 -21 -102 -21q-35 0 -54 18.5t-19 47.5q0 32 22 98zM828 399q0 107 -63 107q-21 0 -45 -19q-52 -45 -52 -157q0 -54 17.5 -80t44.5 -26q25 0 44 18q54 45 54 157zM594 335q0 52 21 96.5t55 71.5q44 35 97 35q59 0 97 -39t38 -104q0 -50 -21.5 -95t-54.5 -73 q-45 -35 -97 -35q-60 0 -97.5 39.5t-37.5 103.5z" />
<glyph horiz-adv-x="1158" d="M332 152l46 144q13 40 13 66q0 24 -13 38.5t-36 14.5q-56 0 -121 -51l-64 -212l-42 -150l-77 -6l-11 20q40 112 47 136l76 247l-89 13v25l142 45l23 -12l-3 -68q78 80 159 80q48 0 71 -28t23 -75q0 -36 -16 -87l-46 -141q-20 -61 -20 -81q0 -35 52 -35h39v-26 q-60 -21 -102 -21q-35 0 -54 18.5t-19 47.5q0 32 22 98zM828 399q0 107 -63 107q-21 0 -45 -19q-52 -45 -52 -157q0 -54 17.5 -80t44.5 -26q25 0 44 18q54 45 54 157zM594 335q0 52 21 96.5t55 71.5q44 35 97 35q59 0 97 -39t38 -104q0 -50 -21.5 -95t-54.5 -73 q-45 -35 -97 -35q-60 0 -97.5 39.5t-37.5 103.5zM1139 293q0 -44 -31.5 -72.5t-80.5 -28.5q-34 0 -55 13q-21 15 -21 38q0 13 9.5 23t23.5 10q17 0 31 -10q1 -35 32 -35q17 0 28 10.5t11 29.5t-9.5 36t-33.5 48q-35 46 -35 82q0 45 30.5 73t73.5 28q32 0 50.5 -13.5 t18.5 -32.5q0 -16 -10 -24.5t-24 -8.5t-24 8q-5 36 -32 36q-13 0 -22.5 -10t-9.5 -27q0 -27 36 -73q44 -57 44 -100z" />
<glyph horiz-adv-x="375" d="M130 268l33 -41q12 -3 19 -3q52 0 87 52.5t35 128.5q0 84 -46 84q-31 0 -78 -56zM212 549l-23 -66q51 55 93 55q40 0 65.5 -31t25.5 -87q0 -50 -20.5 -98.5t-57.5 -83.5q-49 -46 -113 -46q-77 0 -123 57l93 312l18 65l-64 8v25l129 21l17 -12z" />
<glyph horiz-adv-x="298" d="M224 503q-24 0 -52 -32q-41 -48 -41 -135q0 -89 57 -89q42 0 79 49l24 -15q-44 -89 -114 -89q-52 0 -83 32.5t-31 90.5q0 53 22 100.5t57 79.5q46 43 95 43q28 0 45 -6q37 -14 37 -51q0 -18 -11 -29t-28 -11q-18 0 -35 15q3 10 3 22q0 25 -24 25z" />
<glyph horiz-adv-x="378" d="M238 241v9q-57 -58 -102 -58q-36 0 -57 23.5t-21 67.5q0 126 87 205q55 50 106 50q48 0 84 -28l33 28l26 -13q-30 -69 -45 -117l-40 -124q-6 -20 -6 -30q0 -16 15 -16q18 0 41 12l23 12l13 -24q-57 -46 -97 -46q-60 0 -60 49zM167 242q32 0 79 50l53 159l-25 49 q-10 6 -25 6q-45 0 -82.5 -59.5t-37.5 -141.5q0 -63 38 -63z" />
<glyph horiz-adv-x="384" d="M252 248q-53 -56 -97 -56q-39 0 -64.5 29.5t-25.5 79.5q0 112 77 186q54 51 115 51q42 0 67 -14l12 36q8 23 17 66l-64 8v25l128 21l18 -12q-30 -89 -39 -119l-78 -266q-6 -20 -6 -28q0 -17 18 -17q15 0 37 14l22 14l16 -23q-53 -51 -94 -51q-28 0 -43.5 16t-15.5 40z M254 506q-48 0 -84.5 -57t-36.5 -135q0 -36 13 -53t32 -17q34 0 77 48l50 159l-24 48q-10 7 -27 7z" />
<glyph horiz-adv-x="293" d="M265 398q-46 -21 -134 -43q-2 -18 -2 -32q0 -77 48 -77q19 0 34.5 9t41.5 35l19 -17q-44 -81 -113 -81q-44 0 -71 29.5t-27 79.5q0 89 59.5 163t123.5 74q34 0 54 -18t20 -46q0 -50 -53 -76zM172 464q-25 -33 -35 -78q69 20 93.5 39t24.5 42q0 13 -8.5 21t-21.5 8 q-28 0 -53 -32z" />
<glyph horiz-adv-x="235" d="M201 492l-57 -202q-29 -101 -64 -158t-86 -78q-31 -12 -63 -12q-35 0 -53.5 12.5t-18.5 32.5q0 15 10.5 25t27.5 10q19 0 34 -14q1 -32 32 -32q28 0 54.5 38.5t55.5 149.5l59 228h-50l9 28l51 9q35 107 108 139q27 12 53 12q34 0 53 -10q27 -15 27 -42q0 -18 -10.5 -28.5 t-29.5 -10.5q-23 0 -34 18q3 11 3 20q0 23 -21 23q-49 0 -74 -94l-7 -26h85l-12 -38h-82z" />
<glyph horiz-adv-x="351" d="M191 190l-54 17q-33 -6 -49.5 -24.5t-16.5 -41.5q0 -28 24 -45.5t64 -17.5q39 0 60.5 17t21.5 44q0 36 -50 51zM284 451q0 58 -38 58q-23 0 -45 -24q-25 -30 -25 -81q0 -27 10.5 -42t26.5 -15q24 0 44 22q27 31 27 82zM365 513q-19 0 -31 -17q19 -25 19 -55 q0 -67 -70 -105q-20 -11 -74 -23l-48 -11q-30 -7 -30 -18t34 -22l49 -16q85 -27 85 -94q0 -45 -42.5 -77.5t-111.5 -32.5q-61 0 -99.5 25t-38.5 64q0 62 96 89q-44 21 -44 52q0 23 25 39l79 14q-57 27 -57 81q0 53 41.5 92.5t101.5 39.5q40 0 64 -21q32 47 60 47 q15 0 24.5 -8.5t9.5 -22.5q0 -18 -22 -28q-13 8 -20 8z" />
<glyph horiz-adv-x="374" d="M215 555l-20 -68q56 51 102 51q33 0 51.5 -20.5t18.5 -52.5q0 -28 -11 -62l-32 -97q-13 -39 -13 -55q0 -22 33 -22h29v-22q-44 -15 -75 -15q-27 0 -41.5 13.5t-14.5 34.5q0 23 15 68l32 100q9 27 9 45q0 35 -33 35q-31 0 -76 -34l-44 -148q0 -1 -2.5 -10t-9 -33.5 t-17.5 -61.5l-60 -4l-10 17q20 56 32 94l75 253q13 49 17 65q-11 1 -33 4t-32 4v25l129 21l19 -12q-27 -73 -38 -113z" />
<glyph horiz-adv-x="199" d="M150 635q0 17 13.5 30t32.5 13q20 0 33 -12.5t13 -30.5t-13 -30.5t-33 -12.5q-19 0 -32.5 12.5t-13.5 30.5zM140 485l-69 8v24l133 21l19 -12q-25 -57 -46 -118l-43 -125q-7 -20 -7 -32q0 -11 14 -11q15 0 43 8l24 8l11 -25q-67 -39 -114 -39q-50 0 -50 39q0 21 10 48z " />
<glyph horiz-adv-x="202" d="M153 635q0 17 14 30t33 13q18 0 31 -13t13 -30q0 -18 -12.5 -30.5t-31.5 -12.5q-20 0 -33.5 12.5t-13.5 30.5zM231 527l-49 -170q-23 -80 -38.5 -119.5t-38.5 -77.5q-36 -59 -81 -88.5t-111 -29.5q-84 0 -84 50q0 16 10 26.5t26 10.5q19 0 37 -16q3 -37 46 -37 q45 0 80.5 56t76.5 190l49 163l-95 8v25l155 20z" />
<glyph horiz-adv-x="372" d="M217 549l-45 -150q21 1 51 29l18 17q14 12 56 53l-36 10l2 22l73 -1l66 1l-2 -22l-46 -11q-31 -25 -83 -71l-46 -42q17 -9 26 -20t19 -35l27 -65q12 -29 31 -29q18 0 41 23l19 -20q-35 -46 -79 -46q-32 0 -49.5 17t-33.5 57l-22 56q-16 41 -43 46l-13 -48 q-8 -28 -31 -119l-60 -4l-10 17q19 52 31 94l75 253q13 49 17 65l-64 8v25l127 21l19 -12q-22 -77 -35 -119z" />
<glyph horiz-adv-x="194" d="M70 308l87 253q11 35 18 65l-63 8v25l130 21l19 -12q-12 -32 -42 -119l-81 -243q-14 -40 -14 -54q0 -20 23 -20q6 0 24 2l21 3l4 -22q-46 -23 -85 -23q-27 0 -41.5 13.5t-14.5 34.5q0 23 15 68z" />
<glyph horiz-adv-x="546" d="M356 399l-28 -93q-17 -54 -29 -105l-62 -4l-8 17q20 56 31 93l31 101q9 30 9 45q0 35 -30 35q-32 0 -74 -34l-41 -148q-12 -40 -28 -105l-61 -4l-9 17q21 62 30 93l48 170l-60 10v19l104 33l20 -10l-2 -44q53 53 99 53q25 0 43.5 -14.5t26.5 -36.5q56 51 101 51 q35 0 53.5 -21t18.5 -54q0 -27 -11 -60q-29 -80 -35 -97q-15 -45 -15 -54q0 -22 33 -22h33v-23q-44 -15 -80 -15q-26 0 -40.5 13.5t-14.5 34.5q0 19 17 68l36 100q8 24 8 45q0 35 -31 35t-71 -32q-1 -24 -12 -57z" />
<glyph horiz-adv-x="381" d="M265 308l33 100q8 24 8 45q0 35 -29 35q-37 0 -79 -34l-48 -162q-15 -48 -26 -91l-60 -4l-10 17q20 56 32 94l52 169l-61 10v19l105 33l19 -10l-2 -44q65 53 106 53q70 0 70 -73q0 -28 -11 -62l-32 -97q-13 -38 -13 -54q0 -22 33 -22h29v-23q-44 -15 -76 -15 q-26 0 -40.5 13.5t-14.5 34.5q0 20 15 68z" />
<glyph horiz-adv-x="373" d="M301 399q0 107 -63 107q-21 0 -45 -19q-52 -45 -52 -157q0 -54 17.5 -80t44.5 -26q25 0 44 18q54 45 54 157zM67 335q0 52 21 96.5t55 71.5q44 35 97 35q59 0 97 -39t38 -104q0 -50 -21.5 -95t-54.5 -73q-45 -35 -97 -35q-60 0 -97.5 39.5t-37.5 103.5z" />
<glyph horiz-adv-x="382" d="M123 205l-17 -57q-15 -52 -21 -76l67 -7l-2 -23l-96 1l-77 -1l2 22l36 8q12 32 25 79l97 326l-62 10v19l104 32l20 -10l-4 -49q54 59 95 59q39 0 65 -29.5t26 -79.5q0 -111 -79 -187q-52 -50 -114 -50q-40 0 -65 13zM140 267l31 -41q8 -2 20 -2q48 0 83.5 56.5 t35.5 135.5q0 36 -12 54.5t-30 18.5q-28 0 -78 -51z" />
<glyph horiz-adv-x="365" d="M254 506q-46 0 -85.5 -59t-39.5 -136q0 -69 42 -69q29 0 81 42l50 167l-23 49q-7 6 -25 6zM387 524l-109 -376q-14 -50 -19 -77l37 -7l-4 -22l-74 1l-99 -1l3 23l67 7q13 37 21 68l29 101q-56 -49 -93 -49q-39 0 -63 28t-24 78q0 113 79 187q58 53 119 53q40 0 72 -26 l32 26z" />
<glyph horiz-adv-x="265" d="M201 529l-8 -58q49 67 88 67q18 0 29.5 -10.5t11.5 -28.5q0 -14 -11 -24.5t-28 -13.5q-12 16 -30 16q-27 0 -64 -44l-38 -127q-17 -56 -27 -105l-63 -4l-9 17q18 40 34 94l35 117l13 52l-59 10v19l106 32z" />
<glyph horiz-adv-x="258" d="M239 293q0 -44 -31.5 -72.5t-80.5 -28.5q-34 0 -55 13q-21 15 -21 38q0 13 9.5 23t23.5 10q17 0 31 -10q1 -35 32 -35q17 0 28 10.5t11 29.5t-9.5 36t-33.5 48q-35 46 -35 82q0 45 30.5 73t73.5 28q32 0 50.5 -13.5t18.5 -32.5q0 -16 -10 -24.5t-24 -8.5t-24 8 q-5 36 -32 36q-13 0 -22.5 -10t-9.5 -27q0 -27 36 -73q44 -57 44 -100z" />
<glyph horiz-adv-x="246" d="M250 304l20 -23q-76 -89 -149 -89q-66 0 -66 52q0 19 15 72l50 176h-49l6 30l51 8l17 69l69 35l14 -10l-30 -94h96l-11 -38h-95l-54 -193q-8 -27 -8 -39q0 -19 19 -19q36 0 105 63z" />
<glyph horiz-adv-x="376" d="M360 422l-37 -115q-10 -31 -10 -48q0 -26 24 -26q13 0 28 3l17 3l4 -22q-37 -25 -77 -25q-57 0 -64 51q-54 -51 -98 -51q-38 0 -57 19.5t-19 52.5q0 30 14 68l54 153q-12 1 -35 4t-32 4v24l131 21l18 -11q-30 -80 -43 -119l-30 -87q-11 -31 -11 -47q0 -15 8.5 -23.5 t22.5 -8.5q36 0 76 29l49 153q14 43 28 105l64 4l10 -17q-16 -37 -35 -94z" />
<glyph horiz-adv-x="356" d="M248 459l-19 15q21 64 72 64q31 0 51.5 -26.5t20.5 -71.5q0 -81 -51 -157q-62 -91 -138 -91q-37 0 -61.5 22t-24.5 56q0 29 28 92l10 22q15 35 15 57q0 38 -27 38q-26 0 -55 -49l-27 14l13 28q31 66 83 66q28 0 46 -20t18 -56q0 -26 -22 -85l-8 -21q-12 -30 -12 -58 q0 -23 12.5 -35t32.5 -12q48 0 81 51q32 49 32 109q0 67 -34 67q-18 0 -36 -19z" />
<glyph horiz-adv-x="473" d="M365 538q40 0 67.5 -42.5t27.5 -125.5q0 -80 -31.5 -129t-78.5 -49q-61 0 -80 77q-47 -77 -102 -77q-37 0 -59 19t-22 52q0 37 38 99l14 23q19 31 19 59q0 35 -28 35q-25 0 -59 -42l-24 17l15 25q35 59 85 59q29 0 47 -20t18 -53q0 -35 -28 -82l-9 -15q-27 -46 -27 -74 q0 -40 39 -40q20 0 41 14t34 39q-4 28 -4 39q0 24 10 40t25 16q29 0 29 -40q0 -36 -27 -63q4 -21 19 -33t34 -12q29 0 49 31t20 83q0 54 -19.5 82t-46.5 28q-21 0 -47 -21l-20 17l13 19q31 45 68 45z" />
<glyph horiz-adv-x="384" d="M248 447l6 -34l69 90q27 35 55 35q18 0 30 -11.5t12 -30.5q0 -40 -40 -40h-9q-4 16 -16 16q-10 0 -24 -15l-72 -82l14 -92q5 -36 25 -36q23 0 49 63l30 -10l-7 -24q-13 -44 -32.5 -64t-51.5 -20q-61 0 -72 68l-10 60l-73 -96q-24 -32 -56 -32q-18 0 -29.5 10t-11.5 28 q0 36 41 45q10 -14 24 -14t28 16l70 82l-10 78q-6 47 -27 47q-25 0 -38 -60l-31 5l5 26q16 83 74 83q29 0 49.5 -24t28.5 -67z" />
<glyph horiz-adv-x="344" d="M216 284l77 124q24 40 24 65q0 18 -16 26q0 17 10 28t26 11q18 0 29 -11.5t11 -30.5q0 -23 -27 -66l-154 -244q-51 -81 -96 -112.5t-98 -31.5q-86 0 -86 53q0 16 11 27.5t28 11.5q16 0 35 -14q0 -39 30 -39q65 0 138 118l-15 269q-2 16 -10 16q-11 0 -24 -9.5t-46 -40.5 l-21 21l24 28q47 55 89 55q46 0 49 -55z" />
<glyph horiz-adv-x="315" d="M94 446l-20 10l27 74l57 -1h111l65 1l3 -20l-199 -213q40 -1 73 -39l26 -30q17 -19 33 -19q13 0 26 12l21 20l19 -20q-24 -34 -43.5 -45.5t-44.5 -11.5q-43 0 -69 33l-39 49q-11 14 -23 14q-22 0 -22 -27q0 -12 7 -22q-8 -18 -30 -18q-13 0 -22 8.5t-9 23.5q0 23 34 60 l181 195h-102q-32 0 -60 -34z" />
<glyph horiz-adv-x="257" d="M73 327q0 135 70 249t197 192l23 -35q-107 -69 -171.5 -176t-64.5 -232q0 -64 19.5 -110t60.5 -92l-29 -27q-105 99 -105 231z" />
<glyph horiz-adv-x="257" d="M293 536q0 -135 -70 -249t-197 -192l-22 35q107 69 171.5 176t64.5 232q0 64 -20 110t-62 92l31 27q104 -96 104 -231z" />
<glyph horiz-adv-x="187" d="M40 344l12 48h170l-11 -48h-171z" />
<glyph horiz-adv-x="187" d="M152 206q0 -23 -12 -50q-32 -60 -139 -94l-9 25q99 40 99 91q0 37 -39 43q-7 10 -7 24q0 20 13 30.5t33 10.5q26 0 43.5 -22t17.5 -58z" />
<glyph horiz-adv-x="187" d="M49 239q0 20 15 33.5t37 13.5q21 0 35 -13.5t14 -33.5q0 -21 -13.5 -34t-35.5 -13t-37 13t-15 34z" />
<glyph horiz-adv-x="362" d="M257 279h-43v135h-134v37h134v135h43v-135h135v-37h-135v-135z" />
<glyph horiz-adv-x="362" d="M392 477h-312v36h312v-36zM392 352h-312v36h312v-36z" />
<glyph horiz-adv-x="378" d="M146 -104v9q-57 -58 -102 -58q-36 0 -57 23.5t-21 67.5q0 126 87 205q55 50 106 50q48 0 84 -28l33 28l26 -13q-30 -69 -45 -117l-40 -124q-6 -20 -6 -30q0 -16 15 -16q18 0 41 12l23 12l13 -24q-58 -46 -97 -46q-60 0 -60 49zM75 -103q32 0 79 50l53 159l-25 49 q-10 6 -25 6q-45 0 -82.5 -59.5t-37.5 -141.5q0 -63 38 -63z" />
<glyph horiz-adv-x="375" d="M38 -77l33 -41q12 -3 19 -3q52 0 87 52.5t35 128.5q0 84 -46 84q-31 0 -78 -56zM120 204l-23 -66q51 55 93 55q40 0 65.5 -31t25.5 -87q0 -50 -20.5 -98.5t-57.5 -83.5q-49 -46 -113 -46q-77 0 -123 57l93 312l18 65l-64 8v25l129 21l17 -12z" />
<glyph horiz-adv-x="298" d="M132 158q-24 0 -52 -32q-41 -48 -41 -135q0 -89 57 -89q42 0 79 49l24 -15q-44 -89 -114 -89q-52 0 -83 32.5t-31 90.5q0 53 22 100.5t57 79.5q46 43 95 43q28 0 45 -6q37 -14 37 -51q0 -18 -11 -29t-28 -11q-18 0 -35 15q3 10 3 22q0 25 -24 25z" />
<glyph horiz-adv-x="384" d="M160 -97q-53 -56 -97 -56q-39 0 -64.5 29.5t-25.5 79.5q0 112 77 186q54 51 115 51q42 0 67 -14l12 36q8 23 17 66l-64 8v25l128 21l18 -12q-30 -89 -39 -119l-78 -266q-6 -20 -6 -28q0 -17 18 -17q15 0 37 14l22 14l16 -23q-53 -51 -94 -51q-28 0 -43.5 16t-15.5 40z M162 161q-48 0 -84.5 -57t-36.5 -135q0 -36 13 -53t32 -17q34 0 77 48l50 159l-24 48q-10 7 -27 7z" />
<glyph horiz-adv-x="293" d="M173 53q-46 -21 -134 -43q-2 -18 -2 -32q0 -77 48 -77q19 0 34.5 9t41.5 35l19 -17q-44 -81 -113 -81q-44 0 -71 29.5t-27 79.5q0 89 59.5 163t123.5 74q34 0 54 -18t20 -46q0 -49 -53 -76zM80 119q-25 -33 -35 -78q69 20 93.5 39t24.5 42q0 13 -8.5 21t-21.5 8 q-28 0 -53 -32z" />
<glyph horiz-adv-x="235" d="M109 147l-57 -202q-29 -101 -64 -158t-86 -78q-31 -12 -63 -12q-35 0 -53.5 12.5t-18.5 32.5q0 15 10.5 25t27.5 10q19 0 34 -14q1 -32 32 -32q28 0 54.5 38.5t55.5 149.5l59 228h-50l9 28l51 9q35 107 108 139q27 12 53 12q34 0 53 -10q27 -15 27 -42q0 -17 -10.5 -28 t-29.5 -11q-23 0 -34 18q3 10 3 20q0 23 -21 23q-49 0 -74 -94l-7 -26h85l-12 -38h-82z" />
<glyph horiz-adv-x="351" d="M99 -155l-54 17q-33 -6 -49.5 -24.5t-16.5 -41.5q0 -28 24 -45.5t64 -17.5q39 0 60.5 17t21.5 44q0 36 -50 51zM192 106q0 58 -38 58q-23 0 -45 -24q-25 -30 -25 -81q0 -27 10.5 -42t26.5 -15q24 0 44 22q27 31 27 82zM273 168q-19 0 -31 -17q19 -25 19 -55 q0 -67 -70 -105q-20 -11 -74 -23l-48 -11q-30 -7 -30 -18t34 -22l49 -16q85 -27 85 -94q0 -45 -42.5 -77.5t-111.5 -32.5q-61 0 -99.5 25t-38.5 64q0 62 96 89q-44 21 -44 52q0 23 25 39l79 14q-57 27 -57 81q0 53 41.5 92.5t101.5 39.5q40 0 64 -21q32 47 60 47 q15 0 24.5 -8.5t9.5 -22.5q0 -18 -22 -28q-13 8 -20 8z" />
<glyph horiz-adv-x="374" d="M123 210l-20 -68q56 51 102 51q33 0 51.5 -20.5t18.5 -52.5q0 -28 -11 -62l-32 -97q-13 -39 -13 -55q0 -22 33 -22h29v-22q-44 -15 -75 -15q-27 0 -41.5 13.5t-14.5 34.5q0 23 15 68l32 100q9 27 9 45q0 35 -33 35q-31 0 -76 -34l-44 -148q0 -1 -2.5 -10t-9 -33.5 t-17.5 -61.5l-60 -4l-10 17q20 56 32 94l75 253q13 49 17 65q-11 1 -33 4t-32 4v25l129 21l19 -12q-27 -73 -38 -113z" />
<glyph horiz-adv-x="199" d="M58 290q0 17 13.5 30t32.5 13q20 0 33 -12.5t13 -30.5t-13 -30.5t-33 -12.5q-19 0 -32.5 12.5t-13.5 30.5zM48 140l-69 8v24l133 21l19 -12q-25 -57 -46 -118l-43 -125q-7 -20 -7 -32q0 -11 14 -11q15 0 43 8l24 8l11 -25q-67 -39 -114 -39q-50 0 -50 39q0 20 10 48z" />
<glyph horiz-adv-x="202" d="M61 290q0 17 14 30t33 13q18 0 31 -12.5t13 -30.5t-12.5 -30.5t-31.5 -12.5q-20 0 -33.5 12.5t-13.5 30.5zM139 182l-49 -170q-23 -80 -38.5 -119.5t-38.5 -77.5q-36 -59 -81 -88.5t-111 -29.5q-84 0 -84 50q0 16 10 26.5t26 10.5q19 0 37 -16q3 -37 46 -37q45 0 80.5 56 t76.5 190l49 163l-95 8v25l155 20z" />
<glyph horiz-adv-x="372" d="M125 204l-45 -150q21 1 51 29l18 17q14 12 56 53l-36 10l2 22l73 -1l66 1l-2 -22l-46 -11q-31 -25 -83 -71l-46 -42q17 -9 26 -20t19 -35l27 -65q12 -29 31 -29q18 0 41 23l19 -20q-34 -46 -79 -46q-32 0 -49.5 17t-33.5 57l-22 56q-16 41 -43 46l-13 -48 q-8 -28 -31 -119l-60 -4l-10 17q19 52 31 94l75 253q13 49 17 65l-64 8v25l127 21l19 -12q-22 -77 -35 -119z" />
<glyph horiz-adv-x="194" d="M-22 -37l87 253q11 35 18 65l-63 8v25l130 21l19 -12q-12 -32 -42 -119l-81 -243q-14 -40 -14 -54q0 -20 23 -20q6 0 24 2l21 3l4 -22q-46 -23 -85 -23q-27 0 -41.5 13.5t-14.5 34.5q0 23 15 68z" />
<glyph horiz-adv-x="546" d="M264 54l-28 -93q-17 -54 -29 -105l-62 -4l-8 17q20 56 31 93l31 101q9 30 9 45q0 35 -30 35q-32 0 -74 -34l-41 -148q-12 -40 -28 -105l-61 -4l-9 17q21 61 30 93l48 170l-60 10v19l104 33l20 -10l-2 -44q53 53 99 53q25 0 43.5 -14.5t26.5 -36.5q56 51 101 51 q35 0 53.5 -21t18.5 -54q0 -27 -11 -60q-29 -80 -35 -97q-15 -45 -15 -54q0 -22 33 -22h33v-23q-44 -15 -80 -15q-26 0 -40.5 13.5t-14.5 34.5q0 19 17 68l36 100q8 24 8 45q0 35 -31 35t-71 -32q-1 -24 -12 -57z" />
<glyph horiz-adv-x="381" d="M173 -37l33 100q8 24 8 45q0 35 -29 35q-37 0 -79 -34l-48 -162q-15 -48 -26 -91l-60 -4l-10 17q20 56 32 94l52 169l-61 10v19l105 33l19 -10l-2 -44q65 53 106 53q70 0 70 -73q0 -28 -11 -62l-32 -97q-13 -38 -13 -54q0 -22 33 -22h29v-23q-44 -15 -76 -15 q-26 0 -40.5 13.5t-14.5 34.5q0 20 15 68z" />
<glyph horiz-adv-x="373" d="M209 54q0 107 -63 107q-21 0 -45 -19q-52 -45 -52 -157q0 -54 17.5 -80t44.5 -26q25 0 44 18q54 45 54 157zM-25 -10q0 52 21 96.5t55 71.5q44 35 97 35q59 0 97 -39t38 -104q0 -50 -21.5 -95t-54.5 -73q-45 -35 -97 -35q-60 0 -97.5 39.5t-37.5 103.5z" />
<glyph horiz-adv-x="382" d="M31 -140l-17 -57q-15 -52 -21 -76l67 -7l-2 -23l-96 1l-77 -1l2 22l36 8q12 32 25 79l97 326l-62 10v19l104 32l20 -10l-4 -49q54 59 95 59q39 0 65 -29.5t26 -79.5q0 -111 -79 -187q-52 -50 -114 -50q-40 0 -65 13zM48 -78l31 -41q8 -2 20 -2q48 0 83.5 56.5t35.5 135.5 q0 36 -12 54.5t-30 18.5q-28 0 -78 -51z" />
<glyph horiz-adv-x="365" d="M162 161q-46 0 -85.5 -59t-39.5 -136q0 -69 42 -69q29 0 81 42l50 167l-23 49q-7 6 -25 6zM295 179l-109 -376q-14 -50 -19 -77l37 -7l-4 -22l-74 1l-99 -1l3 23l67 7q13 37 21 68l29 101q-56 -49 -93 -49q-39 0 -63 28t-24 78q0 113 79 187q58 53 119 53q40 0 72 -26 l32 26z" />
<glyph horiz-adv-x="265" d="M109 184l-8 -58q49 67 88 67q18 0 29.5 -10.5t11.5 -28.5q0 -14 -11 -24.5t-28 -13.5q-12 16 -30 16q-27 0 -64 -44l-38 -127q-17 -56 -27 -105l-63 -4l-9 17q18 40 34 94l35 117l13 52l-59 10v19l106 32z" />
<glyph horiz-adv-x="258" d="M147 -52q0 -44 -31.5 -72.5t-80.5 -28.5q-34 0 -55 13q-21 15 -21 38q0 13 9.5 23t23.5 10q17 0 31 -10q1 -35 32 -35q17 0 28 10.5t11 29.5t-9.5 36t-33.5 48q-35 46 -35 82q0 45 30.5 73t73.5 28q32 0 50.5 -13.5t18.5 -32.5q0 -16 -10 -24.5t-24 -8.5t-24 8 q-5 36 -32 36q-13 0 -22.5 -10t-9.5 -27q0 -27 36 -73q44 -57 44 -100z" />
<glyph horiz-adv-x="246" d="M158 -41l20 -23q-76 -89 -149 -89q-66 0 -66 52q0 19 15 72l50 176h-49l6 30l51 8l17 69l69 35l14 -10l-30 -94h96l-11 -38h-95l-54 -193q-8 -27 -8 -39q0 -19 19 -19q36 0 105 63z" />
<glyph horiz-adv-x="376" d="M268 77l-37 -115q-10 -31 -10 -48q0 -26 24 -26q13 0 28 3l17 3l4 -22q-37 -25 -77 -25q-57 0 -64 51q-54 -51 -98 -51q-38 0 -57 19.5t-19 52.5q0 29 14 68l54 153q-12 1 -35 4t-32 4v24l131 21l18 -11q-30 -80 -43 -119l-30 -87q-11 -31 -11 -47q0 -15 8.5 -23.5 t22.5 -8.5q36 0 76 29l49 153q14 43 28 105l64 4l10 -17q-16 -37 -35 -94z" />
<glyph horiz-adv-x="356" d="M156 114l-19 15q21 64 72 64q31 0 51.5 -26.5t20.5 -71.5q0 -81 -51 -157q-62 -91 -138 -91q-37 0 -61.5 22t-24.5 56q0 29 28 92l10 22q15 35 15 57q0 38 -27 38q-26 0 -55 -49l-27 14l13 28q31 66 83 66q28 0 46 -20t18 -56q0 -26 -22 -85l-8 -21q-12 -30 -12 -58 q0 -23 12.5 -35t32.5 -12q48 0 81 51q32 49 32 109q0 67 -34 67q-18 0 -36 -19z" />
<glyph horiz-adv-x="473" d="M273 193q40 0 67.5 -42.5t27.5 -125.5q0 -80 -31.5 -129t-78.5 -49q-61 0 -80 77q-47 -77 -102 -77q-37 0 -59 19t-22 52q0 37 38 99l14 23q19 31 19 59q0 35 -28 35q-25 0 -59 -42l-24 17l15 25q35 59 85 59q29 0 47 -20t18 -53q0 -35 -28 -82l-9 -15q-27 -46 -27 -74 q0 -40 39 -40q20 0 41 14t34 39q-4 28 -4 39q0 24 10 40t25 16q29 0 29 -40q0 -36 -27 -63q4 -21 19 -33t34 -12q29 0 49 31t20 83q0 54 -19.5 82t-46.5 28q-21 0 -47 -21l-20 17l13 19q31 45 68 45z" />
<glyph horiz-adv-x="384" d="M156 102l6 -34l69 90q27 35 55 35q18 0 30 -11.5t12 -30.5q0 -40 -40 -40h-9q-4 16 -16 16q-10 0 -24 -15l-72 -82l14 -92q5 -36 25 -36q23 0 49 63l30 -10l-7 -24q-13 -44 -32.5 -64t-51.5 -20q-61 0 -72 68l-10 60l-73 -96q-24 -32 -56 -32q-18 0 -29.5 10t-11.5 28 q0 36 41 45q10 -14 24 -14t28 16l70 82l-10 78q-6 47 -27 47q-25 0 -38 -60l-31 5l5 26q16 83 74 83q29 0 49.5 -24t28.5 -67z" />
<glyph horiz-adv-x="344" d="M124 -61l77 124q24 40 24 65q0 18 -16 26q0 17 10 28t26 11q18 0 29 -11.5t11 -30.5q0 -23 -27 -66l-154 -244q-51 -81 -96 -112.5t-98 -31.5q-86 0 -86 53q0 16 11 27.5t28 11.5q16 0 35 -14q0 -39 30 -39q65 0 138 118l-15 269q-2 16 -10 16q-11 0 -24 -9.5t-46 -40.5 l-21 21l24 28q47 55 89 55q46 0 49 -55z" />
<glyph horiz-adv-x="315" d="M2 101l-20 10l27 74l57 -1h111l65 1l3 -20l-199 -213q40 -1 73 -39l26 -30q17 -19 33 -19q13 0 26 12l21 20l19 -20q-24 -34 -43.5 -45.5t-44.5 -11.5q-43 0 -69 33l-39 49q-11 14 -23 14q-22 0 -22 -27q0 -12 7 -22q-8 -18 -30 -18q-13 0 -22 8.5t-9 23.5q0 23 34 60 l181 195h-102q-32 0 -60 -34z" />
</font>
</defs>
</svg>
