<?xml version="1.0" standalone="no"?>
<!DOCTYPE svg PUBLIC "-//W3C//DTD SVG 1.1//EN" "http://www.w3.org/Graphics/SVG/1.1/DTD/svg11.dtd" >
<svg xmlns="http://www.w3.org/2000/svg" xmlns:xlink="http://www.w3.org/1999/xlink" version="1.1">
<metadata></metadata>
<defs>
<font id="helvetiusbold_italic" horiz-adv-x="500" >
<font-face units-per-em="1000" ascent="773" descent="-227" />
<missing-glyph horiz-adv-x="250" />
<glyph unicode="&#xfb00;" horiz-adv-x="610" d="M533 410l-75 -276q-38 -138 -71.5 -213.5t-84.5 -113.5q-47 -34 -107 -34q-43 0 -68.5 22t-25.5 56q0 29 17.5 48t43.5 19q32 0 53 -21q0 -58 37 -58q23 0 37 21t22 74q4 27 13 92.5t17 111.5t20 91l47 181h-155l-75 -276q-29 -107 -81 -201.5t-113 -131.5 q-45 -28 -99 -28q-47 0 -75.5 22t-28.5 58q0 28 17.5 46.5t43.5 18.5q32 0 53 -21q0 -58 47 -58q49 0 70 80q17 62 37 163t32 147l47 181h-61l15 47l65 13q52 191 184 237q34 12 72 12q80 0 129 -43q29 27 61 41q29 12 67 12q43 0 71 -13q48 -22 48 -70q0 -30 -17 -46.5 t-45 -16.5q-18 0 -34 9t-23 22q6 19 6 34q0 43 -36 43q-33 0 -47 -47q-5 -19 -9 -38.5t-9 -47.5t-9 -50l-8 -38h113l-18 -60h-110zM286 543l-18 -73h159q6 22 15 51t14 44.5t8.5 31.5t3.5 25q0 28 -16.5 44t-47.5 16q-84 0 -118 -139z" />
<glyph unicode="&#xfb01;" horiz-adv-x="563" d="M268 470h113l163 12l21 -15q-41 -102 -65 -169l-62 -179q-13 -36 -13 -48q0 -21 30 -21q18 0 54 12l28 10l13 -29q-86 -55 -167 -55q-39 0 -60 16t-21 44q0 29 16 73l104 289h-169l-75 -276q-29 -107 -81 -201.5t-113 -131.5q-45 -28 -99 -28q-47 0 -75.5 22t-28.5 58 q0 28 17.5 46.5t43.5 18.5q32 0 53 -21q0 -58 47 -58q49 0 70 80q17 62 37 163t32 147l47 181h-61l15 47l65 13l7 22q23 74 64 129q37 50 92.5 79t116.5 29q74 0 120 -25q56 -30 56 -83q0 -29 -18.5 -48t-49.5 -19q-40 0 -63 37q9 23 9 42q0 59 -54 59q-42 0 -81.5 -40.5 t-61.5 -122.5z" />
<glyph unicode="&#xfb02;" horiz-adv-x="559" d="M576 545l-130 -393q-20 -61 -20 -82q0 -30 32 -30q12 0 39 5l18 3l4 -28q-69 -32 -128 -32q-86 0 -86 78q0 34 18 86l90 258h-160l-75 -276q-29 -107 -81 -201.5t-113 -131.5q-45 -28 -99 -28q-47 0 -75.5 22t-28.5 58q0 28 17.5 46.5t43.5 18.5q32 0 53 -21 q0 -58 47 -58q49 0 70 80q17 62 37 163t32 147l47 181h-61l15 47l64 13l7 22q25 80 63 129q84 108 211 108q66 0 105 -32l79 32l21 -15q-11 -34 -56 -169zM287 537l-19 -67h164l18 51q23 65 23 113q0 25 -14.5 40.5t-38.5 15.5q-90 0 -133 -153z" />
<glyph unicode="&#xfb03;" horiz-adv-x="843" d="M286 543l-18 -73h159q6 22 15 51t14 44.5t8.5 31.5t3.5 25q0 28 -16.5 44t-47.5 16q-84 0 -118 -139zM541 668q72 61 166 61q74 0 120 -25q56 -30 56 -83q0 -29 -18.5 -48t-49.5 -19q-40 0 -63 37q9 23 9 42q0 59 -54 59q-42 0 -81.5 -40.5t-61.5 -122.5l-16 -59h113 l163 12l21 -15q-41 -102 -65 -169l-62 -179q-13 -36 -13 -48q0 -21 30 -21q18 0 54 12l28 10l13 -29q-86 -55 -167 -55q-39 0 -60 16t-21 44q0 29 16 73l104 289h-169l-75 -276q-38 -138 -71.5 -213.5t-84.5 -113.5q-47 -34 -107 -34q-43 0 -68.5 22t-25.5 56q0 29 17.5 48 t43.5 19q32 0 53 -21q0 -58 37 -58q23 0 37 21t22 74q4 27 13 92.5t17 111.5t20 91l47 181h-155l-75 -276q-29 -107 -81 -201.5t-113 -131.5q-45 -28 -99 -28q-47 0 -75.5 22t-28.5 58q0 28 17.5 46.5t43.5 18.5q32 0 53 -21q0 -58 47 -58q49 0 70 80q17 62 37 163t32 147 l47 181h-61l15 47l65 13q52 191 184 237q34 12 72 12q89 0 138 -51z" />
<glyph unicode="&#xfb04;" horiz-adv-x="839" d="M707 729q66 0 105 -32l79 32l21 -15q-11 -34 -56 -169l-130 -393q-20 -61 -20 -82q0 -30 32 -30q12 0 39 5l18 3l4 -28q-69 -32 -128 -32q-86 0 -86 78q0 34 18 86l90 258h-160l-75 -276q-38 -138 -71.5 -213.5t-84.5 -113.5q-47 -34 -107 -34q-43 0 -68.5 22t-25.5 56 q0 29 17.5 48t43.5 19q32 0 53 -21q0 -58 37 -58q23 0 37 21t22 74q4 27 13 92.5t17 111.5t20 91l47 181h-155l-75 -276q-29 -107 -81 -201.5t-113 -131.5q-45 -28 -99 -28q-47 0 -75.5 22t-28.5 58q0 28 17.5 46.5t43.5 18.5q32 0 53 -21q0 -58 47 -58q49 0 70 80 q17 62 37 163t32 147l47 181h-61l15 47l65 13q52 191 184 237q34 12 72 12q84 0 140 -50q73 60 164 60zM548 470h164l18 51q23 65 23 113q0 25 -14.5 40.5t-38.5 15.5q-90 0 -133 -153zM286 543l-18 -73h159q8 29 20.5 62.5t18 53t5.5 34.5q0 28 -17 45t-50 17 q-84 0 -118 -139z" />
<glyph unicode="fb" horiz-adv-x="825" d="M146 470l7 22q25 80 63 129q84 108 211 108q66 0 105 -32l79 32l21 -15q-40 -122 -56 -169l-50 -142l3 -2q42 47 71.5 64t60.5 17q56 0 92.5 -45.5t36.5 -131.5q0 -153 -124 -255q-76 -62 -169 -62q-57 0 -100.5 17t-81.5 62l102 343h-164l-75 -276q-29 -107 -81 -201.5 t-113 -131.5q-45 -28 -99 -28q-47 0 -75.5 22t-28.5 58q0 28 17.5 46.5t43.5 18.5q32 0 53 -21q0 -58 47 -58q49 0 70 80q17 62 37 163t32 147l47 181h-61l15 47zM671 299q0 50 -15.5 76.5t-43.5 26.5q-36 0 -95 -53l-74 -252l31 -65q14 -4 26 -4q69 0 120 77t51 194z M287 537l-19 -67h167l15 51q23 78 23 113q0 25 -14.5 40.5t-38.5 15.5q-90 0 -133 -153z" />
<glyph unicode="f&#xeb;" horiz-adv-x="725" d="M253 410l-75 -276q-29 -107 -81 -201.5t-113 -131.5q-45 -28 -99 -28q-47 0 -75.5 22t-28.5 58q0 28 17.5 46.5t43.5 18.5q32 0 53 -21q0 -58 47 -58q49 0 70 80q17 62 37 163t32 147l47 181h-61l15 47l64 13l3 16q1 8 6.5 39.5t8.5 43.5t11 38t17.5 40.5t25.5 32 t37 29.5q34 20 83 20q36 0 67 -14q49 -23 49 -73q0 -28 -17 -45t-45 -17q-40 0 -57 34q6 20 6 34q0 43 -30 43q-21 0 -34.5 -25t-13.5 -73q0 -19 1.5 -46.5t1.5 -41.5q0 -23 -2 -35h117l-18 -60h-110zM638 279q-69 -27 -179 -53q-3 -23 -3 -52q0 -90 62 -90q55 0 113 62 l26 -21q-65 -137 -174 -137q-63 0 -103 41t-40 114q0 131 87 235t184 104q53 0 84 -24.5t31 -68.5q0 -76 -88 -110zM510 378q-31 -44 -44 -113q90 25 123 56t33 68q0 17 -10 28t-27 11t-38 -13.5t-37 -36.5zM484 653q0 29 20.5 49.5t48.5 20.5q31 0 52 -20.5t21 -49.5 q0 -30 -21 -50.5t-52 -20.5q-28 0 -48.5 20.5t-20.5 50.5zM678 653q0 29 21 49.5t49 20.5q30 0 50.5 -20.5t20.5 -49.5q0 -30 -20 -50.5t-51 -20.5q-28 0 -49 20.5t-21 50.5z" />
<glyph unicode="fh" horiz-adv-x="815" d="M287 537l-19 -67h167l15 51q23 78 23 113q0 25 -14.5 40.5t-38.5 15.5q-90 0 -133 -153zM417 410h-164l-75 -276q-29 -107 -81 -201.5t-113 -131.5q-45 -28 -99 -28q-47 0 -75.5 22t-28.5 58q0 28 17.5 46.5t43.5 18.5q32 0 53 -21q0 -58 47 -58q49 0 70 80q17 62 37 163 t32 147l47 181h-61l15 47l64 13l7 22q25 80 63 129q84 108 211 108q66 0 105 -32l75 32l21 -15q-20 -56 -55 -169l-48 -152q74 89 155 89q50 0 75.5 -29t25.5 -79q0 -31 -16 -82l-46 -141q-20 -61 -20 -81q0 -35 52 -35h29v-26q-43 -21 -100 -21q-48 0 -74 22.5t-26 56.5 q0 32 17 85l46 144q12 37 12 57q0 40 -39 40q-36 0 -92 -36l-62 -205q-21 -64 -42 -150l-117 -6l-11 20q45 127 48 136z" />
<glyph unicode="f&#xec;" horiz-adv-x="633" d="M253 410l-75 -276q-29 -107 -81 -201.5t-113 -131.5q-45 -28 -99 -28q-47 0 -75.5 22t-28.5 58q0 28 17.5 46.5t43.5 18.5q32 0 53 -21q0 -58 47 -58q49 0 70 80q17 62 37 163t32 147l47 181h-61l15 47l64 13l3 16q1 8 6.5 39.5t8.5 43.5t11 38t17.5 40.5t25.5 32 t37 29.5q34 20 83 20q36 0 67 -14q49 -23 49 -73q0 -28 -17 -45t-45 -17q-40 0 -57 34q6 20 6 34q0 43 -30 43q-21 0 -34.5 -25t-13.5 -73q0 -19 1.5 -46.5t1.5 -41.5q0 -23 -2 -35h117l-18 -60h-110zM492 410l-90 12v31l212 29l21 -15q-41 -102 -65 -169l-62 -179 q-13 -36 -13 -48q0 -21 30 -21q18 0 54 12l28 10l13 -29q-86 -55 -167 -55q-39 0 -60 16t-21 44q0 29 16 73zM564 748l47 -210h-66l-79 210h98z" />
<glyph unicode="f&#xed;" horiz-adv-x="633" d="M253 410l-75 -276q-29 -107 -81 -201.5t-113 -131.5q-45 -28 -99 -28q-47 0 -75.5 22t-28.5 58q0 28 17.5 46.5t43.5 18.5q32 0 53 -21q0 -58 47 -58q49 0 70 80q17 62 37 163t32 147l47 181h-61l15 47l64 13l3 16q1 8 6.5 39.5t8.5 43.5t11 38t17.5 40.5t25.5 32 t37 29.5q34 20 83 20q36 0 67 -14q49 -23 49 -73q0 -28 -17 -45t-45 -17q-40 0 -57 34q6 20 6 34q0 43 -30 43q-21 0 -34.5 -25t-13.5 -73q0 -19 1.5 -46.5t1.5 -41.5q0 -23 -2 -35h117l-18 -60h-110zM492 410l-90 12v31l212 29l21 -15q-41 -102 -65 -169l-62 -179 q-13 -36 -13 -48q0 -21 30 -21q18 0 54 12l28 10l13 -29q-86 -55 -167 -55q-39 0 -60 16t-21 44q0 29 16 73zM535 538l75 210h100l-107 -210h-68z" />
<glyph unicode="f&#xee;" horiz-adv-x="643" d="M253 410l-75 -276q-29 -107 -81 -201.5t-113 -131.5q-45 -28 -99 -28q-47 0 -75.5 22t-28.5 58q0 28 17.5 46.5t43.5 18.5q32 0 53 -21q0 -58 47 -58q49 0 70 80q17 62 37 163t32 147l47 181h-61l15 47l64 13l3 16q1 8 6.5 39.5t8.5 43.5t11 38t17.5 40.5t25.5 32 t37 29.5q34 20 83 20q36 0 67 -14q49 -23 49 -73q0 -28 -17 -45t-45 -17q-40 0 -57 34q6 20 6 34q0 43 -30 43q-21 0 -34.5 -25t-13.5 -73q0 -19 1.5 -46.5t1.5 -41.5q0 -23 -2 -35h117l-18 -60h-110zM502 410l-90 12v31l212 29l21 -15q-41 -102 -65 -169l-62 -179 q-13 -36 -13 -48q0 -21 30 -21q18 0 54 12l28 10l13 -29q-86 -55 -167 -55q-39 0 -60 16t-21 44q0 29 16 73zM430 538l172 210h79l66 -210h-63l-58 124l-121 -124h-75z" />
<glyph unicode="f&#xef;" horiz-adv-x="673" d="M253 410l-75 -276q-29 -107 -81 -201.5t-113 -131.5q-45 -28 -99 -28q-47 0 -75.5 22t-28.5 58q0 28 17.5 46.5t43.5 18.5q32 0 53 -21q0 -58 47 -58q49 0 70 80q17 62 37 163t32 147l47 181h-61l15 47l64 13l3 16q1 8 6.5 39.5t8.5 43.5t11 38t17.5 40.5t25.5 32 t37 29.5q34 20 83 20q36 0 67 -14q49 -23 49 -73q0 -28 -17 -45t-45 -17q-40 0 -57 34q6 20 6 34q0 43 -30 43q-21 0 -34.5 -25t-13.5 -73q0 -19 1.5 -46.5t1.5 -41.5q0 -23 -2 -35h117l-18 -60h-110zM532 410l-90 12v31l212 29l21 -15q-41 -102 -65 -169l-62 -179 q-13 -36 -13 -48q0 -21 30 -21q18 0 54 12l28 10l13 -29q-86 -55 -167 -55q-39 0 -60 16t-21 44q0 29 16 73zM468 653q0 29 20.5 49.5t48.5 20.5q31 0 52 -20.5t21 -49.5q0 -30 -21 -50.5t-52 -20.5q-28 0 -48.5 20.5t-20.5 50.5zM662 653q0 29 21 49.5t49 20.5 q30 0 50.5 -20.5t20.5 -49.5q0 -30 -20 -50.5t-51 -20.5q-28 0 -49 20.5t-21 50.5z" />
<glyph unicode="fj" horiz-adv-x="559" d="M565 467l-101 -333q-32 -105 -47 -150.5t-43.5 -98t-63.5 -78.5q-47 -34 -107 -34q-43 0 -68.5 22t-25.5 56q0 29 17.5 48t43.5 19q32 0 53 -21q0 -58 37 -58q23 0 37 21t22 74q2 12 7.5 49.5t8.5 54.5t9.5 53t13 63.5t16.5 67t23 81.5l32 107h-176l-75 -276 q-29 -107 -81 -201.5t-113 -131.5q-45 -28 -99 -28q-47 0 -75.5 22t-28.5 58q0 28 17.5 46.5t43.5 18.5q32 0 53 -21q0 -58 47 -58q49 0 70 80q17 62 37 163t32 147l47 181h-61l15 47l65 13l7 22q23 74 64 129q37 50 92.5 79t116.5 29q74 0 120 -25q56 -30 56 -83 q0 -29 -18.5 -48t-49.5 -19q-40 0 -63 37q9 23 9 42q0 59 -54 59q-42 0 -81.5 -40.5t-61.5 -122.5l-16 -59h113l163 12z" />
<glyph unicode="fk" horiz-adv-x="825" d="M287 537l-19 -67h167l15 51q23 78 23 113q0 25 -14.5 40.5t-38.5 15.5q-90 0 -133 -153zM417 410h-164l-75 -276q-29 -107 -81 -201.5t-113 -131.5q-45 -28 -99 -28q-47 0 -75.5 22t-28.5 58q0 28 17.5 46.5t43.5 18.5q32 0 53 -21q0 -58 47 -58q49 0 70 80q17 62 37 163 t32 147l47 181h-61l15 47l64 13l7 22q25 80 63 129q84 108 211 108q66 0 105 -32l79 32l21 -15q-5 -16 -25.5 -76.5t-29.5 -92.5l-79 -264q25 0 41.5 9t46.5 36l25 23q35 33 71 81l-39 13l3 27l98 -2l87 2l-3 -27l-61 -14q-83 -68 -122 -104l-49 -44v-4q28 -15 44.5 -35.5 t31.5 -60.5l40 -105q10 -27 31 -27q20 0 48 33l24 -20q-27 -40 -52.5 -57t-64.5 -17q-47 0 -73.5 24.5t-44.5 75.5l-31 91q-12 36 -26 49t-37 13l-21 -69q-14 -50 -44 -170l-116 -6l-11 20q35 97 46 136z" />
<glyph unicode="f&#x140;" horiz-adv-x="725" d="M576 545l-130 -393q-20 -61 -20 -82q0 -30 32 -30q12 0 39 5l18 3l4 -28q-69 -32 -128 -32q-86 0 -86 78q0 34 18 86l90 258h-160l-75 -276q-29 -107 -81 -201.5t-113 -131.5q-45 -28 -99 -28q-47 0 -75.5 22t-28.5 58q0 28 17.5 46.5t43.5 18.5q32 0 53 -21 q0 -58 47 -58q49 0 70 80q17 62 37 163t32 147l47 181h-61l15 47l64 13l7 22q25 80 63 129q84 108 211 108q66 0 105 -32l79 32l21 -15q-11 -34 -56 -169zM287 537l-19 -67h164l18 51q23 65 23 113q0 25 -14.5 40.5t-38.5 15.5q-90 0 -133 -153zM558 231q0 33 23 56t56 23 t55.5 -23t22.5 -56q0 -34 -22 -56.5t-56 -22.5q-33 0 -56 22.5t-23 56.5z" />
<glyph unicode="f&#xf6;" horiz-adv-x="852" d="M253 410l-75 -276q-29 -107 -81 -201.5t-113 -131.5q-45 -28 -99 -28q-47 0 -75.5 22t-28.5 58q0 28 17.5 46.5t43.5 18.5q32 0 53 -21q0 -58 47 -58q49 0 70 80q17 62 37 163t32 147l47 181h-61l15 47l64 13l3 16q1 8 6.5 39.5t8.5 43.5t11 38t17.5 40.5t25.5 32 t37 29.5q34 20 83 20q36 0 67 -14q49 -23 49 -73q0 -28 -17 -45t-45 -17q-40 0 -57 34q6 20 6 34q0 43 -30 43q-21 0 -34.5 -25t-13.5 -73q0 -19 1.5 -46.5t1.5 -41.5q0 -23 -2 -35h117l-18 -60h-110zM689 294q0 147 -77 147q-33 0 -60 -30q-68 -75 -68 -236q0 -147 78 -147 q33 0 58 25q69 69 69 241zM352 210q0 143 115 225q66 47 147 47q90 0 149 -63t59 -158q0 -144 -115 -225q-67 -48 -148 -48q-92 0 -149.5 63.5t-57.5 158.5zM518 653q0 29 20.5 49.5t48.5 20.5q31 0 52 -20.5t21 -49.5q0 -30 -21 -50.5t-52 -20.5q-28 0 -48.5 20.5 t-20.5 50.5zM712 653q0 29 21 49.5t49 20.5q30 0 50.5 -20.5t20.5 -49.5q0 -30 -20 -50.5t-51 -20.5q-28 0 -49 20.5t-21 50.5z" />
<glyph unicode="f&#xf5;" horiz-adv-x="852" d="M253 410l-75 -276q-29 -107 -81 -201.5t-113 -131.5q-45 -28 -99 -28q-47 0 -75.5 22t-28.5 58q0 28 17.5 46.5t43.5 18.5q32 0 53 -21q0 -58 47 -58q49 0 70 80q17 62 37 163t32 147l47 181h-61l15 47l64 13l3 16q1 8 6.5 39.5t8.5 43.5t11 38t17.5 40.5t25.5 32 t37 29.5q34 20 83 20q36 0 67 -14q49 -23 49 -73q0 -28 -17 -45t-45 -17q-40 0 -57 34q6 20 6 34q0 43 -30 43q-21 0 -34.5 -25t-13.5 -73q0 -19 1.5 -46.5t1.5 -41.5q0 -23 -2 -35h117l-18 -60h-110zM689 294q0 147 -77 147q-33 0 -60 -30q-68 -75 -68 -236q0 -147 78 -147 q33 0 58 25q69 69 69 241zM352 210q0 143 115 225q66 47 147 47q90 0 149 -63t59 -158q0 -144 -115 -225q-67 -48 -148 -48q-92 0 -149.5 63.5t-57.5 158.5zM750 580q-37 0 -82 26l-27 16q-19 10 -37 10q-14 0 -24.5 -10.5t-10.5 -34.5h-58v26q0 53 27.5 79t67.5 26 q31 0 72 -22l32 -18q23 -12 42 -12q14 0 24.5 10.5t10.5 34.5h58v-26q0 -53 -27.5 -79t-67.5 -26z" />
<glyph unicode="f&#xfe;" horiz-adv-x="825" d="M287 537l-19 -67h167l15 51q23 78 23 113q0 25 -14.5 40.5t-38.5 15.5q-90 0 -133 -153zM671 299q0 49 -16.5 76t-40.5 27q-36 0 -97 -56l-76 -254l38 -61q11 -3 21 -3q69 0 120 79.5t51 191.5zM575 545l-50 -145l3 -2q44 48 73 66t62 18q54 0 91 -45t37 -131 q0 -158 -121 -258q-74 -60 -173 -60q-41 0 -79 15l-23 -78q-13 -48 -29 -115l86 -10l-3 -27l-141 2l-114 -2l3 27l41 10q23 73 36 116l143 484h-164l-75 -276q-29 -107 -81 -201.5t-113 -131.5q-45 -28 -99 -28q-47 0 -75.5 22t-28.5 58q0 28 17.5 46.5t43.5 18.5 q32 0 53 -21q0 -58 47 -58q49 0 70 80q17 62 37 163t32 147l47 181h-61l15 47l64 13l7 22q25 80 63 129q84 108 211 108q66 0 105 -32l79 32l21 -15q-28 -87 -57 -169z" />
<glyph unicode="f&#xfc;" horiz-adv-x="864" d="M253 410l-75 -276q-29 -107 -81 -201.5t-113 -131.5q-45 -28 -99 -28q-47 0 -75.5 22t-28.5 58q0 28 17.5 46.5t43.5 18.5q32 0 53 -21q0 -58 47 -58q49 0 70 80q17 62 37 163t32 147l47 181h-61l15 47l64 13l3 16q1 8 6.5 39.5t8.5 43.5t11 38t17.5 40.5t25.5 32 t37 29.5q34 20 83 20q36 0 67 -14q49 -23 49 -73q0 -28 -17 -45t-45 -17q-40 0 -57 34q6 20 6 34q0 43 -30 43q-21 0 -34.5 -25t-13.5 -73q0 -19 1.5 -46.5t1.5 -41.5q0 -23 -2 -35h117l-18 -60h-110zM811 318l-54 -165q-19 -58 -19 -81q0 -32 34 -32q11 0 38 5l18 3l4 -28 q-64 -32 -121 -32q-41 0 -65 22t-24 65q-81 -87 -152 -87q-48 0 -73.5 29t-25.5 79q0 38 18 90l78 224l-82 12v31l204 29l21 -15q-41 -110 -62 -169l-44 -125q-13 -36 -13 -56q0 -18 12.5 -29t32.5 -11q35 0 84 33l68 208q30 93 44 150l117 6l11 -20q-8 -22 -19 -53t-19 -52 t-11 -31zM544 653q0 29 20.5 49.5t48.5 20.5q31 0 52 -20.5t21 -49.5q0 -30 -21 -50.5t-52 -20.5q-28 0 -48.5 20.5t-20.5 50.5zM738 653q0 29 21 49.5t49 20.5q30 0 50.5 -20.5t20.5 -49.5q0 -30 -20 -50.5t-51 -20.5q-28 0 -49 20.5t-21 50.5z" />
<glyph unicode="f&#xff;" horiz-adv-x="831" d="M253 410l-75 -276q-29 -107 -81 -201.5t-113 -131.5q-45 -28 -99 -28q-47 0 -75.5 22t-28.5 58q0 28 17.5 46.5t43.5 18.5q32 0 53 -21q0 -58 47 -58q49 0 70 80q17 62 37 163t32 147l47 181h-61l15 47l64 13l3 16q1 8 6.5 39.5t8.5 43.5t11 38t17.5 40.5t25.5 32 t37 29.5q34 20 83 20q36 0 67 -14q49 -23 49 -73q0 -28 -17 -45t-45 -17q-40 0 -57 34q6 20 6 34q0 43 -30 43q-21 0 -34.5 -25t-13.5 -73q0 -19 1.5 -46.5t1.5 -41.5q0 -23 -2 -35h117l-18 -60h-110zM508 482q82 0 89 -98l18 -277l87 140q37 60 37 108q0 33 -30 51 q0 30 17.5 53t47.5 23q27 0 45 -19t18 -48q0 -37 -30 -85l-223 -351q-131 -206 -280 -206q-63 0 -95.5 25t-32.5 64q0 29 20.5 48t47.5 19t52 -20q6 -69 67 -69q67 0 141 99l-25 432q-2 24 -20 24q-13 0 -31.5 -16t-55.5 -59l-28 20l35 51q61 91 129 91zM528 653 q0 29 20.5 49.5t48.5 20.5q31 0 52 -20.5t21 -49.5q0 -30 -21 -50.5t-52 -20.5q-28 0 -48.5 20.5t-20.5 50.5zM722 653q0 29 21 49.5t49 20.5q30 0 50.5 -20.5t20.5 -49.5q0 -30 -20 -50.5t-51 -20.5q-28 0 -49 20.5t-21 50.5z" />
<glyph unicode="ffb" horiz-adv-x="1105" d="M533 410l-75 -276q-38 -138 -71.5 -213.5t-84.5 -113.5q-47 -34 -107 -34q-43 0 -68.5 22t-25.5 56q0 29 17.5 48t43.5 19q32 0 53 -21q0 -58 37 -58q23 0 37 21t22 74q4 27 13 92.5t17 111.5t20 91l47 181h-155l-75 -276q-29 -107 -81 -201.5t-113 -131.5 q-45 -28 -99 -28q-47 0 -75.5 22t-28.5 58q0 28 17.5 46.5t43.5 18.5q32 0 53 -21q0 -58 47 -58q49 0 70 80q17 62 37 163t32 147l47 181h-61l15 47l65 13q52 191 184 237q34 12 72 12q84 0 140 -50q73 60 164 60q66 0 105 -32l79 32l21 -15q-40 -122 -56 -169l-50 -142 l3 -2q42 47 71.5 64t60.5 17q56 0 92.5 -45.5t36.5 -131.5q0 -153 -124 -255q-76 -62 -169 -62q-57 0 -100.5 17t-81.5 62l102 343h-164zM951 299q0 50 -15.5 76.5t-43.5 26.5q-36 0 -95 -53l-74 -252l31 -65q14 -4 26 -4q69 0 120 77t51 194zM567 537l-19 -67h167l15 51 q23 78 23 113q0 25 -14.5 40.5t-38.5 15.5q-90 0 -133 -153zM286 543l-18 -73h159q8 29 20.5 62.5t18 53t5.5 34.5q0 28 -17 45t-50 17q-84 0 -118 -139z" />
<glyph unicode="ff&#xeb;" horiz-adv-x="1005" d="M511 692q45 37 102 37q43 0 73 -15q48 -24 48 -74q0 -26 -16.5 -43t-45.5 -17q-40 0 -57 34q6 20 6 36q0 41 -30 41q-19 0 -34 -23t-15 -66q0 -23 1.5 -53.5t1.5 -43.5q0 -23 -2 -35h118l-18 -60h-110l-75 -276q-38 -138 -71.5 -213.5t-84.5 -113.5q-47 -34 -107 -34 q-43 0 -68.5 22t-25.5 56q0 29 17.5 48t43.5 19q32 0 53 -21q0 -58 37 -58q23 0 37 21t22 74q4 27 13 92.5t17 111.5t20 91l47 181h-155l-75 -276q-29 -107 -81 -201.5t-113 -131.5q-45 -28 -99 -28q-47 0 -75.5 22t-28.5 58q0 28 17.5 46.5t43.5 18.5q32 0 53 -21 q0 -58 47 -58q49 0 70 80q17 62 37 163t32 147l47 181h-61l15 47l65 13q52 191 184 237q34 12 72 12q65 0 108 -27zM286 543l-18 -73h158l3 19q8 47 18.5 88.5t10.5 55.5q0 21 -14 35t-40 14q-84 0 -118 -139zM918 279q-69 -27 -179 -53q-3 -23 -3 -52q0 -90 62 -90 q55 0 113 62l26 -21q-65 -137 -174 -137q-63 0 -103 41t-40 114q0 131 87 235t184 104q53 0 84 -24.5t31 -68.5q0 -76 -88 -110zM790 378q-31 -44 -44 -113q90 25 123 56t33 68q0 17 -10 28t-27 11t-38 -13.5t-37 -36.5zM764 653q0 29 20.5 49.5t48.5 20.5q31 0 52 -20.5 t21 -49.5q0 -30 -21 -50.5t-52 -20.5q-28 0 -48.5 20.5t-20.5 50.5zM958 653q0 29 21 49.5t49 20.5q30 0 50.5 -20.5t20.5 -49.5q0 -30 -20 -50.5t-51 -20.5q-28 0 -49 20.5t-21 50.5z" />
<glyph unicode="ffh" horiz-adv-x="1095" d="M707 729q66 0 105 -32l75 32l21 -15q-20 -56 -55 -169l-48 -152q74 89 155 89q50 0 75.5 -29t25.5 -79q0 -31 -16 -82l-46 -141q-20 -61 -20 -81q0 -35 52 -35h29v-26q-43 -21 -100 -21q-48 0 -74 22.5t-26 56.5q0 32 17 85l46 144q12 37 12 57q0 40 -39 40 q-36 0 -92 -36l-62 -205q-21 -64 -42 -150l-117 -6l-11 20q45 127 48 136l77 258h-164l-75 -276q-38 -138 -71.5 -213.5t-84.5 -113.5q-47 -34 -107 -34q-43 0 -68.5 22t-25.5 56q0 29 17.5 48t43.5 19q32 0 53 -21q0 -58 37 -58q23 0 37 21t22 74q4 27 13 92.5t17 111.5 t20 91l47 181h-155l-75 -276q-29 -107 -81 -201.5t-113 -131.5q-45 -28 -99 -28q-47 0 -75.5 22t-28.5 58q0 28 17.5 46.5t43.5 18.5q32 0 53 -21q0 -58 47 -58q49 0 70 80q17 62 37 163t32 147l47 181h-61l15 47l65 13q52 191 184 237q34 12 72 12q84 0 140 -50 q73 60 164 60zM548 470h167l15 51q23 78 23 113q0 25 -14.5 40.5t-38.5 15.5q-90 0 -133 -153zM286 543l-18 -73h159q8 29 20.5 62.5t18 53t5.5 34.5q0 28 -17 45t-50 17q-84 0 -118 -139z" />
<glyph unicode="ff&#xec;" horiz-adv-x="913" d="M511 692q45 37 102 37q43 0 73 -15q48 -24 48 -74q0 -26 -16.5 -43t-45.5 -17q-40 0 -57 34q6 20 6 36q0 41 -30 41q-19 0 -34 -23t-15 -66q0 -23 1.5 -53.5t1.5 -43.5q0 -23 -2 -35h118l-18 -60h-110l-75 -276q-38 -138 -71.5 -213.5t-84.5 -113.5q-47 -34 -107 -34 q-43 0 -68.5 22t-25.5 56q0 29 17.5 48t43.5 19q32 0 53 -21q0 -58 37 -58q23 0 37 21t22 74q4 27 13 92.5t17 111.5t20 91l47 181h-155l-75 -276q-29 -107 -81 -201.5t-113 -131.5q-45 -28 -99 -28q-47 0 -75.5 22t-28.5 58q0 28 17.5 46.5t43.5 18.5q32 0 53 -21 q0 -58 47 -58q49 0 70 80q17 62 37 163t32 147l47 181h-61l15 47l65 13q52 191 184 237q34 12 72 12q65 0 108 -27zM286 543l-18 -73h158l3 19q8 47 18.5 88.5t10.5 55.5q0 21 -14 35t-40 14q-84 0 -118 -139zM772 410l-90 12v31l212 29l21 -15q-41 -102 -65 -169l-62 -179 q-13 -36 -13 -48q0 -21 30 -21q18 0 54 12l28 10l13 -29q-86 -55 -167 -55q-39 0 -60 16t-21 44q0 29 16 73zM844 748l47 -210h-66l-79 210h98z" />
<glyph unicode="ff&#xed;" horiz-adv-x="913" d="M511 692q45 37 102 37q43 0 73 -15q48 -24 48 -74q0 -26 -16.5 -43t-45.5 -17q-40 0 -57 34q6 20 6 36q0 41 -30 41q-19 0 -34 -23t-15 -66q0 -23 1.5 -53.5t1.5 -43.5q0 -23 -2 -35h118l-18 -60h-110l-75 -276q-38 -138 -71.5 -213.5t-84.5 -113.5q-47 -34 -107 -34 q-43 0 -68.5 22t-25.5 56q0 29 17.5 48t43.5 19q32 0 53 -21q0 -58 37 -58q23 0 37 21t22 74q4 27 13 92.5t17 111.5t20 91l47 181h-155l-75 -276q-29 -107 -81 -201.5t-113 -131.5q-45 -28 -99 -28q-47 0 -75.5 22t-28.5 58q0 28 17.5 46.5t43.5 18.5q32 0 53 -21 q0 -58 47 -58q49 0 70 80q17 62 37 163t32 147l47 181h-61l15 47l65 13q52 191 184 237q34 12 72 12q65 0 108 -27zM286 543l-18 -73h158l3 19q8 47 18.5 88.5t10.5 55.5q0 21 -14 35t-40 14q-84 0 -118 -139zM772 410l-90 12v31l212 29l21 -15q-41 -102 -65 -169l-62 -179 q-13 -36 -13 -48q0 -21 30 -21q18 0 54 12l28 10l13 -29q-86 -55 -167 -55q-39 0 -60 16t-21 44q0 29 16 73zM815 538l75 210h100l-107 -210h-68z" />
<glyph unicode="ff&#xee;" horiz-adv-x="923" d="M511 692q45 37 102 37q43 0 73 -15q48 -24 48 -74q0 -26 -16.5 -43t-45.5 -17q-40 0 -57 34q6 20 6 36q0 41 -30 41q-19 0 -34 -23t-15 -66q0 -23 1.5 -53.5t1.5 -43.5q0 -23 -2 -35h118l-18 -60h-110l-75 -276q-38 -138 -71.5 -213.5t-84.5 -113.5q-47 -34 -107 -34 q-43 0 -68.5 22t-25.5 56q0 29 17.5 48t43.5 19q32 0 53 -21q0 -58 37 -58q23 0 37 21t22 74q4 27 13 92.5t17 111.5t20 91l47 181h-155l-75 -276q-29 -107 -81 -201.5t-113 -131.5q-45 -28 -99 -28q-47 0 -75.5 22t-28.5 58q0 28 17.5 46.5t43.5 18.5q32 0 53 -21 q0 -58 47 -58q49 0 70 80q17 62 37 163t32 147l47 181h-61l15 47l65 13q52 191 184 237q34 12 72 12q65 0 108 -27zM286 543l-18 -73h158l3 19q8 47 18.5 88.5t10.5 55.5q0 21 -14 35t-40 14q-84 0 -118 -139zM782 410l-90 12v31l212 29l21 -15q-41 -102 -65 -169l-62 -179 q-13 -36 -13 -48q0 -21 30 -21q18 0 54 12l28 10l13 -29q-86 -55 -167 -55q-39 0 -60 16t-21 44q0 29 16 73zM710 538l172 210h79l66 -210h-63l-58 124l-121 -124h-75z" />
<glyph unicode="ff&#xef;" horiz-adv-x="953" d="M511 692q45 37 102 37q43 0 73 -15q48 -24 48 -74q0 -26 -16.5 -43t-45.5 -17q-40 0 -57 34q6 20 6 36q0 41 -30 41q-19 0 -34 -23t-15 -66q0 -23 1.5 -53.5t1.5 -43.5q0 -23 -2 -35h118l-18 -60h-110l-75 -276q-38 -138 -71.5 -213.5t-84.5 -113.5q-47 -34 -107 -34 q-43 0 -68.5 22t-25.5 56q0 29 17.5 48t43.5 19q32 0 53 -21q0 -58 37 -58q23 0 37 21t22 74q4 27 13 92.5t17 111.5t20 91l47 181h-155l-75 -276q-29 -107 -81 -201.5t-113 -131.5q-45 -28 -99 -28q-47 0 -75.5 22t-28.5 58q0 28 17.5 46.5t43.5 18.5q32 0 53 -21 q0 -58 47 -58q49 0 70 80q17 62 37 163t32 147l47 181h-61l15 47l65 13q52 191 184 237q34 12 72 12q65 0 108 -27zM286 543l-18 -73h158l3 19q8 47 18.5 88.5t10.5 55.5q0 21 -14 35t-40 14q-84 0 -118 -139zM812 410l-90 12v31l212 29l21 -15q-41 -102 -65 -169l-62 -179 q-13 -36 -13 -48q0 -21 30 -21q18 0 54 12l28 10l13 -29q-86 -55 -167 -55q-39 0 -60 16t-21 44q0 29 16 73zM748 653q0 29 20.5 49.5t48.5 20.5q31 0 52 -20.5t21 -49.5q0 -30 -21 -50.5t-52 -20.5q-28 0 -48.5 20.5t-20.5 50.5zM942 653q0 29 21 49.5t49 20.5 q30 0 50.5 -20.5t20.5 -49.5q0 -30 -20 -50.5t-51 -20.5q-28 0 -49 20.5t-21 50.5z" />
<glyph unicode="ffj" horiz-adv-x="839" d="M564 529l-16 -59h113l163 12l21 -15l-89 -295q-11 -36 -27 -94.5t-25.5 -89t-25 -69.5t-34.5 -65.5t-44 -46.5q-42 -34 -107 -34q-43 0 -68.5 22t-25.5 56q0 29 17.5 48t43.5 19q32 0 53 -21q0 -58 37 -58q22 0 35 21t21 74q4 24 10.5 75t11.5 85t18 91.5t31 117.5 l32 107h-176l-75 -276q-38 -138 -71.5 -213.5t-84.5 -113.5q-47 -34 -107 -34q-43 0 -68.5 22t-25.5 56q0 29 17.5 48t43.5 19q32 0 53 -21q0 -58 37 -58q23 0 37 21t22 74q4 27 13 92.5t17 111.5t20 91l47 181h-155l-75 -276q-29 -107 -81 -201.5t-113 -131.5 q-45 -28 -99 -28q-47 0 -75.5 22t-28.5 58q0 28 17.5 46.5t43.5 18.5q32 0 53 -21q0 -58 47 -58q49 0 70 80q17 62 37 163t32 147l47 181h-61l15 47l65 13q52 191 184 237q34 12 72 12q89 0 138 -51q72 61 166 61q74 0 120 -25q56 -30 56 -83q0 -29 -18.5 -48t-49.5 -19 q-40 0 -63 37q9 23 9 42q0 59 -54 59q-42 0 -81.5 -40.5t-61.5 -122.5zM286 543l-18 -73h159q6 22 15 51t14 44.5t8.5 31.5t3.5 25q0 28 -16.5 44t-47.5 16q-84 0 -118 -139z" />
<glyph unicode="ffk" horiz-adv-x="1105" d="M697 410h-164l-75 -276q-38 -138 -71.5 -213.5t-84.5 -113.5q-47 -34 -107 -34q-43 0 -68.5 22t-25.5 56q0 29 17.5 48t43.5 19q32 0 53 -21q0 -58 37 -58q23 0 37 21t22 74q4 27 13 92.5t17 111.5t20 91l47 181h-155l-75 -276q-29 -107 -81 -201.5t-113 -131.5 q-45 -28 -99 -28q-47 0 -75.5 22t-28.5 58q0 28 17.5 46.5t43.5 18.5q32 0 53 -21q0 -58 47 -58q49 0 70 80q17 62 37 163t32 147l47 181h-61l15 47l65 13q52 191 184 237q34 12 72 12q84 0 140 -50q73 60 164 60q66 0 105 -32l79 32l21 -15q-5 -16 -25.5 -76.5t-29.5 -92.5 l-79 -264q25 0 41.5 9t46.5 36l25 23q35 33 71 81l-39 13l3 27l98 -2l87 2l-3 -27l-61 -14q-83 -68 -122 -104l-49 -44v-4q28 -15 44.5 -35.5t31.5 -60.5l40 -105q10 -27 31 -27q20 0 48 33l24 -20q-27 -40 -52.5 -57t-64.5 -17q-47 0 -73.5 24.5t-44.5 75.5l-31 91 q-12 36 -26 49t-37 13l-21 -69q-14 -50 -44 -170l-116 -6l-11 20q35 97 46 136zM700 690q-90 0 -133 -153l-19 -67h167l15 51q23 78 23 113q0 25 -14.5 40.5t-38.5 15.5zM286 543l-18 -73h159q8 29 20.5 62.5t18 53t5.5 34.5q0 28 -17 45t-50 17q-84 0 -118 -139z" />
<glyph unicode="ff&#x140;" horiz-adv-x="1005" d="M707 729q66 0 105 -32l79 32l21 -15q-11 -34 -56 -169l-130 -393q-20 -61 -20 -82q0 -30 32 -30q12 0 39 5l18 3l4 -28q-69 -32 -128 -32q-86 0 -86 78q0 34 18 86l90 258h-160l-75 -276q-38 -138 -71.5 -213.5t-84.5 -113.5q-47 -34 -107 -34q-43 0 -68.5 22t-25.5 56 q0 29 17.5 48t43.5 19q32 0 53 -21q0 -58 37 -58q23 0 37 21t22 74q4 27 13 92.5t17 111.5t20 91l47 181h-155l-75 -276q-29 -107 -81 -201.5t-113 -131.5q-45 -28 -99 -28q-47 0 -75.5 22t-28.5 58q0 28 17.5 46.5t43.5 18.5q32 0 53 -21q0 -58 47 -58q49 0 70 80 q17 62 37 163t32 147l47 181h-61l15 47l65 13q52 191 184 237q34 12 72 12q84 0 140 -50q73 60 164 60zM548 470h164l18 51q23 65 23 113q0 25 -14.5 40.5t-38.5 15.5q-90 0 -133 -153zM286 543l-18 -73h159q8 29 20.5 62.5t18 53t5.5 34.5q0 28 -17 45t-50 17 q-84 0 -118 -139zM838 231q0 33 23 56t56 23t55.5 -23t22.5 -56q0 -34 -22 -56.5t-56 -22.5q-33 0 -56 22.5t-23 56.5z" />
<glyph unicode="ff&#xf6;" horiz-adv-x="1132" d="M511 692q45 37 102 37q43 0 73 -15q48 -24 48 -74q0 -26 -16.5 -43t-45.5 -17q-40 0 -57 34q6 20 6 36q0 41 -30 41q-19 0 -34 -23t-15 -66q0 -23 1.5 -53.5t1.5 -43.5q0 -23 -2 -35h118l-18 -60h-110l-75 -276q-38 -138 -71.5 -213.5t-84.5 -113.5q-47 -34 -107 -34 q-43 0 -68.5 22t-25.5 56q0 29 17.5 48t43.5 19q32 0 53 -21q0 -58 37 -58q23 0 37 21t22 74q4 27 13 92.5t17 111.5t20 91l47 181h-155l-75 -276q-29 -107 -81 -201.5t-113 -131.5q-45 -28 -99 -28q-47 0 -75.5 22t-28.5 58q0 28 17.5 46.5t43.5 18.5q32 0 53 -21 q0 -58 47 -58q49 0 70 80q17 62 37 163t32 147l47 181h-61l15 47l65 13q52 191 184 237q34 12 72 12q65 0 108 -27zM286 543l-18 -73h158l3 19q8 47 18.5 88.5t10.5 55.5q0 21 -14 35t-40 14q-84 0 -118 -139zM969 294q0 147 -77 147q-33 0 -60 -30q-68 -75 -68 -236 q0 -147 78 -147q33 0 58 25q69 69 69 241zM632 210q0 143 115 225q66 47 147 47q90 0 149 -63t59 -158q0 -144 -115 -225q-67 -48 -148 -48q-92 0 -149.5 63.5t-57.5 158.5zM798 653q0 29 20.5 49.5t48.5 20.5q31 0 52 -20.5t21 -49.5q0 -30 -21 -50.5t-52 -20.5 q-28 0 -48.5 20.5t-20.5 50.5zM992 653q0 29 21 49.5t49 20.5q30 0 50.5 -20.5t20.5 -49.5q0 -30 -20 -50.5t-51 -20.5q-28 0 -49 20.5t-21 50.5z" />
<glyph unicode="ff&#xf5;" horiz-adv-x="1132" d="M511 692q45 37 102 37q43 0 73 -15q48 -24 48 -74q0 -26 -16.5 -43t-45.5 -17q-40 0 -57 34q6 20 6 36q0 41 -30 41q-19 0 -34 -23t-15 -66q0 -23 1.5 -53.5t1.5 -43.5q0 -23 -2 -35h118l-18 -60h-110l-75 -276q-38 -138 -71.5 -213.5t-84.5 -113.5q-47 -34 -107 -34 q-43 0 -68.5 22t-25.5 56q0 29 17.5 48t43.5 19q32 0 53 -21q0 -58 37 -58q23 0 37 21t22 74q4 27 13 92.5t17 111.5t20 91l47 181h-155l-75 -276q-29 -107 -81 -201.5t-113 -131.5q-45 -28 -99 -28q-47 0 -75.5 22t-28.5 58q0 28 17.5 46.5t43.5 18.5q32 0 53 -21 q0 -58 47 -58q49 0 70 80q17 62 37 163t32 147l47 181h-61l15 47l65 13q52 191 184 237q34 12 72 12q65 0 108 -27zM286 543l-18 -73h158l3 19q8 47 18.5 88.5t10.5 55.5q0 21 -14 35t-40 14q-84 0 -118 -139zM969 294q0 147 -77 147q-33 0 -60 -30q-68 -75 -68 -236 q0 -147 78 -147q33 0 58 25q69 69 69 241zM632 210q0 143 115 225q66 47 147 47q90 0 149 -63t59 -158q0 -144 -115 -225q-67 -48 -148 -48q-92 0 -149.5 63.5t-57.5 158.5zM1030 580q-37 0 -82 26l-27 16q-19 10 -37 10q-14 0 -24.5 -10.5t-10.5 -34.5h-58v26q0 53 27.5 79 t67.5 26q31 0 72 -22l32 -18q23 -12 42 -12q14 0 24.5 10.5t10.5 34.5h58v-26q0 -53 -27.5 -79t-67.5 -26z" />
<glyph unicode="ff&#xfe;" horiz-adv-x="1105" d="M697 410h-164l-75 -276q-38 -138 -71.5 -213.5t-84.5 -113.5q-47 -34 -107 -34q-43 0 -68.5 22t-25.5 56q0 29 17.5 48t43.5 19q32 0 53 -21q0 -58 37 -58q23 0 37 21t22 74q4 27 13 92.5t17 111.5t20 91l47 181h-155l-75 -276q-29 -107 -81 -201.5t-113 -131.5 q-45 -28 -99 -28q-47 0 -75.5 22t-28.5 58q0 28 17.5 46.5t43.5 18.5q32 0 53 -21q0 -58 47 -58q49 0 70 80q17 62 37 163t32 147l47 181h-61l15 47l65 13q52 191 184 237q34 12 72 12q84 0 140 -50q73 60 164 60q66 0 105 -32l79 32l21 -15q-28 -87 -57 -169l-50 -145l3 -2 q44 48 73 66t62 18q54 0 91 -45t37 -131q0 -158 -121 -258q-74 -60 -173 -60q-42 0 -79 15l-23 -78q-13 -48 -29 -115l86 -10l-3 -27l-141 2l-114 -2l3 27l41 10q23 73 36 116zM951 299q0 49 -16.5 76t-40.5 27q-36 0 -97 -56l-76 -254l38 -61q11 -3 21 -3q69 0 120 79.5 t51 191.5zM700 690q-90 0 -133 -153l-19 -67h167l15 51q23 78 23 113q0 25 -14.5 40.5t-38.5 15.5zM286 543l-18 -73h159q8 29 20.5 62.5t18 53t5.5 34.5q0 28 -17 45t-50 17q-84 0 -118 -139z" />
<glyph unicode="ff&#xfc;" horiz-adv-x="1144" d="M511 692q45 37 102 37q43 0 73 -15q48 -24 48 -74q0 -26 -16.5 -43t-45.5 -17q-40 0 -57 34q6 20 6 36q0 41 -30 41q-19 0 -34 -23t-15 -66q0 -23 1.5 -53.5t1.5 -43.5q0 -23 -2 -35h118l-18 -60h-110l-75 -276q-38 -138 -71.5 -213.5t-84.5 -113.5q-47 -34 -107 -34 q-43 0 -68.5 22t-25.5 56q0 29 17.5 48t43.5 19q32 0 53 -21q0 -58 37 -58q23 0 37 21t22 74q4 27 13 92.5t17 111.5t20 91l47 181h-155l-75 -276q-29 -107 -81 -201.5t-113 -131.5q-45 -28 -99 -28q-47 0 -75.5 22t-28.5 58q0 28 17.5 46.5t43.5 18.5q32 0 53 -21 q0 -58 47 -58q49 0 70 80q17 62 37 163t32 147l47 181h-61l15 47l65 13q52 191 184 237q34 12 72 12q65 0 108 -27zM286 543l-18 -73h158l3 19q8 47 18.5 88.5t10.5 55.5q0 21 -14 35t-40 14q-84 0 -118 -139zM1091 318l-54 -165q-19 -58 -19 -81q0 -32 34 -32q11 0 38 5 l18 3l4 -28q-64 -32 -121 -32q-41 0 -65 22t-24 65q-81 -87 -152 -87q-48 0 -73.5 29t-25.5 79q0 38 18 90l78 224l-82 12v31l204 29l21 -15q-41 -110 -62 -169l-44 -125q-13 -36 -13 -56q0 -18 12.5 -29t32.5 -11q35 0 84 33l68 208q30 93 44 150l117 6l11 -20 q-8 -22 -19 -53t-19 -52t-11 -31zM824 653q0 29 20.5 49.5t48.5 20.5q31 0 52 -20.5t21 -49.5q0 -30 -21 -50.5t-52 -20.5q-28 0 -48.5 20.5t-20.5 50.5zM1018 653q0 29 21 49.5t49 20.5q30 0 50.5 -20.5t20.5 -49.5q0 -30 -20 -50.5t-51 -20.5q-28 0 -49 20.5t-21 50.5z " />
<glyph unicode="ff&#xff;" horiz-adv-x="1111" d="M511 692q45 37 102 37q43 0 73 -15q48 -24 48 -74q0 -26 -16.5 -43t-45.5 -17q-40 0 -57 34q6 20 6 36q0 41 -30 41q-19 0 -34 -23t-15 -66q0 -23 1.5 -53.5t1.5 -43.5q0 -23 -2 -35h118l-18 -60h-110l-75 -276q-38 -138 -71.5 -213.5t-84.5 -113.5q-47 -34 -107 -34 q-43 0 -68.5 22t-25.5 56q0 29 17.5 48t43.5 19q32 0 53 -21q0 -58 37 -58q23 0 37 21t22 74q4 27 13 92.5t17 111.5t20 91l47 181h-155l-75 -276q-29 -107 -81 -201.5t-113 -131.5q-45 -28 -99 -28q-47 0 -75.5 22t-28.5 58q0 28 17.5 46.5t43.5 18.5q32 0 53 -21 q0 -58 47 -58q49 0 70 80q17 62 37 163t32 147l47 181h-61l15 47l65 13q52 191 184 237q34 12 72 12q65 0 108 -27zM286 543l-18 -73h158l3 19q8 47 18.5 88.5t10.5 55.5q0 21 -14 35t-40 14q-84 0 -118 -139zM788 482q82 0 89 -98l18 -277l87 140q37 60 37 108q0 33 -30 51 q0 30 17.5 53t47.5 23q27 0 45 -19t18 -48q0 -37 -30 -85l-223 -351q-131 -206 -280 -206q-63 0 -95.5 25t-32.5 64q0 29 20.5 48t47.5 19t52 -20q6 -69 67 -69q67 0 141 99l-25 432q-2 24 -20 24q-13 0 -31.5 -16t-55.5 -59l-28 20l35 51q61 91 129 91zM808 653 q0 29 20.5 49.5t48.5 20.5q31 0 52 -20.5t21 -49.5q0 -30 -21 -50.5t-52 -20.5q-28 0 -48.5 20.5t-20.5 50.5zM1002 653q0 29 21 49.5t49 20.5q30 0 50.5 -20.5t20.5 -49.5q0 -30 -20 -50.5t-51 -20.5q-28 0 -49 20.5t-21 50.5z" />
<glyph unicode="fi" horiz-adv-x="633" d="M253 410l-75 -276q-29 -107 -81 -201.5t-113 -131.5q-45 -28 -99 -28q-47 0 -75.5 22t-28.5 58q0 28 17.5 46.5t43.5 18.5q32 0 53 -21q0 -58 47 -58q49 0 70 80q17 62 37 163t32 147l47 181h-61l15 47l64 13l3 16q1 8 6.5 39.5t8.5 43.5t11 38t17.5 40.5t25.5 32 t37 29.5q34 20 83 20q36 0 67 -14q49 -23 49 -73q0 -28 -17 -45t-45 -17q-40 0 -57 34q6 20 6 34q0 43 -30 43q-21 0 -34.5 -25t-13.5 -73q0 -19 1.5 -46.5t1.5 -41.5q0 -23 -2 -35h117l-18 -60h-110zM492 410l-90 12v31l212 29l21 -15q-41 -102 -65 -169l-62 -179 q-12 -33 -12 -48q0 -21 29 -21q18 0 54 12l28 10l13 -29q-86 -55 -167 -55q-39 0 -60 16t-21 44q0 29 16 73zM514 650q0 33 23 56t56 23t55.5 -23t22.5 -56q0 -34 -22 -56.5t-56 -22.5q-33 0 -56 22.5t-23 56.5z" />
<glyph unicode="&#xfb00;i" horiz-adv-x="913" d="M511 692q45 37 102 37q43 0 73 -15q48 -24 48 -74q0 -26 -16.5 -43t-45.5 -17q-40 0 -57 34q6 20 6 36q0 41 -30 41q-19 0 -34 -23t-15 -66q0 -23 1.5 -53.5t1.5 -43.5q0 -23 -2 -35h118l-18 -60h-110l-75 -276q-38 -138 -71.5 -213.5t-84.5 -113.5q-47 -34 -107 -34 q-43 0 -68.5 22t-25.5 56q0 29 17.5 48t43.5 19q32 0 53 -21q0 -58 37 -58q23 0 37 21t22 74q4 27 13 92.5t17 111.5t20 91l47 181h-155l-75 -276q-29 -107 -81 -201.5t-113 -131.5q-45 -28 -99 -28q-47 0 -75.5 22t-28.5 58q0 28 17.5 46.5t43.5 18.5q32 0 53 -21 q0 -58 47 -58q49 0 70 80q17 62 37 163t32 147l47 181h-61l15 47l65 13q52 191 184 237q34 12 72 12q65 0 108 -27zM286 543l-18 -73h158l3 19q8 47 18.5 88.5t10.5 55.5q0 21 -14 35t-40 14q-84 0 -118 -139zM772 410l-90 12v31l212 29l21 -15q-41 -102 -65 -169l-62 -179 q-12 -33 -12 -48q0 -21 29 -21q18 0 54 12l28 10l13 -29q-86 -55 -167 -55q-39 0 -60 16t-21 44q0 29 16 73zM794 650q0 33 23 56t56 23t55.5 -23t22.5 -56q0 -34 -22 -56.5t-56 -22.5q-33 0 -56 22.5t-23 56.5z" />
<glyph horiz-adv-x="0" />
<glyph horiz-adv-x="0" />
<glyph horiz-adv-x="333" />
<glyph unicode="&#xd;" horiz-adv-x="250" />
<glyph unicode=" "  horiz-adv-x="250" />
<glyph unicode="&#x09;" horiz-adv-x="250" />
<glyph unicode="&#xa0;" horiz-adv-x="250" />
<glyph unicode="!" horiz-adv-x="250" d="M9 68q0 34 23.5 57t57.5 23t56.5 -23t22.5 -57q0 -35 -22 -57.5t-57 -22.5q-34 0 -57.5 22.5t-23.5 57.5zM145 215h-48l61 450h152z" />
<glyph unicode="&#x22;" horiz-adv-x="470" d="M178 376h-36l13 289h154zM398 376h-36l13 289h154z" />
<glyph unicode="#" d="M454 268v-60h-102l-56 -208h-64l56 208h-100l-56 -208h-63l56 208h-80v60h95l35 133h-79v60h95l55 204h62l-55 -204h101l55 204h63l-55 -204h88v-60h-103l-35 -133h87zM238 401l-35 -133h101l35 133h-101z" />
<glyph unicode="$" horiz-adv-x="511" d="M144 -139h-42l49 136q-62 15 -106 56l-21 -31l-25 6l50 207h24l6 -52q12 -112 88 -142l87 237l-40 47q-64 75 -64 154q0 88 61 142t153 54q13 0 33 -2l48 130h42l-51 -138q44 -14 78 -43l31 32l24 -8l-49 -194h-27l-5 43q-11 96 -68 125l-85 -235l30 -34q75 -87 75 -170 q0 -90 -57 -141.5t-155 -51.5q-13 0 -37 2zM337 125q0 28 -10 52t-44 66l-77 -212q7 -1 23 -1q49 0 78.5 26.5t29.5 68.5zM251 528q0 -42 54 -108l77 212q-6 1 -18 1q-51 0 -82 -29.5t-31 -75.5z" />
<glyph unicode="%" horiz-adv-x="949" d="M115 503q0 71 50 121.5t121 50.5q70 0 120.5 -51t50.5 -121q0 -71 -50.5 -120.5t-120.5 -49.5q-71 0 -121 49.5t-50 120.5zM826 685l-606 -765l-54 46l605 765zM544 158q0 71 50 121.5t121 50.5q70 0 120.5 -51t50.5 -121q0 -71 -50.5 -120.5t-120.5 -49.5 q-71 0 -121 49.5t-50 120.5zM188 502q0 -42 27 -70.5t69 -28.5t70 28.5t28 70.5t-28 71.5t-70 29.5t-69 -29t-27 -72zM617 157q0 -42 27 -70.5t69 -28.5t70 28.5t28 70.5t-28 71.5t-70 29.5t-69 -29t-27 -72z" />
<glyph unicode="&#x26;" horiz-adv-x="813" d="M296 675q116 0 178 -130l-23 -23q-74 53 -153 53q-65 0 -103 -34.5t-38 -89.5q0 -32 11 -55q50 58 115 58q46 0 73 -22.5t27 -58.5q0 -40 -28.5 -63t-80.5 -23q-41 0 -75 17q-1 -7 -1 -16q0 -83 73.5 -129.5t180.5 -46.5q101 0 158 39t57 117q0 47 -31.5 80.5t-84.5 33.5 q-35 0 -55 -16t-20 -38q0 -19 12 -28.5t30 -9.5q22 0 42 11q33 -21 33 -60q0 -27 -18.5 -43t-48.5 -16q-41 0 -67 32.5t-26 87.5q0 76 45 124t134 59l96 12q97 12 97 89q0 28 -15.5 45.5t-39.5 17.5q-18 0 -28.5 -11.5t-10.5 -26.5q0 -20 16 -35q-9 -44 -58 -44 q-27 0 -46.5 18t-19.5 48q0 45 36 68t91 23q60 0 95 -36t35 -95q0 -147 -204 -169v-4q71 -51 71 -145q0 -112 -82 -182t-219 -70q-143 0 -227.5 69.5t-84.5 182.5q0 63 26 115q-36 51 -36 115q0 88 55.5 146.5t136.5 58.5zM261 330q47 0 47 43q0 18 -11 29.5t-29 11.5 q-22 0 -39 -19t-23 -49q24 -16 55 -16z" />
<glyph unicode="'" horiz-adv-x="250" d="M178 376h-36l13 289h154z" />
<glyph unicode="(" horiz-adv-x="350" d="M24 110q0 194 99 350.5t281 268.5l27 -42q-144 -115 -223.5 -263.5t-79.5 -314.5q0 -104 16 -171.5t62 -132.5l-35 -32q-147 137 -147 337z" />
<glyph unicode=")" horiz-adv-x="350" d="M335 392q0 -194 -99 -350.5t-281 -268.5l-27 42q144 115 223.5 263.5t79.5 314.5q0 104 -16 171.5t-62 132.5l35 32q147 -137 147 -337z" />
<glyph unicode="*" d="M372 337l-73 96l-108 -51l-14 17l68 100l-82 86l12 19l115 -34l57 103l25 -6v-118l118 -24l1 -22l-112 -38l13 -119z" />
<glyph unicode="+" d="M306 114h-60v188h-188v60h188v188h60v-188h188v-60h-188v-188z" />
<glyph unicode="," horiz-adv-x="250" d="M171 22q0 -54 -29 -96q-28 -41 -74.5 -67.5t-131.5 -53.5l-9 30q76 34 109.5 65.5t33.5 65.5q0 50 -60 60q-14 21 -14 49q0 32 21.5 52.5t53.5 20.5q43 0 71.5 -34t28.5 -92z" />
<glyph unicode="-" horiz-adv-x="250" d="M1 197l20 83h230l-21 -83h-229z" />
<glyph unicode="." horiz-adv-x="250" d="M0 68q0 34 23.5 57t57.5 23t56.5 -23t22.5 -57q0 -35 -22 -57.5t-57 -22.5q-34 0 -57.5 22.5t-23.5 57.5z" />
<glyph unicode="/" horiz-adv-x="460" d="M498 675l49 -40l-538 -647l-48 39z" />
<glyph unicode="0" d="M194 -12q-71 0 -117.5 56t-46.5 150q0 89 27 177q46 149 127.5 226.5t166.5 77.5q73 0 120.5 -55t47.5 -151q0 -91 -30 -186q-45 -144 -125.5 -219.5t-169.5 -75.5zM369 345q43 146 43 206q0 82 -53 82q-46 0 -88 -70t-93 -245q-43 -146 -43 -206q0 -82 53 -82 q46 0 88 70t93 245z" />
<glyph unicode="1" d="M172 154l118 413l-79 13l2 26l216 69l19 -10l-147 -511q-20 -70 -32 -114l94 -11l-5 -29l-161 2l-166 -2l5 29l102 11q7 21 18 58.5t16 55.5z" />
<glyph unicode="2" d="M402 136l22 -16l-49 -120l-135 2h-156l-96 -2l2 45l217 191q117 103 156.5 156.5t39.5 104.5q0 36 -19.5 57.5t-54.5 21.5q-72 0 -158 -89l-32 19q94 169 233 169q70 0 115 -43t45 -117q0 -70 -48 -129t-199 -168l-146 -106h151q73 0 112 24z" />
<glyph unicode="3" d="M177 -12q-70 0 -107 19q-47 25 -47 71q0 26 16.5 43.5t43.5 17.5t43 -15q2 -93 76 -93q52 0 82 31.5t30 82.5q0 42 -15 76.5t-54 78.5l-24 27l9 32l44 18q71 29 99 59.5t28 67.5q0 32 -18.5 50.5t-51.5 18.5q-67 0 -136 -69l-33 21q79 150 204 150q63 0 103.5 -38 t40.5 -97q0 -52 -34.5 -88.5t-114.5 -72.5l-16 -7l15 -18q67 -80 67 -167q0 -89 -70.5 -144t-179.5 -55z" />
<glyph unicode="4" d="M390 206l-16 -55q-13 -47 -35 -149l-121 -6l-11 20l56 190h-247l4 45q163 209 382 414h119l-110 -384h8q21 0 33 6t30 24l24 -13l-39 -92h-77zM284 281l83 291q-166 -166 -261 -291h178z" />
<glyph unicode="5" d="M177 -12q-74 0 -114 19q-50 23 -50 71q0 28 17 46t43 18q24 0 50 -16q2 -91 82 -91q62 0 98 33t36 89q0 95 -106 146l-75 36l-11 21l113 303h201l99 2l-29 -114h-266l-33 -93l64 -32q149 -74 149 -208q0 -102 -74 -166t-194 -64z" />
<glyph unicode="6" d="M545 659q-261 -126 -353 -273q49 32 101 32q77 0 129 -51.5t52 -145.5q0 -117 -83 -181q-67 -52 -161 -52q-96 0 -153.5 59t-57.5 173q0 154 110 267t360 197l39 13zM262 367q-44 0 -96 -39q-22 -74 -22 -145q0 -75 23.5 -114t62.5 -39q49 0 82 53t33 147q0 137 -83 137z " />
<glyph unicode="7" d="M147 523l-27 14l58 130l114 -2h278v-28l-272 -389q-53 -77 -53 -121q0 -32 34 -53q0 -86 -72 -86q-35 0 -56.5 24t-21.5 63q0 32 16 66.5t61 89.5l256 322h-229q-55 0 -86 -30z" />
<glyph unicode="8" d="M530 529q0 -56 -40 -94t-137 -75l18 -19q77 -81 77 -168q0 -86 -64.5 -135.5t-158.5 -49.5q-92 0 -148 40.5t-56 113.5q0 62 44.5 109t144.5 82q-69 76 -69 154q0 83 62 135.5t147 52.5q54 0 92 -16q41 -17 64.5 -52t23.5 -78zM287 252l-53 55q-103 -75 -103 -170 q0 -48 28.5 -77.5t76.5 -29.5t77.5 29t29.5 72q0 63 -56 121zM246 530q0 -54 52 -110l33 -36q98 67 98 157q0 40 -23 66t-63 26q-41 0 -69 -30t-28 -73z" />
<glyph unicode="9" d="M33 -34l-17 38q258 118 356 274q-50 -33 -104 -33q-78 0 -129.5 49t-51.5 142q0 119 83 186q67 53 160 53q97 0 154.5 -57.5t57.5 -174.5q0 -153 -112 -273.5t-359 -192.5zM299 296q44 0 96 39q22 74 22 145q0 75 -23.5 114t-62.5 39q-48 0 -81.5 -53.5t-33.5 -146.5 q0 -137 83 -137z" />
<glyph unicode=":" horiz-adv-x="250" d="M0 68q0 34 23.5 57t57.5 23t56.5 -23t22.5 -57q0 -35 -22 -57.5t-57 -22.5q-34 0 -57.5 22.5t-23.5 57.5zM88 402q0 34 23.5 57t57.5 23t56.5 -23t22.5 -57q0 -35 -22 -57.5t-57 -22.5q-34 0 -57.5 22.5t-23.5 57.5z" />
<glyph unicode=";" horiz-adv-x="250" d="M171 22q0 -54 -29 -96q-28 -41 -74.5 -67.5t-131.5 -53.5l-9 30q76 34 109.5 65.5t33.5 65.5q0 50 -60 60q-14 21 -14 49q0 32 21.5 52.5t53.5 20.5q43 0 71.5 -34t28.5 -92zM88 402q0 34 23.5 57t57.5 23t56.5 -23t22.5 -57q0 -35 -22 -57.5t-57 -22.5q-34 0 -57.5 22.5 t-23.5 57.5z" />
<glyph unicode="&#x3c;" d="M153 333l340 -127v-67l-436 166v51l436 177v-63z" />
<glyph unicode="=" d="M493 392h-436v60h436v-60zM493 212h-436v60h436v-60z" />
<glyph unicode="&#x3e;" d="M57 206l340 127l-340 137v63l436 -177v-51l-436 -166v67z" />
<glyph unicode="?" horiz-adv-x="318" d="M292 386l-74 -80q-30 -32 -40 -48.5t-10 -36.5v-6h-35q-24 32 -24 72q0 34 16 62.5t54 67.5l62 63q64 64 64 101q0 16 -9 25t-23 9q-40 0 -53 -63q-12 -9 -37 -9t-40.5 14.5t-15.5 36.5q0 35 29.5 58t81.5 23q62 0 96 -37.5t34 -97.5q0 -72 -76 -154zM37 68q0 34 23.5 57 t57.5 23t56.5 -23t22.5 -57q0 -35 -22 -57.5t-57 -22.5q-34 0 -57.5 22.5t-23.5 57.5z" />
<glyph unicode="@" horiz-adv-x="979" d="M693 296l-54 -162q-10 -29 -10 -44q0 -27 32 -27q72 0 129.5 71t57.5 185q0 127 -80.5 205t-221.5 78q-105 0 -195.5 -53t-145.5 -150t-55 -217q0 -157 99 -248.5t265 -91.5q141 0 262 65l23 -55q-60 -38 -137.5 -59t-152.5 -21q-194 0 -316.5 112t-122.5 300 q0 105 39 197t104.5 156t152.5 101t180 37q173 0 276 -100.5t103 -257.5q0 -143 -83.5 -233t-197.5 -90q-51 0 -83 24.5t-37 69.5q-79 -94 -148 -94q-52 0 -85 37t-33 108q0 82 32 151.5t85 116.5q79 69 172 69q67 0 134 -43l43 37l29 -14q-51 -132 -60 -160zM600 363 l-30 67q-10 6 -29 6q-61 0 -114 -82t-53 -194q0 -88 54 -88q45 0 97 65z" />
<glyph unicode="A" horiz-adv-x="630" d="M215 200l-37 -44q-35 -42 -89 -116l68 -11l-6 -29l-102 2l-89 -2l6 29l60 11q63 72 98 116l421 519h47l-61 -519q-9 -67 -11 -116l56 -11l-6 -29l-123 2l-141 -2l6 29l79 11q8 42 17 116l5 44h-198zM247 240h170l28 244z" />
<glyph unicode="B" horiz-adv-x="574" d="M260 360h17q77 0 124 45t47 117q0 46 -25 74.5t-71 28.5q-15 0 -26 -1zM295 320h-45l-69 -277q26 -3 44 -3q87 0 138 45.5t51 117.5q0 56 -31.5 86.5t-87.5 30.5zM240 0q-28 0 -68.5 1t-58.5 1l-150 -2l3 29l81 11q16 56 31 116l88 353q15 60 27 116l-76 11l3 29l147 -2 q12 0 45.5 1t44.5 1q105 0 158.5 -45t53.5 -114q0 -116 -158 -159l-1 -4q61 -18 95 -57t34 -94q0 -89 -79 -140.5t-220 -51.5z" />
<glyph unicode="C" horiz-adv-x="570" d="M404 633q-71 0 -130 -77q-91 -119 -91 -289q0 -90 37 -132t96 -42q45 0 85 22.5t87 89.5l29 -19q-77 -198 -238 -198q-99 0 -159.5 69t-60.5 187q0 207 136 340q94 91 209 91q92 0 151 -57l41 32l21 -16l-73 -205l-26 3v38q0 163 -114 163z" />
<glyph unicode="D" horiz-adv-x="664" d="M209 40q168 0 262 131q71 99 71 238q0 102 -41.5 159t-121.5 57q-18 0 -29 -2l-166 -580q21 -3 25 -3zM226 0q-16 0 -54.5 1t-58.5 1l-150 -2l5 29l82 11q13 39 35 116l101 353q21 72 32 116l-76 11l5 29l147 -2q13 0 46.5 1t41.5 1q140 0 214 -73t74 -199 q0 -145 -80 -239q-133 -154 -364 -154z" />
<glyph unicode="E" horiz-adv-x="562" d="M-38 0l4 29l80 11q16 56 31 116l89 353q8 32 26 116l-76 11l4 29l147 -2h147l142 2l-16 -198h-28l-5 53q-5 57 -31 80t-89 23h-62l-66 -263h20q38 0 75 2l64 137h32l-41 -157l-37 -163h-30l4 139q-72 2 -77 2h-20l-69 -278h120q115 0 177 110l33 58h30l-62 -210l-112 2 h-255z" />
<glyph unicode="F" horiz-adv-x="514" d="M79 156l89 353q8 32 26 116l-76 11l4 29l147 -2h147l149 2l-23 -198h-28l-3 53q-3 54 -34.5 78.5t-95.5 24.5h-54l-67 -268h20q11 0 35.5 1t46.5 1l59 117h30l-34 -132l-32 -146h-27l-4 117q-46 2 -84 2h-20l-40 -159q-20 -83 -27 -116l107 -11l-5 -29l-178 2l-143 -2 l3 29l81 11q16 56 31 116z" />
<glyph unicode="G" horiz-adv-x="648" d="M527 121l-23 -92q-92 -41 -179 -41q-129 0 -201 76t-72 203q0 192 130 313q102 95 228 95q62 0 101.5 -17.5t73.5 -51.5l28 37l32 -10l-51 -184h-30l-9 46q-26 138 -124 138q-81 0 -158 -102q-40 -53 -65.5 -138t-25.5 -170q0 -91 38.5 -142t105.5 -51q36 0 59 9l20 82 q15 60 27 116l-93 11l5 29l153 -2l127 2l-5 -29l-61 -11q-20 -69 -31 -116z" />
<glyph unicode="H" horiz-adv-x="694" d="M419 40q16 56 31 116l41 164h-238l-41 -164q-20 -83 -27 -116l75 -11l-5 -29l-142 2l-149 -2l5 29l81 11q16 56 31 116l88 353q15 60 27 116l-76 11l5 29l143 -2l148 2l-5 -29l-80 -11q-20 -69 -31 -116l-37 -149h238l37 149q15 60 27 116l-74 11l5 29l146 -2l145 2 l-5 -29l-82 -11q-20 -69 -31 -116l-88 -353q-20 -83 -27 -116l77 -11l-5 -29l-144 2l-147 -2l5 29z" />
<glyph unicode="I" horiz-adv-x="325" d="M302 509l-88 -353q-20 -83 -27 -116l77 -11l-5 -29l-148 2l-143 -2l3 29l81 11q16 56 31 116l88 353q15 60 27 116l-76 11l5 29l147 -2l146 2l-5 -29l-82 -11q-20 -69 -31 -116z" />
<glyph unicode="J" horiz-adv-x="321" d="M61 55l110 454q15 60 27 116l-76 11l3 29l147 -2l146 2l-3 -29l-82 -11q-20 -69 -31 -116l-67 -268q-62 -246 -139.5 -357t-188.5 -111q-51 0 -82 17q-48 26 -48 79q0 33 22 55t55 22q35 0 62 -27q-8 -26 -8 -48q0 -20 11.5 -33t33.5 -13q20 0 36.5 16t31.5 60 q10 28 40 154z" />
<glyph unicode="K" horiz-adv-x="716" d="M494 242l63 -157q20 -49 64 -49q14 0 38 4l7 -33q-59 -19 -105 -19q-58 0 -91.5 27.5t-55.5 85.5l-67 174q-12 31 -28.5 43t-42.5 12h-27l-43 -174q-20 -83 -27 -116l67 -11l-3 -29l-136 2l-147 -2l3 29l81 11q16 56 31 116l88 353q15 60 27 116l-76 11l3 29l147 -2 l136 2l-3 -29l-72 -11q-20 -69 -31 -116l-35 -139h10q54 0 95 41l100 98q59 58 110 116l-60 11l3 29l106 -2l85 2l-3 -29l-58 -11q-82 -78 -122 -118l-150 -149v-4q43 -10 71 -36t48 -76z" />
<glyph unicode="L" horiz-adv-x="533" d="M298 509l-116 -467h72q141 0 209 138l26 53h35l-67 -233l-119 2h-226l-150 -2l5 29l81 11q16 56 31 116l88 353q15 60 27 116l-76 11l5 29l147 -2l146 2l-5 -29l-82 -11q-9 -33 -19 -71t-12 -45z" />
<glyph unicode="M" horiz-adv-x="857" d="M605 156l37 391l-262 -460h-50l-38 455l-154 -386q-21 -52 -41 -116l83 -11l-4 -29l-110 2l-108 -2l4 29l79 11q23 54 48 116l185 462l-92 18l7 29l216 -2l34 -380l219 380l203 2l-4 -29l-76 -14l-50 -464q-2 -22 -4.5 -63.5t-3.5 -54.5l80 -11l-5 -29l-183 2l-113 -2 l5 29l82 11q9 47 16 116z" />
<glyph unicode="N" horiz-adv-x="687" d="M515 -12h-32l-242 563l-124 -395q-7 -24 -30 -116l72 -11l-4 -29l-92 2l-111 -2l4 29l79 11q8 25 15.5 47.5t13.5 42t8 26.5l135 434l-68 46l9 29l185 -2l197 -465l97 311q10 30 31 114l-72 13l5 29l92 -2l113 2l-5 -29l-80 -13q-23 -69 -36 -114z" />
<glyph unicode="O" horiz-adv-x="708" d="M329 30q84 0 148 98q83 125 83 310q0 98 -35.5 146.5t-93.5 48.5q-83 0 -155 -104q-83 -121 -83 -304q0 -96 37.5 -145.5t98.5 -49.5zM323 -12q-120 0 -193.5 77.5t-73.5 212.5q0 171 116 288q107 109 261 109q115 0 189.5 -80.5t74.5 -212.5q0 -174 -109 -286 q-51 -52 -120.5 -80t-144.5 -28z" />
<glyph unicode="P" horiz-adv-x="534" d="M283 0l-171 2l-146 -2l3 29l81 11q8 28 30 116l89 353q8 32 26 116l-76 11l4 29l147 -2q22 0 52 1t39 1q104 0 163 -46.5t59 -126.5q0 -92 -83.5 -148t-262.5 -77l-29 -111q-11 -44 -26 -114l104 -11zM324 623l-79 -319q102 17 158.5 69t56.5 129q0 57 -27.5 90t-75.5 33 q-13 0 -33 -2z" />
<glyph unicode="Q" horiz-adv-x="708" d="M95 -61l168 52v4q-95 18 -151 92t-56 191q0 171 116 288q107 109 261 109q115 0 189.5 -80.5t74.5 -212.5q0 -174 -109 -286q-32 -32 -75.5 -56t-127.5 -50l-178 -56l1 -4q11 1 46 1q69 0 148 -38l51 -25q52 -25 72 -32.5t41 -7.5q14 0 22.5 8t8.5 22q0 29 -39 40 q-2 10 -2 18q0 29 17.5 47t45.5 18q31 0 50 -21.5t19 -54.5q0 -58 -46.5 -95t-137.5 -37q-127 0 -232 53l-63 32q-69 36 -91 36q-15 0 -24.5 -9t-9.5 -21q0 -22 25 -31q-1 -25 -15.5 -42.5t-42.5 -17.5q-32 0 -49 17.5t-17 44.5q0 69 110 104zM329 30q84 0 148 98 q83 128 83 310q0 98 -35.5 146.5t-93.5 48.5q-85 0 -155 -104q-83 -125 -83 -304q0 -96 37.5 -145.5t98.5 -49.5z" />
<glyph unicode="R" horiz-adv-x="684" d="M259 370h22q70 0 116 41t46 107q0 49 -28 78t-72 29q-4 0 -22 -2zM392 350l-1 -4q54 -25 83 -110l56 -163q14 -40 49 -40q15 0 41 6l7 -33q-50 -18 -99 -18q-58 0 -90 26t-51 84l-52 159q-14 43 -31 58t-48 15h-7l-43 -174q-8 -32 -26 -116l67 -11l-4 -29l-132 2l-148 -2 l4 29l79 11q24 84 32 116l88 353q1 4 25 116l-77 11l5 29l147 -2q11 0 44 1t49 1q100 0 153.5 -44.5t53.5 -112.5q0 -60 -41.5 -97.5t-132.5 -60.5z" />
<glyph unicode="S" horiz-adv-x="511" d="M269 260l-55 65q-64 75 -64 154q0 88 61 142t153 54q88 0 150 -53l31 32l24 -8l-49 -194h-27l-5 43q-16 138 -124 138q-51 0 -82 -29.5t-31 -75.5q0 -44 63 -118l51 -59q75 -87 75 -170q0 -90 -57 -141.5t-155 -51.5q-110 0 -183 65l-21 -31l-25 6l50 207h24l6 -52 q17 -153 150 -153q49 0 78.5 26.5t29.5 68.5q0 30 -12.5 56.5t-55.5 78.5z" />
<glyph unicode="T" horiz-adv-x="603" d="M335 623h-10q-114 0 -175 -104l-32 -54h-30l60 200l143 -2h251l141 2l-65 -200h-26v54q0 57 -19 80.5t-71 23.5h-36l-134 -467q-23 -82 -31 -116l85 -11l-4 -29l-155 2l-158 -2l4 29l93 11q13 39 35 116z" />
<glyph unicode="U" horiz-adv-x="674" d="M107 306l58 203q21 72 32 116l-76 11l4 29l147 -2l146 2l-4 -29l-82 -11q-8 -27 -20 -65t-16 -51l-72 -253q-17 -59 -17 -90q0 -48 28.5 -75t80.5 -27q77 0 132 48.5t82 141.5l73 254q16 54 31 115l-85 13l4 29l112 -2l112 2l-4 -29l-93 -13q-24 -74 -35 -114l-84 -291 q-66 -230 -276 -230q-98 0 -151 47.5t-53 128.5q0 52 26 142z" />
<glyph unicode="V" horiz-adv-x="630" d="M245 179l267 328q56 70 89 116l-68 11l6 29l102 -2l89 2l-6 -29l-60 -11q-63 -72 -98 -116l-421 -519h-47l61 519q9 67 11 116l-56 11l6 29l123 -2l141 2l-6 -29l-79 -11q-8 -42 -17 -116z" />
<glyph unicode="W" horiz-adv-x="962" d="M577 179l267 328q56 70 89 116l-88 11l6 29l122 -2l89 2l-6 -29l-60 -11q-63 -72 -98 -116l-421 -519h-47l48 411l-333 -411h-47l61 519q9 67 11 116l-56 11l6 29l123 -2l131 2l-6 -29l-69 -11q-8 -42 -17 -116l-37 -328l242 299l4 32q6 50 11 113l-46 11l6 29l113 -2 l149 2l-6 -29l-87 -11q-8 -42 -17 -116z" />
<glyph unicode="X" horiz-adv-x="662" d="M366 509l37 -97l92 97q60 61 104 116l-76 11l3 29l121 -2l94 2l-3 -29l-70 -11q-106 -108 -113 -116l-134 -143l82 -210q19 -50 48 -116l56 -11l-3 -29l-123 2l-153 -2l3 29l80 11q-28 89 -38 116l-49 126l-117 -126q-24 -26 -97 -116l77 -11l-3 -29l-124 2l-93 -2l3 29 l68 11q74 78 108 116l159 174l-69 179q-23 60 -49 116l-56 11l3 29l131 -2l138 2l-3 -29l-74 -11q15 -50 40 -116z" />
<glyph unicode="Y" horiz-adv-x="628" d="M556 507l-168 -208l-42 -143q-13 -45 -31 -116l86 -11l-4 -29l-156 2l-157 -2l4 29l92 11q13 39 35 116l39 132l-50 219q-16 67 -31 116l-64 11l5 29l119 -2l155 2l-5 -29l-72 -11q14 -78 23 -116l37 -165l133 165q34 41 86 116l-73 11l5 29l105 -2l101 2l-5 -29l-68 -11 q-38 -43 -99 -116z" />
<glyph unicode="Z" horiz-adv-x="591" d="M147 42h130q140 0 215 133l28 50h32l-67 -225l-150 2h-214l-136 -2l4 39l525 584h-122q-69 0 -113.5 -29t-79.5 -87l-34 -56h-30l56 214l166 -2h313l-3 -35z" />
<glyph unicode="[" horiz-adv-x="350" d="M202 729h246l-13 -54h-148l-212 -848h148l-13 -54h-246z" />
<glyph unicode="\" horiz-adv-x="460" d="M112 655l60 20l223 -667l-59 -20z" />
<glyph unicode="]" horiz-adv-x="350" d="M148 729h246l-238 -956h-245l13 54h147l212 848h-148z" />
<glyph unicode="^" d="M388 664l57 -436h-61l-41 340l-222 -340h-70l286 436h51z" />
<glyph unicode="_" d="M-114 -227l16 63h499l-16 -63h-499z" />
<glyph unicode="`" horiz-adv-x="600" d="M318 748l47 -210h-66l-79 210h98z" />
<glyph unicode="a" horiz-adv-x="549" d="M299 64q0 9 1 16q-75 -92 -147 -92q-54 0 -87.5 38t-33.5 111q0 84 32 156.5t86 119.5q79 69 178 69q69 0 137 -44l49 44l28 -15q-53 -135 -64 -169l-59 -179q-10 -31 -10 -43q0 -25 26 -25q24 0 56 16l28 14l15 -28q-79 -65 -154 -65q-38 0 -59.5 20.5t-21.5 55.5z M381 362l-36 75q-8 5 -23 5q-63 0 -117 -84.5t-54 -199.5q0 -91 55 -91q46 0 98 65z" />
<glyph unicode="b" horiz-adv-x="535" d="M381 299q0 50 -15.5 76.5t-43.5 26.5q-36 0 -95 -53l-74 -252l31 -65q14 -4 26 -4q69 0 120 77t51 194zM500 305q0 -153 -124 -255q-76 -62 -169 -62q-57 0 -100.5 17t-81.5 62l146 491l27 99l-82 12v31l205 29l21 -15q-40 -122 -56 -169l-50 -142l3 -2q42 47 71.5 64 t60.5 17q56 0 92.5 -45.5t36.5 -131.5z" />
<glyph unicode="c" horiz-adv-x="435" d="M284 437q-42 0 -82 -53q-48 -65 -48 -177q0 -61 25.5 -92t71.5 -31q59 0 105 63l28 -18q-48 -141 -176 -141q-72 0 -121.5 49.5t-49.5 136.5q0 148 106 241q76 67 160 67q42 0 69 -11q58 -24 58 -86q0 -26 -16.5 -43t-44.5 -17q-36 0 -56 33q9 21 9 39q0 40 -38 40z" />
<glyph unicode="d" horiz-adv-x="546" d="M302 74v8q-45 -53 -75 -73.5t-64 -20.5q-54 0 -92 41.5t-38 121.5q0 163 108 259q81 72 175 72q49 0 88 -17l29 93l25 99l-84 12v31l205 29l21 -15q-32 -89 -55 -170l-126 -425q-8 -29 -8 -43q0 -25 28 -25q25 0 57 22l22 15l18 -26q-77 -74 -140 -74q-94 0 -94 86z M320 442q-67 0 -117.5 -79.5t-50.5 -191.5q0 -52 17 -78t42 -26q37 0 93 65l74 238l-32 66q-13 6 -26 6z" />
<glyph unicode="e" horiz-adv-x="415" d="M328 279q-69 -27 -179 -53q-3 -23 -3 -52q0 -90 62 -90q55 0 113 62l26 -21q-65 -137 -174 -137q-63 0 -103 41t-40 114q0 131 87 235t184 104q53 0 84 -24.5t31 -68.5q0 -76 -88 -110zM200 378q-31 -44 -44 -113q90 25 123 56t33 68q0 17 -10 28t-27 11t-38 -13.5 t-37 -36.5z" />
<glyph unicode="f" horiz-adv-x="330" d="M253 410l-75 -276q-29 -107 -81 -201.5t-113 -131.5q-45 -28 -99 -28q-47 0 -75.5 22t-28.5 58q0 28 17.5 46.5t43.5 18.5q32 0 53 -21q0 -58 47 -58q49 0 70 80q17 62 37 163t32 147l47 181h-61l15 47l65 13q52 198 166 247q29 12 67 12q43 0 71 -13q48 -22 48 -70 q0 -30 -17 -46.5t-45 -16.5q-18 0 -34 9t-23 22q6 20 6 34q0 43 -36 43q-33 0 -47 -47q-5 -19 -9 -38.5t-9 -47.5t-9 -50l-8 -38h113l-18 -60h-110z" />
<glyph unicode="g" horiz-adv-x="485" d="M229 -69l-123 41q-55 -25 -55 -73q0 -36 35.5 -58.5t97.5 -22.5q52 0 76 17t24 43q0 35 -55 53zM351 356q0 44 -14.5 67t-37.5 23q-38 0 -63 -45q-29 -53 -29 -119q0 -41 15.5 -64t39.5 -23q36 0 60 40q29 48 29 121zM428 431q39 -46 39 -99q0 -102 -98 -146 q-35 -16 -121 -33l-90 -18q-30 -7 -30 -25t47 -34l96 -34q106 -38 106 -122q0 -66 -57 -106.5t-164 -40.5q-87 0 -139 30t-52 75q0 73 101 110q-48 29 -48 77q0 53 58 84l102 23q-36 16 -62.5 50t-26.5 79q0 75 61.5 128t150.5 53q56 0 95 -23q18 95 81 95q24 0 39.5 -15.5 t15.5 -38.5q0 -28 -21 -43q-16 9 -31 9q-34 0 -52 -35z" />
<glyph unicode="h" horiz-adv-x="533" d="M58 152l120 406l26 99l-84 12v31l205 29l21 -15q-20 -56 -55 -169l-48 -152q74 89 155 89q50 0 75.5 -29t25.5 -79q0 -31 -16 -82l-46 -141q-20 -61 -20 -81q0 -35 52 -35h29v-26q-43 -21 -100 -21q-48 0 -74 22.5t-26 56.5q0 32 17 85l46 144q12 37 12 57q0 40 -39 40 q-36 0 -92 -36l-62 -205q-21 -64 -42 -150l-117 -6l-11 20q45 127 48 136z" />
<glyph unicode="i" horiz-adv-x="283" d="M142 410l-90 12v31l212 29l21 -15q-41 -102 -65 -169l-62 -179q-12 -33 -12 -48q0 -21 29 -21q18 0 54 12l28 10l13 -29q-86 -55 -167 -55q-39 0 -60 16t-21 44q0 29 16 73zM164 650q0 33 23 56t56 23t55.5 -23t22.5 -56q0 -34 -22 -56.5t-56 -22.5q-33 0 -56 22.5 t-23 56.5z" />
<glyph unicode="j" horiz-adv-x="293" d="M298 467l-72 -242q-33 -112 -59.5 -172.5t-65.5 -121.5q-44 -70 -109 -114t-141 -44q-57 0 -90.5 25.5t-33.5 64.5q0 31 19.5 51t48.5 20q35 0 57 -23q0 -34 17.5 -52.5t47.5 -18.5q39 0 66.5 29t50.5 108l128 433l-128 12v31l243 29zM167 650q0 33 23 56t56 23t55.5 -23 t22.5 -56q0 -34 -22 -56.5t-56 -22.5q-33 0 -56 22.5t-23 56.5z" />
<glyph unicode="k" horiz-adv-x="549" d="M302 545l-80 -264q25 0 41.5 9t46.5 36l25 23q35 33 71 81l-39 13l3 27l98 -2l87 2l-3 -27l-61 -14q-83 -68 -122 -104l-49 -44v-4q28 -15 44 -35.5t31 -60.5l37 -98q14 -34 32 -34q23 0 51 33l24 -20q-27 -40 -52.5 -57t-64.5 -17q-47 0 -73.5 24.5t-44.5 75.5l-31 91 q-12 36 -26 49t-37 13l-21 -69q-14 -50 -44 -170l-116 -6l-11 20q35 97 46 136l120 406l26 99l-83 12v31l206 29l21 -15q-11 -38 -28.5 -93t-23.5 -76z" />
<glyph unicode="l" horiz-adv-x="284" d="M45 152l139 406l28 99l-83 12v31l207 29l21 -15q-31 -87 -58 -169l-131 -393q-20 -61 -20 -82q0 -30 32 -30q12 0 39 5l18 3l4 -28q-69 -32 -128 -32q-86 0 -86 78q0 34 18 86z" />
<glyph unicode="m" horiz-adv-x="793" d="M325 152l44 144q12 37 12 57q0 40 -39 40q-38 0 -93 -36l-57 -205q-14 -50 -39 -150l-117 -6l-11 20q24 66 44 136l71 247l-79 13v25l172 45l23 -12l-3 -77q78 89 152 89q44 0 70 -24t30 -64q74 88 152 88q50 0 75.5 -29t25.5 -79q0 -35 -16 -82l-50 -140 q-21 -60 -21 -82q0 -35 51 -35h33v-26q-60 -21 -119 -21q-86 0 -86 73q0 36 19 91l51 144q12 34 12 57q0 40 -39 40q-37 0 -89 -36q-1 -25 -16 -71l-41 -134q-21 -64 -42 -150l-116 -6l-11 20q40 112 47 136z" />
<glyph unicode="n" horiz-adv-x="541" d="M323 152l46 144q12 37 12 57q0 40 -39 40q-36 0 -91 -36l-63 -205q-21 -64 -42 -150l-117 -6l-11 20q40 112 47 136l76 247l-79 13v25l172 45l23 -12l-3 -77q74 89 152 89q50 0 75.5 -29t25.5 -79q0 -31 -16 -82l-46 -141q-20 -61 -20 -81q0 -35 52 -35h29v-26 q-43 -21 -100 -21q-48 0 -74 22.5t-26 56.5q0 32 17 85z" />
<glyph unicode="o" horiz-adv-x="542" d="M379 294q0 147 -77 147q-33 0 -60 -30q-68 -75 -68 -236q0 -147 78 -147q33 0 58 25q69 69 69 241zM42 210q0 143 115 225q66 47 147 47q90 0 149 -63t59 -158q0 -144 -115 -225q-67 -48 -148 -48q-92 0 -149.5 63.5t-57.5 158.5z" />
<glyph unicode="p" horiz-adv-x="544" d="M390 299q0 49 -16.5 76t-43.5 27q-34 0 -94 -55l-76 -255l38 -61q10 -3 21 -3q69 0 120 79.5t51 191.5zM-7 -74l141 473l-80 13v25l172 45l23 -12l-7 -74q42 48 75 67t67 19q53 0 89.5 -45t36.5 -131q0 -158 -121 -258q-74 -60 -173 -60q-41 0 -79 15l-23 -78 q-13 -48 -29 -115l86 -10l-3 -27l-141 2l-114 -2l3 27l41 10q23 73 36 116z" />
<glyph unicode="q" horiz-adv-x="527" d="M384 363l-35 75q-14 4 -21 4q-66 0 -122 -82t-56 -195q0 -98 56 -98q41 0 106 61zM531 467l-157 -542q-15 -52 -27 -115l42 -10l-5 -27l-129 2l-126 -2l5 27l86 10q16 47 35 115l17 58l31 91l-3 2q-49 -49 -79 -68.5t-61 -19.5q-56 0 -90.5 40.5t-34.5 123.5 q0 155 112 255q84 75 187 75q65 0 121 -41l48 41z" />
<glyph unicode="r" horiz-adv-x="400" d="M236 368l3 -1q34 53 59 80q33 35 70 35q30 0 50.5 -19t20.5 -50q0 -30 -19 -48.5t-49 -20.5q-19 29 -51 29q-42 0 -89 -51l-50 -170q-33 -117 -41 -150l-118 -6l-11 20q8 21 19.5 52.5t19 52t10.5 31.5l50 170l19 77l-74 13v25l174 45l23 -12z" />
<glyph unicode="s" horiz-adv-x="395" d="M339 135q0 -68 -50 -107.5t-134 -39.5q-77 0 -114 25q-35 24 -35 65q0 24 15.5 39t39.5 15q22 0 45 -17q0 -77 74 -77q63 0 63 49q0 26 -19.5 50.5t-74.5 71.5q-72 63 -72 125q0 68 49 108t124 40q62 0 100 -22t38 -59q0 -25 -15 -39.5t-39 -14.5q-26 0 -45 17 q-2 35 -19.5 54t-44.5 19q-24 0 -40 -14t-16 -36t16.5 -42t67.5 -61q86 -68 86 -149z" />
<glyph unicode="t" horiz-adv-x="362" d="M328 146l24 -26q-58 -68 -110 -100t-112 -32q-46 0 -71 23t-25 64q0 35 19 102l66 233h-61l12 48l63 12l23 101l122 47l25 -10l-45 -138h128l-16 -60h-128l-76 -269q-10 -34 -10 -50q0 -25 29 -25q49 0 143 80z" />
<glyph unicode="u" horiz-adv-x="534" d="M481 318l-54 -165q-19 -58 -19 -81q0 -32 34 -32q11 0 38 5l18 3l4 -28q-64 -32 -121 -32q-41 0 -65 22t-24 65q-81 -87 -152 -87q-48 0 -73.5 29t-25.5 79q0 38 18 90l78 224l-82 12v31l204 29l21 -15q-41 -110 -62 -169l-44 -125q-13 -36 -13 -56q0 -18 12.5 -29 t32.5 -11q35 0 84 33l68 208q30 93 44 150l117 6l11 -20q-8 -22 -19 -53t-19 -52t-11 -31z" />
<glyph unicode="v" horiz-adv-x="513" d="M308 367l-19 20q37 95 106 95q47 0 76.5 -35.5t29.5 -102.5q0 -103 -69 -209q-54 -82 -105 -114.5t-116 -32.5t-101.5 33.5t-36.5 81.5q0 35 12 61t42 67l20 28q24 34 24 70q0 22 -12 35t-29 13q-42 0 -84 -62l-28 14l17 46q40 107 121 107q38 0 63.5 -28.5t25.5 -78.5 q0 -19 -6 -39t-12.5 -33.5t-21.5 -43.5l-9 -17q-20 -37 -20 -67q0 -32 24.5 -53.5t68.5 -21.5q79 0 123 67q31 47 31 110q0 52 -18.5 80t-46.5 28q-19 0 -50 -18z" />
<glyph unicode="w" horiz-adv-x="668" d="M472 482q59 0 99 -61t40 -179q0 -121 -40.5 -187.5t-107.5 -66.5q-48 0 -78 31t-37 92h-4q-62 -123 -155 -123q-56 0 -88 28t-32 77q0 31 16.5 63t55.5 81l21 26q24 30 24 61q0 24 -14 38.5t-35 14.5q-41 0 -85 -54l-24 17l15 34q23 53 55 80.5t66 27.5q44 0 72.5 -29.5 t28.5 -76.5q0 -29 -11 -53t-40 -62l-15 -20q-31 -41 -31 -77q0 -27 19 -44t51 -17q46 0 94 45q-10 33 -10 67q0 42 16 65t37 23q19 0 31.5 -15.5t12.5 -43.5q0 -55 -43 -107q35 -34 86 -34q42 0 70.5 37t28.5 98q0 66 -32 102.5t-77 36.5q-36 0 -71 -22l-18 21l9 20 q39 86 100 86z" />
<glyph unicode="x" horiz-adv-x="559" d="M328 337l5 -34l87 130q33 49 79 49q27 0 45.5 -19t18.5 -49q0 -29 -16.5 -46.5t-45.5 -17.5h-6q-6 24 -30 24q-22 0 -51 -32l-74 -84l24 -154q5 -37 32 -37q18 0 32.5 18t40.5 77l33 -12l-10 -31q-21 -67 -50.5 -99t-84.5 -32q-91 0 -109 114l-11 70l-90 -141 q-28 -43 -81 -43q-27 0 -45.5 17.5t-18.5 45.5t17.5 46.5t44.5 23.5q19 -22 42 -22q28 0 54 32l70 85l-23 145q-6 42 -31 42q-37 0 -57 -88l-35 4l5 33q10 64 40.5 97t78.5 33q51 0 80 -34.5t40 -110.5z" />
<glyph unicode="y" horiz-adv-x="501" d="M178 482q82 0 89 -98l18 -277l87 140q37 60 37 108q0 33 -30 51q0 30 17.5 53t47.5 23q27 0 45 -19t18 -48q0 -37 -30 -85l-223 -351q-131 -206 -280 -206q-63 0 -95.5 25t-32.5 64q0 29 20.5 48t47.5 19t52 -20q6 -69 67 -69q67 0 141 99l-25 432q-2 24 -20 24 q-13 0 -31.5 -16t-55.5 -59l-28 20l35 51q61 91 129 91z" />
<glyph unicode="z" horiz-adv-x="464" d="M78 327l-26 14l51 129l80 -2h179l87 2l5 -25l-317 -311q31 13 58 13q48 0 89 -47l29 -34q25 -30 53 -30q24 0 48 24l11 11l25 -21q-34 -54 -64 -78t-73 -24q-32 0 -55 10t-47 40l-48 60q-24 29 -44 29q-11 0 -20.5 -9.5t-9.5 -26.5q0 -18 21 -39q-11 -39 -52 -39 q-21 0 -36 15t-15 42q0 22 14 43.5t50 57.5l236 232h-155q-25 0 -40.5 -8t-33.5 -28z" />
<glyph unicode="{" horiz-adv-x="350" d="M14 276h30q49 0 75 23t39 68q10 34 20.5 108t20.5 112q18 67 68.5 104.5t126.5 37.5h72l-16 -54h-40q-39 0 -68 -21t-39 -57q-11 -42 -21.5 -117.5t-22.5 -117.5q-15 -54 -47 -79.5t-89 -37.5q68 -29 68 -90q0 -25 -11 -60q-7 -24 -34.5 -84t-38.5 -101q-4 -13 -4 -29 q0 -24 16.5 -39t45.5 -15h42l-16 -54h-50q-61 0 -97 31.5t-36 79.5q0 32 16 80q3 9 29.5 70.5t37.5 100.5q6 21 6 37q0 27 -15 40.5t-53 13.5h-30z" />
<glyph unicode="|" horiz-adv-x="250" d="M216 729h63l-238 -956h-63z" />
<glyph unicode="}" horiz-adv-x="350" d="M343 226h-30q-49 0 -75 -23t-39 -68q-10 -34 -20.5 -108t-20.5 -112q-18 -67 -68.5 -104.5t-126.5 -37.5h-72l16 54h40q39 0 68 21t39 57q11 42 21.5 117.5t22.5 117.5q15 54 47 79.5t89 37.5q-68 29 -68 90q0 25 11 60q7 24 34.5 84t38.5 101q4 13 4 29q0 24 -16.5 39 t-45.5 15h-42l16 54h50q61 0 97 -31.5t36 -79.5q0 -32 -16 -80q-3 -9 -29.5 -70.5t-37.5 -100.5q-6 -21 -6 -37q0 -27 15 -40.5t53 -13.5h30z" />
<glyph unicode="~" d="M179 334q-24 0 -40.5 -13t-36.5 -48l-47 25q42 96 124 96q34 0 104 -34q63 -30 90 -30q24 0 40.5 13t36.5 48l47 -25q-42 -96 -124 -96q-39 0 -107 33q-65 31 -87 31z" />
<glyph unicode="&#xa1;" horiz-adv-x="250" d="M300 597q0 -34 -23.5 -57t-57.5 -23t-56.5 23t-22.5 57q0 35 22 57.5t57 22.5q34 0 57.5 -22.5t23.5 -57.5zM164 450h48l-61 -450h-152z" />
<glyph unicode="&#xa2;" horiz-adv-x="435" d="M428 665h45l-90 -200q47 -26 47 -80q0 -26 -16.5 -43t-44.5 -17q-25 0 -42 15l-113 -250q16 -6 37 -6q59 0 105 63l28 -18q-48 -141 -176 -141q-14 0 -38 4l-99 -219h-45l104 232q-93 47 -93 169q0 148 106 241q76 67 160 67q21 0 41 -3zM284 437q-42 0 -82 -53 q-48 -65 -48 -177q0 -61 26 -93l137 305q-9 18 -33 18z" />
<glyph unicode="&#xa3;" horiz-adv-x="601" d="M539 122q0 -65 -45.5 -99.5t-115.5 -34.5q-73 0 -129 33l-34 20q-57 34 -80 34q-43 -87 -91 -87q-16 0 -26 10t-10 26q0 53 116 81q11 27 17 53.5t12 69t9 58.5l6 34h-83v40h90l3 16q27 146 112 231q68 68 147 68q53 0 87 -26t34 -67q0 -24 -14 -38t-37 -14q-30 0 -47 22 q-7 70 -62 70q-24 0 -42.5 -18.5t-26.5 -49.5q-9 -35 -14 -94t-8 -77l-4 -23h113v-40h-121q-26 -110 -128 -208q26 11 59 11q46 0 95 -27l50 -27q37 -20 67 -20q17 0 27 10t10 25q0 20 -14 31t-35 12q-12 12 -12 35q0 22 15 37t38 15q30 0 51 -25t21 -67z" />
<glyph unicode="&#xa5;" horiz-adv-x="628" d="M95 352l11 40h124l-26 115q-16 67 -31 116l-64 11l5 29l119 -2l155 2l-5 -29l-72 -11q14 -78 23 -116l37 -165l133 165q34 41 86 116l-73 11l5 29l105 -2l101 2l-5 -29l-68 -11q-38 -43 -99 -116l-93 -115h134l-11 -40h-155l-43 -53l-8 -27h179l-11 -40h-180l-22 -76 q-13 -45 -31 -116l86 -11l-4 -29l-156 2l-157 -2l4 29l92 11q13 39 35 116l22 76h-180l11 40h181l5 16l-15 64h-144z" />
<glyph unicode="&#xa6;" horiz-adv-x="250" d="M62 109h63l-84 -336h-63zM216 729h63l-84 -336h-63z" />
<glyph unicode="&#xa7;" horiz-adv-x="519" d="M457 236q0 -107 -129 -143q64 -59 64 -146q0 -82 -58 -128t-166 -46q-90 0 -148 45l-29 -33h-37l50 245h31v-47q0 -79 35 -123.5t102 -44.5q55 0 87 27.5t32 67.5q0 30 -13.5 53.5t-46.5 49.5l-94 74q-77 60 -77 132q0 55 34.5 97t92.5 67q-47 53 -47 117q0 79 57 127 t148 48q73 0 129 -42l24 32h33l-31 -213h-32l-2 42q-4 68 -35.5 103.5t-79.5 35.5q-47 0 -77.5 -27.5t-30.5 -68.5q0 -47 43 -81l91 -72q80 -63 80 -148zM318 274l-101 79q-56 -35 -56 -83q0 -43 38 -73l98 -77q60 29 60 82q0 41 -39 72z" />
<glyph unicode="&#xa8;" horiz-adv-x="600" d="M132 653q0 29 20.5 49.5t48.5 20.5q31 0 52 -20.5t21 -49.5q0 -30 -21 -50.5t-52 -20.5q-28 0 -48.5 20.5t-20.5 50.5zM326 653q0 29 21 49.5t49 20.5q30 0 50.5 -20.5t20.5 -49.5q0 -30 -20 -50.5t-51 -20.5q-28 0 -49 20.5t-21 50.5z" />
<glyph unicode="&#xa9;" horiz-adv-x="784" d="M435 500q-45 0 -73 -42t-28 -116q0 -72 29 -111.5t79 -39.5q29 0 56.5 21.5t46.5 63.5l30 -12q-32 -141 -161 -141q-80 0 -132.5 55.5t-52.5 143.5q0 100 57 157t147 57q57 0 100 -31l11 25h23l5 -147h-28l-10 35q-24 82 -99 82zM72 332q0 146 100 244.5t244 98.5 q150 0 249 -98.5t99 -244.5q0 -145 -99 -244.5t-241 -99.5q-154 0 -253 97t-99 247zM141 332q0 -124 79.5 -202.5t204.5 -78.5q113 0 191.5 80.5t78.5 200.5q0 121 -78.5 200.5t-200.5 79.5q-116 0 -195.5 -80t-79.5 -200z" />
<glyph unicode="&#xaa;" horiz-adv-x="384" d="M290 192q-29 0 -45.5 15.5t-16.5 42.5q-49 -58 -96 -58q-40 0 -64.5 27.5t-24.5 82.5t23 105.5t61 83.5q54 47 127 47q49 0 94 -28l34 28l25 -12q-29 -74 -44 -118l-42 -124q-7 -19 -7 -29q0 -15 15 -15q17 0 38 11l21 11l14 -24q-55 -46 -112 -46zM286 454l-26 50 q-3 2 -11 2q-42 0 -77.5 -57.5t-35.5 -136.5q0 -60 36 -60q27 0 61 42z" />
<glyph unicode="&#xab;" horiz-adv-x="470" d="M26 188q0 66 37 109q50 60 190 105l9 -30q-76 -37 -105.5 -65t-29.5 -58q0 -47 60 -57q14 -21 14 -49q0 -32 -21.5 -52.5t-53.5 -20.5q-43 0 -71.5 31.5t-28.5 86.5zM246 188q0 66 37 109q50 60 190 105l9 -30q-76 -37 -105.5 -65t-29.5 -58q0 -47 60 -57q14 -21 14 -49 q0 -32 -21.5 -52.5t-53.5 -20.5q-43 0 -71.5 31.5t-28.5 86.5z" />
<glyph unicode="&#xac;" d="M433 218v168h-376v60h436v-228h-60z" />
<glyph unicode="&#xad;" horiz-adv-x="250" d="M1 197l20 83h230l-21 -83h-229z" />
<glyph unicode="&#xae;" horiz-adv-x="784" d="M390 359h13q66 0 66 71q0 33 -18.5 53t-48.5 20h-12v-144zM563 434q0 -76 -83 -95v-4q33 -22 63 -76l14 -25q4 -7 16.5 -31t19.5 -37l21 -9v-23l-105 2l-85 165q-14 26 -34 26v-98q0 -31 1 -64l42 -7v-24l-90 2l-95 -2v24l43 7q1 29 1 64v211q0 47 -1 64l-43 6v25l95 -1 q22 0 44.5 0.5t31.5 0.5q68 0 106 -28t38 -73zM72 332q0 146 100 244.5t244 98.5q150 0 249 -98.5t99 -244.5q0 -145 -99 -244.5t-241 -99.5q-154 0 -253 97t-99 247zM141 332q0 -124 79.5 -202.5t204.5 -78.5q113 0 191.5 80.5t78.5 200.5q0 121 -78.5 200.5t-200.5 79.5 q-116 0 -195.5 -80t-79.5 -200z" />
<glyph unicode="&#xaf;" horiz-adv-x="600" d="M436 615h-292l19 76h292z" />
<glyph unicode="&#xb0;" horiz-adv-x="422" d="M110 503q0 71 50 121.5t121 50.5q70 0 120.5 -51t50.5 -121q0 -71 -50.5 -120.5t-120.5 -49.5q-71 0 -121 49.5t-50 120.5zM183 502q0 -42 27 -70.5t69 -28.5t70 28.5t28 70.5t-28 71.5t-70 29.5t-69 -29t-27 -72z" />
<glyph unicode="&#xb1;" d="M305 234h-60v138h-188v60h188v138h60v-138h188v-60h-188v-138zM493 129h-436v60h436v-60z" />
<glyph unicode="&#xb2;" horiz-adv-x="350" d="M338 355l22 -15l-35 -85l-99 1h-108l-71 -1l2 33l152 135q81 72 108 107t27 65q0 27 -13 43.5t-35 16.5q-49 0 -108 -64l-26 19q67 117 164 117q51 0 83.5 -32t32.5 -84q0 -46 -33.5 -86t-140.5 -118l-97 -71h98q48 0 77 19z" />
<glyph unicode="&#xb3;" horiz-adv-x="343" d="M181 247q-50 0 -76 13q-35 20 -35 52q0 18 13 30.5t33 12.5q22 0 35 -12q0 -62 48 -62q34 0 53 21t19 55q0 52 -47 107l-17 20l6 23l33 14q86 36 86 85q0 47 -44 47q-45 0 -93 -50l-27 18q57 106 145 106q46 0 75.5 -27t29.5 -68q0 -37 -24.5 -63t-81.5 -51l-9 -4l9 -11 q47 -57 47 -116q0 -62 -50 -101t-128 -39z" />
<glyph unicode="&#xb4;" horiz-adv-x="600" d="M219 538l75 210h100l-107 -210h-68z" />
<glyph unicode="&#xb5;" horiz-adv-x="549" d="M107 -2l-20 -203l-134 -22l-17 8l216 629l-82 12v31l204 29l21 -15q-41 -110 -62 -169l-44 -125q-13 -36 -13 -56q0 -18 12.5 -29t32.5 -11q35 0 84 33l68 208q30 93 44 150l117 6l11 -20q-8 -22 -19 -53t-19 -52t-11 -31l-54 -165q-19 -58 -19 -81q0 -32 34 -32 q11 0 38 5l18 3l4 -28q-64 -32 -121 -32q-41 0 -65 22t-24 65q-81 -87 -152 -87q-26 0 -48 10z" />
<glyph unicode="&#xb6;" horiz-adv-x="565" d="M578 617l-241 -843h-48l241 843h-82l-241 -843h-48l148 517q-87 0 -139 38.5t-52 115.5q0 96 69.5 158t188.5 62h272l-14 -48h-54z" />
<glyph unicode="&#xb7;" horiz-adv-x="250" d="M56 282q0 34 23.5 57t57.5 23t56.5 -23t22.5 -57q0 -35 -22 -57.5t-57 -22.5q-34 0 -57.5 22.5t-23.5 57.5z" />
<glyph unicode="&#xb8;" horiz-adv-x="600" d="M219 -102l107 162l37 -3l-58 -88q53 -35 53 -94q0 -50 -36.5 -80t-104.5 -32l-1 29q50 15 50 51q0 17 -10 29t-37 26z" />
<glyph unicode="&#xb9;" horiz-adv-x="288" d="M143 365l80 284l-53 10l2 19l154 50l18 -10l-102 -355q-11 -37 -21 -76l65 -8l-4 -24l-117 1l-120 -1l4 24l70 8q22 70 24 78z" />
<glyph unicode="&#xba;" horiz-adv-x="379" d="M284 406q0 100 -49 100q-21 0 -38 -18q-45 -48 -45 -165q0 -99 50 -99q21 0 36 15q46 44 46 167zM50 348q0 98 82 157q46 33 105 33q65 0 107 -44t42 -111q0 -102 -82 -158q-46 -33 -106 -33q-66 0 -107 44.5t-41 111.5z" />
<glyph unicode="&#xbb;" horiz-adv-x="470" d="M246 284q0 -66 -37 -109q-50 -60 -190 -105l-9 30q76 37 105.5 65t29.5 58q0 47 -60 57q-14 21 -14 49q0 32 21.5 52.5t53.5 20.5q43 0 71.5 -31.5t28.5 -86.5zM466 284q0 -66 -37 -109q-50 -60 -190 -105l-9 30q76 37 105.5 65t29.5 58q0 47 -60 57q-14 21 -14 49 q0 32 21.5 52.5t53.5 20.5q43 0 71.5 -31.5t28.5 -86.5z" />
<glyph unicode="&#xbc;" horiz-adv-x="851" d="M123 309l80 284l-53 10l2 19l154 50l18 -10l-102 -355q-11 -37 -21 -76l65 -8l-4 -24l-117 1l-120 -1l4 24l70 8q22 70 24 78zM771 694l-602 -769l-54 40l602 770zM764 143l-10 -37q-7 -26 -25 -105l-92 -4l-9 17l37 129h-170l3 33q113 147 267 289h92l-77 -266 q23 0 46 23l20 -13l-28 -66h-54zM681 199l54 186q-116 -118 -167 -186h113z" />
<glyph unicode="&#xbd;" horiz-adv-x="876" d="M123 309l80 284l-53 10l2 19l154 50l18 -10l-102 -355q-11 -37 -21 -76l65 -8l-4 -24l-117 1l-120 -1l4 24l70 8q22 70 24 78zM771 694l-602 -769l-54 40l602 770zM800 100l22 -15l-35 -85l-99 1h-108l-71 -1l2 33l152 135q81 72 108 107t27 65q0 27 -13 43.5t-35 16.5 q-49 0 -108 -64l-26 19q67 117 164 117q51 0 83.5 -32t32.5 -84q0 -46 -33.5 -86t-140.5 -118l-97 -71h98q48 0 77 19z" />
<glyph unicode="&#xbe;" horiz-adv-x="906" d="M161 192q-50 0 -76 13q-35 20 -35 52q0 18 13 30.5t33 12.5q22 0 35 -12q0 -62 48 -62q34 0 53 21t19 55q0 52 -47 107l-17 20l6 23l33 14q86 36 86 85q0 47 -44 47q-45 0 -93 -50l-27 18q57 106 145 106q46 0 75.5 -27t29.5 -68q0 -37 -24.5 -63t-81.5 -51l-9 -4l9 -11 q47 -57 47 -116q0 -62 -50 -101t-128 -39zM826 694l-602 -769l-54 40l602 770zM819 143l-10 -37q-7 -26 -25 -105l-92 -4l-9 17l37 129h-170l3 33q113 147 267 289h92l-77 -266q23 0 46 23l20 -13l-28 -66h-54zM736 199l54 186q-116 -118 -167 -186h113z" />
<glyph unicode="&#xbf;" horiz-adv-x="318" d="M80 277l74 80q30 32 40 48.5t10 36.5v6h35q24 -32 24 -72q0 -34 -16 -62.5t-54 -67.5l-62 -63q-64 -64 -64 -101q0 -16 9 -25t23 -9q40 0 53 63q12 9 37 9t40.5 -14.5t15.5 -36.5q0 -35 -29.5 -58t-81.5 -23q-62 0 -96 37.5t-34 97.5q0 72 76 154zM335 595 q0 -34 -23.5 -57t-57.5 -23t-56.5 23t-22.5 57q0 35 22 57.5t57 22.5q34 0 57.5 -22.5t23.5 -57.5z" />
<glyph unicode="&#xc0;" horiz-adv-x="630" d="M215 200l-37 -44q-35 -42 -89 -116l68 -11l-6 -29l-102 2l-89 -2l6 29l60 11q63 72 98 116l421 519h47l-61 -519q-9 -67 -11 -116l56 -11l-6 -29l-123 2l-141 -2l6 29l79 11q8 42 17 116l5 44h-198zM247 240h170l28 244zM552 879l97 -150h-79l-126 150h108z" />
<glyph unicode="&#xc1;" horiz-adv-x="630" d="M215 200l-37 -44q-35 -42 -89 -116l68 -11l-6 -29l-102 2l-89 -2l6 29l60 11q63 72 98 116l421 519h47l-61 -519q-9 -67 -11 -116l56 -11l-6 -29l-123 2l-141 -2l6 29l79 11q8 42 17 116l5 44h-198zM247 240h170l28 244zM516 729l117 150h110l-146 -150h-81z" />
<glyph unicode="&#xc2;" horiz-adv-x="630" d="M215 200l-37 -44q-35 -42 -89 -116l68 -11l-6 -29l-102 2l-89 -2l6 29l60 11q63 72 98 116l421 519h47l-61 -519q-9 -67 -11 -116l56 -11l-6 -29l-123 2l-141 -2l6 29l79 11q8 42 17 116l5 44h-198zM247 240h170l28 244zM407 729l168 150h75l94 -150h-62l-80 71l-117 -71 h-78z" />
<glyph unicode="&#xc3;" horiz-adv-x="630" d="M215 200l-37 -44q-35 -42 -89 -116l68 -11l-6 -29l-102 2l-89 -2l6 29l60 11q63 72 98 116l421 519h47l-61 -519q-9 -67 -11 -116l56 -11l-6 -29l-123 2l-141 -2l6 29l79 11q8 42 17 116l5 44h-198zM247 240h170l28 244zM649 724q-37 0 -82 26l-27 16q-19 10 -37 10 q-14 0 -24.5 -10.5t-10.5 -34.5h-58v26q0 53 27.5 79t67.5 26q31 0 72 -22l32 -18q23 -12 42 -12q14 0 24.5 10.5t10.5 34.5h58v-26q0 -53 -27.5 -79t-67.5 -26z" />
<glyph unicode="&#xc4;" horiz-adv-x="630" d="M215 200l-37 -44q-35 -42 -89 -116l68 -11l-6 -29l-102 2l-89 -2l6 29l60 11q63 72 98 116l421 519h47l-61 -519q-9 -67 -11 -116l56 -11l-6 -29l-123 2l-141 -2l6 29l79 11q8 42 17 116l5 44h-198zM247 240h170l28 244zM407 793q0 29 20.5 49.5t48.5 20.5q31 0 52 -20.5 t21 -49.5q0 -30 -21 -50.5t-52 -20.5q-28 0 -48.5 20.5t-20.5 50.5zM601 793q0 29 21 49.5t49 20.5q31 0 51 -20.5t20 -49.5q0 -30 -20 -50.5t-51 -20.5q-28 0 -49 20.5t-21 50.5z" />
<glyph unicode="&#xc5;" horiz-adv-x="630" d="M467 790q0 52 36 88.5t87 36.5q52 0 88.5 -36.5t36.5 -88.5q0 -51 -36.5 -87t-87.5 -36l-60 -511q-9 -67 -11 -116l56 -11l-6 -29l-123 2l-141 -2l6 29l79 11q8 42 17 116l5 44h-198l-37 -44q-35 -42 -89 -116l68 -11l-6 -29l-102 2l-89 -2l6 29l60 11q63 72 98 116 l421 519q-34 13 -56 44.5t-22 70.5zM247 240h170l28 244zM535 789q0 -25 14.5 -40.5t39.5 -15.5t41 15.5t16 40.5q0 26 -16 42.5t-41 16.5q-23 0 -38.5 -16.5t-15.5 -42.5z" />
<glyph unicode="&#xc6;" horiz-adv-x="972" d="M358 0l4 29l100 11q16 56 31 116l18 74h-235l-71 -71q-66 -66 -115 -119l57 -11l-4 -29l-90 2l-100 -2l8 29l58 11q43 39 120 116l465 466l-92 14l4 29l147 -2h167l142 2l-16 -198h-28l-5 53q-5 57 -31 80t-89 23h-62l-66 -263h20q38 0 75 2l64 137h32l-41 -157l-37 -163 h-30l4 139q-37 2 -77 2h-20l-69 -278h120q115 0 177 110l33 58h30l-62 -210l-112 2h-255zM589 538l-273 -268h205z" />
<glyph unicode="&#xc7;" horiz-adv-x="570" d="M304 -102l74 111q-45 -21 -99 -21q-99 0 -159.5 69t-60.5 187q0 207 136 340q94 91 209 91q92 0 151 -57l41 32l21 -16l-73 -205l-26 3v38q0 163 -114 163q-71 0 -130 -77q-91 -119 -91 -289q0 -90 37 -132t96 -42q45 0 85 22.5t87 89.5l29 -19q-23 -58 -82 -149l-45 -68 q53 -35 53 -94q0 -50 -36.5 -80t-104.5 -32l-1 29q50 15 50 51q0 17 -10 29t-37 26z" />
<glyph unicode="&#xc8;" horiz-adv-x="562" d="M-38 0l4 29l80 11q16 56 31 116l89 353q8 32 26 116l-76 11l4 29l147 -2h147l142 2l-16 -198h-28l-5 53q-5 57 -31 80t-89 23h-62l-66 -263h20q38 0 75 2l64 137h32l-41 -157l-37 -163h-30l4 139q-72 2 -77 2h-20l-69 -278h120q115 0 177 110l33 58h30l-62 -210l-112 2 h-255zM373 879l97 -150h-79l-126 150h108z" />
<glyph unicode="&#xc9;" horiz-adv-x="562" d="M-38 0l4 29l80 11q16 56 31 116l89 353q8 32 26 116l-76 11l4 29l147 -2h147l142 2l-16 -198h-28l-5 53q-5 57 -31 80t-89 23h-62l-66 -263h20q38 0 75 2l64 137h32l-41 -157l-37 -163h-30l4 139q-72 2 -77 2h-20l-69 -278h120q115 0 177 110l33 58h30l-62 -210l-112 2 h-255zM317 729l117 150h110l-146 -150h-81z" />
<glyph unicode="&#xca;" horiz-adv-x="562" d="M-38 0l4 29l80 11q16 56 31 116l89 353q8 32 26 116l-76 11l4 29l147 -2h147l142 2l-16 -198h-28l-5 53q-5 57 -31 80t-89 23h-62l-66 -263h20q38 0 75 2l64 137h32l-41 -157l-37 -163h-30l4 139q-72 2 -77 2h-20l-69 -278h120q115 0 177 110l33 58h30l-62 -210l-112 2 h-255zM208 729l168 150h75l94 -150h-62l-80 71l-117 -71h-78z" />
<glyph unicode="&#xcb;" horiz-adv-x="562" d="M-38 0l4 29l80 11q16 56 31 116l89 353q8 32 26 116l-76 11l4 29l147 -2h147l142 2l-16 -198h-28l-5 53q-5 57 -31 80t-89 23h-62l-66 -263h20q38 0 75 2l64 137h32l-41 -157l-37 -163h-30l4 139q-72 2 -77 2h-20l-69 -278h120q115 0 177 110l33 58h30l-62 -210l-112 2 h-255zM228 793q0 29 20.5 49.5t48.5 20.5q31 0 52 -20.5t21 -49.5q0 -30 -21 -50.5t-52 -20.5q-28 0 -48.5 20.5t-20.5 50.5zM422 793q0 29 21 49.5t49 20.5q30 0 50.5 -20.5t20.5 -49.5q0 -30 -20 -50.5t-51 -20.5q-28 0 -49 20.5t-21 50.5z" />
<glyph unicode="&#xcc;" horiz-adv-x="325" d="M302 509l-88 -353q-20 -83 -27 -116l77 -11l-5 -29l-148 2l-143 -2l3 29l81 11q16 56 31 116l88 353q15 60 27 116l-76 11l5 29l147 -2l146 2l-5 -29l-82 -11q-20 -69 -31 -116zM275 879l97 -150h-79l-126 150h108z" />
<glyph unicode="&#xcd;" horiz-adv-x="325" d="M302 509l-88 -353q-20 -83 -27 -116l77 -11l-5 -29l-148 2l-143 -2l3 29l81 11q16 56 31 116l88 353q15 60 27 116l-76 11l5 29l147 -2l146 2l-5 -29l-82 -11q-20 -69 -31 -116zM219 729l117 150h110l-146 -150h-81z" />
<glyph unicode="&#xce;" horiz-adv-x="325" d="M302 509l-88 -353q-20 -83 -27 -116l77 -11l-5 -29l-148 2l-143 -2l3 29l81 11q16 56 31 116l88 353q15 60 27 116l-76 11l5 29l147 -2l146 2l-5 -29l-82 -11q-20 -69 -31 -116zM110 729l168 150h75l94 -150h-62l-80 71l-117 -71h-78z" />
<glyph unicode="&#xcf;" horiz-adv-x="325" d="M302 509l-88 -353q-20 -83 -27 -116l77 -11l-5 -29l-148 2l-143 -2l3 29l81 11q16 56 31 116l88 353q15 60 27 116l-76 11l5 29l147 -2l146 2l-5 -29l-82 -11q-20 -69 -31 -116zM130 793q0 29 20.5 49.5t48.5 20.5q31 0 52 -20.5t21 -49.5q0 -30 -21 -50.5t-52 -20.5 q-28 0 -48.5 20.5t-20.5 50.5zM324 793q0 29 21 49.5t49 20.5q30 0 50.5 -20.5t20.5 -49.5q0 -30 -20 -50.5t-51 -20.5q-28 0 -49 20.5t-21 50.5z" />
<glyph unicode="&#xd0;" horiz-adv-x="664" d="M382 665q140 0 214 -73t74 -199q0 -169 -120.5 -281t-323.5 -112q-16 0 -54.5 1t-58.5 1l-150 -2l5 29l82 11q13 39 35 116l47 164h-81l12 40h80l43 149q21 72 32 116l-76 11l5 29l147 -2q13 0 46.5 1t41.5 1zM379 625q-18 0 -29 -2l-75 -263h140l-12 -40h-140l-79 -277 q21 -3 25 -3q106 0 183.5 54.5t113.5 136.5t36 178q0 102 -41.5 159t-121.5 57z" />
<glyph unicode="&#xd1;" horiz-adv-x="687" d="M515 -12h-32l-242 563l-124 -395q-7 -24 -30 -116l72 -11l-4 -29l-92 2l-111 -2l4 29l79 11q8 25 15.5 47.5t13.5 42t8 26.5l135 434l-68 46l9 29l185 -2l197 -465l97 311q10 30 31 114l-72 13l5 29l92 -2l113 2l-5 -29l-80 -13q-23 -69 -36 -114zM565 724q-37 0 -82 26 l-27 16q-19 10 -37 10q-14 0 -24.5 -10.5t-10.5 -34.5h-58v26q0 53 27.5 79t67.5 26q31 0 72 -22l32 -18q23 -12 42 -12q14 0 24.5 10.5t10.5 34.5h58v-26q0 -53 -27.5 -79t-67.5 -26z" />
<glyph unicode="&#xd2;" horiz-adv-x="708" d="M329 30q84 0 148 98q83 125 83 310q0 98 -35.5 146.5t-93.5 48.5q-83 0 -155 -104q-83 -121 -83 -304q0 -96 37.5 -145.5t98.5 -49.5zM323 -12q-120 0 -193.5 77.5t-73.5 212.5q0 171 116 288q107 109 261 109q115 0 189.5 -80.5t74.5 -212.5q0 -174 -109 -286 q-51 -52 -120.5 -80t-144.5 -28zM464 879l97 -150h-79l-126 150h108z" />
<glyph unicode="&#xd3;" horiz-adv-x="708" d="M329 30q84 0 148 98q83 125 83 310q0 98 -35.5 146.5t-93.5 48.5q-83 0 -155 -104q-83 -121 -83 -304q0 -96 37.5 -145.5t98.5 -49.5zM323 -12q-120 0 -193.5 77.5t-73.5 212.5q0 171 116 288q107 109 261 109q115 0 189.5 -80.5t74.5 -212.5q0 -174 -109 -286 q-51 -52 -120.5 -80t-144.5 -28zM408 729l117 150h110l-146 -150h-81z" />
<glyph unicode="&#xd4;" horiz-adv-x="708" d="M329 30q84 0 148 98q83 125 83 310q0 98 -35.5 146.5t-93.5 48.5q-83 0 -155 -104q-83 -121 -83 -304q0 -96 37.5 -145.5t98.5 -49.5zM323 -12q-120 0 -193.5 77.5t-73.5 212.5q0 171 116 288q107 109 261 109q115 0 189.5 -80.5t74.5 -212.5q0 -174 -109 -286 q-51 -52 -120.5 -80t-144.5 -28zM299 729l168 150h75l94 -150h-62l-80 71l-117 -71h-78z" />
<glyph unicode="&#xd5;" horiz-adv-x="708" d="M329 30q84 0 148 98q83 125 83 310q0 98 -35.5 146.5t-93.5 48.5q-83 0 -155 -104q-83 -121 -83 -304q0 -96 37.5 -145.5t98.5 -49.5zM323 -12q-120 0 -193.5 77.5t-73.5 212.5q0 171 116 288q107 109 261 109q115 0 189.5 -80.5t74.5 -212.5q0 -174 -109 -286 q-51 -52 -120.5 -80t-144.5 -28zM561 724q-37 0 -82 26l-27 16q-19 10 -37 10q-14 0 -24.5 -10.5t-10.5 -34.5h-58v26q0 53 27.5 79t67.5 26q31 0 72 -22l32 -18q23 -12 42 -12q14 0 24.5 10.5t10.5 34.5h58v-26q0 -53 -27.5 -79t-67.5 -26z" />
<glyph unicode="&#xd6;" horiz-adv-x="708" d="M329 30q84 0 148 98q83 125 83 310q0 98 -35.5 146.5t-93.5 48.5q-83 0 -155 -104q-83 -121 -83 -304q0 -96 37.5 -145.5t98.5 -49.5zM323 -12q-120 0 -193.5 77.5t-73.5 212.5q0 171 116 288q107 109 261 109q115 0 189.5 -80.5t74.5 -212.5q0 -174 -109 -286 q-51 -52 -120.5 -80t-144.5 -28zM319 793q0 29 20.5 49.5t48.5 20.5q31 0 52 -20.5t21 -49.5q0 -30 -21 -50.5t-52 -20.5q-28 0 -48.5 20.5t-20.5 50.5zM513 793q0 29 21 49.5t49 20.5q31 0 51 -20.5t20 -49.5q0 -30 -20 -50.5t-51 -20.5q-28 0 -49 20.5t-21 50.5z" />
<glyph unicode="&#xd7;" d="M143 157l-42 42l133 133l-133 133l42 42l133 -133l133 133l42 -42l-133 -133l133 -133l-42 -42l-133 133z" />
<glyph unicode="&#xd8;" horiz-adv-x="708" d="M33 -52l-28 28l106 111q-55 75 -55 191q0 171 116 288q107 109 261 109q104 0 177 -68l104 108l29 -28l-106 -110q60 -79 60 -195q0 -174 -109 -286q-51 -52 -120.5 -80t-144.5 -28q-114 0 -185 69zM329 30q84 0 148 98q83 125 83 310q0 32 -4 55l-350 -365 q32 -98 123 -98zM193 225q0 -27 3 -50l350 365q-31 93 -115 93q-83 0 -155 -104q-83 -121 -83 -304z" />
<glyph unicode="&#xd9;" horiz-adv-x="674" d="M107 306l58 203q21 72 32 116l-76 11l4 29l147 -2l146 2l-4 -29l-82 -11q-8 -27 -20 -65t-16 -51l-72 -253q-17 -59 -17 -90q0 -48 28.5 -75t80.5 -27q77 0 132 48.5t82 141.5l73 254q16 54 31 115l-85 13l4 29l112 -2l112 2l-4 -29l-93 -13q-24 -74 -35 -114l-84 -291 q-66 -230 -276 -230q-98 0 -151 47.5t-53 128.5q0 52 26 142zM477 879l97 -150h-79l-126 150h108z" />
<glyph unicode="&#xda;" horiz-adv-x="674" d="M107 306l58 203q21 72 32 116l-76 11l4 29l147 -2l146 2l-4 -29l-82 -11q-8 -27 -20 -65t-16 -51l-72 -253q-17 -59 -17 -90q0 -48 28.5 -75t80.5 -27q77 0 132 48.5t82 141.5l73 254q16 54 31 115l-85 13l4 29l112 -2l112 2l-4 -29l-93 -13q-24 -74 -35 -114l-84 -291 q-66 -230 -276 -230q-98 0 -151 47.5t-53 128.5q0 52 26 142zM421 729l117 150h110l-146 -150h-81z" />
<glyph unicode="&#xdb;" horiz-adv-x="674" d="M107 306l58 203q21 72 32 116l-76 11l4 29l147 -2l146 2l-4 -29l-82 -11q-8 -27 -20 -65t-16 -51l-72 -253q-17 -59 -17 -90q0 -48 28.5 -75t80.5 -27q77 0 132 48.5t82 141.5l73 254q16 54 31 115l-85 13l4 29l112 -2l112 2l-4 -29l-93 -13q-24 -74 -35 -114l-84 -291 q-66 -230 -276 -230q-98 0 -151 47.5t-53 128.5q0 52 26 142zM312 729l168 150h75l94 -150h-62l-80 71l-117 -71h-78z" />
<glyph unicode="&#xdc;" horiz-adv-x="674" d="M107 306l58 203q21 72 32 116l-76 11l4 29l147 -2l146 2l-4 -29l-82 -11q-8 -27 -20 -65t-16 -51l-72 -253q-17 -59 -17 -90q0 -48 28.5 -75t80.5 -27q77 0 132 48.5t82 141.5l73 254q16 54 31 115l-85 13l4 29l112 -2l112 2l-4 -29l-93 -13q-24 -74 -35 -114l-84 -291 q-66 -230 -276 -230q-98 0 -151 47.5t-53 128.5q0 52 26 142zM332 793q0 29 20.5 49.5t48.5 20.5q31 0 52 -20.5t21 -49.5q0 -30 -21 -50.5t-52 -20.5q-28 0 -48.5 20.5t-20.5 50.5zM526 793q0 29 21 49.5t49 20.5q30 0 50.5 -20.5t20.5 -49.5q0 -30 -20 -50.5t-51 -20.5 q-28 0 -49 20.5t-21 50.5z" />
<glyph unicode="&#xdd;" horiz-adv-x="628" d="M556 507l-168 -208l-42 -143q-13 -45 -31 -116l86 -11l-4 -29l-156 2l-157 -2l4 29l92 11q13 39 35 116l39 132l-50 219q-16 67 -31 116l-64 11l5 29l119 -2l155 2l-5 -29l-72 -11q14 -78 23 -116l37 -165l133 165q34 41 86 116l-73 11l5 29l105 -2l101 2l-5 -29l-68 -11 q-38 -43 -99 -116zM387 729l117 150h110l-146 -150h-81z" />
<glyph unicode="&#xde;" horiz-adv-x="538" d="M306 530q5 0 14 0.5t13 0.5q104 0 163 -46.5t59 -126.5q0 -92 -83.5 -148t-262.5 -77l-22 -91l95 -13l-5 -29l-166 2l-143 -2l3 29l81 11q16 56 31 116l88 353q15 60 27 116l-76 11l5 29l147 -2l146 2l-5 -29l-82 -11q-26 -89 -27 -95zM296 489l-79 -319q102 17 158.5 69 t56.5 129q0 57 -27.5 90t-75.5 33q-13 0 -33 -2z" />
<glyph unicode="&#xdf;" horiz-adv-x="563" d="M445 432q-31 -16 -31 -43q0 -11 4.5 -22t11 -20.5t21.5 -31t27 -41.5q48 -77 48 -138q0 -65 -46.5 -106.5t-118.5 -41.5q-63 0 -98 23q-35 24 -35 63q0 24 15.5 40t39.5 16q22 0 45 -17q0 -77 57 -77q39 0 39 42q0 22 -11 48t-44 84q-44 78 -44 127q0 64 59 110l19 15 q67 52 67 128q0 45 -21 71.5t-54 26.5q-72 0 -99 -100l-118 -454q-31 -119 -81 -207t-113 -126q-45 -28 -99 -28q-47 0 -75.5 22t-28.5 58q0 28 17.5 46.5t43.5 18.5q32 0 53 -21q0 -58 47 -58q49 0 70 80q17 62 37 163t32 147l47 181h-61l15 47l65 13q49 187 171 243 q35 16 85 16q82 0 132 -39t50 -101q0 -45 -31 -81t-109 -76z" />
<glyph unicode="&#xe0;" horiz-adv-x="549" d="M299 64q0 9 1 16q-75 -92 -147 -92q-54 0 -87.5 38t-33.5 111q0 84 32 156.5t86 119.5q79 69 178 69q69 0 137 -44l49 44l28 -15q-53 -135 -64 -169l-59 -179q-10 -31 -10 -43q0 -25 26 -25q24 0 56 16l28 14l15 -28q-79 -65 -154 -65q-38 0 -59.5 20.5t-21.5 55.5z M381 362l-36 75q-8 5 -23 5q-63 0 -117 -84.5t-54 -199.5q0 -91 55 -91q46 0 98 65zM389 748l47 -210h-66l-79 210h98z" />
<glyph unicode="&#xe1;" horiz-adv-x="549" d="M299 64q0 9 1 16q-75 -92 -147 -92q-54 0 -87.5 38t-33.5 111q0 84 32 156.5t86 119.5q79 69 178 69q69 0 137 -44l49 44l28 -15q-53 -135 -64 -169l-59 -179q-10 -31 -10 -43q0 -25 26 -25q24 0 56 16l28 14l15 -28q-79 -65 -154 -65q-38 0 -59.5 20.5t-21.5 55.5z M381 362l-36 75q-8 5 -23 5q-63 0 -117 -84.5t-54 -199.5q0 -91 55 -91q46 0 98 65zM350 538l75 210h100l-107 -210h-68z" />
<glyph unicode="&#xe2;" horiz-adv-x="549" d="M299 64q0 9 1 16q-75 -92 -147 -92q-54 0 -87.5 38t-33.5 111q0 84 32 156.5t86 119.5q79 69 178 69q69 0 137 -44l49 44l28 -15q-53 -135 -64 -169l-59 -179q-10 -31 -10 -43q0 -25 26 -25q24 0 56 16l28 14l15 -28q-79 -65 -154 -65q-38 0 -59.5 20.5t-21.5 55.5z M381 362l-36 75q-8 5 -23 5q-63 0 -117 -84.5t-54 -199.5q0 -91 55 -91q46 0 98 65zM215 538l172 210h79l66 -210h-63l-58 124l-121 -124h-75z" />
<glyph unicode="&#xe3;" horiz-adv-x="549" d="M299 64q0 9 1 16q-75 -92 -147 -92q-54 0 -87.5 38t-33.5 111q0 84 32 156.5t86 119.5q79 69 178 69q69 0 137 -44l49 44l28 -15q-53 -135 -64 -169l-59 -179q-10 -31 -10 -43q0 -25 26 -25q24 0 56 16l28 14l15 -28q-79 -65 -154 -65q-38 0 -59.5 20.5t-21.5 55.5z M381 362l-36 75q-8 5 -23 5q-63 0 -117 -84.5t-54 -199.5q0 -91 55 -91q46 0 98 65zM480 580q-37 0 -82 26l-27 16q-19 10 -37 10q-14 0 -24.5 -10.5t-10.5 -34.5h-58v26q0 53 27.5 79t67.5 26q31 0 72 -22l32 -18q23 -12 42 -12q14 0 24.5 10.5t10.5 34.5h58v-26 q0 -53 -27.5 -79t-67.5 -26z" />
<glyph unicode="&#xe4;" horiz-adv-x="549" d="M299 64q0 9 1 16q-75 -92 -147 -92q-54 0 -87.5 38t-33.5 111q0 84 32 156.5t86 119.5q79 69 178 69q69 0 137 -44l49 44l28 -15q-53 -135 -64 -169l-59 -179q-10 -31 -10 -43q0 -25 26 -25q24 0 56 16l28 14l15 -28q-79 -65 -154 -65q-38 0 -59.5 20.5t-21.5 55.5z M381 362l-36 75q-8 5 -23 5q-63 0 -117 -84.5t-54 -199.5q0 -91 55 -91q46 0 98 65zM233 653q0 29 20.5 49.5t48.5 20.5q31 0 52 -20.5t21 -49.5q0 -30 -21 -50.5t-52 -20.5q-28 0 -48.5 20.5t-20.5 50.5zM427 653q0 29 21 49.5t49 20.5q31 0 51 -20.5t20 -49.5 q0 -30 -20 -50.5t-51 -20.5q-28 0 -49 20.5t-21 50.5z" />
<glyph unicode="&#xe5;" horiz-adv-x="549" d="M299 64q0 9 1 16q-75 -92 -147 -92q-54 0 -87.5 38t-33.5 111q0 84 32 156.5t86 119.5q79 69 178 69q69 0 137 -44l49 44l28 -15q-53 -135 -64 -169l-59 -179q-10 -31 -10 -43q0 -25 26 -25q24 0 56 16l28 14l15 -28q-79 -65 -154 -65q-38 0 -59.5 20.5t-21.5 55.5z M381 362l-36 75q-8 5 -23 5q-63 0 -117 -84.5t-54 -199.5q0 -91 55 -91q46 0 98 65zM277 650q0 52 36 88.5t87 36.5q52 0 88.5 -36.5t36.5 -88.5q0 -51 -36.5 -87t-88.5 -36q-51 0 -87 36t-36 87zM345 649q0 -25 14.5 -40.5t39.5 -15.5t41 15.5t16 40.5q0 26 -16 42.5 t-41 16.5q-23 0 -38.5 -16.5t-15.5 -42.5z" />
<glyph unicode="&#xe6;" horiz-adv-x="701" d="M611 290q-60 -32 -173 -72q-1 -6 -1 -25q0 -53 21 -79t53 -26q55 0 108 69l28 -17q-53 -152 -171 -152q-62 0 -101.5 38t-46.5 106q-55 -69 -84 -97q-49 -47 -99 -47q-49 0 -80 37.5t-31 98.5q0 89 41.5 167t109.5 128q86 63 176 63q68 0 116 -34q51 34 105 34 q47 0 75.5 -25t28.5 -68q0 -59 -75 -99zM328 193q10 103 73 186l-23 61q-5 2 -17 2q-76 0 -144.5 -93t-68.5 -212q0 -28 11.5 -46t28.5 -18q25 0 54 24.5t86 95.5zM471 374q-25 -42 -29 -116q81 33 111 62.5t30 61.5q0 19 -11 31t-29 12q-42 0 -72 -51z" />
<glyph unicode="&#xe7;" horiz-adv-x="435" d="M204 -102l66 101q-30 -11 -62 -11q-72 0 -121.5 49.5t-49.5 136.5q0 148 106 241q76 67 160 67q42 0 69 -11q58 -24 58 -86q0 -26 -16.5 -43t-44.5 -17q-36 0 -56 33q9 21 9 39q0 40 -38 40q-42 0 -82 -53q-48 -65 -48 -177q0 -61 25.5 -92t71.5 -31q59 0 105 63l28 -18 q-12 -36 -39 -78l-55 -82q53 -35 53 -94q0 -50 -36.5 -80t-104.5 -32l-1 29q50 15 50 51q0 17 -10 29t-37 26z" />
<glyph unicode="&#xe8;" horiz-adv-x="415" d="M328 279q-69 -27 -179 -53q-3 -23 -3 -52q0 -90 62 -90q55 0 113 62l26 -21q-65 -137 -174 -137q-63 0 -103 41t-40 114q0 131 87 235t184 104q53 0 84 -24.5t31 -68.5q0 -76 -88 -110zM200 378q-31 -44 -44 -113q90 25 123 56t33 68q0 17 -10 28t-27 11t-38 -13.5 t-37 -36.5zM310 748l47 -210h-66l-79 210h98z" />
<glyph unicode="&#xe9;" horiz-adv-x="415" d="M328 279q-69 -27 -179 -53q-3 -23 -3 -52q0 -90 62 -90q55 0 113 62l26 -21q-65 -137 -174 -137q-63 0 -103 41t-40 114q0 131 87 235t184 104q53 0 84 -24.5t31 -68.5q0 -76 -88 -110zM200 378q-31 -44 -44 -113q90 25 123 56t33 68q0 17 -10 28t-27 11t-38 -13.5 t-37 -36.5zM271 538l75 210h100l-107 -210h-68z" />
<glyph unicode="&#xea;" horiz-adv-x="415" d="M328 279q-69 -27 -179 -53q-3 -23 -3 -52q0 -90 62 -90q55 0 113 62l26 -21q-65 -137 -174 -137q-63 0 -103 41t-40 114q0 131 87 235t184 104q53 0 84 -24.5t31 -68.5q0 -76 -88 -110zM200 378q-31 -44 -44 -113q90 25 123 56t33 68q0 17 -10 28t-27 11t-38 -13.5 t-37 -36.5zM136 538l172 210h79l66 -210h-63l-58 124l-121 -124h-75z" />
<glyph unicode="&#xeb;" horiz-adv-x="415" d="M328 279q-69 -27 -179 -53q-3 -23 -3 -52q0 -90 62 -90q55 0 113 62l26 -21q-65 -137 -174 -137q-63 0 -103 41t-40 114q0 131 87 235t184 104q53 0 84 -24.5t31 -68.5q0 -76 -88 -110zM200 378q-31 -44 -44 -113q90 25 123 56t33 68q0 17 -10 28t-27 11t-38 -13.5 t-37 -36.5zM154 653q0 29 20.5 49.5t48.5 20.5q31 0 52 -20.5t21 -49.5q0 -30 -21 -50.5t-52 -20.5q-28 0 -48.5 20.5t-20.5 50.5zM348 653q0 29 21 49.5t49 20.5q30 0 50.5 -20.5t20.5 -49.5q0 -30 -20 -50.5t-51 -20.5q-28 0 -49 20.5t-21 50.5z" />
<glyph unicode="&#xec;" horiz-adv-x="283" d="M142 410l-90 12v31l212 29l21 -15q-41 -102 -65 -169l-62 -179q-13 -36 -13 -48q0 -21 30 -21q18 0 54 12l28 10l13 -29q-86 -55 -167 -55q-39 0 -60 16t-21 44q0 29 16 73zM214 748l47 -210h-66l-79 210h98z" />
<glyph unicode="&#xed;" horiz-adv-x="283" d="M142 410l-90 12v31l212 29l21 -15q-41 -102 -65 -169l-62 -179q-13 -36 -13 -48q0 -21 30 -21q18 0 54 12l28 10l13 -29q-86 -55 -167 -55q-39 0 -60 16t-21 44q0 29 16 73zM175 538l75 210h100l-107 -210h-68z" />
<glyph unicode="&#xee;" horiz-adv-x="283" d="M142 410l-90 12v31l212 29l21 -15q-41 -102 -65 -169l-62 -179q-13 -36 -13 -48q0 -21 30 -21q18 0 54 12l28 10l13 -29q-86 -55 -167 -55q-39 0 -60 16t-21 44q0 29 16 73zM42 538l172 210h79l66 -210h-63l-58 124l-121 -124h-75z" />
<glyph unicode="&#xef;" horiz-adv-x="283" d="M142 410l-90 12v31l212 29l21 -15q-41 -102 -65 -169l-62 -179q-13 -36 -13 -48q0 -21 30 -21q18 0 54 12l28 10l13 -29q-86 -55 -167 -55q-39 0 -60 16t-21 44q0 29 16 73zM58 653q0 29 20.5 49.5t48.5 20.5q31 0 52 -20.5t21 -49.5q0 -30 -21 -50.5t-52 -20.5 q-28 0 -48.5 20.5t-20.5 50.5zM252 653q0 29 21 49.5t49 20.5q30 0 50.5 -20.5t20.5 -49.5q0 -30 -20 -50.5t-51 -20.5q-28 0 -49 20.5t-21 50.5z" />
<glyph unicode="&#xf0;" horiz-adv-x="541" d="M152 565l137 65q-21 27 -61 65l25 32q54 -30 97 -67l108 51l17 -36l-93 -45q134 -142 134 -335q0 -175 -119 -260q-66 -47 -147 -47q-92 0 -150 63.5t-58 158.5q0 143 115 225q66 47 138 47q37 0 68 -12l3 2q-13 67 -53 125l-144 -68zM381 308q0 133 -79 133 q-33 0 -60 -30q-68 -75 -68 -236q0 -147 78 -147q33 0 58 25q71 71 71 255z" />
<glyph unicode="&#xf1;" horiz-adv-x="541" d="M323 152l46 144q12 37 12 57q0 40 -39 40q-36 0 -91 -36l-63 -205q-21 -64 -42 -150l-117 -6l-11 20q40 112 47 136l76 247l-79 13v25l172 45l23 -12l-3 -77q74 89 152 89q50 0 75.5 -29t25.5 -79q0 -31 -16 -82l-46 -141q-20 -61 -20 -81q0 -35 52 -35h29v-26 q-43 -21 -100 -21q-48 0 -74 22.5t-26 56.5q0 32 17 85zM455 580q-37 0 -82 26l-27 16q-19 10 -37 10q-14 0 -24.5 -10.5t-10.5 -34.5h-58v26q0 53 27.5 79t67.5 26q31 0 72 -22l32 -18q23 -12 42 -12q14 0 24.5 10.5t10.5 34.5h58v-26q0 -53 -27.5 -79t-67.5 -26z" />
<glyph unicode="&#xf2;" horiz-adv-x="542" d="M379 294q0 147 -77 147q-33 0 -60 -30q-68 -75 -68 -236q0 -147 78 -147q33 0 58 25q69 69 69 241zM42 210q0 143 115 225q66 47 147 47q90 0 149 -63t59 -158q0 -144 -115 -225q-67 -48 -148 -48q-92 0 -149.5 63.5t-57.5 158.5zM334 748l47 -210h-66l-79 210h98z" />
<glyph unicode="&#xf3;" horiz-adv-x="542" d="M379 294q0 147 -77 147q-33 0 -60 -30q-68 -75 -68 -236q0 -147 78 -147q33 0 58 25q69 69 69 241zM42 210q0 143 115 225q66 47 147 47q90 0 149 -63t59 -158q0 -144 -115 -225q-67 -48 -148 -48q-92 0 -149.5 63.5t-57.5 158.5zM295 538l75 210h100l-107 -210h-68z" />
<glyph unicode="&#xf4;" horiz-adv-x="542" d="M379 294q0 147 -77 147q-33 0 -60 -30q-68 -75 -68 -236q0 -147 78 -147q33 0 58 25q69 69 69 241zM42 210q0 143 115 225q66 47 147 47q90 0 149 -63t59 -158q0 -144 -115 -225q-67 -48 -148 -48q-92 0 -149.5 63.5t-57.5 158.5zM160 538l172 210h79l66 -210h-63 l-58 124l-121 -124h-75z" />
<glyph unicode="&#xf5;" horiz-adv-x="542" d="M379 294q0 147 -77 147q-33 0 -60 -30q-68 -75 -68 -236q0 -147 78 -147q33 0 58 25q69 69 69 241zM42 210q0 143 115 225q66 47 147 47q90 0 149 -63t59 -158q0 -144 -115 -225q-67 -48 -148 -48q-92 0 -149.5 63.5t-57.5 158.5zM420 580q-37 0 -82 26l-27 16 q-19 10 -37 10q-14 0 -24.5 -10.5t-10.5 -34.5h-58v26q0 53 27.5 79t67.5 26q31 0 72 -22l32 -18q23 -12 42 -12q14 0 24.5 10.5t10.5 34.5h58v-26q0 -53 -27.5 -79t-67.5 -26z" />
<glyph unicode="&#xf6;" horiz-adv-x="542" d="M379 294q0 147 -77 147q-33 0 -60 -30q-68 -75 -68 -236q0 -147 78 -147q33 0 58 25q69 69 69 241zM42 210q0 143 115 225q66 47 147 47q90 0 149 -63t59 -158q0 -144 -115 -225q-67 -48 -148 -48q-92 0 -149.5 63.5t-57.5 158.5zM208 653q0 29 20.5 49.5t48.5 20.5 q31 0 52 -20.5t21 -49.5q0 -30 -21 -50.5t-52 -20.5q-28 0 -48.5 20.5t-20.5 50.5zM402 653q0 29 21 49.5t49 20.5q30 0 50.5 -20.5t20.5 -49.5q0 -30 -20 -50.5t-51 -20.5q-28 0 -49 20.5t-21 50.5z" />
<glyph unicode="&#xf7;" d="M219 512q0 24 16 40t40 16t40 -16t16 -40t-16 -40t-40 -16t-40 16t-16 40zM219 152q0 24 16 40t40 16t40 -16t16 -40t-16 -40t-40 -16t-40 16t-16 40zM493 302h-436v60h436v-60z" />
<glyph unicode="&#xf8;" horiz-adv-x="556" d="M549 522l28 -31l-98 -96q40 -58 40 -134q0 -144 -115 -225q-68 -48 -148 -48q-83 0 -140 54l-96 -94l-28 29l98 96q-41 58 -41 137q0 143 115 225q66 47 147 47t141 -55zM181 175v-13l200 195q-16 84 -72 84q-33 0 -60 -30q-68 -75 -68 -236zM386 294v10l-200 -194 q16 -82 73 -82q33 0 58 25q69 69 69 241z" />
<glyph unicode="&#xf9;" horiz-adv-x="534" d="M481 318l-54 -165q-19 -58 -19 -81q0 -32 34 -32q11 0 38 5l18 3l4 -28q-64 -32 -121 -32q-41 0 -65 22t-24 65q-81 -87 -152 -87q-48 0 -73.5 29t-25.5 79q0 38 18 90l78 224l-82 12v31l204 29l21 -15q-41 -110 -62 -169l-44 -125q-13 -36 -13 -56q0 -18 12.5 -29 t32.5 -11q35 0 84 33l68 208q30 93 44 150l117 6l11 -20q-8 -22 -19 -53t-19 -52t-11 -31zM370 748l47 -210h-66l-79 210h98z" />
<glyph unicode="&#xfa;" horiz-adv-x="534" d="M481 318l-54 -165q-19 -58 -19 -81q0 -32 34 -32q11 0 38 5l18 3l4 -28q-64 -32 -121 -32q-41 0 -65 22t-24 65q-81 -87 -152 -87q-48 0 -73.5 29t-25.5 79q0 38 18 90l78 224l-82 12v31l204 29l21 -15q-41 -110 -62 -169l-44 -125q-13 -36 -13 -56q0 -18 12.5 -29 t32.5 -11q35 0 84 33l68 208q30 93 44 150l117 6l11 -20q-8 -22 -19 -53t-19 -52t-11 -31zM331 538l75 210h100l-107 -210h-68z" />
<glyph unicode="&#xfb;" horiz-adv-x="534" d="M481 318l-54 -165q-19 -58 -19 -81q0 -32 34 -32q11 0 38 5l18 3l4 -28q-64 -32 -121 -32q-41 0 -65 22t-24 65q-81 -87 -152 -87q-48 0 -73.5 29t-25.5 79q0 38 18 90l78 224l-82 12v31l204 29l21 -15q-41 -110 -62 -169l-44 -125q-13 -36 -13 -56q0 -18 12.5 -29 t32.5 -11q35 0 84 33l68 208q30 93 44 150l117 6l11 -20q-8 -22 -19 -53t-19 -52t-11 -31zM196 538l172 210h79l66 -210h-63l-58 124l-121 -124h-75z" />
<glyph unicode="&#xfc;" horiz-adv-x="534" d="M481 318l-54 -165q-19 -58 -19 -81q0 -32 34 -32q11 0 38 5l18 3l4 -28q-64 -32 -121 -32q-41 0 -65 22t-24 65q-81 -87 -152 -87q-48 0 -73.5 29t-25.5 79q0 38 18 90l78 224l-82 12v31l204 29l21 -15q-41 -110 -62 -169l-44 -125q-13 -36 -13 -56q0 -18 12.5 -29 t32.5 -11q35 0 84 33l68 208q30 93 44 150l117 6l11 -20q-8 -22 -19 -53t-19 -52t-11 -31zM214 653q0 29 20.5 49.5t48.5 20.5q31 0 52 -20.5t21 -49.5q0 -30 -21 -50.5t-52 -20.5q-28 0 -48.5 20.5t-20.5 50.5zM408 653q0 29 21 49.5t49 20.5q30 0 50.5 -20.5t20.5 -49.5 q0 -30 -20 -50.5t-51 -20.5q-28 0 -49 20.5t-21 50.5z" />
<glyph unicode="&#xfd;" horiz-adv-x="501" d="M178 482q82 0 89 -98l18 -277l87 140q37 60 37 108q0 33 -30 51q0 30 17.5 53t47.5 23q27 0 45 -19t18 -48q0 -37 -30 -85l-223 -351q-131 -206 -280 -206q-63 0 -95.5 25t-32.5 64q0 29 20.5 48t47.5 19t52 -20q6 -69 67 -69q67 0 141 99l-25 432q-2 24 -20 24 q-13 0 -31.5 -16t-55.5 -59l-28 20l35 51q61 91 129 91zM315 538l75 210h100l-107 -210h-68z" />
<glyph unicode="&#xfe;" horiz-adv-x="544" d="M390 299q0 49 -16.5 76t-40.5 27q-36 0 -97 -56l-76 -254l38 -61q10 -3 21 -3q69 0 120 79.5t51 191.5zM180 558l26 99l-82 12v31l205 29l21 -15q-11 -34 -56 -169l-50 -145l3 -2q44 48 73 66t62 18q54 0 91 -45t37 -131q0 -158 -121 -258q-74 -60 -173 -60q-41 0 -79 15 l-23 -78q-13 -48 -29 -115l86 -10l-3 -27l-141 2l-114 -2l3 27l41 10q23 73 36 116z" />
<glyph unicode="&#xff;" horiz-adv-x="501" d="M178 482q82 0 89 -98l18 -277l87 140q37 60 37 108q0 33 -30 51q0 30 17.5 53t47.5 23q27 0 45 -19t18 -48q0 -37 -30 -85l-223 -351q-131 -206 -280 -206q-63 0 -95.5 25t-32.5 64q0 29 20.5 48t47.5 19t52 -20q6 -69 67 -69q67 0 141 99l-25 432q-2 24 -20 24 q-13 0 -31.5 -16t-55.5 -59l-28 20l35 51q61 91 129 91zM198 653q0 29 20.5 49.5t48.5 20.5q31 0 52 -20.5t21 -49.5q0 -30 -21 -50.5t-52 -20.5q-28 0 -48.5 20.5t-20.5 50.5zM392 653q0 29 21 49.5t49 20.5q30 0 50.5 -20.5t20.5 -49.5q0 -30 -20 -50.5t-51 -20.5 q-28 0 -49 20.5t-21 50.5z" />
<glyph unicode="&#x13f;" horiz-adv-x="533" d="M298 509l-116 -467h72q141 0 209 138l26 53h35l-67 -233l-119 2h-226l-150 -2l5 29l81 11q16 56 31 116l88 353q15 60 27 116l-76 11l5 29l147 -2l146 2l-5 -29l-82 -11q-9 -33 -19 -71t-12 -45zM387 378q0 33 23 56t56 23t55.5 -23t22.5 -56q0 -34 -22 -56.5t-56 -22.5 q-33 0 -56 22.5t-23 56.5z" />
<glyph unicode="&#x140;" horiz-adv-x="446" d="M45 152l139 406l28 99l-83 12v31l207 29l21 -15q-31 -87 -58 -169l-131 -393q-20 -61 -20 -82q0 -30 32 -30q12 0 39 5l18 3l4 -28q-69 -32 -128 -32q-86 0 -86 78q0 34 18 86zM279 231q0 33 23 56t56 23t55.5 -23t22.5 -56q0 -34 -22 -56.5t-56 -22.5q-33 0 -56 22.5 t-23 56.5z" />
<glyph unicode="&#x152;" horiz-adv-x="1065" d="M463 2q-13 -2 -105 -2q-144 0 -223 75t-79 209q0 159 118 271q117 110 318 110q12 0 54.5 -1t78.5 -1h292l142 2l-16 -198h-28l-5 53q-5 57 -31 80t-89 23h-220q116 -75 116 -236q0 -18 -1 -27q7 0 30 1t46 1l64 137h32l-41 -157l-37 -163h-30l4 139q-5 0 -30.5 0.5 t-41.5 0.5q-30 -177 -205 -277h215q115 0 177 110l33 58h30l-62 -210l-112 2h-394zM189 242q0 -82 31 -133.5t81 -63.5q19 68 30 111l89 353q11 42 25 111q-104 -11 -171 -101q-85 -113 -85 -277zM579 145q56 74 75 175h-154l-69 -278q81 14 148 103zM664 430 q0 72 -25 120.5t-66 67.5l-63 -258h150q4 29 4 70z" />
<glyph unicode="&#x153;" horiz-adv-x="776" d="M689 279q-69 -27 -179 -53q-3 -23 -3 -52q0 -90 62 -90q55 0 113 62l26 -21q-65 -137 -174 -137q-86 0 -117 70q-67 -70 -168 -70q-92 0 -149.5 63.5t-57.5 158.5q0 143 115 225q66 47 147 47q57 0 102.5 -27t73.5 -74q40 47 88 74t94 27q53 0 84 -24.5t31 -68.5 q0 -76 -88 -110zM379 294q0 147 -77 147q-33 0 -60 -30q-68 -75 -68 -236q0 -147 78 -147q33 0 58 25q69 69 69 241zM561 378q-31 -44 -44 -113q90 25 123 56t33 68q0 17 -10 28t-27 11t-38 -13.5t-37 -36.5z" />
<glyph unicode="&#x178;" horiz-adv-x="628" d="M556 507l-168 -208l-42 -143q-13 -45 -31 -116l86 -11l-4 -29l-156 2l-157 -2l4 29l92 11q13 39 35 116l39 132l-50 219q-16 67 -31 116l-64 11l5 29l119 -2l155 2l-5 -29l-72 -11q14 -78 23 -116l37 -165l133 165q34 41 86 116l-73 11l5 29l105 -2l101 2l-5 -29l-68 -11 q-38 -43 -99 -116zM298 793q0 29 20.5 49.5t48.5 20.5q31 0 52 -20.5t21 -49.5q0 -30 -21 -50.5t-52 -20.5q-28 0 -48.5 20.5t-20.5 50.5zM492 793q0 29 21 49.5t49 20.5q30 0 50.5 -20.5t20.5 -49.5q0 -30 -20 -50.5t-51 -20.5q-28 0 -49 20.5t-21 50.5z" />
<glyph unicode="&#x17f;" horiz-adv-x="310" d="M276 508l-98 -374q-28 -106 -80.5 -201t-113.5 -132q-45 -28 -99 -28q-47 0 -75.5 22t-28.5 58q0 28 17.5 46.5t43.5 18.5q32 0 53 -21q0 -58 47 -58q49 0 70 80q17 62 37 163t32 147l47 181h-61l15 47l65 13q52 198 166 247q29 12 67 12q43 0 71 -13q48 -22 48 -70 q0 -30 -17 -46.5t-45 -16.5q-18 0 -34 9t-23 22q6 20 6 34q0 43 -36 43q-33 0 -47 -47q-6 -21 -12.5 -63.5t-14.5 -72.5z" />
<glyph unicode="&#x2b0;" horiz-adv-x="373" d="M81 363l75 253l17 65l-58 8v25l149 21l19 -12q-3 -11 -18 -54t-23 -67l-19 -61q54 52 99 52q37 0 56 -20.5t19 -55.5q0 -27 -11 -59l-32 -97q-14 -42 -14 -55q0 -23 31 -23h26v-21q-38 -15 -75 -15q-36 0 -55 16t-19 41q0 24 15 70l29 89q8 23 8 39q0 26 -22 26 q-24 0 -60 -24l-42 -143q-17 -54 -29 -105l-89 -4l-10 17q22 55 33 94z" />
<glyph unicode="&#x2b2;" horiz-adv-x="205" d="M257 582l-50 -170q-35 -120 -88 -204q-32 -49 -77.5 -80t-99.5 -31q-42 0 -66.5 17.5t-24.5 45.5q0 22 15 37.5t36 15.5q27 0 45 -17q0 -48 41 -48q49 0 76 94l87 298l-87 8v25l175 20zM153 678q0 24 17.5 40.5t42.5 16.5t42 -16.5t17 -40.5q0 -25 -16.5 -40.5 t-42.5 -15.5t-43 15.5t-17 40.5z" />
<glyph unicode="&#x2b7;" horiz-adv-x="468" d="M373 593q44 0 73 -42.5t29 -125.5q0 -84 -29 -131t-79 -47q-30 0 -53 20.5t-32 56.5q-46 -77 -105 -77q-41 0 -64 20t-23 54q0 41 50 102l14 17q16 20 16 44q0 33 -29 33q-25 0 -58 -41l-22 17l10 23q34 77 89 77q33 0 53.5 -21t20.5 -54q0 -35 -35 -80l-11 -14 q-20 -27 -20 -53q0 -18 11.5 -29.5t32.5 -11.5q29 0 59 29q-7 24 -7 47q0 30 13 46.5t29 16.5t25.5 -11.5t9.5 -30.5q0 -39 -30 -76q24 -21 55 -21q28 0 46.5 25.5t18.5 67.5q0 44 -21 69t-51 25q-25 0 -48 -16l-18 17l6 14q26 61 74 61z" />
<glyph unicode="&#x2b8;" horiz-adv-x="351" d="M169 593q63 0 67 -69l11 -185l52 86q25 41 25 75q0 27 -21 39q0 21 14 37.5t37 16.5q22 0 35 -14.5t13 -36.5q0 -26 -21 -57l-155 -244q-91 -144 -198 -144q-46 0 -69.5 18t-23.5 46q0 22 15 36.5t36 14.5q23 0 41 -15q5 -49 41 -49q42 0 94 66l-18 301q0 14 -11 14 q-15 0 -61 -55l-22 18l25 37q43 64 94 64z" />
<glyph unicode="&#x2c6;" horiz-adv-x="600" d="M114 538l172 210h79l66 -210h-63l-58 124l-121 -124h-75z" />
<glyph unicode="&#x2dc;" horiz-adv-x="600" d="M374 580q-37 0 -82 26l-27 16q-19 10 -37 10q-14 0 -24.5 -10.5t-10.5 -34.5h-58v26q0 53 27.5 79t67.5 26q31 0 72 -22l32 -18q23 -12 42 -12q14 0 24.5 10.5t10.5 34.5h58v-26q0 -53 -27.5 -79t-67.5 -26z" />
<glyph unicode="&#x2e3;" horiz-adv-x="391" d="M279 491l2 -11l51 76q25 37 60 37q21 0 35 -13.5t14 -34.5q0 -47 -45 -47h-10q-3 17 -18 17q-12 0 -31 -22l-50 -57l17 -107q3 -21 18 -21q11 0 20 11.5t27 52.5l29 -10l-7 -24q-14 -47 -35.5 -69t-61.5 -22q-65 0 -81 81l-7 36l-51 -81q-22 -36 -64 -36 q-20 0 -34.5 12.5t-14.5 33.5q0 43 46 51q12 -17 31 -17q15 0 34 22l48 58l-16 104q-3 22 -17 22q-23 0 -36 -61l-33 5l5 24q20 92 87 92q37 0 57.5 -24.5t30.5 -77.5z" />
<glyph unicode="&#x2009;" horiz-adv-x="125" />
<glyph unicode="&#x2013;" d="M-7 207l16 63h500l-16 -63h-500z" />
<glyph unicode="&#x2014;" horiz-adv-x="1000" d="M-7 207l16 63h1000l-16 -63h-1000z" />
<glyph unicode="&#x2018;" horiz-adv-x="250" d="M87 461q0 66 37 109q50 60 190 105l9 -30q-76 -37 -105.5 -65t-29.5 -58q0 -47 60 -57q14 -21 14 -49q0 -32 -21.5 -52.5t-53.5 -20.5q-43 0 -71.5 31.5t-28.5 86.5z" />
<glyph unicode="&#x2019;" horiz-adv-x="250" d="M304 557q0 -66 -37 -109q-50 -60 -190 -105l-9 30q76 37 105.5 65t29.5 58q0 47 -60 57q-14 21 -14 49q0 32 21.5 52.5t53.5 20.5q43 0 71.5 -31.5t28.5 -86.5z" />
<glyph unicode="&#x201a;" horiz-adv-x="250" d="M171 22q0 -54 -29 -96q-28 -41 -74.5 -67.5t-131.5 -53.5l-9 30q76 34 109.5 65.5t33.5 65.5q0 50 -60 60q-14 21 -14 49q0 32 21.5 52.5t53.5 20.5q43 0 71.5 -34t28.5 -92z" />
<glyph unicode="&#x201c;" horiz-adv-x="470" d="M87 461q0 66 37 109q50 60 190 105l9 -30q-76 -37 -105.5 -65t-29.5 -58q0 -47 60 -57q14 -21 14 -49q0 -32 -21.5 -52.5t-53.5 -20.5q-43 0 -71.5 31.5t-28.5 86.5zM307 461q0 66 37 109q50 60 190 105l9 -30q-76 -37 -105.5 -65t-29.5 -58q0 -47 60 -57q14 -21 14 -49 q0 -32 -21.5 -52.5t-53.5 -20.5q-43 0 -71.5 31.5t-28.5 86.5z" />
<glyph unicode="&#x201d;" horiz-adv-x="470" d="M304 557q0 -66 -37 -109q-50 -60 -190 -105l-9 30q76 37 105.5 65t29.5 58q0 47 -60 57q-14 21 -14 49q0 32 21.5 52.5t53.5 20.5q43 0 71.5 -31.5t28.5 -86.5zM524 557q0 -66 -37 -109q-50 -60 -190 -105l-9 30q76 37 105.5 65t29.5 58q0 47 -60 57q-14 21 -14 49 q0 32 21.5 52.5t53.5 20.5q43 0 71.5 -31.5t28.5 -86.5z" />
<glyph unicode="&#x201e;" horiz-adv-x="470" d="M171 22q0 -54 -29 -96q-28 -41 -74.5 -67.5t-131.5 -53.5l-9 30q76 34 109.5 65.5t33.5 65.5q0 50 -60 60q-14 21 -14 49q0 32 21.5 52.5t53.5 20.5q43 0 71.5 -34t28.5 -92zM391 22q0 -54 -29 -96q-28 -41 -74.5 -67.5t-131.5 -53.5l-9 30q76 34 109.5 65.5t33.5 65.5 q0 50 -60 60q-14 21 -14 49q0 32 21.5 52.5t53.5 20.5q43 0 71.5 -34t28.5 -92z" />
<glyph unicode="&#x2022;" d="M112 332q0 70 49 119t119 49t119 -49t49 -119t-49 -119t-119 -49t-119 49t-49 119z" />
<glyph unicode="&#x2026;" horiz-adv-x="810" d="M0 68q0 34 23.5 57t57.5 23t56.5 -23t22.5 -57q0 -35 -22 -57.5t-57 -22.5q-34 0 -57.5 22.5t-23.5 57.5zM280 68q0 34 23.5 57t57.5 23t56.5 -23t22.5 -57q0 -35 -22 -57.5t-57 -22.5q-34 0 -57.5 22.5t-23.5 57.5zM560 68q0 34 23.5 57t57.5 23t56.5 -23t22.5 -57 q0 -35 -22 -57.5t-57 -22.5q-34 0 -57.5 22.5t-23.5 57.5z" />
<glyph unicode="&#x2039;" horiz-adv-x="250" d="M26 188q0 66 37 109q50 60 190 105l9 -30q-76 -37 -105.5 -65t-29.5 -58q0 -47 60 -57q14 -21 14 -49q0 -32 -21.5 -52.5t-53.5 -20.5q-43 0 -71.5 31.5t-28.5 86.5z" />
<glyph unicode="&#x203a;" horiz-adv-x="250" d="M246 284q0 -66 -37 -109q-50 -60 -190 -105l-9 30q76 37 105.5 65t29.5 58q0 47 -60 57q-14 21 -14 49q0 32 21.5 52.5t53.5 20.5q43 0 71.5 -31.5t28.5 -86.5z" />
<glyph unicode="&#x2044;" horiz-adv-x="237" d="M483 694l-602 -769l-54 40l602 770z" />
<glyph unicode="&#x2070;" horiz-adv-x="370" d="M206 247q-51 0 -85 39.5t-34 105.5q0 63 18 124q30 104 89 157.5t121 53.5q53 0 87 -39t34 -106q0 -61 -21 -130q-32 -98 -89.5 -151.5t-119.5 -53.5zM322 497q30 102 30 143q0 54 -32 54q-29 0 -57.5 -48t-62.5 -169q-30 -102 -30 -143q0 -54 32 -54q29 0 57 48.5 t63 168.5z" />
<glyph unicode="&#x2074;" horiz-adv-x="365" d="M342 398l-10 -37q-7 -26 -25 -105l-92 -4l-9 17l37 129h-170l3 33q113 147 267 289h92l-77 -266q23 0 46 23l20 -13l-28 -66h-54zM259 454l54 186q-116 -118 -167 -186h113z" />
<glyph unicode="&#x2075;" horiz-adv-x="332" d="M167 247q-55 0 -81 12q-37 16 -37 51q0 20 13 33.5t33 13.5q21 0 40 -12q0 -62 52 -62q41 0 64.5 22.5t23.5 60.5q0 65 -70 99l-56 27l-8 15l79 212h144l76 1l-22 -82h-185l-22 -63l41 -21q106 -54 106 -145q0 -72 -52.5 -117t-138.5 -45z" />
<glyph unicode="&#x2076;" horiz-adv-x="364" d="M450 715q-172 -80 -244 -182q30 16 64 16q56 0 93.5 -36.5t37.5 -101.5q0 -81 -60 -128q-46 -36 -115 -36q-68 0 -109.5 41.5t-41.5 121.5q0 105 76.5 184t251.5 139l35 12zM248 510q-30 0 -60 -22q-16 -52 -16 -104q0 -51 15 -77.5t39 -26.5q32 0 53.5 36t21.5 101 q0 93 -53 93z" />
<glyph unicode="&#x2077;" horiz-adv-x="350" d="M159 616l-22 14l42 92l83 -2h199v-21l-190 -270q-36 -50 -36 -84q0 -23 23 -35q0 -63 -54 -63q-26 0 -43 17t-17 45q0 42 55 110l177 220h-154q-40 0 -63 -23z" />
<glyph unicode="&#x2078;" horiz-adv-x="367" d="M441 624q0 -39 -28 -65t-95 -52l12 -12q54 -54 54 -116q0 -60 -46 -96t-114 -36q-66 0 -106 28.5t-40 79.5q0 86 130 134q-47 53 -47 106q0 58 44.5 95t105.5 37q38 0 66 -11q64 -28 64 -92zM263 431l-35 36q-64 -44 -64 -115q0 -32 18.5 -52t49.5 -20t50 19.5t19 48.5 q0 45 -38 83zM243 624q0 -40 35 -75l20 -20q63 46 63 104q0 26 -15 43.5t-40 17.5q-26 0 -44.5 -20.5t-18.5 -49.5z" />
<glyph unicode="&#x2079;" horiz-adv-x="364" d="M85 229l-12 30q172 80 244 182q-30 -16 -64 -16q-56 0 -93.5 36.5t-37.5 101.5q0 81 60 128q46 36 115 36q68 0 109.5 -41.5t41.5 -121.5q0 -105 -76.5 -184t-251.5 -139zM275 464q30 0 60 22q16 52 16 104q0 51 -15 77.5t-39 26.5q-32 0 -53.5 -36t-21.5 -101 q0 -93 53 -93z" />
<glyph unicode="&#x207a;" horiz-adv-x="350" d="M263 334h-52v130h-129v46h129v131h52v-131h131v-46h-131v-130z" />
<glyph unicode="&#x207c;" horiz-adv-x="350" d="M393 527h-312v45h312v-45zM393 402h-312v45h312v-45z" />
<glyph unicode="&#x207d;" horiz-adv-x="245" d="M72 389q0 135 70 245.5t198 188.5l24 -34q-101 -80 -155.5 -182.5t-54.5 -218.5q0 -72 11 -119t42 -92l-28 -26q-107 101 -107 238z" />
<glyph unicode="&#x207e;" horiz-adv-x="245" d="M296 584q0 -135 -69.5 -245t-198.5 -189l-23 34q100 80 155 183.5t55 217.5q0 72 -11.5 119t-43.5 92l30 26q106 -101 106 -238z" />
<glyph unicode="&#x207f;" horiz-adv-x="379" d="M265 363l33 100q8 23 8 39q0 26 -23 26q-22 0 -58 -24l-44 -143q-17 -54 -29 -105l-89 -4l-9 17q20 56 31 93l53 171l-55 9v19l126 32l20 -9l-2 -50q53 59 102 59q36 0 55 -20.5t19 -55.5q0 -25 -11 -59l-33 -97q-14 -40 -14 -55q0 -23 32 -23h25v-21q-31 -15 -75 -15 q-35 0 -54.5 16t-19.5 41q0 21 12 59z" />
<glyph unicode="&#x2080;" horiz-adv-x="370" d="M96 -153q-51 0 -85 39.5t-34 105.5q0 63 18 124q30 104 89 157.5t121 53.5q53 0 87 -39t34 -106q0 -61 -21 -130q-32 -98 -89.5 -151.5t-119.5 -53.5zM212 97q30 102 30 143q0 54 -32 54q-29 0 -57.5 -48t-62.5 -169q-30 -102 -30 -143q0 -54 32 -54q29 0 57 48.5 t63 168.5z" />
<glyph unicode="&#x2081;" horiz-adv-x="288" d="M43 -35l80 284l-53 10l2 19l154 50l18 -10l-102 -355q-11 -37 -21 -76l65 -8l-4 -24l-117 1l-120 -1l4 24l70 8q22 70 24 78z" />
<glyph unicode="&#x2082;" horiz-adv-x="350" d="M238 -45l22 -15l-35 -85l-99 1h-108l-71 -1l2 33l152 135q81 72 108 107t27 65q0 27 -13 43.5t-35 16.5q-49 0 -108 -64l-26 19q67 117 164 117q51 0 83.5 -32t32.5 -84q0 -46 -33.5 -86t-140.5 -118l-97 -71h98q48 0 77 19z" />
<glyph unicode="&#x2083;" horiz-adv-x="343" d="M81 -153q-50 0 -76 13q-35 20 -35 52q0 18 13 30.5t33 12.5q22 0 35 -12q0 -62 48 -62q34 0 53 21t19 55q0 52 -47 107l-17 20l6 23l33 14q86 36 86 85q0 47 -44 47q-45 0 -93 -50l-27 18q57 106 145 106q46 0 75.5 -27t29.5 -68q0 -37 -24.5 -63t-81.5 -51l-9 -4l9 -11 q47 -57 47 -116q0 -62 -50 -101t-128 -39z" />
<glyph unicode="&#x2084;" horiz-adv-x="365" d="M242 -2l-10 -37q-7 -26 -25 -105l-92 -4l-9 17l37 129h-170l3 33q113 147 267 289h92l-77 -266q23 0 46 23l20 -13l-28 -66h-54zM159 54l54 186q-116 -118 -167 -186h113z" />
<glyph unicode="&#x2085;" horiz-adv-x="332" d="M67 -153q-55 0 -81 12q-37 16 -37 51q0 20 13 33.5t33 13.5q21 0 40 -12q0 -62 52 -62q41 0 64.5 22.5t23.5 60.5q0 65 -70 99l-56 27l-8 15l79 212h144l76 1l-22 -82h-185l-22 -63l41 -21q106 -54 106 -145q0 -72 -52.5 -117t-138.5 -45z" />
<glyph unicode="&#x2086;" horiz-adv-x="364" d="M350 315q-172 -80 -244 -182q30 16 64 16q56 0 93.5 -36.5t37.5 -101.5q0 -81 -60 -128q-46 -36 -115 -36q-68 0 -109.5 41.5t-41.5 121.5q0 105 76.5 184t251.5 139l35 12zM148 110q-30 0 -60 -22q-16 -52 -16 -104q0 -51 15 -77.5t39 -26.5q32 0 53.5 36t21.5 101 q0 93 -53 93z" />
<glyph unicode="&#x2087;" horiz-adv-x="350" d="M59 216l-22 14l42 92l83 -2h199v-21l-190 -270q-36 -50 -36 -84q0 -23 23 -35q0 -63 -54 -63q-26 0 -43 17t-17 45q0 42 55 110l177 220h-154q-40 0 -63 -23z" />
<glyph unicode="&#x2088;" horiz-adv-x="367" d="M341 224q0 -39 -28 -65t-95 -52l12 -12q54 -54 54 -116q0 -60 -46 -96t-114 -36q-66 0 -106 28.5t-40 79.5q0 86 130 134q-47 53 -47 106q0 58 44.5 95t105.5 37q38 0 66 -11q64 -28 64 -92zM163 31l-35 36q-64 -44 -64 -115q0 -32 18.5 -52t49.5 -20t50 19.5t19 48.5 q0 45 -38 83zM143 224q0 -40 35 -75l20 -20q63 46 63 104q0 26 -15 43.5t-40 17.5q-26 0 -44.5 -20.5t-18.5 -49.5z" />
<glyph unicode="&#x2089;" horiz-adv-x="364" d="M-15 -171l-12 30q172 80 244 182q-30 -16 -64 -16q-56 0 -93.5 36.5t-37.5 101.5q0 81 60 128q46 36 115 36q68 0 109.5 -41.5t41.5 -121.5q0 -105 -76.5 -184t-251.5 -139zM175 64q30 0 60 22q16 52 16 104q0 51 -15 77.5t-39 26.5q-32 0 -53.5 -36t-21.5 -101 q0 -93 53 -93z" />
<glyph unicode="&#x208d;" horiz-adv-x="245" d="M-38 -11q0 135 70 245.5t198 188.5l24 -34q-101 -80 -155.5 -182.5t-54.5 -218.5q0 -72 11 -119t42 -92l-28 -26q-107 101 -107 238z" />
<glyph unicode="&#x208e;" horiz-adv-x="245" d="M186 184q0 -135 -69.5 -245t-198.5 -189l-23 34q100 80 155 183.5t55 217.5q0 72 -11.5 119t-43.5 92l30 26q106 -101 106 -238z" />
<glyph unicode="&#x20ac;" horiz-adv-x="605" d="M47 402l10 40h76q32 77 97 142q94 91 209 91q92 0 151 -57l41 32l21 -16l-73 -205l-26 3v38q0 163 -114 163q-71 0 -130 -77q-39 -51 -62 -114h212l-10 -40h-214q-10 -39 -15 -80h209l-10 -40h-201v-15q0 -90 37 -132t96 -42q45 0 85 22.5t87 89.5l29 -19 q-77 -198 -238 -198q-99 0 -159.5 69t-60.5 187q0 25 1 38h-78l10 40h72q5 37 19 80h-71z" />
<glyph unicode="&#x2116;" horiz-adv-x="1066" d="M515 -12h-32l-242 563l-124 -395q-7 -24 -30 -116l72 -11l-4 -29l-92 2l-111 -2l4 29l79 11q8 25 15.5 47.5t13.5 42t8 26.5l135 434l-68 46l9 29l185 -2l197 -465l97 311q10 30 31 114l-72 13l5 29l92 -2l113 2l-5 -29l-80 -13q-23 -69 -36 -114zM971 406q0 100 -49 100 q-22 0 -38 -18q-45 -48 -45 -165q0 -99 50 -99q21 0 36 15q46 44 46 167zM737 348q0 98 82 157q47 33 105 33q65 0 107 -44t42 -111q0 -102 -82 -158q-46 -33 -106 -33q-66 0 -107 44.5t-41 111.5z" />
<glyph unicode="&#x2122;" horiz-adv-x="787" d="M688 362l31 193l-113 -183h-53l-8 187l-81 -197l41 -6l-6 -26l-61 1l-56 -1l6 26l42 6l107 270l-37 8l5 26l107 -1l10 -201l125 201l96 1l-5 -26l-37 -7l-46 -271l39 -6l-6 -26l-89 1l-60 -1l6 26zM270 632h-15q-44 0 -65 -44l-13 -28h-26l20 106l80 -1h134l65 1 l-13 -106h-27l-1 29q-1 43 -42 43h-19l-77 -269l42 -7l-6 -26l-73 1l-94 -1l6 26l46 6z" />
<glyph unicode="&#x2153;" horiz-adv-x="868" d="M123 309l80 284l-53 10l2 19l154 50l18 -10l-102 -355q-11 -37 -21 -76l65 -8l-4 -24l-117 1l-120 -1l4 24l70 8q22 70 24 78zM771 694l-602 -769l-54 40l602 770zM642 -8q-50 0 -76 13q-35 20 -35 52q0 18 13 30.5t33 12.5q22 0 35 -12q0 -62 48 -62q34 0 53 21t19 55 q0 52 -47 107l-17 20l6 23l33 14q86 36 86 85q0 47 -44 47q-45 0 -93 -50l-27 18q57 106 145 106q46 0 75.5 -27t29.5 -68q0 -37 -24.5 -63t-81.5 -51l-9 -4l9 -11q47 -57 47 -116q0 -62 -50 -101t-128 -39z" />
<glyph unicode="&#x2154;" horiz-adv-x="940" d="M318 299l22 -15l-35 -85l-99 1h-108l-71 -1l2 33l152 135q81 72 108 107t27 65q0 27 -13 43.5t-35 16.5q-49 0 -108 -64l-26 19q67 117 164 117q51 0 83.5 -32t32.5 -84q0 -46 -33.5 -86t-140.5 -118l-97 -71h98q48 0 77 19zM843 694l-602 -769l-54 40l602 770zM714 -8 q-50 0 -76 13q-35 20 -35 52q0 18 13 30.5t33 12.5q22 0 35 -12q0 -62 48 -62q34 0 53 21t19 55q0 52 -47 107l-17 20l6 23l33 14q86 36 86 85q0 47 -44 47q-45 0 -93 -50l-27 18q57 106 145 106q46 0 75.5 -27t29.5 -68q0 -37 -24.5 -63t-81.5 -51l-9 -4l9 -11 q47 -57 47 -116q0 -62 -50 -101t-128 -39z" />
<glyph unicode="&#x215b;" horiz-adv-x="892" d="M123 309l80 284l-53 10l2 19l154 50l18 -10l-102 -355q-11 -37 -21 -76l65 -8l-4 -24l-117 1l-120 -1l4 24l70 8q22 70 24 78zM771 694l-602 -769l-54 40l602 770zM902 369q0 -39 -28 -65t-95 -52l12 -12q54 -54 54 -116q0 -60 -46 -96t-114 -36q-66 0 -106 28.5 t-40 79.5q0 86 130 134q-47 53 -47 106q0 58 44.5 95t105.5 37q38 0 66 -11q64 -28 64 -92zM724 176l-35 36q-64 -44 -64 -115q0 -32 18.5 -52t49.5 -20t50 19.5t19 48.5q0 45 -38 83zM704 369q0 -40 35 -75l20 -20q63 46 63 104q0 26 -15 43.5t-40 17.5q-26 0 -44.5 -20.5 t-18.5 -49.5z" />
<glyph unicode="&#x215c;" horiz-adv-x="947" d="M161 192q-50 0 -76 13q-35 20 -35 52q0 18 13 30.5t33 12.5q22 0 35 -12q0 -62 48 -62q34 0 53 21t19 55q0 52 -47 107l-17 20l6 23l33 14q86 36 86 85q0 47 -44 47q-45 0 -93 -50l-27 18q57 106 145 106q46 0 75.5 -27t29.5 -68q0 -37 -24.5 -63t-81.5 -51l-9 -4l9 -11 q47 -57 47 -116q0 -62 -50 -101t-128 -39zM826 694l-602 -769l-54 40l602 770zM957 369q0 -39 -28 -65t-95 -52l12 -12q54 -54 54 -116q0 -60 -46 -96t-114 -36q-66 0 -106 28.5t-40 79.5q0 86 130 134q-47 53 -47 106q0 58 44.5 95t105.5 37q38 0 66 -11q64 -28 64 -92z M779 176l-35 36q-64 -44 -64 -115q0 -32 18.5 -52t49.5 -20t50 19.5t19 48.5q0 45 -38 83zM759 369q0 -40 35 -75l20 -20q63 46 63 104q0 26 -15 43.5t-40 17.5q-26 0 -44.5 -20.5t-18.5 -49.5z" />
<glyph unicode="&#x215d;" horiz-adv-x="936" d="M147 192q-55 0 -81 12q-37 16 -37 51q0 20 13 33.5t33 13.5q21 0 40 -12q0 -62 52 -62q41 0 64.5 22.5t23.5 60.5q0 65 -70 99l-56 27l-8 15l79 212h144l76 1l-22 -82h-185l-22 -63l41 -21q106 -54 106 -145q0 -72 -52.5 -117t-138.5 -45zM815 694l-602 -769l-54 40 l602 770zM946 369q0 -39 -28 -65t-95 -52l12 -12q54 -54 54 -116q0 -60 -46 -96t-114 -36q-66 0 -106 28.5t-40 79.5q0 86 130 134q-47 53 -47 106q0 58 44.5 95t105.5 37q38 0 66 -11q64 -28 64 -92zM768 176l-35 36q-64 -44 -64 -115q0 -32 18.5 -52t49.5 -20t50 19.5 t19 48.5q0 45 -38 83zM748 369q0 -40 35 -75l20 -20q63 46 63 104q0 26 -15 43.5t-40 17.5q-26 0 -44.5 -20.5t-18.5 -49.5z" />
<glyph unicode="&#x215e;" horiz-adv-x="894" d="M139 561l-22 14l42 92l83 -2h199v-21l-190 -270q-36 -50 -36 -84q0 -23 23 -35q0 -63 -54 -63q-26 0 -43 17t-17 45q0 42 55 110l177 220h-154q-40 0 -63 -23zM773 694l-602 -769l-54 40l602 770zM904 369q0 -39 -28 -65t-95 -52l12 -12q54 -54 54 -116q0 -60 -46 -96 t-114 -36q-66 0 -106 28.5t-40 79.5q0 86 130 134q-47 53 -47 106q0 58 44.5 95t105.5 37q38 0 66 -11q64 -28 64 -92zM726 176l-35 36q-64 -44 -64 -115q0 -32 18.5 -52t49.5 -20t50 19.5t19 48.5q0 45 -38 83zM706 369q0 -40 35 -75l20 -20q63 46 63 104q0 26 -15 43.5 t-40 17.5q-26 0 -44.5 -20.5t-18.5 -49.5z" />
<glyph unicode="&#x2190;" horiz-adv-x="1000" d="M0 321v22l320 289l32 -33l-242 -240l890 12v-79l-890 12l242 -240l-32 -33z" />
<glyph unicode="&#x2191;" horiz-adv-x="1000" d="M490 831h22l289 -320l-33 -32l-240 242l12 -890h-79l12 890l-240 -242l-33 32z" />
<glyph unicode="&#x2192;" horiz-adv-x="1000" d="M1000 343v-22l-320 -290l-32 33l242 240l-890 -12v79l890 -12l-242 240l32 33z" />
<glyph unicode="&#x2193;" horiz-adv-x="1000" d="M512 -169h-22l-290 320l33 32l240 -242l-12 890h79l-12 -890l240 242l33 -32z" />
<glyph unicode="&#x2196;" horiz-adv-x="1000" d="M139 677l16 16l431 -22l-1 -46l-341 2l638 -621l-56 -56l-621 638l2 -341l-46 -1z" />
<glyph unicode="&#x2197;" horiz-adv-x="1000" d="M866 693l16 -16l-22 -431l-46 1l2 341l-621 -638l-56 56l638 621l-341 -2l-1 46z" />
<glyph unicode="&#x2198;" horiz-adv-x="1000" d="M882 -34l-16 -16l-431 22l1 46l341 -2l-638 621l56 56l621 -638l-2 341l46 1z" />
<glyph unicode="&#x2199;" horiz-adv-x="1000" d="M155 -50l-16 16l22 431l46 -1l-2 -341l621 638l56 -56l-638 -621l341 2l1 -46z" />
<glyph unicode="&#x25fc;" horiz-adv-x="480" d="M0 480h480v-480h-480v480z" />
<glyph unicode="&#xf6e1;" horiz-adv-x="187" d="M76 -128q0 -36 -22 -68q-19 -28 -53 -47t-98 -40l-7 26q100 42 100 90q0 33 -41 40q-11 16 -11 36q0 23 16.5 38t41.5 15q32 0 53 -24t21 -66z" />
<glyph unicode="&#xf6e2;" horiz-adv-x="187" d="M180 272q0 -36 -22 -68q-19 -28 -53 -47t-98 -40l-7 26q100 42 100 90q0 33 -41 40q-11 16 -11 36q0 23 16.5 38t41.5 15q32 0 53 -24t21 -66z" />
<glyph unicode="&#xf6e5;" horiz-adv-x="187" d="M-52 -8l14 62h171l-16 -62h-169z" />
<glyph unicode="&#xf6e6;" horiz-adv-x="187" d="M52 392l14 62h171l-16 -62h-169z" />
<glyph unicode="&#xf6e7;" horiz-adv-x="187" d="M-53 -95q0 25 18 41t44 16t42.5 -16t16.5 -41q0 -26 -16 -42t-43 -16q-26 0 -44 16.5t-18 41.5z" />
<glyph unicode="&#xf6e8;" horiz-adv-x="187" d="M51 305q0 25 18 41t44 16t42.5 -16t16.5 -41q0 -26 -16 -42t-43 -16q-26 0 -44 16.5t-18 41.5z" />
<glyph unicode="&#xf6e9;" horiz-adv-x="384" d="M310 247q-29 0 -45.5 15.5t-16.5 42.5q-49 -58 -96 -58q-40 0 -64.5 27.5t-24.5 82.5t23 105.5t61 83.5q54 47 127 47q49 0 94 -28l34 28l25 -12q-29 -74 -44 -118l-42 -124q-7 -19 -7 -29q0 -15 15 -15q17 0 38 11l21 11l14 -24q-55 -46 -112 -46zM306 509l-26 50 q-3 2 -11 2q-42 0 -77.5 -57.5t-35.5 -136.5q0 -60 36 -60q27 0 61 42z" />
<glyph unicode="&#xf6ea;" horiz-adv-x="374" d="M307 464q0 70 -38 70q-23 0 -62 -33l-50 -177l22 -44q1 0 6 -0.5t7 -0.5q45 0 80 52.5t35 132.5zM398 468q0 -102 -88 -178q-52 -43 -120 -43q-86 0 -132 57l93 312l18 65l-57 8v26l151 20l17 -12q-17 -47 -40 -119l-19 -55q45 44 86 44q38 0 64.5 -33.5t26.5 -91.5z" />
<glyph unicode="&#xf6eb;" horiz-adv-x="382" d="M321 247q-64 0 -71 59q-47 -59 -91 -59q-40 0 -67.5 29.5t-27.5 85.5q0 109 77 181q54 50 124 50q37 0 58 -9l10 32l17 65l-58 8v25l149 21l18 -12q-20 -56 -39 -119l-79 -266q-5 -17 -5 -28q0 -15 18 -15q13 0 33 14l21 14l14 -23q-57 -53 -101 -53zM268 561 q-44 0 -78 -54t-34 -131q0 -70 37 -70q21 0 59 37l52 171l-23 44q-5 3 -13 3z" />
<glyph unicode="&#xf6ec;" horiz-adv-x="290" d="M276 448q-49 -18 -122 -35q-2 -20 -2 -35q0 -61 38 -61q36 0 79 46l23 -20q-48 -96 -126 -96q-46 0 -75 29t-29 80q0 91 62 164t131 73q39 0 61.5 -17.5t22.5 -48.5q0 -54 -63 -79zM188 519q-19 -29 -28 -75q98 28 98 81q0 26 -24 26t-46 -32z" />
<glyph unicode="&#xf6ed;" horiz-adv-x="198" d="M138 541l-62 7v25l155 20l17 -12q-31 -78 -45 -118l-42 -125q-7 -20 -7 -31q0 -13 15 -13q9 0 33 8l25 9l11 -25q-66 -39 -121 -39q-29 0 -45.5 12t-16.5 32q0 18 12 51zM150 678q0 24 17 40.5t42 16.5q26 0 43 -16.5t17 -40.5q0 -25 -17 -40.5t-43 -15.5t-42.5 15.5 t-16.5 40.5z" />
<glyph unicode="&#xf6ee;" horiz-adv-x="199" d="M71 363l86 253l17 65l-56 8v26l151 20l18 -12q-5 -15 -19.5 -56t-21.5 -63l-78 -243q-14 -42 -14 -55q0 -19 18 -19q9 0 24 3l18 4l4 -24q-49 -23 -94 -23q-30 0 -47.5 15t-17.5 43q0 25 12 58z" />
<glyph unicode="&#xf6ef;" horiz-adv-x="555" d="M266 362l32 101q8 27 8 39q0 26 -23 26q-25 0 -59 -24l-40 -143q-5 -17 -27 -105l-89 -4l-10 17q19 53 31 94l48 169l-53 10v19l125 32l20 -9l-2 -47q51 56 100 56q55 0 72 -56q52 56 103 56q37 0 56.5 -20.5t19.5 -55.5q0 -25 -12 -59l-36 -99q-13 -35 -13 -53 q0 -23 30 -23h28v-21q-44 -15 -88 -15q-64 0 -64 53q0 28 13 63l36 100q8 21 8 36q0 29 -25 29q-21 0 -54 -23q-1 -18 -11 -51l-29 -93q-17 -54 -29 -105l-89 -4l-8 17q5 16 12.5 37.5t12.5 35.5t6 20z" />
<glyph unicode="&#xf6f0;" horiz-adv-x="379" d="M304 461q0 100 -49 100q-21 0 -38 -18q-45 -48 -45 -165q0 -99 50 -99q21 0 36 15q46 44 46 167zM70 403q0 98 82 157q46 33 105 33q65 0 107 -44t42 -111q0 -102 -82 -158q-46 -33 -106 -33q-66 0 -107 44.5t-41 111.5z" />
<glyph unicode="&#xf6f1;" horiz-adv-x="280" d="M225 584l-9 -63q16 26 35 47q23 25 53 25q22 0 36.5 -13.5t14.5 -35.5t-14.5 -35t-38.5 -15q-13 20 -32 20q-27 0 -59 -33l-34 -120q-18 -62 -29 -105l-90 -4l-9 17q22 55 33 94l35 117l13 53l-52 9v19l127 32z" />
<glyph unicode="&#xf6f2;" horiz-adv-x="262" d="M272 350q0 -47 -36 -75t-92 -28q-48 0 -73 17q-25 18 -25 44q0 17 11.5 29.5t30.5 12.5q20 0 36 -14q0 -50 37 -50q34 0 34 33q0 19 -11.5 34.5t-44.5 47.5q-45 44 -45 88q0 47 35 75.5t86 28.5q42 0 66.5 -15.5t24.5 -41.5q0 -18 -12 -28.5t-30 -10.5q-20 0 -35 13 q-3 48 -32 48q-12 0 -20.5 -9t-8.5 -23q0 -16 10 -30.5t39 -40.5q55 -49 55 -105z" />
<glyph unicode="&#xf6f3;" horiz-adv-x="253" d="M274 363l21 -23q-79 -93 -159 -93q-34 0 -53 16.5t-19 45.5q0 26 13 72l45 159h-41l8 36l44 9l16 70l90 34l23 -9l-31 -95h87l-11 -45h-89l-52 -186q-7 -25 -7 -34q0 -15 15 -15q18 0 38.5 12t61.5 46z" />
<glyph unicode="&#xfb06;" horiz-adv-x="757" d="M388 401q0 -25 -15 -39.5t-39 -14.5q-26 0 -45 17q-2 35 -19.5 54t-44.5 19q-24 0 -40 -14t-16 -36t16.5 -42t67.5 -61q86 -68 86 -149q0 -68 -50 -107.5t-134 -39.5q-77 0 -114 25q-35 24 -35 65q0 24 15.5 39t39.5 15q22 0 45 -17q0 -77 74 -77q63 0 63 49 q0 26 -19.5 50.5t-74.5 71.5q-72 63 -72 125q0 69 48.5 108.5t130.5 39.5q-33 40 -33 84q0 58 42 99.5t107 41.5q28 0 79 -8t77 -8q67 0 171 38l28 -9l-73 -250h127l-16 -60h-128l-76 -269q-10 -34 -10 -50q0 -25 29 -25q49 0 143 80l24 -26q-58 -68 -110 -100t-112 -32 q-46 0 -71 23t-25 64q0 35 19 102l66 233h-61l12 48l66 12l53 185q-32 -10 -57 -10q-38 0 -83 7t-72 7q-46 0 -72.5 -26.5t-26.5 -65.5q0 -63 61 -95q54 -29 54 -71z" />
<glyph horiz-adv-x="797" d="M296 482q-33 40 -33 84q0 58 42 99.5t107 41.5q28 0 79 -8t77 -8q67 0 171 38l28 -9l-74 -250h128l-16 -60h-128l-76 -269q-10 -34 -10 -50q0 -25 29 -25q49 0 143 80l24 -26q-58 -68 -110 -100t-112 -32q-46 0 -71 23t-25 64q0 35 19 102l66 233h-61l12 48l66 12l53 185 q-32 -10 -57 -10q-38 0 -83 7t-72 7q-46 0 -72.5 -26.5t-26.5 -65.5q0 -67 60 -95q57 -27 57 -87q0 -26 -16.5 -43t-44.5 -17q-36 0 -56 33q9 21 9 39q0 40 -38 40q-42 0 -82 -53q-48 -65 -48 -177q0 -61 25.5 -92t71.5 -31q59 0 105 63l28 -18q-48 -141 -176 -141 q-72 0 -121.5 49.5t-49.5 136.5q0 148 106 241q72 63 153 67z" />
<glyph horiz-adv-x="938" d="M284 437q-42 0 -82 -53q-48 -65 -48 -177q0 -61 25.5 -92t71.5 -31q59 0 105 63l28 -18q-48 -141 -176 -141q-72 0 -121.5 49.5t-49.5 136.5q0 148 106 241q76 67 160 67q42 0 69 -11q58 -24 58 -86q0 -26 -16.5 -43t-44.5 -17q-36 0 -56 33q9 21 9 39q0 40 -38 40z M463 152l120 406l26 99l-84 12v31l205 29l21 -15q-20 -56 -55 -169l-48 -152q74 89 155 89q50 0 75.5 -29t25.5 -79q0 -31 -16 -82l-46 -141q-20 -61 -20 -81q0 -35 52 -35h29v-26q-43 -21 -100 -21q-48 0 -74 22.5t-26 56.5q0 32 17 85l46 144q12 37 12 57q0 40 -39 40 q-37 0 -92 -36l-62 -205q-21 -64 -42 -150l-117 -6l-11 20q45 127 48 136z" />
<glyph horiz-adv-x="954" d="M284 437q-42 0 -82 -53q-48 -65 -48 -177q0 -61 25.5 -92t71.5 -31q59 0 105 63l28 -18q-48 -141 -176 -141q-72 0 -121.5 49.5t-49.5 136.5q0 148 106 241q76 67 160 67q42 0 69 -11q58 -24 58 -86q0 -26 -16.5 -43t-44.5 -17q-36 0 -56 33q9 21 9 39q0 40 -38 40z M707 545l-80 -264q25 0 41.5 9t46.5 36l25 23q35 33 71 81l-39 13l3 27l98 -2l87 2l-3 -27l-61 -14q-83 -68 -122 -104l-49 -44v-4q28 -15 44 -35.5t31 -60.5l37 -98q14 -34 32 -34q23 0 51 33l24 -20q-27 -40 -52.5 -57t-64.5 -17q-47 0 -73.5 24.5t-44.5 75.5l-31 91 q-12 36 -26 49t-37 13l-21 -69q-14 -50 -44 -170l-116 -6l-11 20q35 97 46 136l120 406l26 99l-83 12v31l206 29l21 -15q-11 -38 -28.5 -93t-23.5 -76z" />
<glyph horiz-adv-x="528" d="M210 -12q-71 0 -117.5 56t-46.5 150q0 89 27 177q46 149 127.5 226.5t166.5 77.5q73 0 120.5 -55t47.5 -151q0 -91 -30 -186q-45 -144 -125.5 -219.5t-169.5 -75.5zM385 345q43 146 43 206q0 82 -53 82q-46 0 -88 -70t-93 -245q-43 -146 -43 -206q0 -82 53 -82 q46 0 88 70t93 245z" />
<glyph horiz-adv-x="412" d="M127 154l118 413l-79 13l2 26l216 69l19 -10l-147 -511q-20 -70 -32 -114l94 -11l-5 -29l-161 2l-166 -2l5 29l102 11q7 21 18 58.5t16 55.5z" />
<glyph d="M402 136l22 -16l-49 -120l-135 2h-156l-96 -2l2 45l217 191q117 103 156.5 156.5t39.5 104.5q0 36 -19.5 57.5t-54.5 21.5q-72 0 -158 -89l-32 19q94 169 233 169q70 0 115 -43t45 -117q0 -70 -48 -129t-199 -168l-146 -106h151q73 0 112 24z" />
<glyph horiz-adv-x="490" d="M175 -12q-70 0 -107 19q-47 25 -47 71q0 26 16.5 43.5t43.5 17.5t43 -15q2 -93 76 -93q52 0 82 31.5t30 82.5q0 42 -15 76.5t-54 78.5l-24 27l9 32l44 18q71 29 99 59.5t28 67.5q0 32 -18.5 50.5t-51.5 18.5q-67 0 -136 -69l-33 21q79 150 204 150q63 0 103.5 -38 t40.5 -97q0 -52 -34.5 -88.5t-114.5 -72.5l-16 -7l15 -18q67 -80 67 -167q0 -89 -70.5 -144t-179.5 -55z" />
<glyph horiz-adv-x="522" d="M400 206l-16 -55q-13 -47 -35 -149l-121 -6l-11 20l56 190h-247l4 45q163 209 382 414h119l-110 -384h8q21 0 33 6t30 24l24 -13l-39 -92h-77zM294 281l83 291q-166 -166 -261 -291h178z" />
<glyph horiz-adv-x="474" d="M155 -12q-74 0 -114 19q-50 23 -50 71q0 28 17 46t43 18q24 0 50 -16q2 -91 82 -91q62 0 98 33t36 89q0 95 -106 146l-75 36l-11 21l113 303h201l99 2l-29 -114h-266l-33 -93l64 -32q149 -74 149 -208q0 -102 -74 -166t-194 -64z" />
<glyph horiz-adv-x="520" d="M555 659q-261 -126 -353 -273q49 32 101 32q77 0 129 -51.5t52 -145.5q0 -117 -83 -181q-67 -52 -161 -52q-96 0 -153.5 59t-57.5 173q0 150 110.5 265.5t359.5 198.5l39 13zM272 367q-44 0 -96 -39q-22 -74 -22 -145q0 -75 23.5 -114t62.5 -39q49 0 82 53t33 147 q0 137 -83 137z" />
<glyph d="M147 523l-27 14l58 130l114 -2h278v-28l-272 -389q-53 -77 -53 -121q0 -32 34 -53q0 -86 -72 -86q-35 0 -56.5 24t-21.5 63q0 32 16 66.5t61 89.5l256 322h-229q-55 0 -86 -30z" />
<glyph horiz-adv-x="524" d="M542 529q0 -56 -40 -94t-137 -75l18 -19q77 -81 77 -168q0 -86 -64.5 -135.5t-158.5 -49.5q-92 0 -148 40.5t-56 113.5q0 62 44.5 109t144.5 82q-69 76 -69 154q0 83 62 135.5t147 52.5q54 0 92 -16q41 -17 64.5 -52t23.5 -78zM299 252l-53 55q-103 -75 -103 -170 q0 -48 28.5 -77.5t76.5 -29.5t77.5 29t29.5 72q0 63 -56 121zM258 530q0 -54 52 -110l33 -36q98 67 98 157q0 40 -23 66t-63 26q-41 0 -69 -30t-28 -73z" />
<glyph horiz-adv-x="520" d="M43 -34l-17 38q261 121 357 274q-50 -33 -105 -33q-78 0 -129.5 49t-51.5 142q0 119 83 186q67 53 160 53q97 0 154.5 -57.5t57.5 -174.5q0 -153 -112 -273.5t-359 -192.5zM309 296q44 0 96 39q22 74 22 145q0 75 -23.5 114t-62.5 39q-48 0 -81.5 -53.5t-33.5 -146.5 q0 -137 83 -137z" />
<glyph horiz-adv-x="304" d="M242 558q-29 0 -53 -35q-31 -43 -31 -122q0 -84 62 -84q39 0 72 47l25 -18q-33 -99 -127 -99q-52 0 -87.5 34.5t-35.5 96.5q0 104 75 168q54 47 114 47q32 0 49 -7q44 -19 44 -59q0 -21 -13 -34t-34 -13q-28 0 -44 27q6 13 6 26q0 25 -22 25z" />
<glyph horiz-adv-x="231" d="M226 540l-52 -191q-20 -72 -57 -138t-80 -94q-31 -20 -72 -20q-35 0 -55 15.5t-20 41.5q0 21 13 35t32 14q23 0 42 -17q0 -39 28 -39q30 0 44 53q9 36 25 116q13 64 23 101l32 123h-43l11 35l46 9q33 106 109 140q24 11 50 11q32 0 53 -10q34 -16 34 -50q0 -45 -47 -45 q-32 0 -45 24q4 12 4 23q0 28 -20 28q-19 0 -27 -31q-2 -8 -3.5 -16t-3 -18t-2.5 -15l-8 -40h79l-14 -45h-76z" />
<glyph horiz-adv-x="339" d="M202 207l-87 28q-29 -18 -29 -48q0 -25 23 -39.5t65 -14.5q64 0 64 40q0 22 -36 34zM285 504q0 60 -32 60q-23 0 -40 -29q-19 -38 -19 -83q0 -27 9.5 -42.5t23.5 -15.5q19 0 38 27q20 29 20 83zM379 578q-21 0 -32 -22q28 -33 28 -69q0 -70 -71 -103q-27 -13 -85 -24 l-62 -12q-17 -4 -17 -15q0 -10 29 -21l67 -24q76 -27 76 -87q0 -46 -41 -75t-117 -29q-63 0 -100.5 21.5t-37.5 54.5q0 44 74 72q-36 24 -36 57q0 36 41 60l67 15q-25 13 -42.5 36.5t-17.5 52.5q0 53 44.5 90t108.5 37q35 0 61 -13q14 64 61 64q19 0 31 -11.5t12 -28.5 q0 -21 -18 -33q-10 7 -23 7z" />
<glyph horiz-adv-x="384" d="M251 604l-46 -150q14 1 23.5 6.5t28.5 23.5l17 16q31 29 48 54l-26 9l2 22l73 -1l65 1l-2 -22l-44 -11q-58 -45 -84 -71l-33 -32q20 -12 30.5 -25.5t20.5 -39.5l27 -73q6 -16 19 -16q14 0 35 23l20 -18q-20 -29 -39 -41t-48 -12q-62 0 -86 70l-22 63q-13 40 -34 43 l-14 -48l-31 -119l-88 -4l-9 17q20 56 32 94l74 253l17 65l-57 8v26l150 20l18 -11q-6 -23 -19.5 -65t-17.5 -55z" />
<glyph horiz-adv-x="381" d="M311 464q0 34 -10 52t-26 18q-23 0 -61 -35l-52 -180l25 -39q3 -1 10 -1q47 0 80.5 54t33.5 131zM36 206l97 327l-55 9v19l125 32l20 -9l-5 -46q50 55 94 55q39 0 66 -32.5t27 -93.5q0 -104 -87 -178q-51 -42 -123 -42q-28 0 -50 7l-15 -50q-19 -68 -21 -77l61 -8l-2 -22 l-104 1l-84 -1l2 22l29 7z" />
<glyph horiz-adv-x="369" d="M308 509l-25 51q-4 1 -9 1q-45 0 -82.5 -56t-37.5 -134q0 -65 35 -65q26 0 67 36zM420 581l-109 -378q-13 -48 -19 -77l28 -7l-2 -22l-96 1l-92 -1l4 22l60 8q15 51 23 77l31 98q-52 -55 -91 -55q-41 0 -66.5 29t-25.5 86q0 107 80 179q58 52 133 52q46 0 83 -26l33 26z " />
<glyph horiz-adv-x="374" d="M385 477l-38 -115q-13 -39 -13 -55q0 -20 23 -20q7 0 21 3l17 4l4 -24q-44 -23 -88 -23q-28 0 -46.5 15t-21.5 41q-51 -56 -100 -56q-36 0 -54.5 20.5t-18.5 55.5q0 28 12 64l53 153q-10 1 -29.5 4t-26.5 4v24l148 21l19 -12q-14 -33 -43 -118l-31 -87q-9 -26 -9 -38 q0 -25 26 -25q22 0 53 21l48 145q12 35 30 105l89 4l10 -17q-21 -53 -34 -94z" />
<glyph horiz-adv-x="359" d="M259 508l-18 18q30 67 78 67q35 0 57.5 -25.5t22.5 -71.5q0 -71 -50 -147q-36 -57 -72.5 -79.5t-83.5 -22.5t-74.5 23.5t-27.5 57.5q0 41 39 91l14 18q19 24 19 47q0 15 -7.5 24t-19.5 9q-25 0 -57 -46l-25 14l12 32q28 76 88 76q29 0 47.5 -20t18.5 -56q0 -31 -28 -82 l-6 -11q-13 -25 -13 -46t16 -35.5t43 -14.5q51 0 81 46q22 35 22 75q0 73 -40 73q-13 0 -36 -14z" />
<glyph horiz-adv-x="325" d="M101 480l-26 14l37 91l61 -1h124l65 1l4 -19l-213 -209q16 4 28 4q37 0 66 -34l20 -23q16 -20 33 -20q16 0 30 16l11 12l22 -20q-24 -39 -46 -56t-54 -17q-46 0 -75 37l-34 43q-13 16 -26 16q-6 0 -12 -5.5t-6 -16.5q0 -13 18 -26q-2 -14 -12.5 -23t-27.5 -9t-29.5 11 t-12.5 30q0 29 44 73l162 158h-101q-25 0 -50 -27z" />
<glyph horiz-adv-x="370" d="M186 192q-51 0 -85 39.5t-34 105.5q0 63 18 124q30 104 89 157.5t121 53.5q53 0 87 -39t34 -106q0 -61 -21 -130q-32 -98 -89.5 -151.5t-119.5 -53.5zM302 442q30 102 30 143q0 54 -32 54q-29 0 -57.5 -48t-62.5 -169q-30 -102 -30 -143q0 -54 32 -54q29 0 57 48.5 t63 168.5z" />
<glyph horiz-adv-x="288" d="M123 309l80 284l-53 10l2 19l154 50l18 -10l-102 -355q-11 -37 -21 -76l65 -8l-4 -24l-117 1l-120 -1l4 24l70 8q22 70 24 78z" />
<glyph horiz-adv-x="350" d="M318 299l22 -15l-35 -85l-99 1h-108l-71 -1l2 33l152 135q81 72 108 107t27 65q0 27 -13 43.5t-35 16.5q-49 0 -108 -64l-26 19q67 117 164 117q51 0 83.5 -32t32.5 -84q0 -46 -33.5 -86t-140.5 -118l-97 -71h98q48 0 77 19z" />
<glyph horiz-adv-x="343" d="M161 192q-50 0 -76 13q-35 20 -35 52q0 18 13 30.5t33 12.5q22 0 35 -12q0 -62 48 -62q34 0 53 21t19 55q0 52 -47 107l-17 20l6 23l33 14q86 36 86 85q0 47 -44 47q-45 0 -93 -50l-27 18q57 106 145 106q46 0 75.5 -27t29.5 -68q0 -37 -24.5 -63t-81.5 -51l-9 -4l9 -11 q47 -57 47 -116q0 -62 -50 -101t-128 -39z" />
<glyph horiz-adv-x="365" d="M322 343l-10 -37q-7 -26 -25 -105l-92 -4l-9 17l37 129h-170l3 33q113 147 267 289h92l-77 -266q23 0 46 23l20 -13l-28 -66h-54zM239 399l54 186q-116 -118 -167 -186h113z" />
<glyph horiz-adv-x="332" d="M147 192q-55 0 -81 12q-37 16 -37 51q0 20 13 33.5t33 13.5q21 0 40 -12q0 -62 52 -62q41 0 64.5 22.5t23.5 60.5q0 65 -70 99l-56 27l-8 15l79 212h144l76 1l-22 -82h-185l-22 -63l41 -21q106 -54 106 -145q0 -72 -52.5 -117t-138.5 -45z" />
<glyph horiz-adv-x="364" d="M430 660q-172 -80 -244 -182q30 16 64 16q56 0 93.5 -36.5t37.5 -101.5q0 -81 -60 -128q-46 -36 -115 -36q-68 0 -109.5 41.5t-41.5 121.5q0 105 76.5 184t251.5 139l35 12zM228 455q-30 0 -60 -22q-16 -52 -16 -104q0 -51 15 -77.5t39 -26.5q32 0 53.5 36t21.5 101 q0 93 -53 93z" />
<glyph horiz-adv-x="350" d="M139 561l-22 14l42 92l83 -2h199v-21l-190 -270q-36 -50 -36 -84q0 -23 23 -35q0 -63 -54 -63q-26 0 -43 17t-17 45q0 42 55 110l177 220h-154q-40 0 -63 -23z" />
<glyph horiz-adv-x="367" d="M421 569q0 -39 -28 -65t-95 -52l12 -12q54 -54 54 -116q0 -60 -46 -96t-114 -36q-66 0 -106 28.5t-40 79.5q0 86 130 134q-47 53 -47 106q0 58 44.5 95t105.5 37q38 0 66 -11q64 -28 64 -92zM243 376l-35 36q-64 -44 -64 -115q0 -32 18.5 -52t49.5 -20t50 19.5t19 48.5 q0 45 -38 83zM223 569q0 -40 35 -75l20 -20q63 46 63 104q0 26 -15 43.5t-40 17.5q-26 0 -44.5 -20.5t-18.5 -49.5z" />
<glyph horiz-adv-x="364" d="M65 174l-12 30q172 80 244 182q-30 -16 -64 -16q-56 0 -93.5 36.5t-37.5 101.5q0 81 60 128q46 36 115 36q68 0 109.5 -41.5t41.5 -121.5q0 -105 -76.5 -184t-251.5 -139zM255 409q30 0 60 22q16 52 16 104q0 51 -15 77.5t-39 26.5q-32 0 -53.5 -36t-21.5 -101 q0 -93 53 -93z" />
<glyph horiz-adv-x="370" d="M132 -8q-51 0 -85 39.5t-34 105.5q0 63 18 124q30 104 89 157.5t121 53.5q53 0 87 -39t34 -106q0 -61 -21 -130q-32 -98 -89.5 -151.5t-119.5 -53.5zM248 242q30 102 30 143q0 54 -32 54q-29 0 -57.5 -48t-62.5 -169q-30 -102 -30 -143q0 -54 32 -54q29 0 57 48.5 t63 168.5z" />
<glyph horiz-adv-x="288" d="M79 110l80 284l-53 10l2 19l154 50l18 -10l-102 -355q-11 -37 -21 -76l65 -8l-4 -24l-117 1l-120 -1l4 24l70 8q22 70 24 78z" />
<glyph horiz-adv-x="350" d="M274 100l22 -15l-35 -85l-99 1h-108l-71 -1l2 33l152 135q81 72 108 107t27 65q0 27 -13 43.5t-35 16.5q-49 0 -108 -64l-26 19q67 117 164 117q51 0 83.5 -32t32.5 -84q0 -46 -33.5 -86t-140.5 -118l-97 -71h98q48 0 77 19z" />
<glyph horiz-adv-x="343" d="M117 -8q-50 0 -76 13q-35 20 -35 52q0 18 13 30.5t33 12.5q22 0 35 -12q0 -62 48 -62q34 0 53 21t19 55q0 52 -47 107l-17 20l6 23l33 14q86 36 86 85q0 47 -44 47q-45 0 -93 -50l-27 18q57 106 145 106q46 0 75.5 -27t29.5 -68q0 -37 -24.5 -63t-81.5 -51l-9 -4l9 -11 q47 -57 47 -116q0 -62 -50 -101t-128 -39z" />
<glyph horiz-adv-x="365" d="M278 143l-10 -37q-7 -26 -25 -105l-92 -4l-9 17l37 129h-170l3 33q113 147 267 289h92l-77 -266q23 0 46 23l20 -13l-28 -66h-54zM195 199l54 186q-116 -118 -167 -186h113z" />
<glyph horiz-adv-x="332" d="M103 -8q-55 0 -81 12q-37 16 -37 51q0 20 13 33.5t33 13.5q21 0 40 -12q0 -62 52 -62q41 0 64.5 22.5t23.5 60.5q0 65 -70 99l-56 27l-8 15l79 212h144l76 1l-22 -82h-185l-22 -63l41 -21q106 -54 106 -145q0 -72 -52.5 -117t-138.5 -45z" />
<glyph horiz-adv-x="364" d="M386 460q-172 -80 -244 -182q30 16 64 16q56 0 93.5 -36.5t37.5 -101.5q0 -81 -60 -128q-46 -36 -115 -36q-68 0 -109.5 41.5t-41.5 121.5q0 105 76.5 184t251.5 139l35 12zM184 255q-30 0 -60 -22q-16 -52 -16 -104q0 -51 15 -77.5t39 -26.5q32 0 53.5 36t21.5 101 q0 93 -53 93z" />
<glyph horiz-adv-x="350" d="M95 361l-22 14l42 92l83 -2h199v-21l-190 -270q-36 -50 -36 -84q0 -23 23 -35q0 -63 -54 -63q-26 0 -43 17t-17 45q0 42 55 110l177 220h-154q-40 0 -63 -23z" />
<glyph horiz-adv-x="367" d="M377 369q0 -39 -28 -65t-95 -52l12 -12q54 -54 54 -116q0 -60 -46 -96t-114 -36q-66 0 -106 28.5t-40 79.5q0 86 130 134q-47 53 -47 106q0 58 44.5 95t105.5 37q38 0 66 -11q64 -28 64 -92zM199 176l-35 36q-64 -44 -64 -115q0 -32 18.5 -52t49.5 -20t50 19.5t19 48.5 q0 45 -38 83zM179 369q0 -40 35 -75l20 -20q63 46 63 104q0 26 -15 43.5t-40 17.5q-26 0 -44.5 -20.5t-18.5 -49.5z" />
<glyph horiz-adv-x="364" d="M21 -26l-12 30q172 80 244 182q-30 -16 -64 -16q-56 0 -93.5 36.5t-37.5 101.5q0 81 60 128q46 36 115 36q68 0 109.5 -41.5t41.5 -121.5q0 -105 -76.5 -184t-251.5 -139zM211 209q30 0 60 22q16 52 16 104q0 51 -15 77.5t-39 26.5q-32 0 -53.5 -36t-21.5 -101 q0 -93 53 -93z" />
<glyph horiz-adv-x="350" d="M44 190q0 194 99 350.5t281 268.5l27 -42q-144 -115 -223.5 -263.5t-79.5 -314.5q0 -104 16 -171.5t62 -132.5l-35 -32q-147 137 -147 337z" />
<glyph horiz-adv-x="350" d="M355 472q0 -194 -99 -350.5t-281 -268.5l-27 42q144 115 223.5 263.5t79.5 314.5q0 104 -16 171.5t-62 132.5l35 32q147 -137 147 -337z" />
<glyph horiz-adv-x="350" d="M222 809h246l-13 -54h-148l-212 -848h148l-13 -54h-246z" />
<glyph horiz-adv-x="350" d="M168 809h246l-238 -956h-245l13 54h147l212 848h-148z" />
<glyph horiz-adv-x="350" d="M34 356h30q49 0 75 23t39 68q10 34 20.5 108t20.5 112q18 67 68.5 104.5t126.5 37.5h72l-16 -54h-40q-39 0 -68 -21t-39 -57q-11 -42 -21.5 -117.5t-22.5 -117.5q-15 -54 -47 -79.5t-89 -37.5q68 -29 68 -90q0 -25 -11 -60q-7 -24 -34.5 -84t-38.5 -101q-4 -13 -4 -29 q0 -24 16.5 -39t45.5 -15h42l-16 -54h-50q-61 0 -97 31.5t-36 79.5q0 32 16 80q3 9 29.5 70.5t37.5 100.5q6 21 6 37q0 27 -15 40.5t-53 13.5h-30z" />
<glyph horiz-adv-x="350" d="M363 306h-30q-49 0 -75 -23t-39 -68q-10 -34 -20.5 -108t-20.5 -112q-18 -67 -68.5 -104.5t-126.5 -37.5h-72l16 54h40q39 0 68 21t39 57q11 42 21.5 117.5t22.5 117.5q15 54 47 79.5t89 37.5q-68 29 -68 90q0 25 11 60q7 24 34.5 84t38.5 101q4 13 4 29q0 24 -16.5 39 t-45.5 15h-42l16 54h50q61 0 97 -31.5t36 -79.5q0 -32 -16 -80q-3 -9 -29.5 -70.5t-37.5 -100.5q-6 -21 -6 -37q0 -27 15 -40.5t53 -13.5h30z" />
<glyph horiz-adv-x="250" d="M23 290l20 83h230l-21 -83h-229z" />
<glyph horiz-adv-x="250" d="M23 290l20 83h230l-21 -83h-229z" />
<glyph d="M15 300l16 63h500l-16 -63h-500z" />
<glyph horiz-adv-x="1000" d="M15 300l16 63h1000l-16 -63h-1000z" />
<glyph horiz-adv-x="470" d="M50 283q0 66 37 109q50 60 190 105l9 -30q-76 -37 -105.5 -65t-29.5 -58q0 -47 60 -57q14 -21 14 -49q0 -32 -21.5 -52.5t-53.5 -20.5q-43 0 -71.5 31.5t-28.5 86.5zM270 283q0 66 37 109q50 60 190 105l9 -30q-76 -37 -105.5 -65t-29.5 -58q0 -47 60 -57q14 -21 14 -49 q0 -32 -21.5 -52.5t-53.5 -20.5q-43 0 -71.5 31.5t-28.5 86.5z" />
<glyph horiz-adv-x="470" d="M260 379q0 -66 -37 -109q-50 -60 -190 -105l-9 30q76 37 105.5 65t29.5 58q0 47 -60 57q-14 21 -14 49q0 32 21.5 52.5t53.5 20.5q43 0 71.5 -31.5t28.5 -86.5zM480 379q0 -66 -37 -109q-50 -60 -190 -105l-9 30q76 37 105.5 65t29.5 58q0 47 -60 57q-14 21 -14 49 q0 32 21.5 52.5t53.5 20.5q43 0 71.5 -31.5t28.5 -86.5z" />
<glyph horiz-adv-x="250" d="M50 283q0 66 37 109q50 60 190 105l9 -30q-76 -37 -105.5 -65t-29.5 -58q0 -47 60 -57q14 -21 14 -49q0 -32 -21.5 -52.5t-53.5 -20.5q-43 0 -71.5 31.5t-28.5 86.5z" />
<glyph horiz-adv-x="250" d="M260 379q0 -66 -37 -109q-50 -60 -190 -105l-9 30q76 37 105.5 65t29.5 58q0 47 -60 57q-14 21 -14 49q0 32 21.5 52.5t53.5 20.5q43 0 71.5 -31.5t28.5 -86.5z" />
<glyph d="M225 -12q-83 0 -133 59.5t-50 158.5q0 122 72 209.5t183 87.5q83 0 132.5 -59.5t49.5 -158.5q0 -123 -72.5 -210t-181.5 -87zM300 460q-56 0 -96 -93q-50 -112 -50 -229q0 -107 66 -107q57 0 97 93q50 112 50 229q0 107 -67 107z" />
<glyph d="M173 154l52 184q4 15 15.5 55t17.5 61l-97 9l5 29l165 -2l162 2l-5 -29l-101 -9q-15 -48 -35 -116l-52 -184q-25 -87 -33 -116h-1l98 -9l-4 -29l-161 2l-166 -2l4 29l101 9q17 53 35 116z" />
<glyph d="M425 129l-49 -129l-125 2h-154l-110 -2l6 47q117 93 224 152q87 48 115.5 78.5t28.5 64.5q0 28 -18.5 46t-49.5 18q-68 0 -137 -77l-32 22q40 75 88 114t120 39q60 0 103.5 -39.5t43.5 -97.5q0 -66 -40.5 -105t-153.5 -86q-80 -33 -135 -65h131q44 0 69 6.5t46 25.5z" />
<glyph d="M287 197l-16 -9l9 -8q67 -60 67 -154t-71 -154.5t-253 -106.5l-12 34q220 76 220 196q0 72 -59 118l-24 19v24l64 43q64 43 90.5 76.5t26.5 67.5q0 27 -15.5 43t-40.5 16q-58 0 -112 -65l-31 16q23 71 69.5 111t107.5 40q57 0 92.5 -38t35.5 -96q0 -55 -32.5 -90.5 t-115.5 -82.5z" />
<glyph d="M240 75l89 309h-4q-146 -143 -263 -309h178zM347 0l-16 -55q-12 -42 -39 -166l-121 -6l-11 20l60 207h-244l-3 40q172 243 393 452h122l-120 -417h8q35 0 61 25l24 -13l-37 -87h-77z" />
<glyph d="M220 490h162l104 2l-42 -114h-226l-40 -94q160 -100 160 -254q0 -96 -66 -161.5t-197 -107.5l-16 38q165 72 165 189q0 51 -30.5 95.5t-111.5 100.5z" />
<glyph d="M545 659q-261 -126 -353 -273q49 32 101 32q77 0 129 -51.5t52 -145.5q0 -117 -83 -181q-67 -52 -161 -52q-96 0 -153.5 59t-57.5 173q0 150 110.5 265.5t359.5 198.5l39 13zM262 367q-44 0 -96 -39q-22 -74 -22 -145q0 -75 23.5 -114t62.5 -39q49 0 82 53t33 147 q0 137 -83 137z" />
<glyph d="M314 161l101 217h-233q-32 0 -46 -6t-33 -24l-27 14l51 130l114 -2h258l2 -28l-72 -166q-154 -353 -225 -448q-33 -44 -61.5 -59.5t-62.5 -15.5q-41 0 -65 20t-24 52q0 45 37 67q31 -17 66 -17q25 0 43 7.5t44.5 33t58.5 81t74 144.5z" />
<glyph d="M528 529q0 -56 -40 -94t-137 -75l18 -19q77 -81 77 -168q0 -86 -64.5 -135.5t-158.5 -49.5q-92 0 -148 40.5t-56 113.5q0 62 44.5 109t144.5 82q-69 76 -69 154q0 83 62 135.5t147 52.5q54 0 92 -16q41 -17 64.5 -52t23.5 -78zM285 252l-53 55q-103 -75 -103 -170 q0 -48 28.5 -77.5t76.5 -29.5t77.5 29t29.5 72q0 63 -56 121zM244 530q0 -54 52 -110l33 -36q98 67 98 157q0 40 -23 66t-63 26q-41 0 -69 -30t-28 -73z" />
<glyph d="M-24 -205l-17 38q264 128 356 274q-50 -33 -104 -33q-78 0 -129.5 49t-51.5 142q0 119 83 186q67 53 160 53q97 0 154.5 -57.5t57.5 -174.5q0 -153 -112 -273.5t-359 -192.5zM242 125q44 0 96 39q22 74 22 145q0 75 -23.5 114t-62.5 39q-48 0 -81.5 -53.5t-33.5 -146.5 q0 -137 83 -137z" />
<glyph horiz-adv-x="921" d="M767 299q0 49 -16.5 76t-40.5 27q-36 0 -97 -56l-76 -254l38 -61q11 -3 21 -3q69 0 120 79.5t51 191.5zM370 -74l216 727q-30 -8 -59 -8q-38 0 -83 7t-72 7q-46 0 -72.5 -26.5t-26.5 -65.5q0 -63 61 -95q54 -29 54 -71q0 -25 -15 -39.5t-39 -14.5q-26 0 -45 17 q-2 35 -19.5 54t-44.5 19q-24 0 -40 -14t-16 -36t16.5 -42t67.5 -61q86 -68 86 -149q0 -68 -50 -107.5t-134 -39.5q-77 0 -114 25q-35 24 -35 65q0 24 15.5 39t39.5 15q22 0 45 -17q0 -77 74 -77q63 0 63 49q0 26 -19.5 50.5t-74.5 71.5q-72 63 -72 125q0 69 48.5 108.5 t130.5 39.5q-33 40 -33 84q0 58 42 99.5t107 41.5q28 0 79 -8t77 -8q67 0 171 38l31 -9q-11 -34 -31.5 -91t-29.5 -84l-48 -145l3 -2q44 48 73 66t62 18q54 0 91 -45t37 -131q0 -158 -121 -258q-74 -60 -173 -60q-41 0 -79 15l-23 -78q-13 -48 -29 -115l86 -10l-3 -27 l-141 2l-114 -2l3 27l41 10q23 73 36 116z" />
<glyph horiz-adv-x="250" d="M69 332q0 34 23.5 57t57.5 23t56.5 -23t22.5 -57q0 -35 -22 -57.5t-57 -22.5q-34 0 -57.5 22.5t-23.5 57.5z" />
<glyph horiz-adv-x="1328" d="M515 -12h-32l-242 563l-124 -395q-7 -24 -30 -116l72 -11l-4 -29l-92 2l-111 -2l4 29l79 11q8 25 15.5 47.5t13.5 42t8 26.5l135 434l-68 46l9 29l185 -2l197 -465l97 311q10 30 31 114l-72 13l5 29l92 -2l113 2l-5 -29l-80 -13q-23 -69 -36 -114zM971 406q0 100 -49 100 q-22 0 -38 -18q-45 -48 -45 -165q0 -99 50 -99q21 0 36 15q46 44 46 167zM737 348q0 98 82 157q47 33 105 33q65 0 107 -44t42 -111q0 -102 -82 -158q-46 -33 -106 -33q-66 0 -107 44.5t-41 111.5zM1318 295q0 -47 -36 -75t-92 -28q-48 0 -73 17q-25 18 -25 44 q0 17 11.5 29.5t30.5 12.5q20 0 36 -14q0 -50 37 -50q34 0 34 33q0 19 -11.5 34.5t-44.5 47.5q-45 44 -45 88q0 47 35 75.5t86 28.5q42 0 66.5 -15.5t24.5 -41.5q0 -18 -12 -28.5t-30 -10.5q-20 0 -35 13q-3 48 -32 48q-12 0 -20.5 -9t-8.5 -23q0 -16 10 -30.5t39 -40.5 q55 -49 55 -105z" />
<glyph horiz-adv-x="920" d="M323 152l46 144q12 37 12 57q0 40 -39 40q-36 0 -91 -36l-63 -205q-21 -64 -42 -150l-117 -6l-11 20q40 112 47 136l76 247l-79 13v25l172 45l23 -12l-3 -77q74 89 152 89q50 0 75.5 -29t25.5 -79q0 -31 -16 -82l-46 -141q-20 -61 -20 -81q0 -35 52 -35h29v-26 q-43 -21 -100 -21q-48 0 -74 22.5t-26 56.5q0 32 17 85zM825 406q0 100 -49 100q-22 0 -38 -18q-45 -48 -45 -165q0 -99 50 -99q21 0 36 15q46 44 46 167zM591 348q0 98 82 157q47 33 105 33q65 0 107 -44t42 -111q0 -102 -82 -158q-47 -33 -106 -33q-66 0 -107 44.5 t-41 111.5z" />
<glyph horiz-adv-x="1182" d="M323 152l46 144q12 37 12 57q0 40 -39 40q-36 0 -91 -36l-63 -205q-21 -64 -42 -150l-117 -6l-11 20q40 112 47 136l76 247l-79 13v25l172 45l23 -12l-3 -77q74 89 152 89q50 0 75.5 -29t25.5 -79q0 -31 -16 -82l-46 -141q-20 -61 -20 -81q0 -35 52 -35h29v-26 q-43 -21 -100 -21q-48 0 -74 22.5t-26 56.5q0 32 17 85zM825 406q0 100 -49 100q-22 0 -38 -18q-45 -48 -45 -165q0 -99 50 -99q21 0 36 15q46 44 46 167zM591 348q0 98 82 157q47 33 105 33q65 0 107 -44t42 -111q0 -102 -82 -158q-47 -33 -106 -33q-66 0 -107 44.5 t-41 111.5zM1172 295q0 -47 -36 -75t-92 -28q-48 0 -73 17q-25 18 -25 44q0 17 11.5 29.5t30.5 12.5q20 0 36 -14q0 -50 37 -50q34 0 34 33q0 19 -11.5 34.5t-44.5 47.5q-45 44 -45 88q0 47 35 75.5t86 28.5q42 0 66.5 -15.5t24.5 -41.5q0 -18 -12 -28.5t-30 -10.5 q-20 0 -35 13q-3 48 -32 48q-12 0 -20.5 -9t-8.5 -23q0 -16 10 -30.5t39 -40.5q55 -49 55 -105z" />
<glyph d="M194 -12q-71 0 -117.5 56t-46.5 150q0 89 27 177q46 149 127.5 226.5t166.5 77.5q73 0 120.5 -55t47.5 -151q0 -91 -30 -186q-45 -144 -125.5 -219.5t-169.5 -75.5zM178 318q-22 -76 -24 -84l254 265q4 34 4 52q0 82 -53 82q-46 0 -88 -70t-93 -245zM369 345q5 17 13 46 t10 34l-254 -264q-3 -26 -3 -49q0 -82 53 -82q46 0 88 70t93 245z" />
<glyph horiz-adv-x="384" d="M290 192q-29 0 -45.5 15.5t-16.5 42.5q-49 -58 -96 -58q-40 0 -64.5 27.5t-24.5 82.5t23 105.5t61 83.5q54 47 127 47q49 0 94 -28l34 28l25 -12q-29 -74 -44 -118l-42 -124q-7 -19 -7 -29q0 -15 15 -15q17 0 38 11l21 11l14 -24q-55 -46 -112 -46zM286 454l-26 50 q-3 2 -11 2q-42 0 -77.5 -57.5t-35.5 -136.5q0 -60 36 -60q27 0 61 42z" />
<glyph horiz-adv-x="374" d="M287 409q0 70 -38 70q-23 0 -62 -33l-50 -177l22 -44q1 0 6 -0.5t7 -0.5q45 0 80 52.5t35 132.5zM378 413q0 -102 -88 -178q-52 -43 -120 -43q-86 0 -132 57l93 312l18 65l-57 8v26l151 20l17 -12q-17 -47 -40 -119l-19 -55q45 44 86 44q38 0 64.5 -33.5t26.5 -91.5z" />
<glyph horiz-adv-x="304" d="M222 503q-29 0 -53 -35q-31 -43 -31 -122q0 -84 62 -84q39 0 72 47l25 -18q-33 -99 -127 -99q-52 0 -87.5 34.5t-35.5 96.5q0 104 75 168q54 47 114 47q32 0 49 -7q44 -19 44 -59q0 -21 -13 -34t-34 -13q-28 0 -44 27q6 14 6 26q0 25 -22 25z" />
<glyph horiz-adv-x="382" d="M301 192q-64 0 -71 59q-47 -59 -91 -59q-40 0 -67.5 29.5t-27.5 85.5q0 109 77 181q54 50 124 50q37 0 58 -9l10 32l17 65l-58 8v25l149 21l18 -12q-20 -56 -39 -119l-79 -266q-5 -17 -5 -28q0 -15 18 -15q13 0 33 14l21 14l14 -23q-57 -53 -101 -53zM248 506 q-44 0 -78 -54t-34 -131q0 -70 37 -70q21 0 59 37l52 171l-23 44q-5 3 -13 3z" />
<glyph horiz-adv-x="290" d="M256 393q-49 -18 -122 -35q-2 -20 -2 -35q0 -61 38 -61q36 0 79 46l23 -20q-48 -96 -126 -96q-46 0 -75 29t-29 80q0 91 62 164t131 73q39 0 61.5 -17.5t22.5 -48.5q0 -54 -63 -79zM168 464q-19 -29 -28 -75q98 28 98 81q0 26 -24 26t-46 -32z" />
<glyph horiz-adv-x="231" d="M206 485l-52 -191q-20 -72 -57 -138t-80 -94q-31 -20 -72 -20q-35 0 -55 15.5t-20 41.5q0 21 13 35t32 14q23 0 42 -17q0 -39 28 -39q30 0 44 53q9 36 25 116q13 63 23 101l32 123h-43l11 35l46 9q33 106 109 140q24 11 50 11q32 0 53 -10q34 -16 34 -50q0 -45 -47 -45 q-32 0 -45 24q4 12 4 23q0 28 -20 28q-19 0 -27 -31q-2 -8 -3.5 -16t-3 -18t-2.5 -15l-8 -40h79l-14 -45h-76z" />
<glyph horiz-adv-x="339" d="M182 152l-87 28q-29 -18 -29 -48q0 -25 23 -39.5t65 -14.5q64 0 64 40q0 22 -36 34zM265 449q0 60 -32 60q-23 0 -40 -29q-19 -38 -19 -83q0 -27 9.5 -42.5t23.5 -15.5q19 0 38 27q20 29 20 83zM359 523q-21 0 -32 -22q28 -33 28 -69q0 -70 -71 -103q-27 -13 -85 -24 l-62 -12q-17 -4 -17 -15q0 -10 29 -21l67 -24q76 -27 76 -87q0 -46 -41 -75t-117 -29q-63 0 -100.5 21.5t-37.5 54.5q0 44 74 72q-36 24 -36 57q0 36 41 60l67 15q-25 13 -42.5 36.5t-17.5 52.5q0 53 44.5 90t108.5 37q35 0 61 -13q14 64 61 64q19 0 31 -11.5t12 -28.5 q0 -21 -18 -33q-10 7 -23 7z" />
<glyph horiz-adv-x="373" d="M61 308l75 253l17 65l-58 8v25l149 21l19 -12q-3 -11 -18 -54t-23 -67l-19 -61q54 52 99 52q37 0 56 -20.5t19 -55.5q0 -27 -11 -59l-32 -97q-14 -42 -14 -55q0 -23 31 -23h26v-21q-38 -15 -75 -15q-36 0 -55 16t-19 41q0 24 15 70l29 89q8 23 8 39q0 26 -22 26 q-24 0 -60 -24l-42 -143q-17 -54 -29 -105l-89 -4l-10 17q22 55 33 94z" />
<glyph horiz-adv-x="198" d="M118 486l-62 7v25l155 20l17 -12q-31 -78 -45 -118l-42 -125q-7 -20 -7 -31q0 -13 15 -13q9 0 33 8l25 9l11 -25q-66 -39 -121 -39q-29 0 -45.5 12t-16.5 32q0 18 12 51zM130 623q0 24 17 40.5t42 16.5q26 0 43 -16.5t17 -40.5q0 -25 -17 -40.5t-43 -15.5t-42.5 15.5 t-16.5 40.5z" />
<glyph horiz-adv-x="205" d="M237 527l-50 -170q-35 -120 -88 -204q-32 -49 -77.5 -80t-99.5 -31q-42 0 -66.5 17.5t-24.5 45.5q0 22 15 37.5t36 15.5q27 0 45 -17q0 -48 41 -48q49 0 76 94l87 298l-87 8v25l175 20zM133 623q0 24 17.5 40.5t42.5 16.5t42 -16.5t17 -40.5q0 -25 -16.5 -40.5 t-42.5 -15.5t-43 15.5t-17 40.5z" />
<glyph horiz-adv-x="384" d="M231 549l-46 -150q14 1 23.5 6.5t28.5 23.5l17 16q31 29 48 54l-26 9l2 22l73 -1l65 1l-2 -22l-44 -11q-58 -45 -84 -71l-33 -32q20 -12 30.5 -25.5t20.5 -39.5l27 -73q6 -16 19 -16q14 0 35 23l20 -18q-20 -29 -39 -41t-48 -12q-62 0 -86 70l-22 63q-13 40 -34 43 l-14 -48l-31 -119l-88 -4l-9 17q20 56 32 94l74 253l17 65l-57 8v26l150 20l18 -11q-6 -23 -19.5 -65t-17.5 -55z" />
<glyph horiz-adv-x="199" d="M51 308l86 253l17 65l-56 8v26l151 20l18 -12q-5 -15 -19.5 -56t-21.5 -63l-78 -243q-14 -42 -14 -55q0 -19 18 -19q9 0 24 3l18 4l4 -24q-49 -23 -94 -23q-30 0 -47.5 15t-17.5 43q0 25 12 58z" />
<glyph horiz-adv-x="555" d="M246 307l32 101q8 27 8 39q0 26 -23 26q-25 0 -59 -24l-40 -143q-5 -17 -27 -105l-89 -4l-10 17q19 53 31 94l48 169l-53 10v19l125 32l20 -9l-2 -47q51 56 100 56q55 0 72 -56q52 56 103 56q37 0 56.5 -20.5t19.5 -55.5q0 -24 -12 -59l-36 -99q-13 -35 -13 -53 q0 -23 30 -23h28v-21q-44 -15 -88 -15q-64 0 -64 53q0 28 13 63l36 100q8 21 8 36q0 29 -25 29q-21 0 -54 -23q-1 -18 -11 -51l-29 -93q-17 -54 -29 -105l-89 -4l-8 17q5 16 12.5 37.5t12.5 35.5t6 20z" />
<glyph horiz-adv-x="379" d="M245 308l33 100q8 23 8 39q0 26 -23 26q-22 0 -58 -24l-44 -143q-17 -54 -29 -105l-89 -4l-9 17q20 56 31 93l53 171l-55 9v19l126 32l20 -9l-2 -50q53 59 102 59q36 0 55 -20.5t19 -55.5q0 -25 -11 -59l-33 -97q-14 -40 -14 -55q0 -23 32 -23h25v-21q-31 -15 -75 -15 q-35 0 -54.5 16t-19.5 41q0 21 12 59z" />
<glyph horiz-adv-x="379" d="M284 406q0 100 -49 100q-21 0 -38 -18q-45 -48 -45 -165q0 -99 50 -99q21 0 36 15q46 44 46 167zM50 348q0 98 82 157q46 33 105 33q65 0 107 -44t42 -111q0 -102 -82 -158q-46 -33 -106 -33q-66 0 -107 44.5t-41 111.5z" />
<glyph horiz-adv-x="381" d="M291 409q0 34 -10 52t-26 18q-23 0 -61 -35l-52 -180l25 -39q3 -1 10 -1q47 0 80.5 54t33.5 131zM16 151l97 327l-55 9v19l125 32l20 -9l-5 -46q50 55 94 55q39 0 66 -32.5t27 -93.5q0 -104 -87 -178q-51 -42 -123 -42q-28 0 -50 7l-15 -50q-19 -68 -21 -77l61 -8l-2 -22 l-104 1l-84 -1l2 22l29 7z" />
<glyph horiz-adv-x="369" d="M288 454l-25 51q-4 1 -9 1q-45 0 -82.5 -56t-37.5 -134q0 -65 35 -65q26 0 67 36zM400 526l-109 -378q-13 -48 -19 -77l28 -7l-2 -22l-96 1l-92 -1l4 22l60 8q15 51 23 77l31 98q-52 -55 -91 -55q-41 0 -66.5 29t-25.5 86q0 107 80 179q58 52 133 52q46 0 83 -26l33 26z " />
<glyph horiz-adv-x="280" d="M205 529l-9 -63q16 26 35 47q23 25 53 25q22 0 36.5 -13.5t14.5 -35.5t-14.5 -35t-38.5 -15q-13 20 -32 20q-27 0 -59 -33l-34 -120q-18 -62 -29 -105l-90 -4l-9 17q22 55 33 94l35 117l13 53l-52 9v19l127 32z" />
<glyph horiz-adv-x="262" d="M252 295q0 -47 -36 -75t-92 -28q-48 0 -73 17q-25 18 -25 44q0 17 11.5 29.5t30.5 12.5q20 0 36 -14q0 -50 37 -50q34 0 34 33q0 19 -11.5 34.5t-44.5 47.5q-45 44 -45 88q0 47 35 75.5t86 28.5q42 0 66.5 -15.5t24.5 -41.5q0 -18 -12 -28.5t-30 -10.5q-20 0 -35 13 q-3 48 -32 48q-12 0 -20.5 -9t-8.5 -23q0 -16 10 -30.5t39 -40.5q55 -49 55 -105z" />
<glyph horiz-adv-x="253" d="M254 308l21 -23q-79 -93 -159 -93q-34 0 -53 16.5t-19 45.5q0 26 13 72l45 159h-41l8 36l44 9l16 70l90 34l23 -9l-31 -95h87l-11 -45h-89l-52 -186q-7 -25 -7 -34q0 -15 15 -15q18 0 38.5 12t61.5 46z" />
<glyph horiz-adv-x="374" d="M365 422l-38 -115q-13 -39 -13 -55q0 -20 23 -20q7 0 21 3l17 4l4 -24q-44 -23 -88 -23q-28 0 -46.5 15t-21.5 41q-51 -56 -100 -56q-36 0 -54.5 20.5t-18.5 55.5q0 28 12 64l53 153q-10 1 -29.5 4t-26.5 4v24l148 21l19 -12q-14 -33 -43 -118l-31 -87q-9 -26 -9 -38 q0 -25 26 -25q22 0 53 21l48 145q12 35 30 105l89 4l10 -17q-21 -53 -34 -94z" />
<glyph horiz-adv-x="359" d="M239 453l-18 18q30 67 78 67q35 0 57.5 -25.5t22.5 -71.5q0 -71 -50 -147q-36 -57 -72.5 -79.5t-83.5 -22.5t-74.5 23.5t-27.5 57.5q0 41 39 91l14 18q19 24 19 47q0 15 -7.5 24t-19.5 9q-25 0 -57 -46l-25 14l12 32q28 76 88 76q29 0 47.5 -20t18.5 -56q0 -31 -28 -82 l-6 -11q-13 -25 -13 -46t16 -35.5t43 -14.5q51 0 81 46q22 35 22 75q0 73 -40 73q-13 0 -36 -14z" />
<glyph horiz-adv-x="468" d="M353 538q44 0 73 -42.5t29 -125.5q0 -84 -29 -131t-79 -47q-30 0 -53 20.5t-32 56.5q-46 -77 -105 -77q-41 0 -64 20t-23 54q0 41 50 102l14 17q16 20 16 44q0 33 -29 33q-25 0 -58 -41l-22 17l10 23q34 77 89 77q33 0 53.5 -21t20.5 -54q0 -35 -35 -80l-11 -14 q-20 -27 -20 -53q0 -18 11.5 -29.5t32.5 -11.5q29 0 59 29q-7 24 -7 47q0 30 13 46.5t29 16.5t25.5 -11.5t9.5 -30.5q0 -38 -30 -76q24 -21 55 -21q28 0 46.5 25.5t18.5 67.5q0 44 -21 69t-51 25q-25 0 -48 -16l-18 17l6 14q26 61 74 61z" />
<glyph horiz-adv-x="391" d="M259 436l2 -11l51 76q25 37 60 37q21 0 35 -13.5t14 -34.5q0 -47 -45 -47h-10q-3 17 -18 17q-12 0 -31 -22l-50 -57l17 -107q3 -21 18 -21q11 0 20 11.5t27 52.5l29 -10l-7 -24q-14 -47 -35.5 -69t-61.5 -22q-65 0 -81 81l-7 36l-51 -81q-22 -36 -64 -36 q-20 0 -34.5 12.5t-14.5 33.5q0 43 46 51q12 -17 31 -17q15 0 34 22l48 58l-16 104q-3 22 -17 22q-23 0 -36 -61l-33 5l5 24q20 92 87 92q37 0 57.5 -24.5t30.5 -77.5z" />
<glyph horiz-adv-x="351" d="M149 538q63 0 67 -69l11 -185l52 86q25 41 25 75q0 27 -21 39q0 21 14 37.5t37 16.5q22 0 35 -14.5t13 -36.5q0 -26 -21 -57l-155 -244q-91 -144 -198 -144q-46 0 -69.5 18t-23.5 46q0 22 15 36.5t36 14.5q23 0 41 -15q5 -49 41 -49q42 0 94 66l-18 301q0 14 -11 14 q-15 0 -61 -55l-22 18l25 37q43 64 94 64z" />
<glyph horiz-adv-x="325" d="M81 425l-26 14l37 91l61 -1h124l65 1l4 -19l-213 -209q16 4 28 4q37 0 66 -34l20 -23q16 -20 33 -20q16 0 30 16l11 12l22 -20q-24 -39 -46 -56t-54 -17q-46 0 -75 37l-34 43q-13 16 -26 16q-6 0 -12 -5.5t-6 -16.5q0 -13 18 -26q-2 -14 -12.5 -23t-27.5 -9t-29.5 11 t-12.5 30q0 29 44 73l162 158h-101q-25 0 -50 -27z" />
<glyph horiz-adv-x="245" d="M52 334q0 135 70 245.5t198 188.5l24 -34q-101 -80 -155.5 -182.5t-54.5 -218.5q0 -72 11 -119t42 -92l-28 -26q-107 101 -107 238z" />
<glyph horiz-adv-x="245" d="M276 529q0 -135 -69.5 -245t-198.5 -189l-23 34q100 80 155 183.5t55 217.5q0 72 -11.5 119t-43.5 92l30 26q106 -101 106 -238z" />
<glyph horiz-adv-x="187" d="M40 337l14 62h171l-16 -62h-169z" />
<glyph horiz-adv-x="187" d="M168 217q0 -36 -22 -68q-19 -28 -53 -47t-98 -40l-7 26q100 42 100 90q0 33 -41 40q-11 16 -11 36q0 23 16.5 38t41.5 15q32 0 53 -24t21 -66z" />
<glyph horiz-adv-x="187" d="M39 250q0 25 18 41t44 16t42.5 -16t16.5 -41q0 -26 -16 -42t-43 -16q-26 0 -44 16.5t-18 41.5z" />
<glyph horiz-adv-x="350" d="M243 279h-52v130h-129v46h129v131h52v-131h131v-46h-131v-130z" />
<glyph horiz-adv-x="350" d="M373 472h-312v45h312v-45zM373 347h-312v45h312v-45z" />
<glyph horiz-adv-x="384" d="M200 -153q-29 0 -45.5 15.5t-16.5 42.5q-49 -58 -96 -58q-40 0 -64.5 27.5t-24.5 82.5t23 105.5t61 83.5q54 47 127 47q49 0 94 -28l34 28l25 -12q-29 -74 -44 -118l-42 -124q-7 -19 -7 -29q0 -15 15 -15q17 0 38 11l21 11l14 -24q-55 -46 -112 -46zM196 109l-26 50 q-3 2 -11 2q-42 0 -77.5 -57.5t-35.5 -136.5q0 -60 36 -60q27 0 61 42z" />
<glyph horiz-adv-x="374" d="M197 64q0 70 -38 70q-23 0 -62 -33l-50 -177l22 -44q1 0 6 -0.5t7 -0.5q45 0 80 52.5t35 132.5zM288 68q0 -102 -88 -178q-52 -43 -120 -43q-86 0 -132 57l93 312l18 65l-57 8v26l151 20l17 -12q-17 -47 -40 -119l-19 -55q45 44 86 44q38 0 64.5 -33.5t26.5 -91.5z" />
<glyph horiz-adv-x="304" d="M132 158q-29 0 -53 -35q-31 -43 -31 -122q0 -84 62 -84q39 0 72 47l25 -18q-33 -99 -127 -99q-52 0 -87.5 34.5t-35.5 96.5q0 104 75 168q54 47 114 47q32 0 49 -7q44 -19 44 -59q0 -21 -13 -34t-34 -13q-28 0 -44 27q6 13 6 26q0 25 -22 25z" />
<glyph horiz-adv-x="382" d="M211 -153q-64 0 -71 59q-47 -59 -91 -59q-40 0 -67.5 29.5t-27.5 85.5q0 109 77 181q54 50 124 50q37 0 58 -9l10 32l17 65l-58 8v25l149 21l18 -12q-20 -56 -39 -119l-79 -266q-5 -17 -5 -28q0 -15 18 -15q13 0 33 14l21 14l14 -23q-57 -53 -101 -53zM158 161 q-44 0 -78 -54t-34 -131q0 -70 37 -70q21 0 59 37l52 171l-23 44q-5 3 -13 3z" />
<glyph horiz-adv-x="290" d="M166 48q-49 -18 -122 -35q-2 -20 -2 -35q0 -61 38 -61q36 0 79 46l23 -20q-48 -96 -126 -96q-46 0 -75 29t-29 80q0 91 62 164t131 73q39 0 61.5 -17.5t22.5 -48.5q0 -54 -63 -79zM78 119q-19 -29 -28 -75q98 28 98 81q0 26 -24 26t-46 -32z" />
<glyph horiz-adv-x="231" d="M116 140l-52 -191q-20 -72 -57 -138t-80 -94q-31 -20 -72 -20q-35 0 -55 15.5t-20 41.5q0 21 13 35t32 14q23 0 42 -17q0 -39 28 -39q30 0 44 53q9 36 25 116q13 63 23 101l32 123h-43l11 35l46 9q33 106 109 140q24 11 50 11q32 0 53 -10q34 -16 34 -50q0 -45 -47 -45 q-32 0 -45 24q4 12 4 23q0 28 -20 28q-19 0 -27 -31q-2 -8 -3.5 -16t-3 -18t-2.5 -15l-8 -40h79l-14 -45h-76z" />
<glyph horiz-adv-x="339" d="M92 -193l-87 28q-29 -18 -29 -48q0 -25 23 -39.5t65 -14.5q64 0 64 40q0 22 -36 34zM175 104q0 60 -32 60q-23 0 -40 -29q-19 -38 -19 -83q0 -27 9.5 -42.5t23.5 -15.5q19 0 38 27q20 29 20 83zM269 178q-21 0 -32 -22q28 -33 28 -69q0 -70 -71 -103q-27 -13 -85 -24 l-62 -12q-17 -4 -17 -15q0 -10 29 -21l67 -24q76 -27 76 -87q0 -46 -41 -75t-117 -29q-63 0 -100.5 21.5t-37.5 54.5q0 44 74 72q-36 24 -36 57q0 36 41 60l67 15q-25 13 -42.5 36.5t-17.5 52.5q0 53 44.5 90t108.5 37q35 0 61 -13q14 64 61 64q19 0 31 -11.5t12 -28.5 q0 -21 -18 -33q-10 7 -23 7z" />
<glyph horiz-adv-x="373" d="M-29 -37l75 253l17 65l-58 8v25l149 21l19 -12q-3 -10 -18 -53.5t-23 -67.5l-19 -61q54 52 99 52q37 0 56 -20.5t19 -55.5q0 -27 -11 -59l-32 -97q-14 -42 -14 -55q0 -23 31 -23h26v-21q-38 -15 -75 -15q-36 0 -55 16t-19 41q0 24 15 70l29 89q8 23 8 39q0 26 -22 26 q-24 0 -60 -24l-42 -143q-17 -54 -29 -105l-89 -4l-10 17q22 55 33 94z" />
<glyph horiz-adv-x="198" d="M28 141l-62 7v25l155 20l17 -12q-31 -78 -45 -118l-42 -125q-7 -20 -7 -31q0 -13 15 -13q9 0 33 8l25 9l11 -25q-66 -39 -121 -39q-29 0 -45.5 12t-16.5 32q0 18 12 51zM40 278q0 24 17 40.5t42 16.5q26 0 43 -16.5t17 -40.5q0 -25 -17 -40.5t-43 -15.5t-42.5 15.5 t-16.5 40.5z" />
<glyph horiz-adv-x="205" d="M147 182l-50 -170q-35 -120 -88 -204q-32 -49 -77.5 -80t-99.5 -31q-42 0 -66.5 17.5t-24.5 45.5q0 22 15 37.5t36 15.5q27 0 45 -17q0 -48 41 -48q49 0 76 94l87 298l-87 8v25l175 20zM43 278q0 24 17.5 40.5t42.5 16.5t42 -16.5t17 -40.5q0 -25 -16.5 -40.5 t-42.5 -15.5t-43 15.5t-17 40.5z" />
<glyph horiz-adv-x="384" d="M141 204l-46 -150q14 1 23.5 6.5t28.5 23.5l17 16q31 29 48 54l-26 9l2 22l73 -1l65 1l-2 -22l-44 -11q-58 -45 -84 -71l-33 -32q20 -12 30.5 -25.5t20.5 -39.5l27 -73q6 -16 19 -16q14 0 35 23l20 -18q-20 -29 -39 -41t-48 -12q-62 0 -86 70l-22 63q-13 40 -34 43 l-14 -48l-31 -119l-88 -4l-9 17q20 56 32 94l74 253l17 65l-57 8v26l150 20l18 -11q-6 -23 -19.5 -65t-17.5 -55z" />
<glyph horiz-adv-x="199" d="M-39 -37l86 253l17 65l-56 8v26l151 20l18 -12q-5 -15 -19.5 -56t-21.5 -63l-78 -243q-14 -42 -14 -55q0 -19 18 -19q9 0 24 3l18 4l4 -24q-49 -23 -94 -23q-30 0 -47.5 15t-17.5 43q0 25 12 58z" />
<glyph horiz-adv-x="555" d="M156 -38l32 101q8 27 8 39q0 26 -23 26q-25 0 -59 -24l-40 -143q-5 -17 -27 -105l-89 -4l-10 17q19 53 31 94l48 169l-53 10v19l125 32l20 -9l-2 -47q51 56 100 56q55 0 72 -56q52 56 103 56q37 0 56.5 -20.5t19.5 -55.5q0 -24 -12 -59l-36 -99q-13 -35 -13 -53 q0 -23 30 -23h28v-21q-44 -15 -88 -15q-64 0 -64 53q0 28 13 63l36 100q8 21 8 36q0 29 -25 29q-21 0 -54 -23q-1 -18 -11 -51l-29 -93q-17 -54 -29 -105l-89 -4l-8 17q5 16 12.5 37.5t12.5 35.5t6 20z" />
<glyph horiz-adv-x="379" d="M155 -37l33 100q8 23 8 39q0 26 -23 26q-22 0 -58 -24l-44 -143q-17 -54 -29 -105l-89 -4l-9 17q20 56 31 93l53 171l-55 9v19l126 32l20 -9l-2 -50q53 59 102 59q36 0 55 -20.5t19 -55.5q0 -25 -11 -59l-33 -97q-14 -40 -14 -55q0 -23 32 -23h25v-21q-31 -15 -75 -15 q-35 0 -54.5 16t-19.5 41q0 21 12 59z" />
<glyph horiz-adv-x="379" d="M194 61q0 100 -49 100q-21 0 -38 -18q-45 -48 -45 -165q0 -99 50 -99q21 0 36 15q46 44 46 167zM-40 3q0 98 82 157q46 33 105 33q65 0 107 -44t42 -111q0 -102 -82 -158q-46 -33 -106 -33q-66 0 -107 44.5t-41 111.5z" />
<glyph horiz-adv-x="381" d="M201 64q0 34 -10 52t-26 18q-23 0 -61 -35l-52 -180l25 -39q3 -1 10 -1q47 0 80.5 54t33.5 131zM-74 -194l97 327l-55 9v19l125 32l20 -9l-5 -46q50 55 94 55q39 0 66 -32.5t27 -93.5q0 -104 -87 -178q-51 -42 -123 -42q-28 0 -50 7l-15 -50q-19 -68 -21 -77l61 -8 l-2 -22l-104 1l-84 -1l2 22l29 7z" />
<glyph horiz-adv-x="369" d="M198 109l-25 51q-4 1 -9 1q-45 0 -82.5 -56t-37.5 -134q0 -65 35 -65q26 0 67 36zM310 181l-109 -378q-13 -48 -19 -77l28 -7l-2 -22l-96 1l-92 -1l4 22l60 8q15 51 23 77l31 98q-52 -55 -91 -55q-41 0 -66.5 29t-25.5 86q0 107 80 179q58 52 133 52q46 0 83 -26l33 26z " />
<glyph horiz-adv-x="280" d="M115 184l-9 -63q16 26 35 47q23 25 53 25q22 0 36.5 -13.5t14.5 -35.5t-14.5 -35t-38.5 -15q-13 20 -32 20q-27 0 -59 -33l-34 -120q-18 -62 -29 -105l-90 -4l-9 17q22 55 33 94l35 117l13 53l-52 9v19l127 32z" />
<glyph horiz-adv-x="262" d="M162 -50q0 -47 -36 -75t-92 -28q-48 0 -73 17q-25 18 -25 44q0 17 11.5 29.5t30.5 12.5q20 0 36 -14q0 -50 37 -50q34 0 34 33q0 19 -11.5 34.5t-44.5 47.5q-45 44 -45 88q0 47 35 75.5t86 28.5q42 0 66.5 -15.5t24.5 -41.5q0 -18 -12 -28.5t-30 -10.5q-20 0 -35 13 q-3 48 -32 48q-12 0 -20.5 -9t-8.5 -23q0 -16 10 -30.5t39 -40.5q55 -49 55 -105z" />
<glyph horiz-adv-x="253" d="M164 -37l21 -23q-79 -93 -159 -93q-34 0 -53 16.5t-19 45.5q0 26 13 72l45 159h-41l8 36l44 9l16 70l90 34l23 -9l-31 -95h87l-11 -45h-89l-52 -186q-7 -25 -7 -34q0 -15 15 -15q18 0 38.5 12t61.5 46z" />
<glyph horiz-adv-x="374" d="M275 77l-38 -115q-13 -39 -13 -55q0 -20 23 -20q7 0 21 3l17 4l4 -24q-44 -23 -88 -23q-28 0 -46.5 15t-21.5 41q-51 -56 -100 -56q-36 0 -54.5 20.5t-18.5 55.5q0 28 12 64l53 153q-10 1 -29.5 4t-26.5 4v24l148 21l19 -12q-14 -33 -43 -118l-31 -87q-9 -26 -9 -38 q0 -25 26 -25q22 0 53 21l48 145q12 35 30 105l89 4l10 -17q-21 -53 -34 -94z" />
<glyph horiz-adv-x="359" d="M149 108l-18 18q30 67 78 67q35 0 57.5 -25.5t22.5 -71.5q0 -71 -50 -147q-36 -57 -72.5 -79.5t-83.5 -22.5t-74.5 23.5t-27.5 57.5q0 41 39 91l14 18q19 24 19 47q0 15 -7.5 24t-19.5 9q-25 0 -57 -46l-25 14l12 32q28 76 88 76q29 0 47.5 -20t18.5 -56q0 -31 -28 -82 l-6 -11q-13 -25 -13 -46t16 -35.5t43 -14.5q51 0 81 46q22 35 22 75q0 73 -40 73q-13 0 -36 -14z" />
<glyph horiz-adv-x="468" d="M263 193q44 0 73 -42.5t29 -125.5q0 -84 -29 -131t-79 -47q-30 0 -53 20.5t-32 56.5q-46 -77 -105 -77q-41 0 -64 20t-23 54q0 41 50 102l14 17q16 20 16 44q0 33 -29 33q-25 0 -58 -41l-22 17l10 23q34 77 89 77q33 0 53.5 -21t20.5 -54q0 -35 -35 -80l-11 -14 q-20 -27 -20 -53q0 -18 11.5 -29.5t32.5 -11.5q29 0 59 29q-7 24 -7 47q0 30 13 46.5t29 16.5t25.5 -11.5t9.5 -30.5q0 -39 -30 -76q24 -21 55 -21q28 0 46.5 25.5t18.5 67.5q0 44 -21 69t-51 25q-25 0 -48 -16l-18 17l6 14q26 61 74 61z" />
<glyph horiz-adv-x="391" d="M169 91l2 -11l51 76q25 37 60 37q21 0 35 -13.5t14 -34.5q0 -47 -45 -47h-10q-3 17 -18 17q-12 0 -31 -22l-50 -57l17 -107q3 -21 18 -21q11 0 20 11.5t27 52.5l29 -10l-7 -24q-14 -47 -35.5 -69t-61.5 -22q-65 0 -81 81l-7 36l-51 -81q-22 -36 -64 -36q-20 0 -34.5 12.5 t-14.5 33.5q0 43 46 51q12 -17 31 -17q15 0 34 22l48 58l-16 104q-3 22 -17 22q-23 0 -36 -61l-33 5l5 24q20 92 87 92q37 0 57.5 -24.5t30.5 -77.5z" />
<glyph horiz-adv-x="351" d="M59 193q63 0 67 -69l11 -185l52 86q25 41 25 75q0 27 -21 39q0 21 14 37.5t37 16.5q22 0 35 -14.5t13 -36.5q0 -26 -21 -57l-155 -244q-91 -144 -198 -144q-46 0 -69.5 18t-23.5 46q0 22 15 36.5t36 14.5q23 0 41 -15q5 -49 41 -49q42 0 94 66l-18 301q0 14 -11 14 q-15 0 -61 -55l-22 18l25 37q43 64 94 64z" />
<glyph horiz-adv-x="325" d="M-9 80l-26 14l37 91l61 -1h124l65 1l4 -19l-213 -209q16 4 28 4q37 0 66 -34l20 -23q16 -20 33 -20q16 0 30 16l11 12l22 -20q-24 -39 -46 -56t-54 -17q-46 0 -75 37l-34 43q-13 16 -26 16q-6 0 -12 -5.5t-6 -16.5q0 -13 18 -26q-2 -14 -12.5 -23t-27.5 -9t-29.5 11 t-12.5 30q0 29 44 73l162 158h-101q-25 0 -50 -27z" />
</font>
</defs>
</svg>
